# File generated by ImageToStl.com - Free Image and 3D model conversion tools

o obj1
v 0.05065754 -0.21500003 0.14699997
v 0.04999998 -0.21500003 0.14858747
v 0.00112252 -0.21500002 0.09746492
v -1E-08 -0.21500002 0.09858745
v 0.04999998 -0.15500003 0.14858748
v 0.05065754 -0.15500003 0.14699998
v -1E-08 -0.15500002 0.09858747
v 0.00112252 -0.15500002 0.09746493
v 0.21016248 -0.21500002 0.14699998
v 0.21174999 -0.21500002 0.14858748
v 0.22942765 -0.15500002 0.13090983
v 0.22830512 -0.15500002 0.1297873
v 0.21174999 -0.15500002 0.1485875
v 0.21109241 -0.15500002 0.147
v 0.22830512 -0.19402252 0.12978728
v 0.22942765 -0.19402252 0.13090982
v 0.21109241 -0.21444826 0.14699998
v 0.21174996 0.21499999 0.14858751
v 0.21016245 0.21499999 0.14700001
v 0.04999995 0.21499997 0.1485875
v 0.05065751 0.21499997 0.147
v -4E-08 0.21499999 0.09858748
v 0.00112249 0.21499999 0.09746495
v 0.22830509 0.15499999 0.1297873
v 0.22942762 0.15499999 0.13090983
v 0.21109238 0.15499999 0.147
v 0.21174996 0.15499999 0.1485875
v 0.05065753 0.15499997 0.14699998
v 0.04999995 0.15499997 0.14858748
v 0.00112249 0.15499999 0.09746493
v -4E-08 0.15499999 0.09858747
v 0.22942762 0.19402249 0.13090985
v 0.22830509 0.19402249 0.12978731
v 0.21109238 0.21444823 0.14700001
v 0.28155491 -0.04000001 0.0766634
v 0.28235078 -0.04000001 0.07523891
v 0.28273863 -0.04000001 0.07560556
v 0.28171536 -0.04000001 0.07687662
v 0.28305954 -0.04000001 0.07603202
v 0.28305954 0.03999999 0.07603202
v 0.28273863 0.03999999 0.07560556
v 0.28155491 0.03999999 0.0766634
v 0.28136098 0.03999999 0.07648006
v 0.28235078 0.03999999 0.07523891
v 0.28136098 -0.04000001 0.07648006
v 0.28190702 -0.04000001 0.07494239
v 0.28113911 0.03999999 0.0763318
v 0.28190702 0.03999999 0.07494239
v 0.28183785 -0.04000001 0.07711371
v 0.28330451 -0.04000001 0.0765062
v 0.28330451 0.03999999 0.0765062
v 0.28171536 0.03999999 0.07687662
v 0.28113911 -0.04000001 0.0763318
v 0.28141981 -0.04000001 0.07472439
v 0.28089553 0.03999999 0.07622281
v 0.28141981 0.03999999 0.07472439
v 0.28191888 -0.04000001 0.07736796
v 0.28346661 -0.04000001 0.07701471
v 0.28346661 0.03999999 0.07701471
v 0.28183785 0.03999999 0.07711371
v 0.28089553 -0.04000001 0.07622281
v 0.28090304 -0.04000001 0.07459108
v 0.28063712 0.03999999 0.07615615
v 0.28090304 0.03999999 0.07459108
v 0.2819562 -0.04000001 0.07763221
v 0.2835412 -0.04000001 0.07754319
v 0.2835412 0.03999999 0.07754319
v 0.28191888 0.03999999 0.07736796
v 0.28063712 -0.04000001 0.07615615
v 0.28037119 -0.04000001 0.07454622
v 0.28037119 0.03999999 0.07613372
v 0.28037119 0.03999999 0.07454622
v 0.28194872 -0.04000001 0.07789896
v 0.28352624 -0.04000001 0.07807671
v 0.28352624 0.03999999 0.07807671
v 0.2819562 0.03999999 0.07763221
v 0.28037119 -0.04000001 0.07613372
v 0.21617252 -0.04000001 0.07454621
v 0.25538632 1.598E-05 0.07454621
v 0.21617252 0.03999999 0.07613371
v 0.21617252 0.03999999 0.07454621
v 0.28189665 -0.04000001 0.0781607
v 0.28342211 -0.04000001 0.07860018
v 0.28342211 0.03999999 0.07860018
v 0.28194872 0.03999999 0.07789896
v 0.28180149 -0.04000001 0.07841001
v 0.28323179 -0.04000001 0.0790988
v 0.28323179 0.03999999 0.0790988
v 0.28189665 0.03999999 0.0781607
v 0.21617252 -0.04000001 0.07613371
v 0.25538632 1.598E-05 0.07613372
v 0.28166589 -0.04000001 0.07863986
v 0.28296059 -0.04000001 0.0795585
v 0.28296059 0.03999999 0.0795585
v 0.28180149 0.03999999 0.07841001
v 0.28149372 -0.04000001 0.07884375
v 0.28261626 -0.04000001 0.07996628
v 0.28261626 0.03999999 0.07996628
v 0.28166589 0.03999999 0.07863986
v 0.28149372 0.03999999 0.07884375
v 0.27357414 -0.02330001 0.08676334
v 0.27640256 -0.02330001 0.08393492
v 0.27680776 -0.02324988 0.08352972
v 0.27720064 -0.023101 0.08313683
v 0.27756929 -0.02285789 0.08276819
v 0.27790248 -0.02252796 0.082435
v 0.27819008 -0.02212121 0.08214739
v 0.2784234 -0.02165001 0.08191409
v 0.2785953 -0.02112868 0.08174219
v 0.25043592 -0.04000001 0.10990155
v 0.27277607 -0.023101 0.08756143
v 0.27316895 -0.02324988 0.08716855
v 0.27870056 -0.02057305 0.08163692
v 0.278736 -0.02000001 0.08160146
v 0.25155845 -0.04000001 0.11102408
v 0.27870056 -0.01942697 0.08163692
v 0.2785953 -0.01887134 0.08174219
v 0.2784234 -0.01835001 0.08191409
v 0.27819008 -0.01787881 0.08214739
v 0.27790248 -0.01747206 0.082435
v 0.27756929 -0.01714213 0.08276819
v 0.27720064 -0.01689902 0.08313683
v 0.27680776 -0.01675014 0.08352972
v 0.27640256 -0.01670001 0.08393492
v 0.27357414 -0.01670001 0.08676334
v 0.25043592 0.03999999 0.10990155
v 0.25155845 0.03999999 0.11102408
v 0.27985856 -0.02000001 0.082724
v 0.27982309 -0.02057305 0.08275945
v 0.2797178 -0.02112868 0.08286472
v 0.2795459 -0.02165001 0.08303662
v 0.27931261 -0.02212121 0.08326992
v 0.27902502 -0.02252796 0.08355754
v 0.27869183 -0.02285789 0.08389073
v 0.27832317 -0.023101 0.08425936
v 0.27793029 -0.02324988 0.08465225
v 0.27429146 -0.02324988 0.08829108
v 0.2775251 -0.02330001 0.08505744
v 0.27469668 -0.02330001 0.08788588
v 0.27793029 -0.01675014 0.08465225
v 0.27832317 -0.01689902 0.08425936
v 0.27931261 -0.01787881 0.08326992
v 0.2795459 -0.01835001 0.08303662
v 0.2797178 -0.01887134 0.08286472
v 0.27982309 -0.01942697 0.08275945
v 0.27469668 -0.01670001 0.08788588
v 0.2775251 -0.01670001 0.08505744
v 0.27869183 -0.01714213 0.08389073
v 0.27902502 -0.01747206 0.08355754
v 0.27316895 -0.01675014 0.08716855
v 0.27429146 -0.01675014 0.08829108
v 0.27389857 -0.023101 0.08868396
v 0.27277607 -0.01689902 0.08756143
v 0.27389857 -0.01689902 0.08868396
v 0.27240741 -0.02285789 0.08793007
v 0.27352995 -0.02285789 0.0890526
v 0.27240741 -0.01714213 0.08793007
v 0.27352995 -0.01714213 0.0890526
v 0.27207422 -0.02252796 0.08826326
v 0.27319676 -0.02252796 0.0893858
v 0.27207422 -0.01747206 0.08826326
v 0.27319676 -0.01747206 0.0893858
v 0.27178663 -0.02212121 0.08855087
v 0.27290913 -0.02212121 0.08967341
v 0.27178663 -0.01787881 0.08855087
v 0.27290913 -0.01787881 0.08967341
v 0.27155331 -0.02165001 0.08878417
v 0.27267584 -0.02165001 0.08990671
v 0.27155331 -0.01835001 0.08878417
v 0.27267584 -0.01835001 0.08990671
v 0.27138141 -0.02112868 0.08895607
v 0.27250394 -0.02112868 0.09007861
v 0.27138141 -0.01887134 0.08895607
v 0.27250394 -0.01887134 0.09007861
v 0.21365696 0.12999998 0.14892559
v 0.22287513 0.01821393 0.1397074
v 0.22322862 0.01749999 0.13935392
v 0.27127615 -0.02057305 0.08906135
v 0.27239865 -0.02057305 0.09018388
v 0.27127615 -0.01942697 0.08906135
v 0.27239865 -0.01942697 0.09018388
v 0.27124068 -0.02000001 0.0890968
v 0.27236322 -0.02000001 0.09021933
v 0.21299751 -0.04000001 0.07295871
v 0.21299751 -0.04000001 0.06184621
v 0.21458502 -0.04000001 0.06184621
v 0.21458502 -0.04000001 0.07295871
v 0.21458502 0.03999999 0.07295871
v 0.21458502 0.03999999 0.06184621
v 0.21299751 0.03999999 0.06184621
v 0.21299751 0.03999999 0.07295871
v 0.21460456 -0.04000001 0.07320705
v 0.2130366 -0.04000001 0.07345539
v 0.21460456 0.03999999 0.07320705
v 0.21592417 -0.04000001 0.07452667
v 0.21592417 0.03999999 0.07452667
v 0.21567583 0.03999999 0.07609463
v 0.21466272 -0.04000001 0.07344927
v 0.21315292 -0.04000001 0.07393984
v 0.2130366 0.03999999 0.07345539
v 0.21466272 0.03999999 0.07344927
v 0.21567583 -0.04000001 0.07609463
v 0.21568196 -0.04000001 0.07446851
v 0.21568196 0.03999999 0.07446851
v 0.21519139 0.03999999 0.07597832
v 0.21475804 -0.04000001 0.07367942
v 0.21334358 -0.04000001 0.07440013
v 0.21315292 0.03999999 0.07393984
v 0.21475804 0.03999999 0.07367942
v 0.21519139 -0.04000001 0.07597832
v 0.21545181 -0.04000001 0.07437319
v 0.21545181 0.03999999 0.07437319
v 0.2147311 0.03999999 0.07578766
v 0.2148882 -0.04000001 0.07389182
v 0.21360388 -0.04000001 0.07482493
v 0.21334358 0.03999999 0.07440013
v 0.2148882 0.03999999 0.07389182
v 0.2147311 -0.04000001 0.07578766
v 0.21523941 -0.04000001 0.07424302
v 0.21523941 0.03999999 0.07424302
v 0.21430629 0.03999999 0.07552734
v 0.21504998 -0.04000001 0.07408124
v 0.21392745 -0.04000001 0.07520378
v 0.21360388 0.03999999 0.07482493
v 0.21504998 0.03999999 0.07408124
v 0.21430629 -0.04000001 0.07552734
v 0.21392745 0.03999999 0.07520378
v 0.23154543 -0.19150941 0.12879205
v 0.21253443 -0.13079381 0.14780305
v 0.21253443 -0.13000001 0.14780305
v 0.22131683 -0.01883023 0.13902065
v 0.22175261 -0.01821395 0.13858487
v 0.22210608 -0.01750001 0.13823138
v 0.22025345 -0.01969847 0.14008403
v 0.22081199 -0.01933014 0.13952549
v 0.23266795 -0.19150941 0.12991458
v 0.22236654 -0.01671011 0.13797094
v 0.22252604 -0.01586825 0.13781142
v 0.22257976 -0.01500001 0.13775772
v 0.22257976 0.01499999 0.13775772
v 0.21942565 0.18265079 0.14091182
v 0.21970493 0.18283488 0.14063254
v 0.21995734 0.18308489 0.14038013
v 0.23154543 0.19150938 0.12879205
v 0.21912801 0.18253799 0.14120947
v 0.22082746 -0.18283491 0.14175509
v 0.22107987 -0.18308492 0.14150266
v 0.22364858 0.01586823 0.13893396
v 0.2237023 0.01499999 0.13888024
v 0.2237023 -0.01500001 0.13888024
v 0.22025055 -0.18253802 0.14233199
v 0.22054818 -0.18265082 0.14203435
v 0.22348908 0.01671009 0.13909346
v 0.23266795 0.19150938 0.12991458
v 0.21365696 0.13079378 0.14892559
v 0.21291161 -0.21362151 0.14742586
v 0.21942565 -0.18734922 0.14091182
v 0.21970493 -0.18716511 0.14063254
v 0.21995734 -0.18691511 0.14038013
v 0.22017524 -0.18660702 0.14016224
v 0.22035198 -0.18625002 0.1399855
v 0.2204822 -0.18585502 0.13985528
v 0.22056195 -0.18543412 0.13977553
v 0.2205888 -0.18500002 0.13974866
v 0.22056195 -0.18456592 0.13977553
v 0.2204822 -0.18414491 0.13985528
v 0.22035198 -0.18375002 0.1399855
v 0.21403414 -0.21362151 0.14854841
v 0.22035198 0.18374999 0.1399855
v 0.2204822 0.18414488 0.13985528
v 0.22017524 0.18339299 0.14016224
v 0.22056195 0.18456589 0.13977553
v 0.2205888 0.18499999 0.13974866
v 0.22056195 0.18543409 0.13977553
v 0.2204822 0.18585499 0.13985528
v 0.22035198 0.18624999 0.1399855
v 0.22017524 0.18660699 0.14016224
v 0.21995734 0.18691508 0.14038013
v 0.21970493 0.18716508 0.14063254
v 0.21291161 0.21362148 0.14742586
v 0.22082746 -0.18716511 0.14175509
v 0.22129777 -0.18339302 0.14128478
v 0.22147451 -0.18375002 0.14110804
v 0.22160473 -0.18414491 0.1409778
v 0.22168449 -0.18456592 0.14089805
v 0.22171134 -0.18500002 0.1408712
v 0.22168449 -0.18543412 0.14089805
v 0.22160473 -0.18585502 0.1409778
v 0.22147451 -0.18625002 0.14110804
v 0.22129777 -0.18660702 0.14128478
v 0.22107987 -0.18691511 0.14150266
v 0.21403414 0.21362148 0.14854841
v 0.22054818 0.18734919 0.14203435
v 0.22082746 0.18716508 0.14175509
v 0.22107987 0.18691508 0.14150266
v 0.22129777 0.18660699 0.14128478
v 0.22147451 0.18624999 0.14110804
v 0.22160473 0.18585499 0.1409778
v 0.22168449 0.18543409 0.14089805
v 0.22171134 0.18499999 0.1408712
v 0.22168449 0.18456589 0.14089805
v 0.22160473 0.18414488 0.1409778
v 0.22147451 0.18374999 0.14110804
v 0.22364858 -0.01586825 0.13893396
v 0.21882105 0.18249999 0.14151643
v 0.22252604 0.01586823 0.13781142
v 0.21994358 -0.18250002 0.14263897
v 0.22348908 -0.01671011 0.13909346
v 0.22236654 0.01671009 0.13797094
v 0.21253443 0.12999998 0.14780305
v 0.21851407 0.18253799 0.14182341
v 0.21365696 -0.13000001 0.14892559
v 0.2196366 -0.18253802 0.14294593
v 0.22322862 -0.01750001 0.13935392
v 0.22210608 0.01749999 0.13823138
v 0.22287513 -0.01821395 0.1397074
v 0.22175261 0.01821393 0.13858487
v 0.22243936 -0.01883023 0.14014319
v 0.22131683 0.01883021 0.13902065
v 0.22243936 0.01883021 0.14014319
v 0.22193453 -0.01933014 0.14064801
v 0.22081199 0.01933012 0.13952549
v 0.22193453 0.01933012 0.14064801
v 0.22137599 -0.01969847 0.14120655
v 0.22025345 0.01969845 0.14008403
v 0.22137599 0.01969845 0.14120655
v 0.22017524 -0.18339302 0.14016224
v 0.22129777 0.18339299 0.14128478
v 0.21965817 -0.01992405 0.1406793
v 0.2207807 -0.01992405 0.14180185
v 0.21965817 0.01992403 0.1406793
v 0.2207807 0.01992403 0.14180185
v 0.21995734 -0.18308492 0.14038013
v 0.22107987 0.18308489 0.14150266
v 0.21970493 -0.18283491 0.14063254
v 0.22082746 0.18283488 0.14175509
v 0.22054818 -0.18734922 0.14203435
v 0.21942565 -0.18265082 0.14091182
v 0.22054818 0.18265079 0.14203435
v 0.21942565 0.18734919 0.14091182
v 0.21904422 -0.02000001 0.14129324
v 0.22016676 -0.02000001 0.14241578
v 0.21904422 0.01999999 0.14129324
v 0.22016676 0.01999999 0.14241578
v 0.21912801 -0.18746202 0.14120947
v 0.22025055 -0.18746202 0.14233199
v 0.21912801 -0.18253802 0.14120947
v 0.22025055 0.18253799 0.14233199
v 0.21912801 0.18746199 0.14120947
v 0.22025055 0.18746199 0.14233199
v 0.21882105 -0.18750001 0.14151643
v 0.21994358 -0.18750001 0.14263897
v 0.21882105 -0.18250002 0.14151643
v 0.21994358 0.18249999 0.14263897
v 0.21882105 0.18749999 0.14151643
v 0.21994358 0.18749999 0.14263897
v 0.21197316 -0.02000001 0.14836431
v 0.21197316 0.01999999 0.14836431
v 0.21197316 0.12999998 0.14836431
v 0.21309569 0.01999999 0.14948684
v 0.21309569 -0.02000001 0.14948684
v 0.21309569 -0.13000001 0.14948684
v 0.21851407 -0.18746202 0.14182341
v 0.2196366 -0.18746202 0.14294593
v 0.21851407 -0.18253802 0.14182341
v 0.21174997 -0.13079381 0.1485875
v 0.2196366 0.18253799 0.14294593
v 0.21851407 0.18746199 0.14182341
v 0.21287251 0.13079378 0.14971003
v 0.2196366 0.18746199 0.14294593
v 0.21821643 -0.18734922 0.14212105
v 0.21933897 -0.18734922 0.14324358
v 0.21821643 -0.18265082 0.14212105
v 0.21253443 0.13079378 0.14780305
v 0.21821643 0.18265079 0.14212105
v 0.21933897 0.18265079 0.14324358
v 0.21281064 0.21372148 0.14752683
v 0.21821643 0.18734919 0.14212105
v 0.21393317 -0.21372151 0.14864938
v 0.21933897 -0.18265082 0.14324358
v 0.21933897 0.18734919 0.14324358
v 0.21281064 -0.21372151 0.14752683
v 0.21269892 -0.21379521 0.14763853
v 0.21257988 -0.21384032 0.14775759
v 0.21245708 -0.21385552 0.14788039
v 0.21233429 -0.21384032 0.14800318
v 0.21200256 -0.21362151 0.14833491
v 0.2119154 -0.21349831 0.14842206
v 0.21184471 -0.21335551 0.14849275
v 0.21179262 -0.21319751 0.14854485
v 0.21174997 -0.21285552 0.1485875
v 0.21793716 -0.18716511 0.14240031
v 0.21176071 -0.21302912 0.14857675
v 0.21221524 -0.21379521 0.14812222
v 0.21210353 -0.21372151 0.14823394
v 0.21905969 -0.18716511 0.14352284
v 0.21793716 -0.18283491 0.14240031
v 0.21793716 0.18283488 0.14240031
v 0.21905969 0.18283488 0.14352284
v 0.21793716 0.18716508 0.14240031
v 0.21174997 0.21285549 0.1485875
v 0.21245708 0.21385549 0.14788039
v 0.21257988 0.21384029 0.14775759
v 0.21176071 0.21302909 0.14857675
v 0.21179262 0.21319748 0.14854485
v 0.21184471 0.21335548 0.14849275
v 0.2119154 0.21349828 0.14842206
v 0.21200256 0.21362148 0.14833491
v 0.21210353 0.21372148 0.14823394
v 0.21269892 0.21379519 0.14763853
v 0.21221524 0.21379519 0.14812222
v 0.21233429 0.21384029 0.14800318
v 0.21287251 -0.21285552 0.14971003
v 0.21357961 -0.21385552 0.14900292
v 0.2137024 -0.21384032 0.14888014
v 0.21288325 -0.21302912 0.1496993
v 0.21291515 -0.21319751 0.14966738
v 0.21296723 -0.21335551 0.14961529
v 0.21303794 -0.21349831 0.14954461
v 0.21312509 -0.21362151 0.14945744
v 0.21322605 -0.21372151 0.14935647
v 0.21382146 -0.21379521 0.14876108
v 0.21333776 -0.21379521 0.14924477
v 0.21345682 -0.21384032 0.14912571
v 0.21905969 -0.18283491 0.14352284
v 0.21393317 0.21372148 0.14864938
v 0.21382146 0.21379519 0.14876108
v 0.2137024 0.21384029 0.14888014
v 0.21357961 0.21385549 0.14900292
v 0.21345682 0.21384029 0.14912571
v 0.21312509 0.21362148 0.14945744
v 0.21303794 0.21349828 0.14954461
v 0.21296723 0.21335548 0.14961529
v 0.21291515 0.21319748 0.14966738
v 0.21287251 0.21285549 0.14971003
v 0.21905969 0.18716508 0.14352284
v 0.21288325 0.21302909 0.1496993
v 0.21333776 0.21379519 0.14924477
v 0.21322605 0.21372148 0.14935647
v 0.21768475 -0.18691511 0.14265274
v 0.21880728 -0.18691511 0.14377527
v 0.21768475 -0.18308492 0.14265274
v 0.21768475 0.18308489 0.14265274
v 0.21880728 0.18308489 0.14377527
v 0.21768475 0.18691508 0.14265274
v 0.21880728 -0.18308492 0.14377527
v 0.21880728 0.18691508 0.14377527
v 0.21746686 -0.18660702 0.14287062
v 0.21858938 -0.18660702 0.14399315
v 0.21746686 -0.18339302 0.14287062
v 0.21746686 0.18339299 0.14287062
v 0.21858938 0.18339299 0.14399315
v 0.21746686 0.18660699 0.14287062
v 0.21858938 -0.18339302 0.14399315
v 0.21858938 0.18660699 0.14399315
v 0.21729012 -0.18625002 0.14304736
v 0.21841264 -0.18625002 0.1441699
v 0.21729012 -0.18375002 0.14304736
v 0.21729012 0.18374999 0.14304736
v 0.21841264 0.18374999 0.1441699
v 0.21729012 0.18624999 0.14304736
v 0.21841264 -0.18375002 0.1441699
v 0.21841264 0.18624999 0.1441699
v 0.21715988 -0.18585502 0.1431776
v 0.21828242 -0.18585502 0.14430012
v 0.21715988 -0.18414491 0.1431776
v 0.21715988 0.18414488 0.1431776
v 0.21828242 0.18414488 0.14430012
v 0.21715988 0.18585499 0.1431776
v 0.21828242 -0.18414491 0.14430012
v 0.21828242 0.18585499 0.14430012
v 0.21708013 -0.18543412 0.14325735
v 0.21820267 -0.18543412 0.14437987
v 0.21708013 -0.18456592 0.14325735
v 0.21708013 0.18456589 0.14325735
v 0.21820267 0.18456589 0.14437987
v 0.21708013 0.18543409 0.14325735
v 0.21820267 -0.18456592 0.14437987
v 0.21820267 0.18543409 0.14437987
v 0.21705328 -0.18500002 0.1432842
v 0.21817581 -0.18500002 0.14440674
v 0.21705328 0.18499999 0.1432842
v 0.21817581 0.18499999 0.14440674
v 0.21174997 0.13079378 0.1485875
v 0.21365696 -0.13079381 0.14892559
v 0.21197316 -0.13000001 0.14836431
v 0.21287251 -0.13079381 0.14971003
v 0.21309569 0.12999998 0.14948684
v 0.21173373 -0.13000001 0.14864466
v 0.21173373 -0.02000001 0.14864466
v 0.21301803 -0.02000001 0.14957778
v 0.21173373 0.01999999 0.14864466
v 0.21173373 0.12999998 0.14864466
v 0.21301803 0.12999998 0.14957778
v 0.21301803 -0.13000001 0.14957778
v 0.21301803 0.01999999 0.14957778
v 0.21295556 -0.13000001 0.14967972
v 0.21154109 -0.13000001 0.14895901
v 0.21295556 -0.02000001 0.14967972
v 0.21295556 0.01999999 0.14967972
v 0.21154109 0.01999999 0.14895901
v 0.21295556 0.12999998 0.14967972
v 0.2129098 -0.13000001 0.1497902
v 0.2114 -0.13000001 0.14929962
v 0.2129098 -0.02000001 0.1497902
v 0.21154109 -0.02000001 0.14895901
v 0.2129098 0.01999999 0.1497902
v 0.2114 0.01999999 0.14929962
v 0.2129098 0.12999998 0.1497902
v 0.21154109 0.12999998 0.14895901
v 0.21288188 -0.13000001 0.14990646
v 0.21131393 -0.13000001 0.14965811
v 0.21288188 -0.02000001 0.14990646
v 0.2114 -0.02000001 0.14929962
v 0.21288188 0.01999999 0.14990646
v 0.21131393 0.01999999 0.14965811
v 0.21288188 0.12999998 0.14990646
v 0.2114 0.12999998 0.14929962
v 0.21287251 -0.13000001 0.15002567
v 0.21128501 -0.13000001 0.15002565
v 0.21287251 -0.02000001 0.15002567
v 0.21131393 -0.02000001 0.14965811
v 0.21287251 0.01999999 0.15002567
v 0.21128501 0.01999999 0.15002565
v 0.21287251 0.12999998 0.15002567
v 0.21131393 0.12999998 0.14965811
v 0.21287251 -0.0724895 0.16406682
v 0.21287251 -0.13000001 0.17405246
v 0.21128501 -0.13000001 0.17405246
v 0.21287251 -0.02000001 0.17405246
v 0.21128501 -0.02000001 0.15002565
v 0.21128501 -0.02000001 0.17405246
v 0.21287251 0.07161589 0.16405582
v 0.21287251 0.01999999 0.17405246
v 0.21287251 0.12999998 0.17405246
v 0.21128501 0.12999998 0.15002565
v 0.21128501 -0.0724895 0.16406682
v 0.21128501 0.01999999 0.17405246
v 0.21128501 0.07161589 0.16405582
v 0.21128501 0.12999998 0.17405246
vn -0 -1 0
vn -0 -1 0
vn 0 1 0
vn 0 1 0
vn 0.70711 0 -0.70711
vn 0.70711 0 -0.70711
vn -0.70711 -0 0.70711
vn -0.70711 -0 0.70711
vn -0.70711 0 -0.70711
vn -0.7071 0 -0.70711
vn 0 -1 0
vn 0 -1 0
vn 0 1 1E-05
vn 0 1 0
vn -0 1 0
vn -0 1 0
vn -0 -0 1
vn -0 -0 1
vn 0.70711 0 -0.7071
vn 0.7071 0 -0.70711
vn -0.70711 0 -0.70711
vn -0.70711 0 -0.70711
vn 0 0 -1
vn -0 0 -1
vn 0 0 -1
vn 0.45452 -0.76605 -0.45452
vn 0.45454 -0.76603 -0.45452
vn 0.45452 -0.76604 -0.45453
vn -0 1 0
vn -0 1 0
vn 0 1 0
vn 0 -1 0
vn 0 -1 1E-05
vn 0 -1 0
vn 0 -1 0
vn -0 -1 1E-05
vn -0 -1 -1E-05
vn 0.70711 0 -0.70711
vn 0.70711 0 -0.70711
vn -0.70711 -0 0.70711
vn -0.70711 -0 0.70711
vn -0 -0 1
vn 0 -0 1
vn 0.7071 0 -0.70711
vn 0.70711 0 -0.7071
vn -0.70711 0 -0.70711
vn -0.70711 0 -0.70711
vn 0 0 -1
vn 0 0 -1
vn 0.45452 0.76604 -0.45452
vn -0.7071 0 -0.70711
vn 0.70711 -0 0.70711
vn 0.70711 -0 0.70711
vn 0.45452 0.76604 -0.45452
vn 0.45451 0.76605 -0.45451
vn 0.70711 -0 0.70711
vn 0.70711 -0 0.70711
vn 0 -1 0
vn 0 -1 -2E-05
vn 0 -1 0
vn 0.79903 0 -0.60128
vn 0.68698 0 -0.72668
vn 0 1 0
vn 0 1 0
vn 0.68698 0 -0.72668
vn 0.55557 0 -0.83147
vn 0.55559 0 -0.83146
vn 0.88844 0 -0.45899
vn 0.88844 0 -0.459
vn 0 1 -0
vn 0 1 -2E-05
vn 0.40841 0 -0.9128
vn 0.40844 0 -0.91278
vn 0.95276 0 -0.30371
vn 0.95277 0 -0.3037
vn 0 1 2E-05
vn 0.24978 0 -0.9683
vn 0 1 -1E-05
vn 0.2498 0 -0.9683
vn 0 -1 -1E-05
vn 0.99019 0 -0.13976
vn 0.99018 0 -0.13977
vn 0 1 -1E-05
vn 0.08406 0 -0.99646
vn 0.08404 0 -0.99646
vn 0.99961 0 0.02803
vn 0.99961 0 0.02803
vn 0 1 1E-05
vn 0 0 -1
vn 0 -0 -1
vn 0 0 -1
vn 0.98078 0 0.1951
vn 0.98078 0 0.1951
vn 0 1 -1E-05
vn -0.68698 0 0.72668
vn -0.79903 0 0.60128
vn -0.79902 0 0.60131
vn -0.687 0 0.72665
vn -0.5556 0 0.83145
vn -0.55557 0 0.83147
vn -0.88844 0 0.45899
vn 0.93426 0 0.35659
vn 0.93426 0 0.3566
vn 0 1 -1E-05
vn 0 1 2E-05
vn -0.40847 0 0.91277
vn -0.40843 0 0.91279
vn -0.95278 0 0.30365
vn -0.95278 0 0.30367
vn -0.24978 0 0.9683
vn -0.99018 0 0.13981
vn -0.99018 0 0.13982
vn -0.08402 0 0.99646
vn -0.08406 0 0.99646
vn -0.99961 0 -0.02803
vn -0.99961 0 -0.02803
vn 0 0 1
vn -0 -0 1
vn -0 0 1
vn 0.86129 0 0.50812
vn 0.86129 0 0.50812
vn 0 1 2E-05
vn -0.98078 0 -0.1951
vn -0.98078 0 -0.1951
vn -0.93426 0 -0.35659
vn -0.93426 0 -0.3566
vn 0.76405 0 0.64516
vn 0.76404 0 0.64517
vn 0 1 0
vn -0.86129 0 -0.50812
vn -0.86129 0 -0.50812
vn -0.76406 0 -0.64515
vn -0.76404 0 -0.64517
vn -0.70711 -1E-05 -0.70711
vn -0.70712 0 -0.70709
vn -0.70709 0 -0.70713
vn -0.70712 0 -0.7071
vn -0.70713 0 -0.70709
vn -0.70707 -1E-05 -0.70714
vn -0.70711 0 -0.7071
vn -0.70711 0 -0.70711
vn -0.70709 6E-05 -0.70713
vn -0.70712 0 -0.70709
vn -0.7071 0 -0.70712
vn -0.70717 0 -0.70704
vn -0.70711 0 -0.70711
vn -0.70731 0 -0.7069
vn -0.7071 0 -0.70711
vn -0.70712 0 -0.7071
vn -0.70707 1E-05 -0.70714
vn -0.70715 0 -0.70707
vn -0.70712 0 -0.7071
vn -0.7071 0 -0.70712
vn -0.7071 0 -0.70711
vn -0.70713 0 -0.70709
vn -0.70711 0 -0.70711
vn -0.70711 -0 -0.70711
vn 0 1 -0
vn 0 1 0
vn 0.70711 0 0.70711
vn 0.70708 -7E-05 0.70713
vn 0.70709 2E-05 0.70713
vn 0.70711 0 0.7071
vn 0.70711 0 0.70711
vn 0.70714 3E-05 0.70707
vn 0.7071 0 0.70711
vn 0.70709 -2E-05 0.70713
vn 0.70711 0 0.70711
vn 0.70711 0 0.70711
vn 0.70711 0 0.70711
vn 0.70711 1E-05 0.70711
vn 0.70707 0 0.70714
vn 0.70713 0 0.70708
vn 0.70711 0 0.7071
vn 0.70709 0 0.70713
vn 0.70707 -1E-05 0.70715
vn 0.70705 4E-05 0.70716
vn 0.70711 0 0.70711
vn 0.70711 -0 0.70711
vn 0.7071 0 0.70712
vn 0.70708 1E-05 0.70713
vn 0.7071 0 0.70711
vn 0.70715 -1E-05 0.70707
vn -0.70442 0.08707 0.70443
vn -0.7044 0.08726 0.70442
vn -0.70441 -0.08716 0.70443
vn -0.70442 -0.0872 0.70441
vn -0.68302 0.25886 0.68299
vn -0.68301 0.25879 0.68302
vn -0.68301 -0.25884 0.68301
vn -0.68303 -0.2588 0.68301
vn -0.64085 0.42267 0.64083
vn -0.64086 0.42262 0.64085
vn -0.64087 -0.42259 0.64086
vn -0.64086 -0.42262 0.64085
vn -0.5792 0.57364 0.57919
vn -0.57924 0.57356 0.57923
vn -0.57921 -0.57364 0.57919
vn -0.57924 -0.57356 0.57924
vn -0.50001 0.7071 0.50001
vn -0.50001 0.70709 0.50001
vn -0.50002 -0.70709 0.50001
vn -0.49999 -0.70711 0.5
vn -0.40555 0.81918 0.40555
vn -0.4056 0.81914 0.4056
vn -0.40558 -0.81915 0.40558
vn -0.40556 -0.81917 0.40556
vn -0.29883 0.90631 0.29883
vn -0.29885 0.9063 0.29885
vn -0.29884 -0.9063 0.29884
vn -0.29885 -0.9063 0.29884
vn -0.18301 0.96593 0.18302
vn -0.18302 0.96592 0.18302
vn -0.18302 -0.96592 0.18302
vn -0.18301 -0.96593 0.18301
vn -0.06162 0.9962 0.06162
vn -0.06162 0.9962 0.06162
vn -0.06162 -0.9962 0.06162
vn -0.06163 -0.9962 0.06162
vn 0 1 -0
vn 0.06162 0.9962 -0.06162
vn 0.06162 0.9962 -0.06162
vn -0.70713 0 -0.70708
vn 0.06163 -0.9962 -0.06163
vn 0.06163 -0.9962 -0.06162
vn 0.70708 2E-05 0.70714
vn 0.18301 0.96593 -0.183
vn 0.18301 0.96593 -0.18301
vn -0.7071 3E-05 -0.70711
vn 0.18302 -0.96593 -0.18301
vn 0.183 -0.96593 -0.183
vn 0.7071 7E-05 0.70712
vn 0.70712 -2E-05 0.7071
vn -0.7071 0.0001 -0.70711
vn 0.29883 0.90631 -0.29883
vn 0.29889 0.90628 -0.29888
vn -0.7071 -5E-05 -0.70711
vn 0.29886 -0.90629 -0.29885
vn 0.29886 -0.90629 -0.29886
vn 0.70712 -6E-05 0.7071
vn 0.70711 3E-05 0.7071
vn -0.70711 -1E-05 -0.7071
vn 0.40558 0.81916 -0.40557
vn 0.40555 0.81918 -0.40555
vn -0.70711 0 -0.7071
vn 0.40556 -0.81917 -0.40556
vn 0.40556 -0.81917 -0.40556
vn 0.70712 5E-05 0.7071
vn 0.70712 -2E-05 0.70709
vn -0.7071 -5E-05 -0.70711
vn 0.50001 0.7071 -0.5
vn 0.50001 0.7071 -0.50001
vn -0.7071 3E-05 -0.70712
vn 0.50003 -0.70707 -0.50002
vn 0.5 -0.70712 -0.49999
vn 0.70709 5E-05 0.70712
vn 0.70708 -2E-05 0.70713
vn -0.70711 1E-05 -0.7071
vn 0.57924 0.57356 -0.57924
vn 0.57923 0.5736 -0.5792
vn -0.7071 0 -0.70711
vn 0.57924 -0.57358 -0.57921
vn 0.57923 -0.57356 -0.57924
vn 0.70712 0 0.7071
vn 0.70711 1E-05 0.7071
vn -0.70711 3E-05 -0.70711
vn 0.64086 0.42261 -0.64086
vn 0.64084 0.42267 -0.64084
vn -0.70712 -3E-05 -0.70709
vn 0.64085 -0.42264 -0.64085
vn 0.64086 -0.42261 -0.64086
vn 0.707 0 0.70721
vn 0.70711 0 0.70711
vn 0.7071 -6E-05 0.70711
vn 0.70711 0 0.70711
vn 0.70711 0 0.70711
vn -0.7071 0 -0.70711
vn 0.68302 0.2588 -0.68301
vn 0.68301 0.25885 -0.68301
vn -0.70711 0 -0.70711
vn -0.7071 0 -0.70711
vn 0.68301 -0.25884 -0.68301
vn 0.68302 -0.2588 -0.68301
vn 0.70711 0 0.70711
vn 0.70716 0 0.70706
vn 0.7071 2E-05 0.70711
vn -0.7071 -3E-05 -0.70711
vn 0.70441 0.0872 -0.70442
vn 0.70442 0.08714 -0.70441
vn -0.70711 6E-05 -0.70711
vn 0.70441 -0.08721 -0.70441
vn 0.70442 -0.08714 -0.70442
vn 0.7071 0 0.70712
vn 0.7071 -1E-05 0.70711
vn 0 0 -1
vn -0 0 1
vn 1 0 0
vn -1 0 0
vn 0.99692 0 -0.07842
vn 0 1 -3E-05
vn 0.99692 0 -0.07842
vn 0.07846 0 -0.99692
vn 0.07842 0 -0.99692
vn 0.97236 0 -0.23347
vn 0 1 2E-05
vn 0 1 -1E-05
vn 0.97236 0 -0.23348
vn 0.23348 0 -0.97236
vn 0 -1 2E-05
vn 0.92389 0 -0.38265
vn 0 1 -1E-05
vn 0 1 0
vn 0.92389 0 -0.38267
vn 0 -1 -0
vn 0.38265 0 -0.92389
vn 0 -1 -1E-05
vn 0.85264 0 -0.52251
vn 0.52251 0 -0.85263
vn 0.52251 0 -0.85263
vn 0 1 2E-05
vn 0 1 -0
vn 0.76042 0 -0.64943
vn 0 1 1E-05
vn 0 1 -1E-05
vn 0.7604 0 -0.64945
vn 0 -1 1E-05
vn 0.64945 0 -0.76041
vn 0.64945 0 -0.76041
vn 0 1 -2E-05
vn -0.70711 0 -0.70711
vn -0.70712 0 -0.70709
vn -0.7071 -2E-05 -0.70711
vn -0.70711 -2E-05 -0.70711
vn -0.70711 0 -0.70711
vn -0.70711 -0 -0.70711
vn -0.7071 0 -0.70711
vn -0.70712 3E-05 -0.7071
vn 0.69637 -0.17365 -0.69636
vn 0.69636 -0.17365 -0.69636
vn -0.70714 9E-05 -0.70707
vn -0.70705 -5E-05 -0.70717
vn -0.70712 3E-05 -0.70709
vn -0.70711 0 -0.70711
vn -0.70712 0 -0.7071
vn -0.70707 0 -0.70715
vn -0.70711 0 -0.70711
vn -0.70716 0 -0.70706
vn -0.70711 0 -0.70711
vn 0.69636 0.17365 -0.69636
vn 0.70713 0 0.70709
vn 0.70712 0 0.70709
vn 0.70711 0 0.70711
vn 0.70711 0 0.70711
vn 0.70711 0 0.70711
vn 0.70713 0 0.70709
vn 0.70709 0 0.70712
vn 0.7071 9E-05 0.70712
vn 0.70711 0 0.7071
vn 0.70711 0 0.70711
vn 0.70712 0 0.7071
vn 0.69637 0.17365 -0.69636
vn -0.99692 0 0.07845
vn -0.07844 0 0.99692
vn -0.07846 0 0.99692
vn -0.97236 0 0.23347
vn -0.97236 0 0.23347
vn -0.23348 0 0.97236
vn -0.23344 0 0.97237
vn -0.92388 0 0.38269
vn -0.92388 0 0.38268
vn -0.38269 0 0.92388
vn -0.38267 0 0.92389
vn -0.85265 0 0.52249
vn -0.85265 0 0.52247
vn -0.52248 0 0.85265
vn -0.52251 0 0.85263
vn -0.7604 0 0.64945
vn -0.76041 0 0.64944
vn -0.64945 0 0.76041
vn -0.64945 0 0.76041
vn -0.70708 0 -0.70714
vn -0.70711 0 -0.70711
vn -0.7071 7E-05 -0.70712
vn -0.7071 -6E-05 -0.70711
vn -0.70712 7E-05 -0.70709
vn -0.7071 -7E-05 -0.70712
vn -0.70708 0.0001 -0.70713
vn -0.70711 -0 -0.70711
vn 0.45452 -0.76605 -0.45451
vn 0.45453 -0.76604 -0.45452
vn -0.70713 -0.0001 -0.70708
vn -0.70706 0 -0.70715
vn -0.70711 0.00013 -0.70711
vn -0.7071 0 -0.70712
vn -0.7071 7E-05 -0.70712
vn -0.70712 -7E-05 -0.70709
vn -0.70707 0 -0.70714
vn -0.7071 6E-05 -0.70711
vn -0.70713 -7E-05 -0.70708
vn -0.70707 0 -0.70714
vn -0.70712 0 -0.7071
vn -0.70711 0 -0.70711
vn 0.45452 0.76604 -0.45452
vn 0.70706 0.00019 0.70715
vn 0.70714 -0.00013 0.70708
vn 0.70708 0 0.70713
vn 0.7071 -8E-05 0.70712
vn 0.70709 0 0.70712
vn 0.70712 0 0.70709
vn 0.70711 6E-05 0.70711
vn 0.7071 7E-05 0.70712
vn 0.70711 -7E-05 0.70711
vn 0.7071 8E-05 0.70712
vn 0.70711 -0 0.70711
vn 0.70708 0 0.70713
vn 0.70714 -8E-05 0.70708
vn 0.70707 7E-05 0.70714
vn 0.70713 -7E-05 0.70708
vn 0.70707 -6E-05 0.70714
vn 0.70711 8E-05 0.70711
vn 0.70713 0 0.70708
vn 0.70711 0 0.70711
vn 0.45453 0.76605 -0.4545
vn -0.70709 0 0.70712
vn -0.70711 0 0.7071
vn -0.70442 0.08717 0.70442
vn -0.70712 0 -0.70709
vn -0.70681 0 -0.70741
vn -0.70441 -0.08718 0.70442
vn 0.70749 0 0.70672
vn 0.70715 -0 0.70706
vn -0.70442 -0.08715 0.70442
vn -0.68301 0.25881 0.68302
vn -0.68301 0.25881 0.68301
vn -0.70728 0 -0.70693
vn -0.7071 0 -0.70712
vn -0.70711 0 -0.70711
vn -0.68301 -0.25882 0.68301
vn 0.70701 0 0.7072
vn 0.70711 0 0.70711
vn 0.70707 0 0.70714
vn -0.68301 -0.25881 0.68301
vn -0.64084 0.42266 0.64084
vn -0.64086 0.4226 0.64087
vn -0.70705 -2E-05 -0.70717
vn -0.64085 -0.42263 0.64086
vn 0.70705 -2E-05 0.70717
vn -0.64086 -0.42261 0.64086
vn -0.57923 0.57357 0.57923
vn -0.57924 0.57355 0.57924
vn -0.70714 0 -0.70707
vn -0.57923 -0.57357 0.57923
vn 0.70713 1E-05 0.70709
vn -0.57925 -0.57355 0.57923
vn -0.5 0.70711 0.49999
vn -0.49999 0.70711 0.5
vn -0.70708 1E-05 -0.70713
vn -0.49999 -0.70713 0.49999
vn 0.7071 -1E-05 0.70712
vn 0.7071 0 0.70712
vn -0.50001 -0.7071 0.5
vn -0.40557 0.81916 0.40557
vn -0.40558 0.81915 0.40559
vn -0.70711 0 -0.7071
vn -0.40558 -0.81915 0.40558
vn 0.70711 0 0.7071
vn 0.70713 -0 0.70709
vn -0.40557 -0.81915 0.40559
vn -0.29882 0.90632 0.29882
vn -0.29884 0.9063 0.29884
vn -0.70714 -0 -0.70707
vn -0.29883 -0.90631 0.29883
vn 0.70709 0 0.70712
vn 0.70711 -0 0.7071
vn -0.29884 -0.90631 0.29883
vn -0.70439 0.08717 0.70444
vn -0.70443 0.08717 0.7044
vn -0.70443 -0.08721 0.70439
vn -0.70441 0.08717 0.70442
vn -0.70441 -0.08721 0.70442
vn -0.7044 -0.08713 0.70444
vn -0.70442 -0.08713 0.70442
vn -0.683 0.25883 0.68302
vn -0.68301 0.25883 0.68301
vn -0.68299 -0.25877 0.68305
vn -0.68302 0.25877 0.68303
vn -0.683 0.25877 0.68304
vn -0.68301 -0.25885 0.68301
vn -0.68304 -0.25878 0.683
vn -0.68301 -0.25883 0.68301
vn -0.64087 0.42259 0.64086
vn -0.64087 0.42259 0.64087
vn -0.64086 -0.42268 0.64082
vn -0.64082 0.42267 0.64086
vn -0.64085 0.42269 0.64081
vn -0.64089 -0.42258 0.64085
vn -0.64082 -0.42267 0.64086
vn -0.64085 -0.42258 0.64089
vn -0.57925 0.57355 0.57923
vn -0.57924 0.57353 0.57925
vn -0.70706 3E-05 -0.70716
vn -0.57925 -0.57352 0.57927
vn -0.57926 -0.57353 0.57925
vn -0.57923 -0.57356 0.57924
vn 0.70706 3E-05 0.70716
vn -0.70711 -0 -0.70711
vn -0.18301 0.96593 0.18301
vn -0.18303 0.96592 0.18303
vn -0.70708 0 -0.70714
vn -0.18302 -0.96592 0.18302
vn 0.70712 0 0.70709
vn 0.70711 0 0.70711
vn -0.18302 -0.96592 0.18302
vn -0.49995 0.70715 0.49999
vn -0.49996 0.70716 0.49995
vn -0.70708 -2E-05 -0.70713
vn -0.49996 -0.70718 0.49993
vn -0.49994 -0.70716 0.49999
vn -0.49997 -0.70713 0.5
vn 0.70708 0 0.70713
vn -0.49999 -0.70716 0.49994
vn -0.4056 0.81915 0.40558
vn -0.40565 0.81908 0.40567
vn -0.70706 1E-05 -0.70716
vn -0.40567 -0.81907 0.40566
vn -0.40562 0.81913 0.40557
vn -0.40566 0.81905 0.4057
vn -0.40563 -0.81907 0.40569
vn -0.40562 -0.81909 0.40566
vn 0.70711 0 0.7071
vn -0.40563 -0.81916 0.40552
vn -0.29877 0.90637 0.29873
vn -0.29877 0.90635 0.29877
vn -0.70716 0 -0.70706
vn -0.29874 -0.90637 0.29876
vn -0.29874 0.90636 0.29877
vn -0.29875 0.90636 0.29877
vn -0.70709 0 -0.70712
vn -0.29876 -0.90636 0.29875
vn 0.70709 0 0.70712
vn -0.29875 -0.90637 0.29873
vn 0.70713 0 0.70709
vn -0.29877 -0.90637 0.29873
vn -0.7071 -0 -0.70711
vn -0.06163 0.99619 0.06163
vn -0.06162 0.9962 0.06162
vn -0.70709 0 -0.70712
vn -0.06163 -0.99619 0.06163
vn 0.70709 0 0.70712
vn 0.7071 -0 0.70712
vn -0.06163 -0.9962 0.06162
vn -0.70709 0 -0.70712
vn -0.18303 0.96592 0.183
vn -0.18303 0.96591 0.18309
vn -0.70712 -1E-05 -0.70709
vn -0.18303 -0.96592 0.18301
vn -0.18303 0.96592 0.18304
vn -0.18304 0.96592 0.183
vn -0.7071 0 -0.70712
vn -0.18303 -0.96592 0.18304
vn 0.70707 0 0.70714
vn -0.18305 -0.96592 0.18302
vn 0.70706 0 0.70715
vn 0.70707 -0 0.70715
vn -0.70712 0 -0.7071
vn -0.06166 0.99619 0.06167
vn -0.06165 0.99619 0.06167
vn -0.70709 0 -0.70712
vn -0.06165 -0.99619 0.06168
vn -0.06165 0.99619 0.06171
vn -0.06165 -0.99619 0.06163
vn 0.70715 -2E-05 0.70706
vn -0.06165 -0.9962 0.06159
vn 0.70713 0 0.70708
vn 0.70714 2E-05 0.70707
vn -0.06165 -0.99619 0.06167
vn -0.70711 0 -0.70711
vn 0 1 -0
vn -0.70711 0 -0.70711
vn -0.70709 -0 -0.70713
vn 0 -1 -0
vn 0 -1 0
vn 0.70711 0 0.70711
vn 0.70708 0 0.70713
vn 0.70711 0 0.70711
vn -0.70713 1E-05 -0.70709
vn 0.06165 0.99619 -0.06167
vn 0.06166 0.99619 -0.06164
vn -0.70713 -1E-05 -0.70709
vn -0.7071 0 -0.70712
vn 0.06166 -0.99619 -0.06168
vn 0.06166 0.99619 -0.06172
vn -0.70713 -2E-05 -0.70709
vn 0.70708 0 0.70714
vn 0.06165 -0.9962 -0.06159
vn 0.70709 0 0.70713
vn 0.7071 0 0.70712
vn 0.70709 -1E-05 0.70712
vn -0.70711 -1E-05 -0.7071
vn 0.18302 0.96591 -0.18307
vn 0.18304 0.96592 -0.183
vn -0.70711 1E-05 -0.7071
vn 0.18303 -0.96592 -0.18304
vn -0.70708 -2E-05 -0.70713
vn -0.70712 0 -0.70709
vn 0.18302 0.96593 -0.18299
vn 0.18303 0.96592 -0.18304
vn -0.70709 2E-05 -0.70713
vn 0.18303 -0.96592 -0.18305
vn 0.70715 0 0.70707
vn 0.70709 2E-05 0.70713
vn 0.70711 -1E-05 0.7071
vn 0.18303 -0.96593 -0.183
vn 0.70716 1E-05 0.70706
vn 0.7071 -1E-05 0.70711
vn -0.70707 0 -0.70715
vn -0.70714 0 -0.70708
vn -0.70716 0 -0.70705
vn -0.70708 0 -0.70713
vn -0.70713 0 -0.70708
vn -0.70714 6E-05 -0.70708
vn -0.70706 0 -0.70715
vn -0.70705 0 -0.70717
vn -0.70724 0 -0.70698
vn -0.70713 0 -0.70708
vn -0.70701 0 -0.7072
vn -0.70718 -5E-05 -0.70703
vn 0.29876 0.90636 -0.29877
vn 0.29874 0.90638 -0.29871
vn -0.70707 0 -0.70714
vn 0.29874 -0.90637 -0.29873
vn -0.7071 1E-05 -0.70712
vn 0.29874 0.90636 -0.29877
vn 0.29872 0.90639 -0.29871
vn -0.70708 0 -0.70714
vn -0.70719 0 -0.70702
vn -0.70714 0 -0.70707
vn -0.70711 -6E-05 -0.70711
vn -0.70716 0 -0.70705
vn -0.70716 5E-05 -0.70706
vn -0.70714 0 -0.70707
vn -0.70703 0 -0.70718
vn 0.29876 -0.90636 -0.29876
vn 0.70707 -2E-05 0.70715
vn 0.70708 0 0.70713
vn 0.70705 0.00012 0.70717
vn 0.70724 9E-05 0.70698
vn 0.70714 -7E-05 0.70707
vn 0.70696 0.00012 0.70726
vn 0.70724 -0.00011 0.70697
vn 0.70716 0 0.70706
vn 0.70711 0 0.70711
vn 0.70714 0 0.70708
vn 0.70703 0 0.70718
vn 0.70701 0 0.7072
vn 0.70713 0 0.70708
vn 0.70711 1E-05 0.70711
vn 0.29874 -0.90637 -0.29873
vn 0.70706 -1E-05 0.70715
vn 0.70707 0 0.70715
vn 0.70714 0 0.70707
vn 0.70727 0.00011 0.70695
vn 0.70696 -0.00012 0.70726
vn 0.70714 7E-05 0.70707
vn 0.70708 2E-05 0.70713
vn 0.70705 -0.00012 0.70717
vn 0.70719 -9E-05 0.70702
vn 0.70701 0 0.7072
vn 0.29877 -0.90637 -0.29873
vn -0.70713 -0 -0.70708
vn 0.40558 0.81913 -0.40561
vn 0.40565 0.81909 -0.40563
vn -0.70713 0 -0.70709
vn 0.40564 -0.81908 -0.40566
vn -0.70712 -0 -0.70709
vn 0.4056 0.81911 -0.40564
vn 0.40566 0.81909 -0.40563
vn -0.70712 0 -0.7071
vn 0.40564 -0.81913 -0.40556
vn 0.70713 0 0.70709
vn 0.70712 -0 0.7071
vn 0.40562 -0.81913 -0.40559
vn 0.70712 0 0.70709
vn 0.70711 -0 0.7071
vn 0.4056 -0.8191 -0.40566
vn -0.70713 1E-05 -0.70708
vn 0.49996 0.70716 -0.49995
vn 0.49995 0.70715 -0.49999
vn -0.70713 0 -0.70708
vn 0.49998 -0.70715 -0.49997
vn -0.70711 -1E-05 -0.70711
vn -0.70715 0 -0.70706
vn 0.49997 -0.70714 -0.49998
vn 0.70713 2E-05 0.70708
vn 0.70707 -1E-05 0.70714
vn 0.49995 -0.70715 -0.49999
vn 0.70714 1E-05 0.70708
vn 0.70713 -2E-05 0.70708
vn -0.70712 -1E-05 -0.7071
vn 0.57925 0.57355 -0.57923
vn -0.70709 0 -0.70712
vn 0.57925 -0.57354 -0.57923
vn -0.70709 -0 -0.70712
vn -0.70709 0 -0.70712
vn 0.57924 -0.57353 -0.57925
vn 0.70707 0 0.70714
vn 0.70709 -0 0.70712
vn 0.57925 -0.57355 -0.57923
vn 0.70706 0 0.70715
vn 0.70709 -0 0.70713
vn -0.70712 -0 -0.7071
vn 0.64087 0.42259 -0.64087
vn 0.6409 0.42252 -0.64088
vn -0.70709 0 -0.70712
vn 0.64082 -0.42268 -0.64086
vn -0.70712 -0 -0.7071
vn 0.64086 0.42269 -0.64081
vn 0.64086 0.42261 -0.64086
vn -0.70714 0 -0.70708
vn 0.64086 -0.4226 -0.64086
vn 0.70718 0 0.70703
vn 0.70711 -0 0.7071
vn 0.64088 -0.42262 -0.64083
vn 0.70716 0 0.70706
vn 0.70716 -1E-05 0.70705
vn 0.64091 -0.42253 -0.64086
vn -0.70707 -2E-05 -0.70715
vn 0.68301 0.25883 -0.68301
vn 0.683 0.25884 -0.68302
vn -0.7071 3E-05 -0.70711
vn 0.68305 -0.25879 -0.68299
vn -0.70707 1E-05 -0.70715
vn 0.683 0.25877 -0.68304
vn 0.68302 0.25877 -0.68303
vn -0.70709 4E-05 -0.70713
vn 0.683 -0.25884 -0.68301
vn 0.70709 0 0.70713
vn 0.70717 1E-05 0.70704
vn 0.683 -0.25877 -0.68305
vn 0.7071 1E-05 0.70712
vn 0.683 -0.25884 -0.68302
vn -0.70704 4E-05 -0.70717
vn 0.70443 0.08709 -0.70441
vn 0.70438 0.08717 -0.70445
vn -0.70721 -4E-05 -0.70701
vn 0.7044 -0.08718 -0.70443
vn -0.70735 4E-05 -0.70687
vn 0.7044 0.08717 -0.70443
vn -0.70613 -0.00016 -0.70808
vn -0.70711 -0 -0.7071
vn -0.70711 0 -0.70711
vn 0.70441 -0.08718 -0.70442
vn 0.70711 -0 0.70711
vn 0.70726 0 0.70696
vn 0.70677 -0.00034 0.70745
vn 0.70721 3E-05 0.70701
vn 0.70444 -0.08713 -0.7044
vn 0.70703 -4E-05 0.70718
vn 0.7071 3E-05 0.70711
vn 0.7044 -0.08713 -0.70444
vn -0.70711 0 -0.70711
vn 0.70711 0 0.70711
vn 0.40561 -0.81918 -0.40549
vn 0.40562 -0.81908 -0.40569
vn 0.40564 0.81915 -0.40553
vn 0.40561 0.81908 -0.4057
vn 0.29899 -0.9062 -0.29902
vn 0.29894 -0.90625 -0.29891
vn 0.29896 0.90622 -0.29899
vn 0.29896 0.9062 -0.29903
vn 0.18294 -0.96593 -0.18307
vn 0.18301 -0.96594 -0.18296
vn 0.18296 0.96594 -0.18299
vn 0.18298 0.96594 -0.18296
vn 0.06167 -0.9962 -0.06154
vn 0.06164 -0.99619 -0.06168
vn 0.06165 0.99619 -0.06162
vn 0.06166 0.99619 -0.06175
vn -0.70711 0 0.70711
vn -0.70712 0 0.7071
vn -0.70708 0 -0.70713
vn 0.7071 0 0.70711
vn 0 1 -1E-05
vn 0.70708 0 0.70713
vn -0.06166 -0.99619 0.06174
vn -0.06165 -0.99619 0.06167
vn -0.06166 0.99619 0.06174
vn -0.06165 0.99619 0.06161
vn -0.18298 -0.96597 0.1828
vn -0.18299 -0.96591 0.1831
vn -0.183 0.96595 0.18292
vn -0.18299 0.96594 0.18296
vn -0.29899 -0.90623 0.29892
vn -0.29891 -0.90626 0.29891
vn -0.29894 0.90626 0.29886
vn -0.29894 0.90624 0.29894
vn -0.40564 -0.81905 0.40574
vn -0.40565 -0.81913 0.40556
vn -0.40557 0.81911 0.40567
vn -0.40569 0.81906 0.40566
vn -0.49985 -0.7073 0.49987
vn -0.49991 -0.70726 0.49987
vn -0.49986 0.7073 0.49986
vn -0.49988 0.70729 0.49986
vn -0.76041 0 -0.64944
vn 0 -1 1E-05
vn -0.76041 0 -0.64944
vn 0 1 -1E-05
vn 0 -1 -0
vn -0.76041 0 -0.64944
vn 0.76052 0 0.64932
vn 0.7604 0 0.64946
vn 0 -1 2E-05
vn 0 -1 0.00015
vn 0.7604 0 0.64946
vn -0.57932 -0.57347 0.57925
vn -0.57924 -0.5735 0.57929
vn -0.57929 0.57353 0.57921
vn -0.57927 0.57351 0.57925
vn 0.85265 0 0.52249
vn 0 -1 -5E-05
vn 0.85265 0 0.52249
vn 0 1 1E-05
vn 0.85265 0 0.52249
vn 0 1 1E-05
vn -0.64078 -0.4227 0.64088
vn -0.64091 -0.42253 0.64086
vn -0.64087 0.42256 0.64088
vn -0.64087 0.42256 0.64088
vn 0.92387 0 0.3827
vn 0 -1 -0.00015
vn 0.92387 0 0.3827
vn 0 1 -0
vn 0 -1 1E-05
vn 0.92387 0 0.3827
vn 0 1 -7E-05
vn -0.68304 -0.2587 0.68303
vn -0.683 -0.25891 0.68299
vn -0.68304 0.2587 0.68303
vn -0.683 0.25898 0.68296
vn -0.70439 -0.08721 0.70443
vn -0.70445 -0.08713 0.70439
vn -0.7044 0.08721 0.70443
vn -0.70446 0.08707 0.70438
vn -0.70711 0 0.70711
vn 0.97235 0 0.23354
vn 0.97235 0 0.23354
vn 0 1 -1E-05
vn 0.97235 0 0.23354
vn 0 1 5E-05
vn 0 1 -0.00013
vn -0.85263 0 -0.52252
vn -0.85265 0 -0.52248
vn -0.85263 0 -0.52252
vn 0.99692 0 0.07838
vn 0 -1 0.00015
vn 0.99692 0 0.07838
vn 0 1 -1E-05
vn 0 1 8E-05
vn -0.92387 0 -0.3827
vn -0.92389 0 -0.38266
vn -0.92389 0 -0.38266
vn -0.97237 0 -0.23346
vn -0.97237 0 -0.23344
vn -0.97237 0 -0.23346
vn -0.99692 0 -0.07846
vn -0.99692 0 -0.07845
vn -0.99692 0 -0.07846
vn -0.99692 0 -0.07845
vn -1 0 0
vn -1 -0 0
vn 0 0 1
f 1//1 2//1 3//1
f 3//2 2//2 4//2
f 5//3 6//3 7//3
f 8//4 7//4 6//4
f 1//5 3//5 6//5
f 6//6 3//6 8//6
f 4//7 2//7 7//7
f 7//8 2//8 5//8
f 4//9 7//9 8//9
f 8//10 3//10 4//10
f 9//11 10//11 1//11
f 1//12 10//12 2//12
f 11//13 12//13 13//13
f 13//14 12//14 14//14
f 13//15 14//15 5//15
f 5//16 14//16 6//16
f 2//17 10//17 5//17
f 5//18 10//18 13//18
f 12//19 11//19 15//19
f 15//20 11//20 16//20
f 12//21 15//21 14//21
f 14//22 15//22 17//22
f 1//23 6//23 9//23
f 9//24 6//24 14//24
f 9//25 14//25 17//25
f 17//26 15//26 16//26
f 17//27 10//27 9//27
f 17//28 16//28 10//28
f 18//29 19//29 20//29
f 20//30 19//30 21//30
f 20//31 21//31 22//31
f 23//4 22//4 21//4
f 24//32 25//32 26//32
f 26//33 25//33 27//33
f 26//34 27//34 28//34
f 28//35 27//35 29//35
f 28//36 29//36 30//36
f 30//37 29//37 31//37
f 23//38 21//38 30//38
f 30//39 21//39 28//39
f 20//40 22//40 29//40
f 29//41 22//41 31//41
f 18//42 20//42 27//42
f 27//43 20//43 29//43
f 25//44 24//44 32//44
f 32//45 24//45 33//45
f 33//46 24//46 34//46
f 34//47 24//47 26//47
f 34//25 26//25 19//25
f 19//48 26//48 28//48
f 19//49 28//49 21//49
f 19//50 18//50 34//50
f 31//9 22//9 23//9
f 23//51 30//51 31//51
f 10//52 16//52 11//52
f 11//53 13//53 10//53
f 18//54 32//54 33//54
f 33//55 34//55 18//55
f 32//56 18//56 27//56
f 27//57 25//57 32//57
f 35//58 36//58 37//58
f 38//59 35//59 37//59
f 39//60 38//60 37//60
f 40//61 39//61 37//61
f 41//61 40//61 37//61
f 36//62 41//62 37//62
f 42//63 40//63 41//63
f 43//64 42//64 41//64
f 44//14 43//14 41//14
f 36//65 44//65 41//65
f 45//32 46//32 36//32
f 35//32 45//32 36//32
f 46//66 44//66 36//66
f 47//64 43//64 44//64
f 48//14 47//14 44//14
f 46//67 48//67 44//67
f 49//32 38//32 39//32
f 50//60 49//60 39//60
f 51//68 50//68 39//68
f 40//69 51//69 39//69
f 52//70 51//70 40//70
f 42//71 52//71 40//71
f 53//32 54//32 46//32
f 45//32 53//32 46//32
f 54//72 48//72 46//72
f 55//64 47//64 48//64
f 56//14 55//14 48//14
f 54//73 56//73 48//73
f 57//32 49//32 50//32
f 58//32 57//32 50//32
f 59//74 58//74 50//74
f 51//75 59//75 50//75
f 60//14 59//14 51//14
f 52//76 60//76 51//76
f 61//60 62//60 54//60
f 53//60 61//60 54//60
f 62//77 56//77 54//77
f 63//78 55//78 56//78
f 64//64 63//64 56//64
f 62//79 64//79 56//79
f 65//32 57//32 58//32
f 66//80 65//80 58//80
f 67//81 66//81 58//81
f 59//82 67//82 58//82
f 68//83 67//83 59//83
f 60//14 68//14 59//14
f 69//32 70//32 62//32
f 61//32 69//32 62//32
f 70//84 64//84 62//84
f 71//64 63//64 64//64
f 72//14 71//14 64//14
f 70//85 72//85 64//85
f 73//60 65//60 66//60
f 74//32 73//32 66//32
f 75//86 74//86 66//86
f 67//87 75//87 66//87
f 76//88 75//88 67//88
f 68//14 76//14 67//14
f 77//32 78//32 70//32
f 79//89 72//89 70//89
f 78//90 79//90 70//90
f 69//32 77//32 70//32
f 80//14 71//14 72//14
f 81//14 80//14 72//14
f 79//91 81//91 72//91
f 82//32 73//32 74//32
f 83//32 82//32 74//32
f 84//92 83//92 74//92
f 75//93 84//93 74//93
f 85//94 84//94 75//94
f 76//14 85//14 75//14
f 42//95 45//95 35//95
f 52//96 42//96 35//96
f 38//97 52//97 35//97
f 43//98 45//98 42//98
f 43//99 53//99 45//99
f 47//100 53//100 43//100
f 60//101 52//101 38//101
f 49//101 60//101 38//101
f 86//59 82//59 83//59
f 87//32 86//32 83//32
f 88//102 87//102 83//102
f 84//103 88//103 83//103
f 89//104 88//104 84//104
f 85//105 89//105 84//105
f 47//106 61//106 53//106
f 55//107 61//107 47//107
f 68//108 60//108 49//108
f 57//109 68//109 49//109
f 55//110 69//110 61//110
f 63//110 69//110 55//110
f 76//111 68//111 57//111
f 65//112 76//112 57//112
f 63//113 77//113 69//113
f 71//114 77//114 63//114
f 85//115 76//115 65//115
f 73//116 85//116 65//116
f 90//60 78//60 77//60
f 71//117 91//117 77//117
f 91//118 90//118 77//118
f 80//119 91//119 71//119
f 92//32 86//32 87//32
f 93//32 92//32 87//32
f 94//120 93//120 87//120
f 88//121 94//121 87//121
f 95//14 94//14 88//14
f 89//122 95//122 88//122
f 89//123 85//123 73//123
f 82//124 89//124 73//124
f 95//125 89//125 82//125
f 86//126 95//126 82//126
f 96//60 92//60 93//60
f 97//32 96//32 93//32
f 98//127 97//127 93//127
f 94//128 98//128 93//128
f 99//129 98//129 94//129
f 95//14 99//14 94//14
f 99//130 95//130 86//130
f 92//131 99//131 86//131
f 100//132 99//132 92//132
f 96//133 100//133 92//133
f 100//14 98//14 99//14
f 101//134 102//134 96//134
f 102//135 103//135 96//135
f 103//46 104//46 96//46
f 104//136 105//136 96//136
f 105//137 106//137 96//137
f 106//138 107//138 96//138
f 107//139 108//139 96//139
f 108//140 109//140 96//140
f 110//141 111//141 96//141
f 111//142 112//142 96//142
f 112//143 101//143 96//143
f 109//144 113//144 96//144
f 113//145 114//145 96//145
f 114//146 100//146 96//146
f 97//32 115//32 96//32
f 115//32 110//32 96//32
f 114//147 116//147 100//147
f 116//148 117//148 100//148
f 117//149 118//149 100//149
f 118//150 119//150 100//150
f 119//151 120//151 100//151
f 120//152 121//152 100//152
f 121//153 122//153 100//153
f 122//154 123//154 100//154
f 123//155 124//155 100//155
f 124//156 125//156 100//156
f 125//157 126//157 100//157
f 126//158 127//158 100//158
f 127//159 98//159 100//159
f 98//160 128//160 97//160
f 128//161 129//161 97//161
f 129//162 130//162 97//162
f 130//163 131//163 97//163
f 131//164 132//164 97//164
f 132//165 133//165 97//165
f 133//166 134//166 97//166
f 134//167 135//167 97//167
f 135//168 136//168 97//168
f 137//169 115//169 97//169
f 136//170 138//170 97//170
f 138//171 139//171 97//171
f 139//172 137//172 97//172
f 140//173 141//173 98//173
f 142//174 143//174 98//174
f 143//175 144//175 98//175
f 144//176 145//176 98//176
f 145//177 128//177 98//177
f 127//178 146//178 98//178
f 146//179 147//179 98//179
f 147//180 140//180 98//180
f 141//181 148//181 98//181
f 148//182 149//182 98//182
f 149//183 142//183 98//183
f 113//184 129//184 114//184
f 129//185 128//185 114//185
f 128//186 116//186 114//186
f 145//187 116//187 128//187
f 109//188 130//188 113//188
f 130//189 129//189 113//189
f 145//190 117//190 116//190
f 144//191 117//191 145//191
f 108//192 131//192 109//192
f 131//193 130//193 109//193
f 144//194 118//194 117//194
f 143//195 118//195 144//195
f 107//196 132//196 108//196
f 132//197 131//197 108//197
f 143//198 119//198 118//198
f 142//199 119//199 143//199
f 106//200 133//200 107//200
f 133//201 132//201 107//201
f 142//202 120//202 119//202
f 149//203 120//203 142//203
f 105//204 134//204 106//204
f 134//205 133//205 106//205
f 149//206 121//206 120//206
f 148//207 121//207 149//207
f 104//208 135//208 105//208
f 135//209 134//209 105//209
f 148//210 122//210 121//210
f 141//211 122//211 148//211
f 103//212 136//212 104//212
f 136//213 135//213 104//213
f 141//214 123//214 122//214
f 140//215 123//215 141//215
f 102//216 138//216 103//216
f 138//217 136//217 103//217
f 140//218 124//218 123//218
f 147//219 124//219 140//219
f 139//220 138//220 102//220
f 101//14 139//14 102//14
f 147//32 125//32 124//32
f 146//32 125//32 147//32
f 112//221 137//221 101//221
f 137//222 139//222 101//222
f 150//223 126//223 125//223
f 146//224 150//224 125//224
f 151//225 150//225 146//225
f 127//226 151//226 146//226
f 111//227 152//227 112//227
f 152//228 137//228 112//228
f 153//229 126//229 150//229
f 151//230 153//230 150//230
f 154//231 153//231 151//231
f 152//232 115//232 137//232
f 127//233 154//233 151//233
f 110//234 155//234 111//234
f 155//235 156//235 111//235
f 156//236 152//236 111//236
f 157//237 126//237 153//237
f 154//238 157//238 153//238
f 158//239 157//239 154//239
f 156//240 115//240 152//240
f 127//241 158//241 154//241
f 110//242 159//242 155//242
f 159//243 160//243 155//243
f 160//244 156//244 155//244
f 161//245 126//245 157//245
f 158//246 161//246 157//246
f 162//247 161//247 158//247
f 160//248 115//248 156//248
f 127//249 162//249 158//249
f 110//250 163//250 159//250
f 163//251 164//251 159//251
f 164//252 160//252 159//252
f 165//253 126//253 161//253
f 162//254 165//254 161//254
f 166//255 165//255 162//255
f 164//256 115//256 160//256
f 127//257 166//257 162//257
f 110//258 167//258 163//258
f 167//259 168//259 163//259
f 168//260 164//260 163//260
f 169//261 126//261 165//261
f 166//262 169//262 165//262
f 170//263 169//263 166//263
f 168//264 115//264 164//264
f 127//265 170//265 166//265
f 110//266 171//266 167//266
f 171//267 172//267 167//267
f 172//268 168//268 167//268
f 173//269 126//269 169//269
f 170//270 173//270 169//270
f 174//271 173//271 170//271
f 172//272 175//272 168//272
f 175//273 176//273 168//273
f 176//274 177//274 168//274
f 177//275 115//275 168//275
f 127//276 174//276 170//276
f 110//277 178//277 171//277
f 178//278 179//278 171//278
f 179//279 172//279 171//279
f 110//280 126//280 173//280
f 180//281 110//281 173//281
f 174//282 180//282 173//282
f 181//283 180//283 174//283
f 127//284 175//284 172//284
f 179//285 127//285 172//285
f 127//286 181//286 174//286
f 110//287 182//287 178//287
f 182//288 183//288 178//288
f 183//289 179//289 178//289
f 182//290 110//290 180//290
f 181//291 182//291 180//291
f 183//292 182//292 181//292
f 183//293 127//293 179//293
f 127//294 183//294 181//294
f 78//295 81//295 79//295
f 80//296 90//296 91//296
f 184//32 185//32 186//32
f 187//32 184//32 186//32
f 188//297 187//297 186//297
f 189//297 188//297 186//297
f 185//89 190//89 186//89
f 190//89 189//89 186//89
f 190//14 188//14 189//14
f 191//298 190//298 185//298
f 184//298 191//298 185//298
f 191//14 188//14 190//14
f 192//60 193//60 187//60
f 193//32 184//32 187//32
f 188//299 192//299 187//299
f 191//300 194//300 188//300
f 194//301 192//301 188//301
f 90//32 195//32 78//32
f 195//302 196//302 78//302
f 196//303 81//303 78//303
f 196//64 197//64 81//64
f 197//64 80//64 81//64
f 198//60 199//60 192//60
f 199//60 193//60 192//60
f 194//304 198//304 192//304
f 191//305 200//305 194//305
f 200//306 201//306 194//306
f 201//307 198//307 194//307
f 90//60 202//60 195//60
f 202//32 203//32 195//32
f 203//308 204//308 195//308
f 204//308 196//308 195//308
f 204//64 205//64 196//64
f 205//64 197//64 196//64
f 206//309 207//309 198//309
f 207//60 199//60 198//60
f 201//310 206//310 198//310
f 200//311 208//311 201//311
f 208//312 209//312 201//312
f 209//313 206//313 201//313
f 202//314 210//314 203//314
f 210//32 211//32 203//32
f 211//315 212//315 203//315
f 212//315 204//315 203//315
f 212//14 213//14 204//14
f 213//64 205//64 204//64
f 214//309 215//309 206//309
f 215//316 207//316 206//316
f 209//317 214//317 206//317
f 208//64 216//64 209//64
f 216//14 217//14 209//14
f 217//317 214//317 209//317
f 210//60 218//60 211//60
f 218//32 219//32 211//32
f 219//318 220//318 211//318
f 220//319 212//319 211//319
f 220//320 221//320 212//320
f 221//321 213//321 212//321
f 222//60 223//60 214//60
f 223//316 215//316 214//316
f 217//322 222//322 214//322
f 216//323 224//323 217//323
f 224//324 225//324 217//324
f 225//325 222//325 217//325
f 218//316 226//316 219//316
f 226//326 222//326 219//326
f 222//327 225//327 219//327
f 225//328 220//328 219//328
f 225//329 227//329 220//329
f 227//64 221//64 220//64
f 226//32 223//32 222//32
f 224//64 227//64 225//64
f 228//330 229//330 110//330
f 229//331 230//331 110//331
f 231//332 232//332 110//332
f 232//333 233//333 110//333
f 233//334 126//334 110//334
f 230//335 234//335 110//335
f 234//336 235//336 110//336
f 235//337 231//337 110//337
f 236//338 228//338 110//338
f 115//339 236//339 110//339
f 233//340 237//340 126//340
f 237//341 238//341 126//341
f 238//342 239//342 126//342
f 239//343 240//343 126//343
f 241//344 242//344 126//344
f 242//345 243//345 126//345
f 243//346 244//346 126//346
f 245//347 241//347 126//347
f 240//348 245//348 126//348
f 244//349 127//349 126//349
f 246//350 247//350 115//350
f 248//351 249//351 115//351
f 249//352 250//352 115//352
f 247//353 236//353 115//353
f 250//354 251//354 115//354
f 251//355 252//355 115//355
f 252//356 246//356 115//356
f 177//357 253//357 115//357
f 253//358 248//358 115//358
f 254//359 255//359 127//359
f 255//360 175//360 127//360
f 244//361 254//361 127//361
f 193//362 191//362 184//362
f 193//362 200//362 191//362
f 80//363 197//363 90//363
f 197//364 202//364 90//364
f 199//365 200//365 193//365
f 199//366 208//366 200//366
f 197//367 205//367 202//367
f 205//368 210//368 202//368
f 207//369 208//369 199//369
f 207//370 216//370 208//370
f 205//371 213//371 210//371
f 213//372 218//372 210//372
f 215//373 216//373 207//373
f 215//374 224//374 216//374
f 213//375 221//375 218//375
f 221//376 226//376 218//376
f 223//377 224//377 215//377
f 223//378 227//378 224//378
f 221//379 227//379 226//379
f 227//380 223//380 226//380
f 256//348 257//348 228//348
f 257//46 258//46 228//46
f 258//381 259//381 228//381
f 259//382 260//382 228//382
f 260//383 261//383 228//383
f 261//384 262//384 228//384
f 262//46 263//46 228//46
f 263//385 264//385 228//385
f 264//386 265//386 228//386
f 265//382 266//382 228//382
f 266//387 267//387 228//387
f 267//388 229//388 228//388
f 236//389 268//389 228//389
f 268//390 256//390 228//390
f 269//391 270//391 244//391
f 243//392 271//392 244//392
f 271//393 269//393 244//393
f 270//394 272//394 244//394
f 272//395 273//395 244//395
f 273//396 274//396 244//396
f 274//397 275//397 244//397
f 275//398 276//398 244//398
f 276//399 277//399 244//399
f 277//400 278//400 244//400
f 278//401 279//401 244//401
f 279//402 280//402 244//402
f 280//403 254//403 244//403
f 281//168 268//168 236//168
f 247//404 282//404 236//404
f 282//405 283//405 236//405
f 283//406 284//406 236//406
f 284//407 285//407 236//407
f 285//408 286//408 236//408
f 286//409 287//409 236//409
f 287//410 288//410 236//410
f 288//168 289//168 236//168
f 289//411 290//411 236//411
f 290//412 291//412 236//412
f 291//413 281//413 236//413
f 292//414 293//414 254//414
f 293//415 294//415 254//415
f 294//416 295//416 254//416
f 295//417 296//417 254//417
f 296//418 297//418 254//418
f 297//168 298//168 254//168
f 298//419 299//419 254//419
f 299//409 300//409 254//409
f 300//408 301//408 254//408
f 301//420 302//420 254//420
f 302//421 303//421 254//421
f 303//422 255//422 254//422
f 280//423 292//423 254//423
f 250//424 249//424 239//424
f 249//425 240//425 239//425
f 304//426 250//426 239//426
f 238//426 304//426 239//426
f 305//427 245//427 240//427
f 306//428 305//428 240//428
f 249//429 306//429 240//429
f 304//430 307//430 250//430
f 307//431 251//431 250//431
f 248//432 306//432 249//432
f 308//433 304//433 238//433
f 237//434 308//434 238//434
f 309//435 310//435 306//435
f 311//436 305//436 306//436
f 310//437 311//437 306//437
f 248//438 309//438 306//438
f 308//439 312//439 304//439
f 312//440 313//440 304//440
f 313//441 307//441 304//441
f 253//442 309//442 248//442
f 314//443 308//443 237//443
f 233//444 314//444 237//444
f 315//445 310//445 309//445
f 253//446 315//446 309//446
f 314//447 312//447 308//447
f 177//448 315//448 253//448
f 316//449 314//449 233//449
f 232//450 316//450 233//450
f 317//451 310//451 315//451
f 177//452 317//452 315//452
f 316//453 312//453 314//453
f 176//454 317//454 177//454
f 318//455 316//455 232//455
f 231//456 318//456 232//456
f 319//457 310//457 317//457
f 176//458 319//458 317//458
f 318//459 312//459 316//459
f 175//460 320//460 176//460
f 320//461 319//461 176//461
f 321//462 318//462 231//462
f 235//463 321//463 231//463
f 322//464 310//464 319//464
f 320//465 322//465 319//465
f 321//466 312//466 318//466
f 175//467 323//467 320//467
f 323//468 322//468 320//468
f 324//469 321//469 235//469
f 234//470 324//470 235//470
f 325//471 310//471 322//471
f 323//472 325//472 322//472
f 324//473 312//473 321//473
f 175//474 326//474 323//474
f 326//475 325//475 323//475
f 263//476 287//476 264//476
f 287//477 286//477 264//477
f 286//478 265//478 264//478
f 272//479 301//479 273//479
f 301//477 300//477 273//477
f 300//480 274//480 273//480
f 285//481 265//481 286//481
f 299//482 274//482 300//482
f 262//483 288//483 263//483
f 288//484 287//484 263//484
f 285//485 266//485 265//485
f 270//486 302//486 272//486
f 302//487 301//487 272//487
f 299//488 275//488 274//488
f 284//489 266//489 285//489
f 298//490 275//490 299//490
f 261//491 289//491 262//491
f 289//492 288//492 262//492
f 284//493 267//493 266//493
f 269//494 303//494 270//494
f 303//495 302//495 270//495
f 298//496 276//496 275//496
f 283//497 267//497 284//497
f 297//498 276//498 298//498
f 260//499 290//499 261//499
f 290//500 289//500 261//500
f 327//501 229//501 267//501
f 283//502 327//502 267//502
f 271//499 328//499 269//499
f 328//500 303//500 269//500
f 297//503 277//503 276//503
f 282//504 327//504 283//504
f 328//505 255//505 303//505
f 296//504 277//504 297//504
f 230//506 329//506 234//506
f 330//507 324//507 234//507
f 329//508 330//508 234//508
f 331//509 310//509 325//509
f 326//510 331//510 325//510
f 330//511 312//511 324//511
f 175//512 332//512 326//512
f 332//513 331//513 326//513
f 259//514 291//514 260//514
f 291//515 290//515 260//515
f 333//516 229//516 327//516
f 282//517 333//517 327//517
f 243//515 334//515 271//515
f 334//515 328//515 271//515
f 296//518 278//518 277//518
f 247//519 333//519 282//519
f 334//520 255//520 328//520
f 295//521 278//521 296//521
f 258//522 281//522 259//522
f 281//523 291//523 259//523
f 335//524 229//524 333//524
f 247//525 335//525 333//525
f 242//526 336//526 243//526
f 336//527 334//527 243//527
f 295//528 279//528 278//528
f 246//529 335//529 247//529
f 336//530 255//530 334//530
f 294//531 279//531 295//531
f 257//532 337//532 258//532
f 337//533 281//533 258//533
f 338//534 229//534 335//534
f 246//535 338//535 335//535
f 241//536 339//536 242//536
f 339//537 336//537 242//537
f 340//538 280//538 279//538
f 294//539 340//539 279//539
f 337//540 268//540 281//540
f 252//541 338//541 246//541
f 339//542 255//542 336//542
f 293//543 340//543 294//543
f 230//544 341//544 329//544
f 342//545 330//545 329//545
f 341//546 342//546 329//546
f 343//547 310//547 331//547
f 332//548 343//548 331//548
f 342//549 312//549 330//549
f 175//550 344//550 332//550
f 344//551 343//551 332//551
f 256//552 345//552 257//552
f 345//553 346//553 257//553
f 346//554 337//554 257//554
f 347//555 229//555 338//555
f 252//556 347//556 338//556
f 245//557 348//557 241//557
f 348//558 339//558 241//558
f 349//559 280//559 340//559
f 293//560 349//560 340//560
f 346//561 268//561 337//561
f 251//562 347//562 252//562
f 348//563 255//563 339//563
f 292//564 350//564 293//564
f 350//562 349//562 293//562
f 256//565 351//565 345//565
f 351//566 352//566 345//566
f 352//567 346//567 345//567
f 353//568 229//568 347//568
f 251//569 353//569 347//569
f 305//566 354//566 245//566
f 354//570 348//570 245//570
f 355//46 280//46 349//46
f 350//571 355//571 349//571
f 352//572 268//572 346//572
f 307//573 353//573 251//573
f 354//574 255//574 348//574
f 292//575 356//575 350//575
f 356//576 355//576 350//576
f 230//577 357//577 341//577
f 357//578 342//578 341//578
f 358//579 359//579 343//579
f 359//580 310//580 343//580
f 344//581 360//581 343//581
f 360//582 358//582 343//582
f 361//583 362//583 342//583
f 362//584 312//584 342//584
f 357//14 361//14 342//14
f 175//585 360//585 344//585
f 256//586 363//586 351//586
f 363//587 364//587 351//587
f 364//588 352//588 351//588
f 365//589 366//589 353//589
f 366//590 229//590 353//590
f 307//591 365//591 353//591
f 311//587 367//587 305//587
f 367//592 354//592 305//592
f 368//593 280//593 355//593
f 356//591 368//591 355//591
f 364//594 268//594 352//594
f 313//595 365//595 307//595
f 367//596 369//596 354//596
f 369//597 255//597 354//597
f 292//598 370//598 356//598
f 370//595 368//595 356//595
f 256//599 371//599 363//599
f 371//600 372//600 363//600
f 372//601 364//601 363//601
f 373//602 366//602 365//602
f 313//603 373//603 365//603
f 374//604 375//604 311//604
f 310//605 374//605 311//605
f 375//606 376//606 311//606
f 376//607 367//607 311//607
f 377//46 280//46 368//46
f 378//608 377//608 368//608
f 370//609 378//609 368//609
f 379//610 268//610 364//610
f 372//611 379//611 364//611
f 312//612 380//612 313//612
f 380//613 373//613 313//613
f 376//614 369//614 367//614
f 292//615 381//615 370//615
f 381//613 378//613 370//613
f 256//616 382//616 371//616
f 382//382 383//382 371//382
f 383//617 384//617 371//617
f 384//618 385//618 371//618
f 385//619 386//619 371//619
f 387//620 388//620 371//620
f 388//621 389//621 371//621
f 389//46 390//46 371//46
f 391//622 392//622 371//622
f 393//623 391//623 371//623
f 390//624 393//624 371//624
f 386//625 394//625 371//625
f 394//626 395//626 371//626
f 395//627 387//627 371//627
f 392//628 396//628 371//628
f 396//629 372//629 371//629
f 397//630 366//630 373//630
f 380//631 397//631 373//631
f 374//632 398//632 375//632
f 398//633 399//633 375//633
f 399//634 376//634 375//634
f 400//635 401//635 378//635
f 402//618 403//618 378//618
f 401//623 404//623 378//623
f 404//636 405//636 378//636
f 405//637 406//637 378//637
f 406//638 407//638 378//638
f 407//639 408//639 378//639
f 408//640 409//640 378//640
f 410//641 377//641 378//641
f 403//617 410//617 378//617
f 409//642 411//642 378//642
f 411//46 412//46 378//46
f 412//619 402//619 378//619
f 381//643 400//643 378//643
f 396//644 413//644 372//644
f 414//645 415//645 372//645
f 413//646 416//646 372//646
f 416//647 417//647 372//647
f 417//648 418//648 372//648
f 418//649 419//649 372//649
f 419//650 420//650 372//650
f 420//651 421//651 372//651
f 422//652 379//652 372//652
f 415//653 422//653 372//653
f 421//654 423//654 372//654
f 423//655 424//655 372//655
f 424//656 414//656 372//656
f 312//657 425//657 380//657
f 425//658 397//658 380//658
f 399//659 369//659 376//659
f 292//660 426//660 381//660
f 426//661 427//661 381//661
f 427//652 428//652 381//652
f 428//652 429//652 381//652
f 429//656 430//656 381//656
f 431//662 432//662 381//662
f 432//663 433//663 381//663
f 433//664 434//664 381//664
f 435//665 436//665 381//665
f 437//666 435//666 381//666
f 434//667 437//667 381//667
f 430//655 438//655 381//655
f 438//668 439//668 381//668
f 439//651 431//651 381//651
f 436//669 400//669 381//669
f 391//670 440//670 392//670
f 440//671 441//671 392//671
f 441//672 396//672 392//672
f 442//673 366//673 397//673
f 425//674 442//674 397//674
f 374//675 443//675 398//675
f 443//676 444//676 398//676
f 444//677 399//677 398//677
f 445//678 401//678 400//678
f 436//679 445//679 400//679
f 441//680 413//680 396//680
f 312//681 446//681 425//681
f 446//682 442//682 425//682
f 444//683 369//683 399//683
f 435//684 447//684 436//684
f 447//685 445//685 436//685
f 391//686 448//686 440//686
f 448//687 449//687 440//687
f 449//688 441//688 440//688
f 450//689 366//689 442//689
f 446//690 450//690 442//690
f 374//691 451//691 443//691
f 451//687 452//687 443//687
f 452//687 444//687 443//687
f 453//692 401//692 445//692
f 447//693 453//693 445//693
f 449//694 413//694 441//694
f 312//695 454//695 446//695
f 454//696 450//696 446//696
f 452//697 369//697 444//697
f 435//698 455//698 447//698
f 455//696 453//696 447//696
f 391//699 456//699 448//699
f 456//700 457//700 448//700
f 457//700 449//700 448//700
f 458//701 366//701 450//701
f 454//702 458//702 450//702
f 374//703 459//703 451//703
f 459//700 460//700 451//700
f 460//700 452//700 451//700
f 461//704 401//704 453//704
f 455//705 461//705 453//705
f 457//706 413//706 449//706
f 312//707 462//707 454//707
f 462//708 458//708 454//708
f 460//709 369//709 452//709
f 435//710 463//710 455//710
f 463//708 461//708 455//708
f 391//711 464//711 456//711
f 464//712 465//712 456//712
f 465//713 457//713 456//713
f 466//714 366//714 458//714
f 462//715 466//715 458//715
f 374//716 467//716 459//716
f 467//717 468//717 459//717
f 468//718 460//718 459//718
f 469//719 401//719 461//719
f 463//720 469//720 461//720
f 465//721 413//721 457//721
f 312//722 470//722 462//722
f 470//723 466//723 462//723
f 468//724 369//724 460//724
f 435//725 471//725 463//725
f 471//726 469//726 463//726
f 391//727 472//727 464//727
f 472//728 473//728 464//728
f 473//729 465//729 464//729
f 474//730 366//730 466//730
f 470//731 474//731 466//731
f 374//732 475//732 467//732
f 475//733 476//733 467//733
f 476//734 468//734 467//734
f 477//735 401//735 469//735
f 471//736 477//736 469//736
f 473//737 413//737 465//737
f 312//738 478//738 470//738
f 478//739 474//739 470//739
f 476//168 369//168 468//168
f 435//740 479//740 471//740
f 479//741 477//741 471//741
f 391//742 480//742 472//742
f 480//743 481//743 472//743
f 481//744 473//744 472//744
f 480//745 366//745 474//745
f 478//746 480//746 474//746
f 374//747 482//747 475//747
f 482//743 483//743 475//743
f 483//748 476//748 475//748
f 482//749 374//749 477//749
f 374//750 484//750 477//750
f 484//751 401//751 477//751
f 479//752 482//752 477//752
f 485//753 413//753 473//753
f 312//754 485//754 473//754
f 481//755 312//755 473//755
f 312//756 481//756 478//756
f 481//757 480//757 478//757
f 483//758 369//758 476//758
f 435//759 483//759 479//759
f 483//760 482//760 479//760
f 391//761 366//761 480//761
f 435//762 369//762 483//762
f 268//763 379//763 256//763
f 379//764 382//764 256//764
f 377//765 292//765 280//765
f 377//766 426//766 292//766
f 379//767 422//767 382//767
f 422//768 383//768 382//768
f 410//769 426//769 377//769
f 410//770 427//770 426//770
f 422//771 415//771 383//771
f 415//772 384//772 383//772
f 403//773 427//773 410//773
f 403//774 428//774 427//774
f 415//775 414//775 384//775
f 414//776 385//776 384//776
f 402//777 428//777 403//777
f 402//778 429//778 428//778
f 485//779 312//779 229//779
f 312//780 230//780 229//780
f 366//14 485//14 229//14
f 486//781 357//781 230//781
f 312//32 362//32 230//32
f 362//60 486//60 230//60
f 359//64 175//64 310//64
f 175//779 255//779 310//779
f 255//779 374//779 310//779
f 255//32 369//32 374//32
f 369//32 484//32 374//32
f 487//782 413//782 485//782
f 366//783 487//783 485//783
f 488//784 360//784 175//784
f 359//14 488//14 175//14
f 414//785 424//785 385//785
f 424//786 386//786 385//786
f 412//787 429//787 402//787
f 412//788 430//788 429//788
f 424//789 423//789 386//789
f 423//790 394//790 386//790
f 411//791 430//791 412//791
f 411//792 438//792 430//792
f 423//793 421//793 394//793
f 421//794 395//794 394//794
f 409//795 438//795 411//795
f 409//796 439//796 438//796
f 421//797 420//797 395//797
f 420//798 387//798 395//798
f 408//799 439//799 409//799
f 408//800 431//800 439//800
f 420//801 419//801 387//801
f 419//802 388//802 387//802
f 407//803 431//803 408//803
f 407//804 432//804 431//804
f 489//805 357//805 486//805
f 362//806 489//806 486//806
f 489//807 490//807 357//807
f 491//14 361//14 357//14
f 490//808 491//808 357//808
f 492//807 359//807 358//807
f 360//809 492//809 358//809
f 492//810 493//810 359//810
f 494//14 488//14 359//14
f 493//14 494//14 359//14
f 495//811 362//811 361//811
f 491//812 495//812 361//812
f 488//811 496//811 360//811
f 496//813 492//813 360//813
f 495//814 489//814 362//814
f 494//815 496//815 488//815
f 419//816 418//816 388//816
f 418//817 389//817 388//817
f 406//818 432//818 407//818
f 406//819 433//819 432//819
f 491//820 497//820 495//820
f 497//32 498//32 495//32
f 498//821 489//821 495//821
f 499//822 497//822 491//822
f 490//823 499//823 491//823
f 494//822 500//822 496//822
f 500//32 501//32 496//32
f 501//32 492//32 496//32
f 502//824 500//824 494//824
f 493//825 502//825 494//825
f 418//826 417//826 389//826
f 417//827 390//827 389//827
f 405//828 433//828 406//828
f 405//829 434//829 433//829
f 499//830 503//830 497//830
f 503//831 504//831 497//831
f 504//32 498//32 497//32
f 505//832 503//832 499//832
f 490//14 506//14 499//14
f 506//833 505//833 499//833
f 502//832 507//832 500//832
f 507//32 508//32 500//32
f 508//834 501//834 500//834
f 509//835 507//835 502//835
f 493//14 510//14 502//14
f 510//836 509//836 502//836
f 417//837 416//837 390//837
f 416//838 393//838 390//838
f 404//839 434//839 405//839
f 404//840 437//840 434//840
f 416//841 413//841 393//841
f 413//842 391//842 393//842
f 401//843 437//843 404//843
f 401//844 435//844 437//844
f 487//845 366//845 391//845
f 413//845 487//845 391//845
f 435//845 401//845 484//845
f 369//845 435//845 484//845
f 505//846 511//846 503//846
f 511//32 512//32 503//32
f 512//32 504//32 503//32
f 513//847 511//847 505//847
f 506//14 514//14 505//14
f 514//848 513//848 505//848
f 509//849 515//849 507//849
f 515//32 516//32 507//32
f 516//32 508//32 507//32
f 517//849 515//849 509//849
f 510//850 518//850 509//850
f 518//851 517//851 509//851
f 498//852 490//852 489//852
f 498//853 506//853 490//853
f 501//853 493//853 492//853
f 501//854 510//854 493//854
f 513//855 519//855 511//855
f 519//856 520//856 511//856
f 520//32 512//32 511//32
f 521//857 519//857 513//857
f 514//14 522//14 513//14
f 522//858 521//858 513//858
f 517//857 523//857 515//857
f 523//32 524//32 515//32
f 524//32 516//32 515//32
f 525//855 523//855 517//855
f 518//14 526//14 517//14
f 526//859 525//859 517//859
f 527//297 528//297 519//297
f 521//297 527//297 519//297
f 528//32 529//32 519//32
f 529//32 520//32 519//32
f 530//297 527//297 521//297
f 531//14 532//14 521//14
f 532//14 530//14 521//14
f 522//14 531//14 521//14
f 525//297 533//297 523//297
f 533//297 534//297 523//297
f 534//32 524//32 523//32
f 535//297 533//297 525//297
f 526//14 536//14 525//14
f 536//14 535//14 525//14
f 504//860 506//860 498//860
f 504//861 514//861 506//861
f 508//860 510//860 501//860
f 508//862 518//862 510//862
f 512//863 514//863 504//863
f 512//864 522//864 514//864
f 516//864 518//864 508//864
f 516//865 526//865 518//865
f 520//866 522//866 512//866
f 520//867 531//867 522//867
f 524//868 526//868 516//868
f 524//869 536//869 526//869
f 529//298 537//298 520//298
f 537//870 531//870 520//870
f 537//298 532//298 531//298
f 538//871 539//871 524//871
f 539//298 536//298 524//298
f 534//32 538//32 524//32
f 539//298 540//298 536//298
f 540//14 535//14 536//14
f 535//297 534//297 533//297
f 530//297 528//297 527//297
f 538//298 540//298 539//298
f 529//298 532//298 537//298
f 532//872 529//872 528//872
f 530//872 532//872 528//872
f 535//872 540//872 534//872
f 540//872 538//872 534//872
# Vertices: 540, normals: 872, texture coordinates: 0, faces: 1080

