# File generated by ImageToStl.com - Free Image and 3D model conversion tools

o obj1
v 35.81458282 -1.61734867 -6.3499999
v 36.05400085 -1.10391331 -6.3499999
v 79.99999237 -3.65852261 -6.3499999
v 35.48964691 2.09671164 -6.34999943
v 79.99999237 3.67382598 -6.34999943
v 35.81458282 1.63265181 -6.3499999
v 36.05400085 1.1192174 -6.3499999
v 36.20062256 -0.55670452 -6.3499999
v 36.24999237 0.00765181 -6.3499999
v 36.20062256 0.57200813 -6.3499999
v 35.08905792 2.49729586 -6.34999943
v 34.625 2.82223463 -6.34999943
v 34.11156464 3.06165266 -6.34999943
v 33.56435394 3.20827675 -6.34999943
v 33 3.25765181 -6.34999943
v 4.17504883 3.67382598 -6.34999943
v 4.2563324 3.57914066 -6.34999943
v 4.2563324 -3.56383705 -6.3499999
v 4.8118515 -2.77047348 -6.3499999
v 33 -3.24234772 -6.3499999
v 34.625 -2.80693054 -6.3499999
v 34.11156464 -3.04634953 -6.3499999
v 33.56435394 -3.19297314 -6.3499999
v 35.08905792 -2.48199177 -6.3499999
v 35.48964691 -2.08140755 -6.3499999
v 5.22116089 1.90800095 -6.34999943
v 4.8118515 2.78577709 -6.34999943
v 29.79936981 0.57200813 -6.3499999
v 29.79936981 -0.55670452 -6.3499999
v 29.94599915 -1.10391331 -6.3499999
v 30.18541718 -1.61734867 -6.3499999
v 30.51034546 -2.08140755 -6.3499999
v 30.91093445 -2.48199177 -6.3499999
v 31.375 -2.80693054 -6.3499999
v 4.17504883 -3.65852261 -6.3499999
v 32.43563843 3.20827675 -6.34999943
v 31.88842773 3.06165266 -6.34999943
v 31.375 2.82223463 -6.34999943
v 30.91093445 2.49729586 -6.34999943
v 30.51034546 2.09671164 -6.34999943
v 31.88842773 -3.04634953 -6.3499999
v 32.43563843 -3.19297314 -6.3499999
v 30.18541718 1.63265181 -6.3499999
v 29.94599915 1.1192174 -6.3499999
v 5.22116089 -1.89269829 -6.3499999
v 5.4718399 -0.95718098 -6.3499999
v 29.75 0.00765181 -6.3499999
v 5.5562439 0.00765181 -6.3499999
v 5.4718399 0.97248459 -6.3499999
v -79.99999237 3.6738255 6.35000038
v 79.99999237 3.6738255 6.35000038
v -79.99999237 7.33999968 4.8E-07
v 79.99999237 7.33999968 4.8E-07
v 0 -3.3705492 6.35000038
v -31.90725708 -1.29462528 6.35000038
v -32.14999771 -1.46459198 6.35000038
v -1.1554184 -3.16681862 6.35000038
v -31.40251923 -0.57378244 6.35000038
v -0.58662415 -3.31922626 6.35000038
v -31.52775574 -0.84234905 6.35000038
v -31.69772339 -1.08508778 6.35000038
v -32.41856003 -1.58982658 6.35000038
v -32.70479584 -1.66652203 6.35000038
v -32.99999619 -1.69234943 6.35000038
v -33.29520035 -1.66652203 6.35000038
v -79.99999237 -3.65852356 6.34999943
v -33.58143234 -1.58982658 6.35000038
v -33.84999847 -1.46459198 6.35000038
v -34.09273911 -1.29462528 6.35000038
v -34.3022728 -1.08508778 6.35000038
v -34.47224045 -0.84234905 6.35000038
v -34.59747696 -0.57378244 6.35000038
v 1.15541077 3.18212128 6.35000038
v 31.32582855 -0.28755045 6.35000038
v 0.58661652 3.33452892 6.35000038
v 31.29999542 0.00765133 6.35000038
v 31.32582855 0.30285311 6.35000038
v -1.68910217 -2.91795635 6.35000038
v -2.17146301 -2.5802002 6.35000038
v -2.58786011 -2.16381454 6.35000038
v -31.32582474 0.30285311 6.35000038
v -3.17446899 1.16306353 6.35000038
v -31.40251923 0.58908558 6.35000038
v -2.92560577 1.69675159 6.35000038
v 79.99999237 -3.65852356 6.34999943
v 0.58661652 -3.31922626 6.35000038
v -34.67416763 0.30285311 6.35000038
v -34.69999695 0.00765133 6.35000038
v -34.67416763 -0.28755045 6.35000038
v 1.68909454 2.93325853 6.35000038
v 2.17146301 2.59550238 6.35000038
v 2.58785248 2.17911673 6.35000038
v -32.14999771 1.47989464 6.35000038
v -31.90725708 1.30992699 6.35000038
v 0 3.38585186 6.35000038
v -2.58786011 2.17911673 6.35000038
v -2.17146301 2.59550238 6.35000038
v -1.68910217 2.93325853 6.35000038
v 3.32687378 0.59426975 6.35000038
v 31.90725708 -1.29462528 6.35000038
v 31.69771576 -1.08508778 6.35000038
v -34.59747696 0.58908558 6.35000038
v -34.47224045 0.85765123 6.35000038
v -34.3022728 1.10039043 6.35000038
v -32.41856003 1.60512877 6.35000038
v -2.92560577 -1.68144894 6.35000038
v -3.17446899 -1.14776134 6.35000038
v -31.32582474 -0.28755045 6.35000038
v -3.32688141 -0.57896709 6.35000038
v -31.29999924 0.00765133 6.35000038
v -3.37819672 0.00765133 6.35000038
v -3.32688141 0.59426975 6.35000038
v 32.70479584 -1.66652203 6.35000038
v 32.41856384 -1.58982658 6.35000038
v 32.15000153 -1.46459198 6.35000038
v 2.92560577 1.69675159 6.35000038
v 3.17446899 1.16306353 6.35000038
v 31.40251923 -0.57378244 6.35000038
v 31.52775574 -0.84234905 6.35000038
v -31.69772339 1.10039043 6.35000038
v -31.52775574 0.85765123 6.35000038
v -0.58662415 3.33452892 6.35000038
v -1.1554184 3.18212128 6.35000038
v -34.09273911 1.30992699 6.35000038
v -33.84999847 1.47989464 6.35000038
v -33.58143234 1.60512877 6.35000038
v 3.17446899 -1.14776134 6.35000038
v 2.92560577 -1.68144894 6.35000038
v 2.58785248 -2.16381454 6.35000038
v 2.17146301 -2.5802002 6.35000038
v 1.68909454 -2.91795635 6.35000038
v 1.15541077 -3.16681862 6.35000038
v 34.67416382 -0.28755045 6.35000038
v 34.59748077 -0.57378244 6.35000038
v 34.47223663 -0.84234905 6.35000038
v 34.30227661 -1.08508778 6.35000038
v 34.09273529 -1.29462528 6.35000038
v 33.84999847 -1.46459198 6.35000038
v 33.58143616 -1.58982658 6.35000038
v 33 -1.69234943 6.35000038
v 3.37819672 0.00765133 6.35000038
v 3.32687378 -0.57896709 6.35000038
v 32.41856384 1.60512877 6.35000038
v 32.15000153 1.47989464 6.35000038
v 31.90725708 1.30992699 6.35000038
v 31.40251923 0.58908558 6.35000038
v 31.52775574 0.85765123 6.35000038
v 31.69771576 1.10039043 6.35000038
v 34.30227661 1.10039043 6.35000038
v 34.47223663 0.85765123 6.35000038
v 34.59748077 0.58908558 6.35000038
v 34.67416382 0.30285311 6.35000038
v 34.69999695 0.00765133 6.35000038
v 33.29519653 -1.66652203 6.35000038
v 33.58143616 1.60512877 6.35000038
v 33.84999847 1.47989464 6.35000038
v 34.09273529 1.30992699 6.35000038
v -33.29520035 1.68182468 6.35000038
v -32.99999619 1.70765114 6.35000038
v -32.70479584 1.68182468 6.35000038
v 32.70479584 1.68182468 6.35000038
v 33 1.70765114 6.35000038
v 33.29519653 1.68182468 6.35000038
v -79.99999237 -7.32469654 0
v 79.99999237 -7.32469654 0
v -0.96483612 -5.46418571 -3.22249842
v -0.48426056 -5.52745438 -3.11291385
v 0 -5.54859829 -3.07629275
v -2.34817505 -5.02802181 -3.97795892
v -1.90035248 -5.21351433 -3.65667319
v -1.43806458 -5.35927296 -3.40421271
v 0.48425293 -5.52745438 -3.11291385
v 0.96483612 -5.46418571 -3.22249842
v 1.43806458 -5.35927296 -3.40421271
v 1.90035248 -5.21351433 -3.65667319
v 2.34816742 -5.02802181 -3.97795892
v 2.77812958 -4.80420208 -4.3656249
v 3.18693542 -4.54376125 -4.81672001
v 3.57148743 -4.24868298 -5.32781219
v -79.99999237 -3.65852261 -6.3499999
v -4.17505646 -3.65852261 -6.3499999
v -3.57148743 -4.24868298 -5.32781219
v -3.18693542 -4.54376125 -4.81672001
v -2.77812958 -4.80420208 -4.3656249
v -35.08905792 2.49729586 -6.34999943
v -35.4896431 2.09671164 -6.34999943
v -79.99999237 3.67382598 -6.34999943
v -35.81458282 1.63265181 -6.3499999
v -36.05399704 1.1192174 -6.3499999
v -4.25634003 3.57914066 -6.34999943
v -4.8118515 2.78577709 -6.34999943
v -29.79937363 0.57200813 -6.3499999
v -33.56435394 3.20827675 -6.34999943
v -32.99999619 3.25765181 -6.34999943
v -4.17505646 3.67382598 -6.34999943
v -36.20062256 -0.55670452 -6.3499999
v -36.24999619 0.00765181 -6.3499999
v -36.20062256 0.57200813 -6.3499999
v -29.94599915 1.1192174 -6.3499999
v -30.18541336 1.63265181 -6.3499999
v -34.11156464 3.06165266 -6.34999943
v -34.625 2.82223463 -6.34999943
v -30.51035309 2.09671164 -6.34999943
v -30.91093826 2.49729586 -6.34999943
v -31.37499619 2.82223463 -6.34999943
v -36.05399704 -1.10391331 -6.3499999
v -35.81458282 -1.61734867 -6.3499999
v -35.4896431 -2.08140755 -6.3499999
v -5.22116852 1.90800095 -6.34999943
v -5.4718399 0.97248459 -6.3499999
v -29.75 0.00765181 -6.3499999
v -5.55625153 0.00765181 -6.3499999
v -29.79937363 -0.55670452 -6.3499999
v -5.4718399 -0.95718098 -6.3499999
v -5.22116852 -1.89269829 -6.3499999
v -4.8118515 -2.77047348 -6.3499999
v -31.88843155 3.06165266 -6.34999943
v -32.43564224 3.20827675 -6.34999943
v -35.08905792 -2.48199177 -6.3499999
v -34.625 -2.80693054 -6.3499999
v -34.11156464 -3.04634953 -6.3499999
v -31.88843155 -3.04634953 -6.3499999
v -31.37499619 -2.80693054 -6.3499999
v -30.91093826 -2.48199177 -6.3499999
v -30.51035309 -2.08140755 -6.3499999
v -30.18541336 -1.61734867 -6.3499999
v -29.94599915 -1.10391331 -6.3499999
v -4.25634003 -3.56383705 -6.3499999
v -33.56435394 -3.19297314 -6.3499999
v -32.99999619 -3.24234772 -6.3499999
v -32.43564224 -3.19297314 -6.3499999
v 0.96483612 5.4794898 -3.22249794
v 0.48425293 5.54275846 -3.11291337
v 0 5.5639019 -3.07629228
v 2.34816742 5.04332447 -3.97795844
v 1.90035248 5.22881889 -3.65667272
v 1.43806458 5.37457705 -3.40421224
v -0.48426056 5.54275846 -3.11291337
v -0.96483612 5.4794898 -3.22249794
v -1.43806458 5.37457705 -3.40421224
v -1.90035248 5.22881889 -3.65667272
v -2.34817505 5.04332447 -3.97795844
v -2.77812958 4.81950569 -4.36562443
v -3.18693542 4.55906534 -4.81672001
v -3.57148743 4.26398659 -5.32781219
v 3.57148743 4.26398659 -5.32781219
v 3.18693542 4.55906534 -4.81672001
v 2.77812958 4.81950569 -4.36562443
v 79.99999237 2.07574749 0.36466169
v 79.99999237 2.10765171 4.8E-07
v 79.99999237 -1.04234791 1.81865406
v 79.99999237 -0.71059036 1.97335529
v 79.99999237 2.07574749 -0.36466074
v 79.99999237 1.98100567 -0.71824217
v 79.99999237 1.82630491 -1.05000019
v 79.99999237 1.61634493 -1.34985399
v 79.99999237 1.3575058 -1.6086936
v 79.99999237 1.057652 -1.81865311
v 79.99999237 -1.04234791 -1.81865311
v 79.99999237 -0.71059036 -1.97335482
v 79.99999237 -0.35700941 -2.06809616
v 79.99999237 -1.34220219 -1.6086936
v 79.99999237 -1.60104084 -1.34985399
v 79.99999237 0.72589397 1.97335529
v 79.99999237 1.05765152 1.81865406
v 79.99999237 1.35750532 1.6086936
v 79.99999237 0.72589445 -1.97335482
v 79.99999237 0.37231302 -2.06809616
v 79.99999237 0.00765181 -2.0999999
v 79.99999237 -1.81100178 -1.05000019
v 79.99999237 -1.96570206 -0.71824265
v 79.99999237 -2.06044388 -0.36466122
v 79.99999237 -1.96570206 0.71824265
v 79.99999237 -1.81100178 1.05000019
v 79.99999237 -1.60104084 1.34985399
v 79.99999237 -1.34220219 1.6086936
v 79.99999237 -0.35700989 2.06809711
v 79.99999237 0.00765133 2.10000038
v 79.99999237 0.37231255 2.06809711
v 79.99999237 1.61634445 1.34985399
v 79.99999237 1.82630444 1.05000019
v 79.99999237 1.98100567 0.71824312
v 79.99999237 -2.0923481 0
v 79.99999237 -2.06044388 0.36466122
v 66.33818817 0.00765133 0
v 67.59998322 2.07574749 0.36466169
v 67.59998322 1.98100567 0.71824312
v 67.59998322 2.10765171 4.8E-07
v 67.59998322 1.61634445 1.34985399
v 67.59998322 1.35750532 1.6086936
v 67.59998322 1.82630444 1.05000019
v 67.59998322 0.72589397 1.97335529
v 67.59998322 0.37231255 2.06809711
v 67.59998322 1.05765152 1.81865406
v 67.59998322 -0.35700989 2.06809711
v 67.59998322 -0.71059036 1.97335529
v 67.59998322 0.00765133 2.10000038
v 67.59998322 -1.34220219 1.6086936
v 67.59998322 -1.60104084 1.34985399
v 67.59998322 -1.04234791 1.81865406
v 67.59998322 -1.96570206 0.71824265
v 67.59998322 -2.06044388 0.36466122
v 67.59998322 -1.81100178 1.05000019
v 67.59998322 -2.06044388 -0.36466122
v 67.59998322 -1.96570206 -0.71824265
v 67.59998322 -2.0923481 0
v 67.59998322 -1.60104084 -1.34985399
v 67.59998322 -1.34220219 -1.6086936
v 67.59998322 -1.81100178 -1.05000019
v 67.59998322 -0.71059036 -1.97335482
v 67.59998322 -0.35700941 -2.06809616
v 67.59998322 -1.04234791 -1.81865311
v 67.59998322 0.37231302 -2.06809616
v 67.59998322 0.72589445 -1.97335482
v 67.59998322 0.00765181 -2.0999999
v 67.59998322 1.3575058 -1.6086936
v 67.59998322 1.61634493 -1.34985399
v 67.59998322 1.057652 -1.81865311
v 67.59998322 1.98100567 -0.71824217
v 67.59998322 2.07574749 -0.36466074
v 67.59998322 1.82630491 -1.05000019
v -79.99999237 0.37231302 -2.06809616
v -79.99999237 0.72589445 -1.97335482
v -79.99999237 1.057652 -1.81865311
v -79.99999237 1.3575058 -1.6086936
v -79.99999237 -1.81100178 -1.05000019
v -79.99999237 -1.96570206 -0.71824265
v -79.99999237 -2.06044388 -0.36466122
v -79.99999237 1.61634445 1.34985399
v -79.99999237 1.35750532 1.6086936
v -79.99999237 1.05765152 1.81865406
v -79.99999237 -1.96570206 0.71824265
v -79.99999237 -2.06044388 0.36466122
v -79.99999237 -2.0923481 0
v -79.99999237 -1.60104084 -1.34985399
v -79.99999237 -1.34220219 -1.6086936
v -79.99999237 -1.04234791 -1.81865311
v -79.99999237 -1.04234791 1.81865406
v -79.99999237 -0.71059036 1.97335529
v -79.99999237 -0.35700989 2.06809711
v -79.99999237 -0.71059036 -1.97335482
v -79.99999237 -0.35700941 -2.06809616
v -79.99999237 0.00765181 -2.0999999
v -79.99999237 1.61634493 -1.34985399
v -79.99999237 1.82630491 -1.05000019
v -79.99999237 1.98100567 -0.71824217
v -79.99999237 2.07574749 -0.36466074
v -79.99999237 2.10765171 4.8E-07
v -79.99999237 0.72589397 1.97335529
v -79.99999237 0.37231255 2.06809711
v -79.99999237 0.00765133 2.10000038
v -79.99999237 -1.34220219 1.6086936
v -79.99999237 -1.60104084 1.34985399
v -79.99999237 -1.81100178 1.05000019
v -79.99999237 2.07574749 0.36466169
v -79.99999237 1.98100567 0.71824312
v -79.99999237 1.82630444 1.05000019
v -66.33818817 0.00765133 0
v -67.59999084 2.07574749 -0.36466074
v -67.59999084 1.98100567 -0.71824217
v -67.59999084 2.10765171 4.8E-07
v -67.59999084 1.61634493 -1.34985399
v -67.59999084 1.3575058 -1.6086936
v -67.59999084 1.82630491 -1.05000019
v -67.59999084 0.72589445 -1.97335482
v -67.59999084 0.37231302 -2.06809616
v -67.59999084 1.057652 -1.81865311
v -67.59999084 -0.35700941 -2.06809616
v -67.59999084 -0.71059036 -1.97335482
v -67.59999084 0.00765181 -2.0999999
v -67.59999084 -1.34220219 -1.6086936
v -67.59999084 -1.60104084 -1.34985399
v -67.59999084 -1.04234791 -1.81865311
v -67.59999084 -1.96570206 -0.71824265
v -67.59999084 -2.06044388 -0.36466122
v -67.59999084 -1.81100178 -1.05000019
v -67.59999084 -2.06044388 0.36466122
v -67.59999084 -1.96570206 0.71824265
v -67.59999084 -2.0923481 0
v -67.59999084 -1.60104084 1.34985399
v -67.59999084 -1.34220219 1.6086936
v -67.59999084 -1.81100178 1.05000019
v -67.59999084 -0.71059036 1.97335529
v -67.59999084 -0.35700989 2.06809711
v -67.59999084 -1.04234791 1.81865406
v -67.59999084 0.37231255 2.06809711
v -67.59999084 0.72589397 1.97335529
v -67.59999084 0.00765133 2.10000038
v -67.59999084 1.35750532 1.6086936
v -67.59999084 1.61634445 1.34985399
v -67.59999084 1.05765152 1.81865406
v -67.59999084 1.98100567 0.71824312
v -67.59999084 2.07574749 0.36466169
v -67.59999084 1.82630444 1.05000019
v 0.96483612 5.4794898 4.8E-07
v -0.96483612 -5.46418571 0
v -3.57148743 -4.24868298 0
v -2.77812958 -4.80420208 0
v -1.90035248 -5.21351433 0
v 0 -5.54859829 0
v 0.96483612 -5.46418571 0
v 1.90035248 -5.21351433 0
v 2.77812958 -4.80420208 0
v 3.57148743 -4.24868298 0
v 4.2563324 -3.56383705 0
v 3.57148743 4.26398659 4.8E-07
v 2.77812958 4.81950521 4.8E-07
v 1.90035248 5.22881889 4.8E-07
v 0 5.5639019 4.8E-07
v -0.96483612 5.4794898 4.8E-07
v -1.90035248 5.22881889 4.8E-07
v -2.77812958 4.81950521 4.8E-07
v -3.57148743 4.26398659 4.8E-07
v -4.25634003 3.57914042 4.8E-07
v 4.2563324 3.57914042 4.8E-07
v 4.8118515 2.78577662 4.8E-07
v 5.22116089 1.90800047 4.8E-07
v 5.4718399 0.97248411 0
v 5.5562439 0.00765133 0
v 5.4718399 -0.95718098 0
v 5.22116089 -1.89269829 0
v 4.8118515 -2.77047348 0
v -4.25634003 -3.56383705 0
v -4.8118515 -2.77047348 0
v -5.22116852 -1.89269829 0
v -5.4718399 -0.95718098 0
v -5.55625153 0.00765133 0
v -5.4718399 0.97248411 0
v -5.22116852 1.90800047 4.8E-07
v -4.8118515 2.78577662 4.8E-07
v 0 3.3858521 4.8E-07
v 0.58661652 3.33452892 4.8E-07
v 1.15541077 3.18212128 4.8E-07
v 1.68909454 2.93325853 4.8E-07
v 2.17146301 2.59550238 4.8E-07
v 2.58785248 2.17911673 4.8E-07
v 2.92560577 1.69675159 0
v 3.17446899 1.16306353 0
v 3.32687378 0.59426975 0
v 3.37819672 0.00765133 0
v 3.32687378 -0.57896709 0
v 3.17446899 -1.14776039 0
v 2.92560577 -1.68144798 0
v 2.58785248 -2.16381359 0
v 2.17146301 -2.58019924 0
v 1.68909454 -2.9179554 0
v 1.15541077 -3.16681767 0
v 0.58661652 -3.31922531 0
v 0 -3.37054825 0
v -0.58662415 -3.31922531 0
v -1.1554184 -3.16681767 0
v -1.68910217 -2.9179554 0
v -2.17146301 -2.58019924 0
v -2.58786011 -2.16381359 0
v -2.92560577 -1.68144798 0
v -3.17446899 -1.14776039 0
v -3.32688141 -0.57896709 0
v -3.37819672 0.00765133 0
v -3.32688141 0.59426975 0
v -3.17446899 1.16306353 0
v -2.92560577 1.69675159 0
v -2.58786011 2.17911673 4.8E-07
v -2.17146301 2.59550238 4.8E-07
v -1.68910217 2.93325853 4.8E-07
v -1.1554184 3.18212128 4.8E-07
v -0.58662415 3.33452892 4.8E-07
v 33 1.70765162 -3.34999967
v 33.29519653 1.68182516 -3.34999967
v 33.58143616 1.60512924 -3.34999967
v 33.84999847 1.47989511 -3.34999967
v 34.09273529 1.30992746 -3.34999967
v 34.30227661 1.10039091 -3.34999967
v 34.47223663 0.85765171 -3.34999967
v 34.59748077 0.58908606 -3.34999967
v 34.67416382 0.30285358 -3.34999967
v 34.69999695 0.00765181 -3.34999967
v 34.67416382 -0.28754997 -3.34999967
v 34.59748077 -0.57378197 -3.34999967
v 34.47223663 -0.8423481 -3.3499999
v 34.30227661 -1.08508682 -3.3499999
v 34.09273529 -1.29462433 -3.3499999
v 33.84999847 -1.46459103 -3.3499999
v 33.58143616 -1.58982563 -3.3499999
v 33.29519653 -1.66652107 -3.3499999
v 33 -1.69234848 -3.3499999
v 32.70479584 -1.66652107 -3.3499999
v 32.41856384 -1.58982563 -3.3499999
v 32.15000153 -1.46459103 -3.3499999
v 31.90725708 -1.29462433 -3.3499999
v 31.69771576 -1.08508682 -3.3499999
v 31.52775574 -0.8423481 -3.3499999
v 31.40251923 -0.57378197 -3.34999967
v 31.32582855 -0.28754997 -3.34999967
v 31.29999542 0.00765181 -3.34999967
v 31.32582855 0.30285358 -3.34999967
v 31.40251923 0.58908606 -3.34999967
v 31.52775574 0.85765171 -3.34999967
v 31.69771576 1.10039091 -3.34999967
v 31.90725708 1.30992746 -3.34999967
v 32.15000153 1.47989511 -3.34999967
v 32.41856384 1.60512924 -3.34999967
v 32.70479584 1.68182516 -3.34999967
v 34.625 -2.80693054 -3.3499999
v 34.11156464 -3.04634953 -3.3499999
v 33.56435394 -3.19297314 -3.3499999
v 33 -3.24234772 -3.3499999
v 32.43563843 -3.19297314 -3.3499999
v 31.88842773 -3.04634953 -3.3499999
v 31.375 -2.80693054 -3.3499999
v 30.91093445 -2.48199177 -3.3499999
v 30.51034546 -2.08140755 -3.3499999
v 30.18541718 -1.61734867 -3.3499999
v 29.94599915 -1.10391331 -3.3499999
v 29.79936981 -0.55670452 -3.34999967
v 29.75 0.00765181 -3.34999967
v 29.79936981 0.57200813 -3.34999967
v 29.94599915 1.1192174 -3.34999967
v 30.18541718 1.63265181 -3.34999967
v 30.51034546 2.09671164 -3.34999967
v 30.91093445 2.49729586 -3.34999967
v 31.375 2.82223463 -3.34999967
v 31.88842773 3.06165266 -3.34999967
v 32.43563843 3.20827675 -3.34999967
v 33 3.25765181 -3.34999967
v 33.56435394 3.20827675 -3.34999967
v 34.11156464 3.06165266 -3.34999967
v 34.625 2.82223463 -3.34999967
v 35.08905792 2.49729586 -3.34999967
v 35.48964691 2.09671164 -3.34999967
v 35.81458282 1.63265181 -3.34999967
v 36.05400085 1.1192174 -3.34999967
v 36.20062256 0.57200813 -3.34999967
v 36.24999237 0.00765181 -3.34999967
v 36.20062256 -0.55670452 -3.34999967
v 36.05400085 -1.10391331 -3.3499999
v 35.81458282 -1.61734867 -3.3499999
v 35.48964691 -2.08140755 -3.3499999
v 35.08905792 -2.48199177 -3.3499999
v -32.99999619 1.70765162 -3.34999967
v -32.70479584 1.68182516 -3.34999967
v -32.41856003 1.60512924 -3.34999967
v -32.14999771 1.47989511 -3.34999967
v -31.90725708 1.30992746 -3.34999967
v -31.69772339 1.10039091 -3.34999967
v -31.52775574 0.85765171 -3.34999967
v -31.40251923 0.58908606 -3.34999967
v -31.32582474 0.30285358 -3.34999967
v -31.29999924 0.00765181 -3.34999967
v -31.32582474 -0.28754997 -3.34999967
v -31.40251923 -0.57378197 -3.34999967
v -31.52775574 -0.8423481 -3.3499999
v -31.69772339 -1.08508682 -3.3499999
v -31.90725708 -1.29462433 -3.3499999
v -32.14999771 -1.46459103 -3.3499999
v -32.41856003 -1.58982563 -3.3499999
v -32.70479584 -1.66652107 -3.3499999
v -32.99999619 -1.69234848 -3.3499999
v -33.29520035 -1.66652107 -3.3499999
v -33.58143234 -1.58982563 -3.3499999
v -33.84999847 -1.46459103 -3.3499999
v -34.09273911 -1.29462433 -3.3499999
v -34.3022728 -1.08508682 -3.3499999
v -34.47224045 -0.8423481 -3.3499999
v -34.59747696 -0.57378197 -3.34999967
v -34.67416763 -0.28754997 -3.34999967
v -34.69999695 0.00765181 -3.34999967
v -34.67416763 0.30285358 -3.34999967
v -34.59747696 0.58908606 -3.34999967
v -34.47224045 0.85765171 -3.34999967
v -34.3022728 1.10039091 -3.34999967
v -34.09273911 1.30992746 -3.34999967
v -33.84999847 1.47989511 -3.34999967
v -33.58143234 1.60512924 -3.34999967
v -33.29520035 1.68182516 -3.34999967
v -31.37499619 -2.80693054 -3.3499999
v -31.88843155 -3.04634953 -3.3499999
v -32.43564224 -3.19297314 -3.3499999
v -32.99999619 -3.24234772 -3.3499999
v -33.56435394 -3.19297314 -3.3499999
v -34.11156464 -3.04634953 -3.3499999
v -34.625 -2.80693054 -3.3499999
v -35.08905792 -2.48199177 -3.3499999
v -35.4896431 -2.08140755 -3.3499999
v -35.81458282 -1.61734867 -3.3499999
v -36.05399704 -1.10391331 -3.3499999
v -36.20062256 -0.55670452 -3.34999967
v -36.24999619 0.00765181 -3.34999967
v -36.20062256 0.57200813 -3.34999967
v -36.05399704 1.1192174 -3.34999967
v -35.81458282 1.63265181 -3.34999967
v -35.4896431 2.09671164 -3.34999967
v -35.08905792 2.49729586 -3.34999967
v -34.625 2.82223463 -3.34999967
v -34.11156464 3.06165266 -3.34999967
v -33.56435394 3.20827675 -3.34999967
v -32.99999619 3.25765181 -3.34999967
v -32.43564224 3.20827675 -3.34999967
v -31.88843155 3.06165266 -3.34999967
v -31.37499619 2.82223463 -3.34999967
v -30.91093826 2.49729586 -3.34999967
v -30.51035309 2.09671164 -3.34999967
v -30.18541336 1.63265181 -3.34999967
v -29.94599915 1.1192174 -3.34999967
v -29.79937363 0.57200813 -3.34999967
v -29.75 0.00765181 -3.34999967
v -29.79937363 -0.55670452 -3.34999967
v -29.94599915 -1.10391331 -3.3499999
v -30.18541336 -1.61734867 -3.3499999
v -30.51035309 -2.08140755 -3.3499999
v -30.91093826 -2.48199177 -3.3499999
vn 0 0 -1
vn -0 0 -1
vn 0 0 -1
vn 0 0 -1
vn 0 0 -1
vn 0 0 -1
vn -0 0 -1
vn -0 -0 -1
vn 0 0 -1
vn -0 0 -1
vn -0 0 -1
vn 0 0 -1
vn -0 0.86603 0.5
vn 0 0 1
vn 0 0 1
vn -0 -0 1
vn -0 -0 1
vn -0 -0 1
vn -0 -0 1
vn -0 -0 1
vn -0 -0 1
vn -0 -0 1
vn -0 -0 1
vn 0 -0 1
vn 0 -0 1
vn -0 -0 1
vn -0 -0 1
vn -0 -0 1
vn 0 -0 1
vn 0 -0 1
vn 0 -0 1
vn 0 -0 1
vn 0 -0 1
vn 0 -0 1
vn 0 -0 1
vn 0 -0 1
vn 0 -0 1
vn 0 -0 1
vn 0 -0 1
vn 0 -0 1
vn 0 -0 1
vn 0 0 1
vn 0 -0 1
vn 0 -0 1
vn 0 -0 1
vn -0 -0 1
vn 0 -0.86603 0.5
vn 0 -0.86603 -0.5
vn -0 -0.86602 -0.50001
vn 0 -0.86603 -0.5
vn 0 -0.86603 -0.5
vn -0 -0.86602 -0.5
vn 0 -0.86603 -0.5
vn 0 -0.86602 -0.50001
vn -0 -0.86603 -0.5
vn -0 -0.86603 -0.5
vn -0 -0.86603 -0.5
vn -0 -0.86602 -0.5
vn 0 -0.86603 -0.5
vn -0 -0.86602 -0.5
vn -0 -0.86602 -0.5
vn 0 -0.86603 -0.5
vn -0 -0.86603 -0.5
vn -0 -0.86603 -0.5
vn 0 -0.86603 -0.5
vn -0 -0.86602 -0.5
vn -0 -0.86602 -0.5
vn 0 0 -1
vn -0 0 -1
vn 0 -0 -1
vn -0 0 -1
vn -0 0 -1
vn -0 0 -1
vn 0 -0 -1
vn 0 0 -1
vn 0 0 -1
vn -0 0 -1
vn 0 -0 -1
vn -0 0 -1
vn -0 0.86603 -0.5
vn 0 0.86602 -0.5
vn 0 0.86603 -0.5
vn 0 0.86603 -0.5
vn 0 0.86603 -0.5
vn -0 0.86603 -0.5
vn -0 0.86602 -0.5
vn 0 0.86603 -0.5
vn -0 0.86603 -0.5
vn -0 0.86603 -0.5
vn 0 0.86603 -0.5
vn 0 0.86603 -0.5
vn -0 0.86603 -0.5
vn 0 0.86603 -0.5
vn -0 0.86603 -0.5
vn 0 0.86603 -0.5
vn 0 0.86603 -0.5
vn 0 0.86603 -0.5
vn -0 0.86603 -0.5
vn 0 0.86603 -0.5
vn -0 0.86603 -0.5
vn 1 0 0
vn 1 0 0
vn 0.8563 -0.49888 -0.13367
vn 0.8563 -0.51451 -0.04501
vn 0.8563 -0.36521 -0.3652
vn 0.8563 -0.42307 -0.29624
vn 0.8563 -0.46809 -0.21827
vn 0.8563 -0.13367 -0.49888
vn 0.8563 -0.21827 -0.46809
vn 0.8563 -0.29624 -0.42307
vn 0.8563 0.13367 -0.49888
vn 0.8563 0.04501 -0.51451
vn 0.8563 -0.04501 -0.51451
vn 0.8563 0.36521 -0.3652
vn 0.8563 0.29624 -0.42307
vn 0.8563 0.21827 -0.46809
vn 0.8563 0.49888 -0.13367
vn 0.8563 0.46809 -0.21827
vn 0.8563 0.42307 -0.29624
vn 0.8563 0.49888 0.13367
vn 0.8563 0.51451 0.04501
vn 0.8563 0.51451 -0.04501
vn 0.8563 0.36521 0.3652
vn 0.8563 0.42307 0.29624
vn 0.8563 0.46809 0.21827
vn 0.8563 0.13367 0.49888
vn 0.8563 0.21827 0.46809
vn 0.8563 0.29624 0.42307
vn 0.8563 -0.13367 0.49888
vn 0.8563 -0.04501 0.51451
vn 0.8563 0.04501 0.51451
vn 0.8563 -0.36521 0.3652
vn 0.8563 -0.29624 0.42307
vn 0.8563 -0.21827 0.46809
vn 0.8563 -0.49888 0.13367
vn 0.8563 -0.46809 0.21827
vn 0.8563 -0.42307 0.29624
vn 0.8563 -0.51451 0.04501
vn 0 -0.99619 -0.08716
vn 0 -0.96593 -0.25882
vn 0 -0.90631 -0.42262
vn 0 -0.81915 -0.57358
vn 0 -0.70711 -0.70711
vn 0 -0.57358 -0.81915
vn 0 -0.42262 -0.90631
vn 0 -0.25882 -0.96593
vn 0 -0.08715 -0.99619
vn 0 0.08715 -0.99619
vn 0 0.25882 -0.96593
vn 0 0.42262 -0.90631
vn 0 0.57358 -0.81915
vn 0 0.70711 -0.70711
vn 0 0.81915 -0.57358
vn 0 0.90631 -0.42262
vn 0 0.96593 -0.25882
vn 0 0.99619 -0.08716
vn -0 0.99619 0.08716
vn -0 0.96593 0.25882
vn -0 0.90631 0.42262
vn -0 0.81915 0.57358
vn -0 0.70711 0.70711
vn -0 0.57358 0.81915
vn -0 0.42262 0.90631
vn -0 0.25882 0.96593
vn -0 0.08716 0.99619
vn 0 -0.08716 0.99619
vn 0 -0.25882 0.96593
vn 0 -0.42262 0.90631
vn 0 -0.57358 0.81915
vn 0 -0.70711 0.70711
vn 0 -0.81915 0.57358
vn 0 -0.90631 0.42262
vn 0 -0.96593 0.25882
vn 0 -0.99619 0.08716
vn -1 0 0
vn -1 0 0
vn -0.8563 -0.49888 0.13367
vn -0.8563 -0.51451 0.04501
vn -0.8563 -0.36521 0.36521
vn -0.8563 -0.42308 0.29624
vn -0.8563 -0.46809 0.21827
vn -0.8563 -0.13367 0.49888
vn -0.8563 -0.21827 0.46809
vn -0.8563 -0.29624 0.42308
vn -0.8563 0.13367 0.49888
vn -0.8563 0.04501 0.51451
vn -0.8563 -0.04501 0.51451
vn -0.8563 0.36521 0.36521
vn -0.8563 0.29624 0.42308
vn -0.8563 0.21827 0.46809
vn -0.8563 0.49888 0.13367
vn -0.8563 0.46809 0.21827
vn -0.8563 0.42308 0.29624
vn -0.8563 0.49888 -0.13367
vn -0.8563 0.51451 -0.04501
vn -0.8563 0.51451 0.04501
vn -0.8563 0.36521 -0.36521
vn -0.8563 0.42308 -0.29624
vn -0.8563 0.46809 -0.21827
vn -0.8563 0.13368 -0.49888
vn -0.8563 0.21827 -0.46809
vn -0.8563 0.29624 -0.42308
vn -0.8563 -0.13367 -0.49888
vn -0.8563 -0.04501 -0.51451
vn -0.8563 0.04501 -0.51451
vn -0.8563 -0.36521 -0.36521
vn -0.8563 -0.29624 -0.42308
vn -0.8563 -0.21827 -0.46809
vn -0.8563 -0.49888 -0.13367
vn -0.8563 -0.46809 -0.21827
vn -0.8563 -0.42308 -0.29624
vn -0.8563 -0.51451 -0.04501
vn 0 -0.99619 0.08716
vn 0 -0.90631 0.42262
vn 0 -0.81915 0.57358
vn 0 -0.70711 0.70711
vn 0 -0.57358 0.81915
vn 0 -0.42262 0.90631
vn 0 0.25882 0.96593
vn 0 0.42262 0.90631
vn 0 0.57358 0.81915
vn 0 0.70711 0.70711
vn 0 0.81915 0.57358
vn 0 0.90631 0.42262
vn 0 0.99619 0.08716
vn 0 0.99619 -0.08716
vn 0 0.90631 -0.42262
vn 0 0.81915 -0.57358
vn 0 0.70711 -0.70711
vn 0 0.42262 -0.90631
vn 0 0.25882 -0.96593
vn 0 0.08715 -0.99619
vn -0 -0.08715 -0.99619
vn -0 -0.42262 -0.90631
vn -0 -0.57358 -0.81915
vn -0 -0.70711 -0.70711
vn -0 -0.81915 -0.57358
vn -0 -0.90631 -0.42262
vn -0 -0.99619 -0.08716
vn -0.13052 -0.99145 0
vn -0.75681 -0.64969 -0.07177
vn 0.13053 0.99144 0
vn 0.75681 0.64969 -0.07177
vn 0.57358 0.81915 0
vn 0.25882 0.96593 0
vn 0.22074 0.97526 -0.01178
vn 0.30071 0.95372 0
vn 0.42262 0.90631 0
vn 0.38867 0.92132 -0.00983
vn 0.46175 0.88701 0
vn 0.04463 0.99891 -0.01341
vn 0.08716 0.99619 -0
vn -0.04362 0.99905 0
vn -0.08715 0.99617 -0.00679
vn -0.13052 0.99145 0
vn -0.21644 0.9763 0
vn -0.25881 0.96591 -0.00621
vn -0.30071 0.95372 0
vn -0.38269 0.92388 0
vn -0.42261 0.9063 -0.00531
vn -0.46174 0.88701 0
vn -0.5373 0.84339 0
vn -0.57357 0.81914 -0.00439
vn -0.60876 0.79335 0
vn -0.70711 0.70711 0
vn -0.70057 0.71358 -0.00167
vn -0.57358 -0.81915 -0
vn -0.25882 -0.96593 -0
vn -0.22074 -0.97526 -0.01178
vn -0.3007 -0.95372 -0
vn -0.42262 -0.90631 -0
vn -0.38868 -0.92132 -0.00983
vn -0.46174 -0.88702 -0
vn -0.04463 -0.99891 -0.01341
vn -0.08716 -0.99619 0
vn 0.04362 -0.99905 0
vn 0.08715 -0.99617 -0.00679
vn 0.13053 -0.99144 0
vn 0.21644 -0.9763 0
vn 0.25881 -0.96591 -0.00621
vn 0.3007 -0.95372 0
vn 0.38268 -0.92388 0
vn 0.42261 -0.9063 -0.00531
vn 0.46175 -0.88701 -0
vn 0.5373 -0.84339 -0
vn 0.57357 -0.81914 -0.00439
vn 0.60876 -0.79335 0
vn 0.7071 -0.70711 0
vn 0.70057 -0.71359 -0.00167
vn -0.54357 -0.83933 -0.00802
vn -0.60876 -0.79335 -0
vn -0.70711 -0.70711 -0
vn -0.70711 -0.70711 -0
vn -0.81915 -0.57358 -0
vn -0.81915 -0.57358 -0
vn -0.90631 -0.42261 -0
vn -0.96592 -0.25883 -0
vn -0.9962 -0.08715 -0
vn -0.9962 0.08715 0
vn -0.9962 0.08715 0
vn -0.96592 0.25883 0
vn -0.90631 0.42261 0
vn -0.81915 0.57358 0
vn -0.75876 0.65137 0
vn 0.54357 0.83933 -0.00802
vn 0.60876 0.79335 0
vn 0.7071 0.70711 0
vn 0.81916 0.57357 0
vn 0.90631 0.42262 0
vn 0.96593 0.25882 0
vn 0.99619 0.08716 0
vn 0.99619 0.08716 0
vn 0.99619 -0.08716 -0
vn 0.96593 -0.25882 -0
vn 0.90631 -0.42262 -0
vn 0.81916 -0.57357 -0
vn 0.81916 -0.57357 -0
vn 0.75876 -0.65137 -0
vn -0.08716 -0.99619 -0
vn -0.08716 -0.99619 -0
vn -0.25882 -0.96593 -0
vn -0.42262 -0.90631 -0
vn -0.57357 -0.81915 -0
vn -0.7071 -0.70711 -0
vn -0.81915 -0.57357 -0
vn -0.81915 -0.57357 -0
vn -0.90631 -0.42262 -0
vn -0.96593 -0.25881 -0
vn -0.99619 -0.08716 -0
vn -0.99619 0.08716 0
vn -0.96593 0.25881 0
vn -0.96593 0.25881 0
vn -0.90631 0.42262 0
vn -0.81915 0.57357 0
vn -0.7071 0.70711 0
vn -0.57357 0.81915 0
vn -0.42262 0.90631 0
vn -0.25882 0.96593 0
vn -0.08716 0.99619 0
vn 0.08716 0.99619 0
vn 0.25882 0.96593 0
vn 0.42262 0.90631 0
vn 0.57358 0.81915 0
vn 0.7071 0.70712 0
vn 0.81916 0.57356 0
vn 0.90631 0.42262 0
vn 0.96592 0.25883 0
vn 0.96592 0.25883 0
vn 0.9962 0.08714 0
vn 0.9962 -0.08714 0
vn 0.96592 -0.25883 0
vn 0.90631 -0.42262 0
vn 0.81916 -0.57356 0
vn 0.81916 -0.57357 0
vn 0.7071 -0.70712 0
vn 0.57358 -0.81915 0
vn 0.42262 -0.90631 0
vn 0.25882 -0.96593 0
vn 0.08716 -0.99619 0
vn 0.08716 -0.99619 -0
vn -0 0 -1
vn 0 0 -1
vn 0 0 -1
vn 0 0 -1
vn 0 0 -1
vn -0 0 -1
vn -0 0 -1
vn -0 0 -1
vn -0 0 -1
vn 0 0 -1
vn -0.08716 -0.99619 -0
vn -0.25881 -0.96593 -0
vn -0.42262 -0.90631 -0
vn -0.57358 -0.81915 -0
vn -0.7071 -0.70711 -0
vn -0.81916 -0.57356 -0
vn -0.90629 -0.42265 -0
vn -0.96594 -0.25878 -0
vn -0.99619 -0.08718 -0
vn -0.99619 0.08718 0
vn -0.96594 0.25878 0
vn -0.9063 0.42264 0
vn -0.9063 0.42265 0
vn -0.81916 0.57356 0
vn -0.7071 0.70711 0
vn -0.57358 0.81915 0
vn -0.42262 0.90631 0
vn -0.25881 0.96593 0
vn -0.08716 0.99619 0
vn 0.08716 0.99619 0
vn 0.25882 0.96593 0
vn 0.42262 0.90631 0
vn 0.57357 0.81916 0
vn 0.7071 0.70711 0
vn 0.81916 0.57356 0
vn 0.90631 0.42262 0
vn 0.90631 0.42262 0
vn 0.96593 0.2588 0
vn 0.99619 0.08718 0
vn 0.99619 -0.08718 -0
vn 0.96593 -0.2588 -0
vn 0.9063 -0.42262 -0
vn 0.81916 -0.57356 -0
vn 0.7071 -0.70711 -0
vn 0.57357 -0.81916 -0
vn 0.42262 -0.90631 -0
vn 0.25882 -0.96593 -0
vn 0.08715 -0.99619 -0
vn -0 0 -1
vn 0 0 -1
vn 0 0 -1
vn -0 0 -1
vn -0 0 -1
vn 0 0 -1
vn -0.08716 -0.99619 -0
vn -0.25882 -0.96593 -0
vn -0.42262 -0.90631 -0
vn -0.57358 -0.81915 -0
vn -0.7071 -0.70711 -0
vn -0.81915 -0.57357 -0
vn -0.90631 -0.42262 -0
vn -0.96593 -0.25881 -0
vn -0.9962 -0.08715 -0
vn -0.9962 0.08715 0
vn -0.96593 0.25881 0
vn -0.96593 0.25882 0
vn -0.90631 0.42262 0
vn -0.81915 0.57357 0
vn -0.7071 0.70711 0
vn -0.57358 0.81915 0
vn -0.42262 0.90631 0
vn -0.25882 0.96593 0
vn -0.08716 0.99619 0
vn 0.08715 0.99619 0
vn 0.25882 0.96593 0
vn 0.42262 0.90631 0
vn 0.57357 0.81915 0
vn 0.7071 0.70711 0
vn 0.81916 0.57357 0
vn 0.90631 0.42262 0
vn 0.96592 0.25883 0
vn 0.96592 0.25883 0
vn 0.9962 0.08715 0
vn 0.9962 -0.08715 0
vn 0.96592 -0.25883 0
vn 0.90631 -0.42262 0
vn 0.81916 -0.57356 0
vn 0.81916 -0.57356 0
vn 0.7071 -0.70711 0
vn 0.57357 -0.81915 0
vn 0.42262 -0.90631 0
vn 0.25882 -0.96593 0
vn 0.08716 -0.99619 0
vn -0.08715 -0.99619 -0
vn -0.25882 -0.96593 -0
vn -0.57357 -0.81915 -0
vn -0.70711 -0.7071 -0
vn -0.81915 -0.57358 -0
vn -0.9063 -0.42262 -0
vn -0.96593 -0.25882 -0
vn -0.9962 -0.08715 -0
vn -0.9962 0.08715 0
vn -0.96593 0.25882 0
vn -0.90631 0.42262 0
vn -0.90631 0.42262 0
vn -0.81915 0.57358 0
vn -0.70711 0.7071 0
vn -0.57357 0.81916 0
vn -0.25882 0.96593 0
vn -0.08716 0.99619 0
vn 0.42262 0.90631 0
vn 0.57357 0.81916 0
vn 0.70711 0.7071 0
vn 0.81915 0.57358 0
vn 0.99619 0.08716 0
vn 0.99619 -0.08716 -0
vn 0.81915 -0.57358 -0
vn 0.70711 -0.7071 -0
vn 0.57357 -0.81915 -0
vn 0.42262 -0.90631 -0
vn -0 0 -1
vn 0 0 -1
vn -0 0 -1
vn -0 0 -1
vn 0 0 -1
vn -0.70711 -0.70711 -0
vn -0.81915 -0.57358 -0
vn -0.81915 -0.57358 -0
vn -0.90631 -0.42261 -0
vn -0.96593 -0.25882 -0
vn -0.99619 -0.08715 -0
vn -0.99619 0.08715 0
vn -0.96593 0.25882 0
vn -0.96593 0.25882 0
vn -0.90631 0.42261 0
vn -0.81915 0.57358 0
vn -0.70711 0.70711 0
vn 0.08716 0.99619 0
vn 0.42262 0.90631 0
vn 0.57358 0.81915 0
vn 0.70711 0.70711 0
vn 0.81915 0.57358 0
vn 0.90631 0.42261 0
vn 0.96593 0.25882 0
vn 0.96593 0.25882 0
vn 0.99619 0.08715 0
vn 0.99619 -0.08715 0
vn 0.96593 -0.25882 0
vn 0.90631 -0.42261 0
vn 0.81915 -0.57358 0
vn 0.81915 -0.57358 0
vn 0.70711 -0.70711 0
vn 0.57358 -0.81915 0
vn 0.42262 -0.90631 0
vn 0.08716 -0.99619 0
f 1//1 2//1 3//1
f 4//2 5//2 6//2
f 6//3 5//3 7//3
f 2//1 8//1 3//1
f 3//1 8//1 9//1
f 3//4 9//4 5//4
f 5//5 9//5 10//5
f 5//6 10//6 7//6
f 4//1 11//1 5//1
f 5//1 11//1 12//1
f 5//1 12//1 13//1
f 13//1 14//1 5//1
f 5//1 14//1 15//1
f 5//7 15//7 16//7
f 16//1 15//1 17//1
f 18//7 19//7 20//7
f 21//1 3//1 22//1
f 22//7 3//7 23//7
f 21//1 24//1 3//1
f 3//1 24//1 25//1
f 3//1 25//1 1//1
f 26//8 27//8 28//8
f 29//1 30//1 19//1
f 19//1 30//1 31//1
f 31//1 32//1 19//1
f 19//1 32//1 33//1
f 19//1 33//1 34//1
f 23//1 3//1 20//1
f 20//1 3//1 35//1
f 20//1 35//1 18//1
f 17//7 15//7 27//7
f 27//1 15//1 36//1
f 27//1 36//1 37//1
f 37//1 38//1 27//1
f 27//1 38//1 39//1
f 27//1 39//1 40//1
f 34//1 41//1 19//1
f 19//1 41//1 42//1
f 19//1 42//1 20//1
f 40//9 43//9 27//9
f 27//10 43//10 44//10
f 27//11 44//11 28//11
f 19//1 45//1 29//1
f 29//1 45//1 46//1
f 29//1 46//1 47//1
f 47//1 46//1 48//1
f 47//1 48//1 28//1
f 28//1 48//1 49//1
f 28//12 49//12 26//12
f 50//13 51//13 52//13
f 52//13 51//13 53//13
f 54//14 55//14 56//14
f 57//14 58//14 59//14
f 59//14 58//14 60//14
f 59//14 60//14 54//14
f 54//14 60//14 61//14
f 54//15 61//15 55//15
f 56//14 62//14 54//14
f 54//14 62//14 63//14
f 54//14 63//14 64//14
f 64//16 65//16 66//16
f 65//17 67//17 66//17
f 66//18 67//18 68//18
f 66//19 68//19 69//19
f 69//20 70//20 66//20
f 66//21 70//21 71//21
f 66//22 71//22 72//22
f 73//14 74//14 75//14
f 75//14 74//14 76//14
f 75//14 76//14 77//14
f 57//14 78//14 58//14
f 58//14 78//14 79//14
f 58//14 79//14 80//14
f 81//14 82//14 83//14
f 83//15 82//15 84//15
f 64//23 66//23 54//23
f 54//24 66//24 85//24
f 54//25 85//25 86//25
f 87//14 50//14 88//14
f 88//26 50//26 66//26
f 88//27 66//27 89//27
f 89//28 66//28 72//28
f 73//15 90//15 74//15
f 74//14 90//14 91//14
f 74//14 91//14 92//14
f 93//14 94//14 95//14
f 84//14 96//14 83//14
f 83//14 96//14 97//14
f 83//14 97//14 98//14
f 99//14 100//14 101//14
f 87//15 102//15 50//15
f 50//14 102//14 103//14
f 50//14 103//14 104//14
f 93//14 95//14 105//14
f 80//14 106//14 58//14
f 58//15 106//15 107//15
f 58//14 107//14 108//14
f 108//14 107//14 109//14
f 108//14 109//14 110//14
f 110//14 109//14 111//14
f 110//14 111//14 81//14
f 81//14 111//14 112//14
f 81//15 112//15 82//15
f 113//15 114//15 99//15
f 99//14 114//14 115//14
f 99//15 115//15 100//15
f 92//14 116//14 74//14
f 74//14 116//14 117//14
f 74//14 117//14 118//14
f 118//15 117//15 99//15
f 118//14 99//14 119//14
f 119//14 99//14 101//14
f 94//14 120//14 95//14
f 95//14 120//14 121//14
f 95//14 121//14 122//14
f 122//14 121//14 83//14
f 122//14 83//14 123//14
f 123//14 83//14 98//14
f 104//14 124//14 50//14
f 50//14 124//14 125//14
f 50//14 125//14 126//14
f 127//29 128//29 85//29
f 85//30 128//30 129//30
f 85//31 129//31 130//31
f 130//32 131//32 85//32
f 85//33 131//33 132//33
f 85//34 132//34 86//34
f 133//35 134//35 85//35
f 85//36 134//36 135//36
f 85//37 135//37 136//37
f 136//38 137//38 85//38
f 85//39 137//39 138//39
f 85//40 138//40 139//40
f 113//15 99//15 140//15
f 140//14 99//14 141//14
f 140//14 141//14 142//14
f 143//15 95//15 144//15
f 144//14 95//14 145//14
f 77//14 146//14 75//14
f 75//14 146//14 147//14
f 75//14 147//14 95//14
f 95//14 147//14 148//14
f 95//14 148//14 145//14
f 149//14 150//14 51//14
f 150//14 151//14 51//14
f 51//15 151//15 152//15
f 51//41 152//41 85//41
f 85//42 152//42 153//42
f 85//43 153//43 133//43
f 139//44 154//44 85//44
f 85//45 154//45 140//45
f 85//46 140//46 127//46
f 127//14 140//14 142//14
f 155//14 156//14 51//14
f 51//14 156//14 157//14
f 51//14 157//14 149//14
f 51//14 50//14 95//14
f 126//14 158//14 50//14
f 50//15 158//15 159//15
f 50//14 159//14 95//14
f 95//14 159//14 160//14
f 95//14 160//14 105//14
f 143//14 161//14 95//14
f 95//14 161//14 162//14
f 95//14 162//14 51//14
f 51//15 162//15 163//15
f 51//14 163//14 155//14
f 164//47 165//47 66//47
f 66//47 165//47 85//47
f 166//48 167//48 164//48
f 164//49 167//49 168//49
f 164//50 168//50 165//50
f 169//51 170//51 164//51
f 164//52 170//52 171//52
f 164//53 171//53 166//53
f 168//54 172//54 165//54
f 165//55 172//55 173//55
f 165//56 173//56 3//56
f 3//57 173//57 174//57
f 174//58 175//58 3//58
f 3//59 175//59 176//59
f 3//60 176//60 177//60
f 177//61 178//61 3//61
f 3//62 178//62 179//62
f 3//63 179//63 35//63
f 180//50 181//50 164//50
f 164//64 181//64 182//64
f 182//65 183//65 164//65
f 164//66 183//66 184//66
f 164//67 184//67 169//67
f 185//1 186//1 187//1
f 187//68 186//68 188//68
f 187//69 188//69 189//69
f 190//70 191//70 192//70
f 193//1 187//1 194//1
f 194//7 187//7 195//7
f 196//1 180//1 197//1
f 197//71 180//71 187//71
f 197//72 187//72 198//72
f 198//73 187//73 189//73
f 190//74 192//74 195//74
f 195//75 192//75 199//75
f 195//76 199//76 200//76
f 193//1 201//1 187//1
f 187//1 201//1 202//1
f 187//1 202//1 185//1
f 200//77 203//77 195//77
f 195//1 203//1 204//1
f 195//1 204//1 205//1
f 196//7 206//7 180//7
f 180//1 206//1 207//1
f 180//1 207//1 208//1
f 191//78 209//78 192//78
f 192//79 209//79 210//79
f 192//7 210//7 211//7
f 211//1 210//1 212//1
f 211//7 212//7 213//7
f 212//1 214//1 213//1
f 213//1 214//1 215//1
f 213//7 215//7 216//7
f 205//1 217//1 195//1
f 195//1 217//1 218//1
f 195//1 218//1 194//1
f 208//1 219//1 180//1
f 180//1 219//1 220//1
f 180//1 220//1 221//1
f 222//1 223//1 181//1
f 223//1 224//1 181//1
f 181//1 224//1 225//1
f 181//1 225//1 226//1
f 226//1 227//1 181//1
f 181//1 227//1 213//1
f 181//7 213//7 228//7
f 228//1 213//1 216//1
f 221//7 229//7 180//7
f 180//7 229//7 230//7
f 180//7 230//7 181//7
f 181//1 230//1 231//1
f 181//1 231//1 222//1
f 232//80 233//80 53//80
f 53//81 233//81 234//81
f 53//82 234//82 52//82
f 235//83 236//83 53//83
f 53//84 236//84 237//84
f 53//85 237//85 232//85
f 234//86 238//86 52//86
f 52//87 238//87 239//87
f 52//88 239//88 187//88
f 187//89 239//89 240//89
f 240//90 241//90 187//90
f 187//91 241//91 242//91
f 187//92 242//92 243//92
f 243//93 244//93 187//93
f 187//94 244//94 245//94
f 187//95 245//95 195//95
f 5//96 16//96 53//96
f 53//97 16//97 246//97
f 246//98 247//98 53//98
f 53//99 247//99 248//99
f 53//100 248//100 235//100
f 249//101 250//101 53//101
f 251//101 252//101 85//101
f 250//101 253//101 53//101
f 53//101 253//101 254//101
f 53//102 254//102 5//102
f 5//102 254//102 255//102
f 255//101 256//101 5//101
f 5//101 256//101 257//101
f 5//102 257//102 258//102
f 259//101 3//101 260//101
f 260//102 3//102 261//102
f 259//102 262//102 3//102
f 3//102 262//102 263//102
f 3//102 263//102 165//102
f 264//101 265//101 51//101
f 51//101 265//101 266//101
f 258//101 267//101 5//101
f 5//101 267//101 268//101
f 5//102 268//102 3//102
f 3//101 268//101 269//101
f 3//101 269//101 261//101
f 263//101 270//101 165//101
f 165//101 270//101 271//101
f 165//101 271//101 272//101
f 165//102 273//102 85//102
f 85//101 273//101 274//101
f 274//102 275//102 85//102
f 85//101 275//101 276//101
f 85//101 276//101 251//101
f 252//101 277//101 85//101
f 85//101 277//101 278//101
f 85//101 278//101 51//101
f 51//101 278//101 279//101
f 51//101 279//101 264//101
f 266//102 280//102 51//102
f 51//102 280//102 281//102
f 51//101 281//101 53//101
f 53//102 281//102 282//102
f 53//101 282//101 249//101
f 272//101 283//101 165//101
f 165//101 283//101 284//101
f 165//101 284//101 273//101
f 285//103 286//103 287//103
f 288//104 286//104 285//104
f 285//105 289//105 290//105
f 291//106 289//106 285//106
f 287//107 291//107 285//107
f 285//108 292//108 293//108
f 294//109 292//109 285//109
f 290//110 294//110 285//110
f 285//111 295//111 296//111
f 297//112 295//112 285//112
f 293//113 297//113 285//113
f 285//114 298//114 299//114
f 300//115 298//115 285//115
f 296//116 300//116 285//116
f 285//117 301//117 302//117
f 303//118 301//118 285//118
f 299//119 303//119 285//119
f 285//120 304//120 305//120
f 306//121 304//121 285//121
f 302//122 306//122 285//122
f 285//123 307//123 308//123
f 309//124 307//124 285//124
f 305//125 309//125 285//125
f 285//126 310//126 311//126
f 312//127 310//127 285//127
f 308//128 312//128 285//128
f 285//129 313//129 314//129
f 315//130 313//130 285//130
f 311//131 315//131 285//131
f 285//132 316//132 317//132
f 318//133 316//133 285//133
f 314//134 318//134 285//134
f 285//135 319//135 320//135
f 321//136 319//136 285//136
f 317//137 321//137 285//137
f 320//138 288//138 285//138
f 288//139 250//139 286//139
f 286//139 250//139 249//139
f 286//140 249//140 287//140
f 287//140 249//140 282//140
f 287//141 282//141 291//141
f 291//141 282//141 281//141
f 291//142 281//142 289//142
f 289//142 281//142 280//142
f 289//143 280//143 290//143
f 290//143 280//143 266//143
f 290//144 266//144 294//144
f 294//144 266//144 265//144
f 294//145 265//145 292//145
f 292//145 265//145 264//145
f 292//146 264//146 293//146
f 293//146 264//146 279//146
f 293//147 279//147 297//147
f 297//147 279//147 278//147
f 297//148 278//148 295//148
f 295//148 278//148 277//148
f 295//149 277//149 296//149
f 296//149 277//149 252//149
f 296//150 252//150 300//150
f 300//150 252//150 251//150
f 300//151 251//151 298//151
f 298//151 251//151 276//151
f 298//152 276//152 299//152
f 299//152 276//152 275//152
f 299//153 275//153 303//153
f 303//153 275//153 274//153
f 303//154 274//154 301//154
f 301//154 274//154 273//154
f 301//155 273//155 302//155
f 302//155 273//155 284//155
f 302//156 284//156 306//156
f 306//156 284//156 283//156
f 306//157 283//157 304//157
f 304//157 283//157 272//157
f 304//158 272//158 305//158
f 305//158 272//158 271//158
f 305//159 271//159 309//159
f 309//159 271//159 270//159
f 309//160 270//160 307//160
f 307//160 270//160 263//160
f 307//161 263//161 308//161
f 308//161 263//161 262//161
f 308//162 262//162 312//162
f 312//162 262//162 259//162
f 312//163 259//163 310//163
f 310//163 259//163 260//163
f 310//164 260//164 311//164
f 311//164 260//164 261//164
f 311//165 261//165 315//165
f 315//165 261//165 269//165
f 315//166 269//166 313//166
f 313//166 269//166 268//166
f 313//167 268//167 314//167
f 314//167 268//167 267//167
f 314//168 267//168 318//168
f 318//168 267//168 258//168
f 318//169 258//169 316//169
f 316//169 258//169 257//169
f 316//170 257//170 317//170
f 317//170 257//170 256//170
f 317//171 256//171 321//171
f 321//171 256//171 255//171
f 321//172 255//172 319//172
f 319//172 255//172 254//172
f 319//173 254//173 320//173
f 320//173 254//173 253//173
f 320//174 253//174 288//174
f 288//174 253//174 250//174
f 322//175 323//175 187//175
f 187//175 323//175 324//175
f 187//176 324//176 325//176
f 326//175 180//175 327//175
f 327//175 180//175 164//175
f 327//175 164//175 328//175
f 329//176 330//176 50//176
f 50//175 330//175 331//175
f 332//175 333//175 164//175
f 164//175 333//175 334//175
f 164//175 334//175 328//175
f 326//175 335//175 180//175
f 180//176 335//176 336//176
f 180//176 336//176 337//176
f 338//175 66//175 339//175
f 339//175 66//175 340//175
f 337//175 341//175 180//175
f 180//176 341//176 342//176
f 180//176 342//176 187//176
f 187//175 342//175 343//175
f 187//175 343//175 322//175
f 325//175 344//175 187//175
f 187//175 344//175 345//175
f 187//175 345//175 52//175
f 345//175 346//175 52//175
f 52//175 346//175 347//175
f 52//175 347//175 348//175
f 331//175 349//175 50//175
f 50//175 349//175 350//175
f 50//176 350//176 66//176
f 66//175 350//175 351//175
f 66//175 351//175 340//175
f 338//175 352//175 66//175
f 66//175 352//175 353//175
f 66//175 353//175 164//175
f 164//175 353//175 354//175
f 164//175 354//175 332//175
f 348//175 355//175 52//175
f 52//175 355//175 356//175
f 52//175 356//175 50//175
f 50//175 356//175 357//175
f 50//176 357//176 329//176
f 358//177 359//177 360//177
f 361//178 359//178 358//178
f 358//179 362//179 363//179
f 364//180 362//180 358//180
f 360//181 364//181 358//181
f 358//182 365//182 366//182
f 367//183 365//183 358//183
f 363//184 367//184 358//184
f 358//185 368//185 369//185
f 370//186 368//186 358//186
f 366//187 370//187 358//187
f 358//188 371//188 372//188
f 373//189 371//189 358//189
f 369//190 373//190 358//190
f 358//191 374//191 375//191
f 376//192 374//192 358//192
f 372//193 376//193 358//193
f 358//194 377//194 378//194
f 379//195 377//195 358//195
f 375//196 379//196 358//196
f 358//197 380//197 381//197
f 382//198 380//198 358//198
f 378//199 382//199 358//199
f 358//200 383//200 384//200
f 385//201 383//201 358//201
f 381//202 385//202 358//202
f 358//203 386//203 387//203
f 388//204 386//204 358//204
f 384//205 388//205 358//205
f 358//206 389//206 390//206
f 391//207 389//207 358//207
f 387//208 391//208 358//208
f 358//209 392//209 393//209
f 394//210 392//210 358//210
f 390//211 394//211 358//211
f 393//212 361//212 358//212
f 361//213 348//213 359//213
f 359//213 348//213 347//213
f 359//173 347//173 360//173
f 360//173 347//173 346//173
f 360//214 346//214 364//214
f 364//214 346//214 345//214
f 364//215 345//215 362//215
f 362//215 345//215 344//215
f 362//216 344//216 363//216
f 363//216 344//216 325//216
f 363//217 325//217 367//217
f 367//217 325//217 324//217
f 367//218 324//218 365//218
f 365//218 324//218 323//218
f 365//167 323//167 366//167
f 366//167 323//167 322//167
f 366//166 322//166 370//166
f 370//166 322//166 343//166
f 370//165 343//165 368//165
f 368//165 343//165 342//165
f 368//219 342//219 369//219
f 369//219 342//219 341//219
f 369//220 341//220 373//220
f 373//220 341//220 337//220
f 373//221 337//221 371//221
f 371//221 337//221 336//221
f 371//222 336//222 372//222
f 372//222 336//222 335//222
f 372//223 335//223 376//223
f 376//223 335//223 326//223
f 376//224 326//224 374//224
f 374//224 326//224 327//224
f 374//158 327//158 375//158
f 375//158 327//158 328//158
f 375//225 328//225 379//225
f 379//225 328//225 334//225
f 379//226 334//226 377//226
f 377//226 334//226 333//226
f 377//155 333//155 378//155
f 378//155 333//155 332//155
f 378//227 332//227 382//227
f 382//227 332//227 354//227
f 382//228 354//228 380//228
f 380//228 354//228 353//228
f 380//229 353//229 381//229
f 381//229 353//229 352//229
f 381//151 352//151 385//151
f 385//151 352//151 338//151
f 385//230 338//230 383//230
f 383//230 338//230 339//230
f 383//231 339//231 384//231
f 384//231 339//231 340//231
f 384//232 340//232 388//232
f 388//232 340//232 351//232
f 388//233 351//233 386//233
f 386//233 351//233 350//233
f 386//146 350//146 387//146
f 387//146 350//146 349//146
f 387//234 349//234 391//234
f 391//234 349//234 331//234
f 391//235 331//235 389//235
f 389//235 331//235 330//235
f 389//236 330//236 390//236
f 390//236 330//236 329//236
f 390//237 329//237 394//237
f 394//237 329//237 357//237
f 394//238 357//238 392//238
f 392//238 357//238 356//238
f 392//140 356//140 393//140
f 393//140 356//140 355//140
f 393//239 355//239 361//239
f 361//239 355//239 348//239
f 233//240 232//240 395//240
f 246//241 16//241 17//241
f 167//242 166//242 396//242
f 182//243 181//243 228//243
f 397//244 398//244 184//244
f 396//245 166//245 399//245
f 166//246 171//246 399//246
f 399//247 171//247 170//247
f 399//248 170//248 398//248
f 398//249 170//249 169//249
f 398//250 169//250 184//250
f 167//251 396//251 168//251
f 168//252 396//252 400//252
f 168//253 400//253 172//253
f 172//254 400//254 401//254
f 172//255 401//255 173//255
f 173//256 401//256 174//256
f 174//257 401//257 402//257
f 174//258 402//258 175//258
f 175//259 402//259 176//259
f 176//260 402//260 403//260
f 176//261 403//261 177//261
f 177//262 403//262 178//262
f 178//263 403//263 404//263
f 178//264 404//264 179//264
f 179//265 404//265 405//265
f 179//266 405//266 35//266
f 406//267 407//267 248//267
f 395//268 232//268 408//268
f 232//269 237//269 408//269
f 408//270 237//270 236//270
f 408//271 236//271 407//271
f 407//272 236//272 235//272
f 407//273 235//273 248//273
f 233//274 395//274 234//274
f 234//275 395//275 409//275
f 234//276 409//276 238//276
f 238//277 409//277 410//277
f 238//278 410//278 239//278
f 239//279 410//279 240//279
f 240//280 410//280 411//280
f 240//281 411//281 241//281
f 241//282 411//282 242//282
f 242//283 411//283 412//283
f 242//284 412//284 243//284
f 243//285 412//285 244//285
f 244//286 412//286 413//286
f 244//287 413//287 245//287
f 245//288 413//288 414//288
f 245//289 414//289 195//289
f 248//290 247//290 406//290
f 406//291 247//291 246//291
f 406//292 246//292 415//292
f 415//293 246//293 17//293
f 415//294 17//294 416//294
f 416//295 17//295 27//295
f 416//296 27//296 417//296
f 417//296 27//296 26//296
f 417//297 26//297 418//297
f 418//297 26//297 49//297
f 418//298 49//298 419//298
f 419//298 49//298 48//298
f 419//299 48//299 420//299
f 420//300 48//300 46//300
f 420//301 46//301 421//301
f 421//301 46//301 45//301
f 421//302 45//302 422//302
f 422//302 45//302 19//302
f 422//303 19//303 405//303
f 405//303 19//303 18//303
f 405//304 18//304 35//304
f 184//305 183//305 397//305
f 397//306 183//306 182//306
f 397//307 182//307 423//307
f 423//307 182//307 228//307
f 423//308 228//308 424//308
f 424//308 228//308 216//308
f 424//309 216//309 425//309
f 425//309 216//309 215//309
f 425//310 215//310 426//310
f 426//310 215//310 214//310
f 426//311 214//311 427//311
f 427//312 214//312 212//312
f 427//313 212//313 428//313
f 428//313 212//313 210//313
f 428//314 210//314 429//314
f 429//314 210//314 209//314
f 429//315 209//315 430//315
f 430//315 209//315 191//315
f 430//316 191//316 414//316
f 414//317 191//317 190//317
f 414//318 190//318 195//318
f 95//319 431//319 75//319
f 75//320 431//320 432//320
f 75//321 432//321 73//321
f 73//321 432//321 433//321
f 73//322 433//322 90//322
f 90//322 433//322 434//322
f 90//323 434//323 91//323
f 91//323 434//323 435//323
f 91//324 435//324 92//324
f 92//324 435//324 436//324
f 92//325 436//325 116//325
f 116//326 436//326 437//326
f 116//327 437//327 117//327
f 117//327 437//327 438//327
f 117//328 438//328 99//328
f 99//328 438//328 439//328
f 99//329 439//329 141//329
f 141//329 439//329 440//329
f 141//330 440//330 142//330
f 142//330 440//330 441//330
f 142//331 441//331 127//331
f 127//332 441//332 442//332
f 127//333 442//333 128//333
f 128//333 442//333 443//333
f 128//334 443//334 129//334
f 129//334 443//334 444//334
f 129//335 444//335 130//335
f 130//335 444//335 445//335
f 130//336 445//336 131//336
f 131//336 445//336 446//336
f 131//337 446//337 132//337
f 132//337 446//337 447//337
f 132//338 447//338 86//338
f 86//338 447//338 448//338
f 86//339 448//339 54//339
f 54//339 448//339 449//339
f 54//340 449//340 59//340
f 59//340 449//340 450//340
f 59//341 450//341 57//341
f 57//341 450//341 451//341
f 57//342 451//342 78//342
f 78//342 451//342 452//342
f 78//343 452//343 79//343
f 79//343 452//343 453//343
f 79//344 453//344 80//344
f 80//344 453//344 454//344
f 80//345 454//345 106//345
f 106//345 454//345 455//345
f 106//346 455//346 107//346
f 107//346 455//346 456//346
f 107//347 456//347 109//347
f 109//348 456//348 457//348
f 109//349 457//349 111//349
f 111//349 457//349 458//349
f 111//350 458//350 112//350
f 112//350 458//350 459//350
f 112//351 459//351 82//351
f 82//351 459//351 460//351
f 82//352 460//352 84//352
f 84//352 460//352 461//352
f 84//353 461//353 96//353
f 96//354 461//354 462//354
f 96//355 462//355 97//355
f 97//355 462//355 463//355
f 97//356 463//356 98//356
f 98//356 463//356 464//356
f 98//357 464//357 123//357
f 123//357 464//357 465//357
f 123//358 465//358 122//358
f 122//358 465//358 466//358
f 122//359 466//359 95//359
f 95//360 466//360 431//360
f 436//361 415//361 437//361
f 437//362 415//362 416//362
f 437//363 416//363 438//363
f 438//364 416//364 417//364
f 438//365 417//365 439//365
f 439//366 417//366 418//366
f 439//1 418//1 440//1
f 440//1 418//1 419//1
f 440//1 419//1 441//1
f 441//1 419//1 420//1
f 441//1 420//1 442//1
f 442//1 420//1 421//1
f 442//1 421//1 443//1
f 443//1 421//1 422//1
f 443//1 422//1 444//1
f 444//1 422//1 405//1
f 444//1 405//1 445//1
f 445//1 405//1 404//1
f 445//1 404//1 446//1
f 446//1 404//1 403//1
f 446//1 403//1 447//1
f 447//1 403//1 402//1
f 447//1 402//1 448//1
f 448//1 402//1 401//1
f 448//1 401//1 449//1
f 449//1 401//1 400//1
f 449//1 400//1 450//1
f 450//1 400//1 396//1
f 450//1 396//1 451//1
f 451//1 396//1 399//1
f 451//7 399//7 452//7
f 452//1 399//1 398//1
f 452//1 398//1 453//1
f 453//1 398//1 397//1
f 453//1 397//1 454//1
f 454//1 397//1 423//1
f 454//1 423//1 455//1
f 455//1 423//1 424//1
f 455//7 424//7 456//7
f 456//1 424//1 425//1
f 456//1 425//1 457//1
f 457//1 425//1 426//1
f 457//1 426//1 458//1
f 458//1 426//1 427//1
f 458//1 427//1 459//1
f 459//1 427//1 428//1
f 459//1 428//1 460//1
f 460//367 428//367 429//367
f 460//368 429//368 461//368
f 461//369 429//369 430//369
f 461//370 430//370 462//370
f 462//1 430//1 414//1
f 462//1 414//1 463//1
f 463//1 414//1 413//1
f 463//1 413//1 464//1
f 464//1 413//1 412//1
f 464//1 412//1 465//1
f 465//1 412//1 411//1
f 465//1 411//1 466//1
f 466//1 411//1 410//1
f 466//1 410//1 431//1
f 431//1 410//1 409//1
f 431//1 409//1 432//1
f 432//1 409//1 395//1
f 432//1 395//1 433//1
f 433//1 395//1 408//1
f 433//1 408//1 434//1
f 434//1 408//1 407//1
f 434//1 407//1 435//1
f 435//1 407//1 406//1
f 435//1 406//1 436//1
f 436//1 406//1 415//1
f 162//371 467//371 163//371
f 163//371 467//371 468//371
f 163//372 468//372 155//372
f 155//372 468//372 469//372
f 155//373 469//373 156//373
f 156//373 469//373 470//373
f 156//374 470//374 157//374
f 157//374 470//374 471//374
f 157//375 471//375 149//375
f 149//375 471//375 472//375
f 149//376 472//376 150//376
f 150//376 472//376 473//376
f 150//377 473//377 151//377
f 151//377 473//377 474//377
f 151//378 474//378 152//378
f 152//378 474//378 475//378
f 152//379 475//379 153//379
f 153//379 475//379 476//379
f 153//380 476//380 133//380
f 133//380 476//380 477//380
f 133//381 477//381 134//381
f 134//381 477//381 478//381
f 134//382 478//382 135//382
f 135//383 478//383 479//383
f 135//384 479//384 136//384
f 136//384 479//384 480//384
f 136//385 480//385 137//385
f 137//385 480//385 481//385
f 137//386 481//386 138//386
f 138//386 481//386 482//386
f 138//387 482//387 139//387
f 139//387 482//387 483//387
f 139//388 483//388 154//388
f 154//388 483//388 484//388
f 154//389 484//389 140//389
f 140//389 484//389 485//389
f 140//390 485//390 113//390
f 113//390 485//390 486//390
f 113//391 486//391 114//391
f 114//391 486//391 487//391
f 114//392 487//392 115//392
f 115//392 487//392 488//392
f 115//393 488//393 100//393
f 100//393 488//393 489//393
f 100//394 489//394 101//394
f 101//394 489//394 490//394
f 101//395 490//395 119//395
f 119//395 490//395 491//395
f 119//396 491//396 118//396
f 118//397 491//397 492//397
f 118//398 492//398 74//398
f 74//398 492//398 493//398
f 74//399 493//399 76//399
f 76//399 493//399 494//399
f 76//400 494//400 77//400
f 77//400 494//400 495//400
f 77//401 495//401 146//401
f 146//401 495//401 496//401
f 146//402 496//402 147//402
f 147//402 496//402 497//402
f 147//403 497//403 148//403
f 148//403 497//403 498//403
f 148//404 498//404 145//404
f 145//404 498//404 499//404
f 145//405 499//405 144//405
f 144//405 499//405 500//405
f 144//406 500//406 143//406
f 143//406 500//406 501//406
f 143//407 501//407 161//407
f 161//407 501//407 502//407
f 161//408 502//408 162//408
f 162//408 502//408 467//408
f 482//1 503//1 483//1
f 483//1 503//1 504//1
f 483//1 504//1 484//1
f 484//1 504//1 505//1
f 484//1 505//1 485//1
f 485//1 505//1 506//1
f 485//1 506//1 486//1
f 486//1 506//1 507//1
f 486//1 507//1 487//1
f 487//1 507//1 508//1
f 487//1 508//1 488//1
f 488//1 508//1 509//1
f 488//1 509//1 489//1
f 489//1 509//1 510//1
f 489//1 510//1 490//1
f 490//7 510//7 511//7
f 490//1 511//1 491//1
f 491//1 511//1 512//1
f 491//409 512//409 492//409
f 492//410 512//410 513//410
f 492//411 513//411 493//411
f 493//412 513//412 514//412
f 493//7 514//7 494//7
f 494//1 514//1 515//1
f 494//7 515//7 495//7
f 495//1 515//1 516//1
f 495//7 516//7 496//7
f 496//1 516//1 517//1
f 496//1 517//1 497//1
f 497//1 517//1 518//1
f 497//1 518//1 498//1
f 498//1 518//1 519//1
f 498//7 519//7 499//7
f 499//1 519//1 520//1
f 499//7 520//7 500//7
f 500//1 520//1 521//1
f 500//7 521//7 501//7
f 501//1 521//1 522//1
f 501//7 522//7 502//7
f 502//1 522//1 523//1
f 502//1 523//1 467//1
f 467//1 523//1 524//1
f 467//1 524//1 468//1
f 468//7 524//7 525//7
f 468//1 525//1 469//1
f 469//1 525//1 526//1
f 469//1 526//1 470//1
f 470//1 526//1 527//1
f 470//1 527//1 471//1
f 471//7 527//7 528//7
f 471//1 528//1 472//1
f 472//7 528//7 529//7
f 472//7 529//7 473//7
f 473//1 529//1 530//1
f 473//1 530//1 474//1
f 474//7 530//7 531//7
f 474//7 531//7 475//7
f 475//1 531//1 532//1
f 475//7 532//7 476//7
f 476//1 532//1 533//1
f 476//7 533//7 477//7
f 477//1 533//1 534//1
f 477//1 534//1 478//1
f 478//413 534//413 535//413
f 478//414 535//414 479//414
f 479//1 535//1 536//1
f 479//1 536//1 480//1
f 480//1 536//1 537//1
f 480//1 537//1 481//1
f 481//1 537//1 538//1
f 481//1 538//1 482//1
f 482//1 538//1 503//1
f 524//415 15//415 525//415
f 525//415 15//415 14//415
f 525//416 14//416 526//416
f 526//416 14//416 13//416
f 526//417 13//417 527//417
f 527//417 13//417 12//417
f 527//418 12//418 528//418
f 528//418 12//418 11//418
f 528//419 11//419 529//419
f 529//419 11//419 4//419
f 529//420 4//420 530//420
f 530//326 4//326 6//326
f 530//421 6//421 531//421
f 531//421 6//421 7//421
f 531//422 7//422 532//422
f 532//422 7//422 10//422
f 532//423 10//423 533//423
f 533//423 10//423 9//423
f 533//424 9//424 534//424
f 534//424 9//424 8//424
f 534//425 8//425 535//425
f 535//426 8//426 2//426
f 535//427 2//427 536//427
f 536//427 2//427 1//427
f 536//428 1//428 537//428
f 537//428 1//428 25//428
f 537//429 25//429 538//429
f 538//429 25//429 24//429
f 538//430 24//430 503//430
f 503//430 24//430 21//430
f 503//431 21//431 504//431
f 504//431 21//431 22//431
f 504//432 22//432 505//432
f 505//432 22//432 23//432
f 505//433 23//433 506//433
f 506//433 23//433 20//433
f 506//434 20//434 507//434
f 507//434 20//434 42//434
f 507//435 42//435 508//435
f 508//435 42//435 41//435
f 508//436 41//436 509//436
f 509//436 41//436 34//436
f 509//437 34//437 510//437
f 510//437 34//437 33//437
f 510//438 33//438 511//438
f 511//438 33//438 32//438
f 511//439 32//439 512//439
f 512//439 32//439 31//439
f 512//440 31//440 513//440
f 513//440 31//440 30//440
f 513//441 30//441 514//441
f 514//442 30//442 29//442
f 514//443 29//443 515//443
f 515//443 29//443 47//443
f 515//444 47//444 516//444
f 516//444 47//444 28//444
f 516//445 28//445 517//445
f 517//445 28//445 44//445
f 517//446 44//446 518//446
f 518//446 44//446 43//446
f 518//447 43//447 519//447
f 519//448 43//448 40//448
f 519//449 40//449 520//449
f 520//449 40//449 39//449
f 520//450 39//450 521//450
f 521//450 39//450 38//450
f 521//451 38//451 522//451
f 522//451 38//451 37//451
f 522//452 37//452 523//452
f 523//452 37//452 36//452
f 523//453 36//453 524//453
f 524//453 36//453 15//453
f 159//454 539//454 160//454
f 160//454 539//454 540//454
f 160//455 540//455 105//455
f 105//455 540//455 541//455
f 105//373 541//373 93//373
f 93//373 541//373 542//373
f 93//456 542//456 94//456
f 94//456 542//456 543//456
f 94//457 543//457 120//457
f 120//457 543//457 544//457
f 120//458 544//458 121//458
f 121//458 544//458 545//458
f 121//459 545//459 83//459
f 83//459 545//459 546//459
f 83//460 546//460 81//460
f 81//460 546//460 547//460
f 81//461 547//461 110//461
f 110//461 547//461 548//461
f 110//462 548//462 108//462
f 108//462 548//462 549//462
f 108//463 549//463 58//463
f 58//463 549//463 550//463
f 58//464 550//464 60//464
f 60//465 550//465 551//465
f 60//466 551//466 61//466
f 61//466 551//466 552//466
f 61//467 552//467 55//467
f 55//467 552//467 553//467
f 55//468 553//468 56//468
f 56//468 553//468 554//468
f 56//387 554//387 62//387
f 62//387 554//387 555//387
f 62//469 555//469 63//469
f 63//469 555//469 556//469
f 63//470 556//470 64//470
f 64//470 556//470 557//470
f 64//390 557//390 65//390
f 65//390 557//390 558//390
f 65//391 558//391 67//391
f 67//391 558//391 559//391
f 67//471 559//471 68//471
f 68//471 559//471 560//471
f 68//472 560//472 69//472
f 69//472 560//472 561//472
f 69//473 561//473 70//473
f 70//473 561//473 562//473
f 70//474 562//474 71//474
f 71//474 562//474 563//474
f 71//396 563//396 72//396
f 72//397 563//397 564//397
f 72//398 564//398 89//398
f 89//398 564//398 565//398
f 89//475 565//475 88//475
f 88//475 565//475 566//475
f 88//476 566//476 87//476
f 87//476 566//476 567//476
f 87//401 567//401 102//401
f 102//401 567//401 568//401
f 102//402 568//402 103//402
f 103//402 568//402 569//402
f 103//477 569//477 104//477
f 104//477 569//477 570//477
f 104//478 570//478 124//478
f 124//478 570//478 571//478
f 124//479 571//479 125//479
f 125//479 571//479 572//479
f 125//480 572//480 126//480
f 126//480 572//480 573//480
f 126//407 573//407 158//407
f 158//407 573//407 574//407
f 158//408 574//408 159//408
f 159//408 574//408 539//408
f 554//1 575//1 555//1
f 555//1 575//1 576//1
f 555//1 576//1 556//1
f 556//1 576//1 577//1
f 556//1 577//1 557//1
f 557//1 577//1 578//1
f 557//1 578//1 558//1
f 558//1 578//1 579//1
f 558//1 579//1 559//1
f 559//7 579//7 580//7
f 559//1 580//1 560//1
f 560//7 580//7 581//7
f 560//1 581//1 561//1
f 561//1 581//1 582//1
f 561//1 582//1 562//1
f 562//7 582//7 583//7
f 562//7 583//7 563//7
f 563//1 583//1 584//1
f 563//481 584//481 564//481
f 564//482 584//482 585//482
f 564//411 585//411 565//411
f 565//483 585//483 586//483
f 565//7 586//7 566//7
f 566//1 586//1 587//1
f 566//1 587//1 567//1
f 567//7 587//7 588//7
f 567//7 588//7 568//7
f 568//1 588//1 589//1
f 568//1 589//1 569//1
f 569//1 589//1 590//1
f 569//1 590//1 570//1
f 570//7 590//7 591//7
f 570//1 591//1 571//1
f 571//7 591//7 592//7
f 571//1 592//1 572//1
f 572//1 592//1 593//1
f 572//1 593//1 573//1
f 573//7 593//7 594//7
f 573//7 594//7 574//7
f 574//7 594//7 595//7
f 574//7 595//7 539//7
f 539//1 595//1 596//1
f 539//7 596//7 540//7
f 540//1 596//1 597//1
f 540//1 597//1 541//1
f 541//1 597//1 598//1
f 541//1 598//1 542//1
f 542//1 598//1 599//1
f 542//1 599//1 543//1
f 543//1 599//1 600//1
f 543//7 600//7 544//7
f 544//7 600//7 601//7
f 544//1 601//1 545//1
f 545//1 601//1 602//1
f 545//1 602//1 546//1
f 546//1 602//1 603//1
f 546//7 603//7 547//7
f 547//7 603//7 604//7
f 547//1 604//1 548//1
f 548//1 604//1 605//1
f 548//1 605//1 549//1
f 549//1 605//1 606//1
f 549//1 606//1 550//1
f 550//484 606//484 607//484
f 550//485 607//485 551//485
f 551//1 607//1 608//1
f 551//7 608//7 552//7
f 552//1 608//1 609//1
f 552//1 609//1 553//1
f 553//1 609//1 610//1
f 553//7 610//7 554//7
f 554//1 610//1 575//1
f 596//415 194//415 597//415
f 597//415 194//415 218//415
f 597//416 218//416 598//416
f 598//416 218//416 217//416
f 598//417 217//417 599//417
f 599//417 217//417 205//417
f 599//418 205//418 600//418
f 600//418 205//418 204//418
f 600//486 204//486 601//486
f 601//486 204//486 203//486
f 601//487 203//487 602//487
f 602//488 203//488 200//488
f 602//489 200//489 603//489
f 603//489 200//489 199//489
f 603//490 199//490 604//490
f 604//490 199//490 192//490
f 604//491 192//491 605//491
f 605//491 192//491 211//491
f 605//492 211//492 606//492
f 606//492 211//492 213//492
f 606//493 213//493 607//493
f 607//494 213//494 227//494
f 607//495 227//495 608//495
f 608//495 227//495 226//495
f 608//496 226//496 609//496
f 609//496 226//496 225//496
f 609//497 225//497 610//497
f 610//497 225//497 224//497
f 610//430 224//430 575//430
f 575//430 224//430 223//430
f 575//431 223//431 576//431
f 576//431 223//431 222//431
f 576//432 222//432 577//432
f 577//432 222//432 231//432
f 577//433 231//433 578//433
f 578//433 231//433 230//433
f 578//498 230//498 579//498
f 579//498 230//498 229//498
f 579//435 229//435 580//435
f 580//435 229//435 221//435
f 580//499 221//499 581//499
f 581//499 221//499 220//499
f 581//500 220//500 582//500
f 582//500 220//500 219//500
f 582//501 219//501 583//501
f 583//501 219//501 208//501
f 583//502 208//502 584//502
f 584//502 208//502 207//502
f 584//503 207//503 585//503
f 585//503 207//503 206//503
f 585//504 206//504 586//504
f 586//505 206//505 196//505
f 586//506 196//506 587//506
f 587//506 196//506 197//506
f 587//507 197//507 588//507
f 588//507 197//507 198//507
f 588//508 198//508 589//508
f 589//508 198//508 189//508
f 589//509 189//509 590//509
f 590//509 189//509 188//509
f 590//510 188//510 591//510
f 591//511 188//511 186//511
f 591//512 186//512 592//512
f 592//512 186//512 185//512
f 592//513 185//513 593//513
f 593//513 185//513 202//513
f 593//514 202//514 594//514
f 594//514 202//514 201//514
f 594//452 201//452 595//452
f 595//452 201//452 193//452
f 595//515 193//515 596//515
f 596//515 193//515 194//515
# Vertices: 610, normals: 515, texture coordinates: 0, faces: 1228

