# File generated by ImageToStl.com - Free Image and 3D model conversion tools

o obj1
v -79.23799896 1.58749998 -70.002388
v -79.23799896 0 -70.002388
v -79.37032318 1.59907639 -70.002388
v -79.64598846 0.03569419 -70.002388
v -79.49861908 1.6334542 -70.002388
v -80.04157257 0.14169219 -70.002388
v -79.6190033 1.68958867 -70.002388
v -80.41275024 0.31477332 -70.002388
v -79.72780609 1.76577413 -70.002388
v -80.74822998 0.54967856 -70.002388
v -79.82172394 1.85969591 -70.002388
v -81.03781891 0.83927053 -70.002388
v -79.89791107 1.96850002 -70.002388
v -81.27272797 1.17475009 -70.002388
v -79.95404816 2.08888054 -70.002388
v -81.44580841 1.54592359 -70.002388
v -79.98842621 2.21718001 -70.002388
v -81.55180359 1.94151366 -70.002388
v -80 2.34950018 -70.002388
v -81.58750153 2.34950018 -70.002388
v -81.58750153 15 -70.002388
v -80 15 -70.002388
v -81.58750153 7.52246761 104.70582581
v -81.58750153 7.0594449 104.58176422
v -81.58750153 1 109.99760437
v -81.58750153 10.85093307 -35.53821564
v -81.58750153 10.70096111 -35.75239182
v -81.58750153 2.34950018 86.99760437
v -81.58750153 13.40953922 -35.98936462
v -81.58750153 13.29903793 -35.75239182
v -81.58750153 16 108.99760437
v -81.58750153 7.52246761 99.28939056
v -81.58750153 8 99.24760437
v -81.58750153 2.34950018 89.99760437
v -81.58750153 8.47753239 99.28939056
v -81.58750153 8.94055557 99.41345215
v -81.58750153 9.375 99.61603546
v -81.58750153 10.70096111 -44.25239182
v -81.58750153 10.85093307 -44.46657562
v -81.58750153 11.03581905 -44.65145874
v -81.58750153 11.25 -44.80143356
v -81.58750153 12.51303005 -44.9119339
v -81.58750153 12.75 -44.80143356
v -81.58750153 16 -69.002388
v -81.58750153 12.9641819 -44.65145874
v -81.58750153 13.14906693 -44.46657562
v -81.58750153 9.76766586 99.89098358
v -81.58750153 10.1066227 100.22994232
v -81.58750153 11.48696995 -35.09285736
v -81.58750153 11.25 -35.2033577
v -81.58750153 11.03581905 -35.3533287
v -81.58750153 15.98480701 -69.17604828
v -81.58750153 12 -45.00239182
v -81.58750153 12.2604723 -44.97960663
v -81.58750153 15.9396925 -69.34441376
v -81.58750153 15.86602592 -69.50239563
v -81.58750153 15.76604462 -69.64517975
v -81.58750153 13.14906693 -35.53821564
v -81.58750153 12.9641819 -35.3533287
v -81.58750153 12.75 -35.2033577
v -81.58750153 9.375 104.37917328
v -81.58750153 8.94055557 104.58176422
v -81.58750153 15 109.99760437
v -81.58750153 8.47753239 104.70582581
v -81.58750153 8 104.74760437
v -81.58750153 0 89.99760437
v -81.58750153 6.625 99.61603546
v -81.58750153 7.0594449 99.41345215
v -81.58750153 11.7395277 -35.02518463
v -81.58750153 12 -35.00239182
v -81.58750153 10.38156986 100.62260437
v -81.58750153 10.58415508 101.05705261
v -81.58750153 10.5 -43.50239563
v -81.58750153 10.52278805 -43.76286697
v -81.58750153 10.59046078 -44.01542664
v -81.58750153 15.64278793 -69.76844025
v -81.58750153 15.5 -69.86841583
v -81.58750153 15.34202003 -69.94208527
v -81.58750153 11.48696995 -44.9119339
v -81.58750153 11.7395277 -44.97960663
v -81.58750153 15.17364883 -69.98720551
v -81.58750153 13.29903793 -44.25239182
v -81.58750153 13.40953922 -44.01542664
v -81.58750153 13.47721195 -43.76286697
v -81.58750153 12.51303005 -35.09285736
v -81.58750153 12.2604723 -35.02518463
v -81.58750153 0.35721239 109.76364899
v -81.58750153 0.5 109.8636322
v -81.58750153 5.89337778 103.76527405
v -81.58750153 5.61843014 103.37260437
v -81.58750153 5.41584539 102.93816376
v -81.58750153 0 108.99760437
v -81.58750153 10.59046078 -35.98936462
v -81.58750153 10.52278805 -36.24192429
v -81.58750153 10.5 -36.50239563
v -81.58750153 13.5 -43.50239563
v -81.58750153 13.5 -36.50239563
v -81.58750153 13.47721195 -36.24192429
v -81.58750153 10.70822144 101.52007294
v -81.58750153 10.75 101.99760437
v -81.58750153 10.70822144 102.47514343
v -81.58750153 10.58415508 102.93816376
v -81.58750153 6.625 104.37917328
v -81.58750153 6.23233414 104.10422516
v -81.58750153 0.82635182 109.98241425
v -81.58750153 0.65797985 109.93730164
v -81.58750153 5.29177856 102.47514343
v -81.58750153 5.25 101.99760437
v -81.58750153 0.01519225 109.17125702
v -81.58750153 0.06030738 109.33963013
v -81.58750153 5.29177856 101.52007294
v -81.58750153 5.41584539 101.05705261
v -81.58750153 5.61843014 100.62260437
v -81.58750153 15.17364883 109.98241425
v -81.58750153 10.1066227 103.76527405
v -81.58750153 9.76766586 104.10422516
v -81.58750153 0.1339746 109.49760437
v -81.58750153 0.23395555 109.64039612
v -81.58750153 5.89337778 100.22994232
v -81.58750153 6.23233414 99.89098358
v -81.58750153 15.34202003 109.93730164
v -81.58750153 15.5 109.8636322
v -81.58750153 15.64278793 109.76364899
v -81.58750153 15.76604462 109.64039612
v -81.58750153 15.86602592 109.49760437
v -81.58750153 15.9396925 109.33963013
v -81.58750153 10.38156986 103.37260437
v -81.58750153 15.98480701 109.17125702
v -80 16 108.99760437
v -80 16 -69.002388
v -80 12.9641819 -44.65145874
v -80 12.75 -44.80143356
v -80 12.51303005 -44.9119339
v -80 11.7395277 -44.97960663
v -80 11.48696995 -44.9119339
v -80 11.25 -44.80143356
v -80 11.03581905 -44.65145874
v -80 15.34202003 -69.94208527
v -80 15.5 -69.86841583
v -80 12 -45.00239182
v -80 10.85093307 -44.46657562
v -80 10.70096111 -44.25239182
v -80 10.59046078 -44.01542664
v -80 13.47721195 -43.76286697
v -80 13.40953922 -44.01542664
v -80 13.29903793 -44.25239182
v -80 13.14906693 -44.46657562
v -80 15.17364883 -69.98720551
v -80 15.86602592 -69.50239563
v -80 15.9396925 -69.34441376
v -80 15.98480701 -69.17604828
v -80 12.2604723 -44.97960663
v -80 10.5 -43.50239563
v -80 8 99.24760437
v -80 2.34950018 89.99760437
v -80 15.64278793 -69.76844025
v -80 15.76604462 -69.64517975
v -80 7.52246761 104.70582581
v -80 8 104.74760437
v -80 1 109.99760437
v -80 12.9641819 -35.3533287
v -80 12.75 -35.2033577
v -80 12.51303005 -35.09285736
v -80 13.14906693 -35.53821564
v -80 13.29903793 -35.75239182
v -80 13.40953922 -35.98936462
v -80 13.47721195 -36.24192429
v -80 13.5 -36.50239563
v -80 13.5 -43.50239563
v -80 10.52278805 -43.76286697
v -80 2.34950018 86.99760437
v -80 9.76766586 99.89098358
v -80 9.375 99.61603546
v -80 10.70096111 -35.75239182
v -80 8.94055557 99.41345215
v -80 10.59046078 -35.98936462
v -80 10.85093307 -35.53821564
v -80 11.03581905 -35.3533287
v -80 10.75 101.99760437
v -80 11.25 -35.2033577
v -80 11.48696995 -35.09285736
v -80 15 109.99760437
v -80 8.47753239 104.70582581
v -80 8.94055557 104.58176422
v -80 5.41584539 101.05705261
v -80 5.29177856 101.52007294
v -80 0 89.99760437
v -80 6.23233414 104.10422516
v -80 6.625 104.37917328
v -80 7.0594449 104.58176422
v -80 10.70822144 101.52007294
v -80 10.58415508 101.05705261
v -80 8.47753239 99.28939056
v -80 10.5 -36.50239563
v -80 10.52278805 -36.24192429
v -80 7.52246761 99.28939056
v -80 7.0594449 99.41345215
v -80 6.625 99.61603546
v -80 6.23233414 99.89098358
v -80 10.38156986 103.37260437
v -80 10.58415508 102.93816376
v -80 10.70822144 102.47514343
v -80 10.38156986 100.62260437
v -80 10.1066227 100.22994232
v -80 0 108.99760437
v -80 5.29177856 102.47514343
v -80 5.41584539 102.93816376
v -80 5.89337778 103.76527405
v -80 0.82635182 109.98241425
v -80 0.65797985 109.93730164
v -80 11.7395277 -35.02518463
v -80 12 -35.00239182
v -80 12.2604723 -35.02518463
v -80 5.25 101.99760437
v -80 5.61843014 103.37260437
v -80 0.01519225 109.17125702
v -80 0.5 109.8636322
v -80 0.35721239 109.76364899
v -80 0.23395555 109.64039612
v -80 15.64278793 109.76364899
v -80 15.5 109.8636322
v -80 10.1066227 103.76527405
v -80 5.89337778 100.22994232
v -80 5.61843014 100.62260437
v -80 9.375 104.37917328
v -80 9.76766586 104.10422516
v -80 15.17364883 109.98241425
v -80 15.34202003 109.93730164
v -80 0.1339746 109.49760437
v -80 0.06030738 109.33963013
v -80 15.98480701 109.17125702
v -80 15.9396925 109.33963013
v -80 15.86602592 109.49760437
v -80 15.76604462 109.64039612
v -79.23799896 1.58749998 86.99760437
v -79.37032318 1.59907639 86.99760437
v -79.49861908 1.6334542 86.99760437
v -79.6190033 1.68958867 86.99760437
v -79.72780609 1.76577413 86.99760437
v -79.82172394 1.85969591 86.99760437
v -79.89791107 1.96850002 86.99760437
v -79.95404816 2.08888054 86.99760437
v -79.98842621 2.21718001 86.99760437
v -61.0260582 1.58749998 -57.18331528
v -61.5 1.58749998 -57.40431213
v -57.40192413 1.58749998 -58.50239563
v -57.70186615 1.58749998 -58.07403183
v -51.58750153 1.58749998 85.99760437
v -61.5 1.58749998 62.59568405
v -61.0260582 1.58749998 62.81668472
v -60.52094269 1.58749998 62.95203018
v -60 1.58749998 -63.00239563
v -59.4790535 1.58749998 -62.95681381
v -52.58750153 1.58749998 -70.002388
v -58.0716362 1.58749998 -57.70425797
v -58.5 1.58749998 -57.40431213
v -58.97393799 1.58749998 -57.18331528
v -62.954422 1.58749998 -60.5233345
v -62.81907654 1.58749998 -61.02845383
v -61.9283638 1.58749998 62.29573822
v -62.29813385 1.58749998 61.92596817
v -62.59807587 1.58749998 61.49760818
v -60.52094269 1.58749998 -57.047966
v -63 1.58749998 59.99760818
v -60 1.58749998 -57.00239182
v -61.9283638 1.58749998 -62.30052948
v -61.5 1.58749998 -62.60046768
v -61.0260582 1.58749998 -62.82147598
v -60.52094269 1.58749998 -62.95681381
v -57.045578 1.58749998 60.51855087
v -57.18092346 1.58749998 61.02366638
v -62.81907654 1.58749998 61.02366638
v -62.954422 1.58749998 60.51855087
v -62.59807587 1.58749998 -61.50239563
v -62.29813385 1.58749998 -61.93075562
v -57.70186615 1.58749998 -61.93075562
v -57.40192413 1.58749998 -61.50239563
v -51.58750153 1.58749998 -69.002388
v -57.18092346 1.58749998 -61.02845383
v -57.045578 1.58749998 -60.5233345
v -62.81907654 1.58749998 -58.97633362
v -62.954422 1.58749998 -59.48144531
v -63 1.58749998 -60.00239182
v -51.94471359 1.58749998 -69.76844025
v -52.08750153 1.58749998 -69.86841583
v -58.0716362 1.58749998 -62.30052948
v -60.52094269 1.58749998 57.04318237
v -61.0260582 1.58749998 57.17852783
v -61.5 1.58749998 57.39953232
v -60 1.58749998 56.99760818
v -59.4790535 1.58749998 57.04318237
v -58.97393799 1.58749998 57.17852783
v -58.5 1.58749998 57.39953232
v -58.0716362 1.58749998 57.69947433
v -57.70186615 1.58749998 58.06924438
v -57.045578 1.58749998 59.47666168
v -57 1.58749998 59.99760818
v -57.40192413 1.58749998 61.49760818
v -57.70186615 1.58749998 61.92596817
v -58.0716362 1.58749998 62.29573822
v -61.9283638 1.58749998 -57.70425797
v -62.29813385 1.58749998 -58.07403183
v -62.59807587 1.58749998 -58.50239563
v -51.64780807 1.58749998 -69.34441376
v -51.72147369 1.58749998 -69.50239563
v -51.82145691 1.58749998 -69.64517975
v -59.4790535 1.58749998 -57.047966
v -62.954422 1.58749998 59.47666168
v -62.81907654 1.58749998 58.97154617
v -62.59807587 1.58749998 58.49760818
v -57.40192413 1.58749998 58.49760818
v -57.18092346 1.58749998 58.97154617
v -60 1.58749998 62.99760818
v -52.58750153 1.58749998 86.99760437
v -59.4790535 1.58749998 62.95203018
v -52.41385269 1.58749998 86.98241425
v -52.24547958 1.58749998 86.93730164
v -57 1.58749998 -60.00239182
v -57.045578 1.58749998 -59.48144531
v -57.18092346 1.58749998 -58.97633362
v -62.29813385 1.58749998 58.06924438
v -61.9283638 1.58749998 57.69947433
v -58.97393799 1.58749998 -62.82147598
v -58.5 1.58749998 -62.60046768
v -52.41385269 1.58749998 -69.98720551
v -52.24547958 1.58749998 -69.94208527
v -52.08750153 1.58749998 86.8636322
v -51.94471359 1.58749998 86.76364899
v -51.82145691 1.58749998 86.64039612
v -58.5 1.58749998 62.59568405
v -58.97393799 1.58749998 62.81668472
v -51.60269165 1.58749998 86.17125702
v -51.60269165 1.58749998 -69.17604828
v -51.72147369 1.58749998 86.49760437
v -51.64780807 1.58749998 86.3396225
v -51.58750153 0 -69.002388
v -51.58750153 0 85.99760437
v -61.9283638 0 -57.70425797
v -61.5 0 -57.40431213
v -60 0 56.99760818
v -58.5 0 -62.60046768
v -58.97393799 0 -62.82147598
v -52.58750153 0 -70.002388
v -59.4790535 0 -62.95681381
v -62.81907654 0 -58.97633362
v -62.59807587 0 -58.50239563
v -62.29813385 0 -58.07403183
v -60 0 -57.00239182
v -57.18092346 0 58.97154617
v -57.40192413 0 58.49760818
v -57.70186615 0 58.06924438
v -58.0716362 0 57.69947433
v -58.5 0 57.39953232
v -61.0260582 0 -57.18331528
v -60.52094269 0 -57.047966
v -59.4790535 0 57.04318237
v -58.97393799 0 57.17852783
v -61.0260582 0 62.81668472
v -60.52094269 0 62.95203018
v -79.23799896 0 86.99760437
v -58.0716362 0 -57.70425797
v -58.5 0 -57.40431213
v -58.97393799 0 -57.18331528
v -60 0 -63.00239563
v -60.52094269 0 -62.95681381
v -61.0260582 0 -62.82147598
v -61.5 0 -62.60046768
v -57.045578 0 -59.48144531
v -57 0 -60.00239182
v -51.94471359 0 -69.76844025
v -57.045578 0 -60.5233345
v -57.18092346 0 -61.02845383
v -57.40192413 0 -61.50239563
v -61.9283638 0 -62.30052948
v -62.29813385 0 -61.93075562
v -62.59807587 0 -61.50239563
v -52.58750153 0 86.99760437
v -51.82145691 0 -69.64517975
v -51.72147369 0 -69.50239563
v -57.40192413 0 -58.50239563
v -51.64780807 0 -69.34441376
v -51.60269165 0 -69.17604828
v -57.70186615 0 -61.93075562
v -58.0716362 0 -62.30052948
v -52.08750153 0 -69.86841583
v -52.24547958 0 -69.94208527
v -61.0260582 0 57.17852783
v -61.5 0 57.39953232
v -58.97393799 0 62.81668472
v -58.5 0 62.59568405
v -57.18092346 0 -58.97633362
v -62.81907654 0 -61.02845383
v -62.954422 0 -60.5233345
v -63 0 -60.00239182
v -60 0 62.99760818
v -59.4790535 0 62.95203018
v -52.41385269 0 86.98241425
v -57.70186615 0 -58.07403183
v -60.52094269 0 57.04318237
v -62.954422 0 -59.48144531
v -61.9283638 0 57.69947433
v -62.29813385 0 58.06924438
v -62.59807587 0 58.49760818
v -62.81907654 0 58.97154617
v -62.954422 0 59.47666168
v -63 0 59.99760818
v -62.954422 0 60.51855087
v -58.0716362 0 62.29573822
v -57.70186615 0 61.92596817
v -57.40192413 0 61.49760818
v -52.41385269 0 -69.98720551
v -62.29813385 0 61.92596817
v -61.9283638 0 62.29573822
v -61.5 0 62.59568405
v -57.18092346 0 61.02366638
v -57.045578 0 60.51855087
v -57 0 59.99760818
v -62.81907654 0 61.02366638
v -62.59807587 0 61.49760818
v -51.60269165 0 86.17125702
v -51.64780807 0 86.3396225
v -59.4790535 0 -57.047966
v -57.045578 0 59.47666168
v -51.72147369 0 86.49760437
v -51.82145691 0 86.64039612
v -51.94471359 0 86.76364899
v -52.08750153 0 86.8636322
v -52.24547958 0 86.93730164
v -81.55180359 1.94151366 86.99760437
v -81.44580841 1.54592359 86.99760437
v -81.27272797 1.17475009 86.99760437
v -81.03781891 0.83927053 86.99760437
v -80.74822998 0.54967856 86.99760437
v -80.41275024 0.31477332 86.99760437
v -80.04157257 0.14169219 86.99760437
v -79.64598846 0.03569419 86.99760437
v 80 2.34950018 -70.002388
v 81.58750153 2.34950018 -70.002388
v 79.98842621 2.21718001 -70.002388
v 81.55180359 1.94151366 -70.002388
v 79.95404816 2.08888054 -70.002388
v 81.44580841 1.54592359 -70.002388
v 79.89791107 1.96850002 -70.002388
v 81.27272797 1.17475009 -70.002388
v 79.82172394 1.85969591 -70.002388
v 81.03781891 0.83927053 -70.002388
v 79.72780609 1.76577413 -70.002388
v 80.74822998 0.54967856 -70.002388
v 79.6190033 1.68958867 -70.002388
v 80.41275024 0.31477332 -70.002388
v 79.49861908 1.6334542 -70.002388
v 80.04157257 0.14169219 -70.002388
v 79.37032318 1.59907639 -70.002388
v 79.64598846 0.03569419 -70.002388
v 79.23799896 1.58749998 -70.002388
v 79.23799896 0 -70.002388
v 81.58750153 15 -70.002388
v 80 15 -70.002388
v 81.58750153 9.375 99.61603546
v 81.58750153 8.94055557 99.41345215
v 81.58750153 10.70096111 -35.75239182
v 81.58750153 16 -69.002388
v 81.58750153 12.75 -44.80143356
v 81.58750153 12.51303005 -44.9119339
v 81.58750153 15.34202003 -69.94208527
v 81.58750153 15.5 -69.86841583
v 81.58750153 12 -45.00239182
v 81.58750153 11.7395277 -44.97960663
v 81.58750153 11.48696995 -44.9119339
v 81.58750153 11.25 -44.80143356
v 81.58750153 11.03581905 -44.65145874
v 81.58750153 10.59046078 -35.98936462
v 81.58750153 12.9641819 -44.65145874
v 81.58750153 15.17364883 -69.98720551
v 81.58750153 10.85093307 -44.46657562
v 81.58750153 10.70096111 -44.25239182
v 81.58750153 10.59046078 -44.01542664
v 81.58750153 15.86602592 -69.50239563
v 81.58750153 15.9396925 -69.34441376
v 81.58750153 10.5 -43.50239563
v 81.58750153 8 99.24760437
v 81.58750153 2.34950018 89.99760437
v 81.58750153 11.48696995 -35.09285736
v 81.58750153 16 108.99760437
v 81.58750153 11.25 -35.2033577
v 81.58750153 11.03581905 -35.3533287
v 81.58750153 11.7395277 -35.02518463
v 81.58750153 12 -35.00239182
v 81.58750153 12.2604723 -35.02518463
v 81.58750153 15.64278793 -69.76844025
v 81.58750153 15.76604462 -69.64517975
v 81.58750153 10.58415508 101.05705261
v 81.58750153 10.38156986 100.62260437
v 81.58750153 8.47753239 99.28939056
v 81.58750153 10.5 -36.50239563
v 81.58750153 10.52278805 -36.24192429
v 81.58750153 8.47753239 104.70582581
v 81.58750153 8.94055557 104.58176422
v 81.58750153 15 109.99760437
v 81.58750153 12.51303005 -35.09285736
v 81.58750153 12.75 -35.2033577
v 81.58750153 12.9641819 -35.3533287
v 81.58750153 15.98480701 -69.17604828
v 81.58750153 12.2604723 -44.97960663
v 81.58750153 10.52278805 -43.76286697
v 81.58750153 2.34950018 86.99760437
v 81.58750153 10.1066227 100.22994232
v 81.58750153 9.76766586 99.89098358
v 81.58750153 7.52246761 99.28939056
v 81.58750153 7.0594449 99.41345215
v 81.58750153 0 89.99760437
v 81.58750153 6.625 99.61603546
v 81.58750153 13.47721195 -43.76286697
v 81.58750153 13.40953922 -44.01542664
v 81.58750153 13.29903793 -44.25239182
v 81.58750153 13.14906693 -44.46657562
v 81.58750153 6.23233414 99.89098358
v 81.58750153 5.89337778 100.22994232
v 81.58750153 5.61843014 100.62260437
v 81.58750153 6.23233414 104.10422516
v 81.58750153 6.625 104.37917328
v 81.58750153 1 109.99760437
v 81.58750153 13.14906693 -35.53821564
v 81.58750153 13.29903793 -35.75239182
v 81.58750153 13.40953922 -35.98936462
v 81.58750153 13.47721195 -36.24192429
v 81.58750153 13.5 -36.50239563
v 81.58750153 13.5 -43.50239563
v 81.58750153 7.0594449 104.58176422
v 81.58750153 7.52246761 104.70582581
v 81.58750153 8 104.74760437
v 81.58750153 10.1066227 103.76527405
v 81.58750153 10.38156986 103.37260437
v 81.58750153 10.58415508 102.93816376
v 81.58750153 10.70822144 102.47514343
v 81.58750153 10.75 101.99760437
v 81.58750153 10.85093307 -35.53821564
v 81.58750153 10.70822144 101.52007294
v 81.58750153 5.41584539 101.05705261
v 81.58750153 5.29177856 101.52007294
v 81.58750153 0 108.99760437
v 81.58750153 5.25 101.99760437
v 81.58750153 5.29177856 102.47514343
v 81.58750153 5.41584539 102.93816376
v 81.58750153 5.61843014 103.37260437
v 81.58750153 5.89337778 103.76527405
v 81.58750153 0.65797985 109.93730164
v 81.58750153 0.5 109.8636322
v 81.58750153 0.82635182 109.98241425
v 81.58750153 0.35721239 109.76364899
v 81.58750153 0.23395555 109.64039612
v 81.58750153 0.1339746 109.49760437
v 81.58750153 0.06030738 109.33963013
v 81.58750153 0.01519225 109.17125702
v 81.58750153 15.98480701 109.17125702
v 81.58750153 15.9396925 109.33963013
v 81.58750153 15.86602592 109.49760437
v 81.58750153 15.76604462 109.64039612
v 81.58750153 15.64278793 109.76364899
v 81.58750153 15.5 109.8636322
v 81.58750153 9.375 104.37917328
v 81.58750153 9.76766586 104.10422516
v 81.58750153 15.17364883 109.98241425
v 81.58750153 15.34202003 109.93730164
v 80 16 -69.002388
v 80 16 108.99760437
v 80 10.85093307 -35.53821564
v 80 10.70096111 -35.75239182
v 80 2.34950018 86.99760437
v 80 7.52246761 99.28939056
v 80 8 99.24760437
v 80 2.34950018 89.99760437
v 80 10.70096111 -44.25239182
v 80 10.85093307 -44.46657562
v 80 11.03581905 -44.65145874
v 80 11.25 -44.80143356
v 80 13.40953922 -35.98936462
v 80 13.29903793 -35.75239182
v 80 9.375 104.37917328
v 80 8.94055557 104.58176422
v 80 15 109.99760437
v 80 0 89.99760437
v 80 6.625 99.61603546
v 80 7.0594449 99.41345215
v 80 5.61843014 103.37260437
v 80 5.41584539 102.93816376
v 80 0 108.99760437
v 80 8.47753239 99.28939056
v 80 8.94055557 99.41345215
v 80 9.375 99.61603546
v 80 11.48696995 -35.09285736
v 80 11.25 -35.2033577
v 80 11.03581905 -35.3533287
v 80 12.51303005 -44.9119339
v 80 12.75 -44.80143356
v 80 12.9641819 -44.65145874
v 80 13.14906693 -44.46657562
v 80 8.47753239 104.70582581
v 80 8 104.74760437
v 80 1 109.99760437
v 80 7.52246761 104.70582581
v 80 7.0594449 104.58176422
v 80 5.41584539 101.05705261
v 80 5.61843014 100.62260437
v 80 9.76766586 99.89098358
v 80 10.1066227 100.22994232
v 80 10.5 -43.50239563
v 80 10.52278805 -43.76286697
v 80 10.59046078 -44.01542664
v 80 15.98480701 -69.17604828
v 80 15.9396925 -69.34441376
v 80 12 -45.00239182
v 80 15.86602592 -69.50239563
v 80 15.76604462 -69.64517975
v 80 11.48696995 -44.9119339
v 80 11.7395277 -44.97960663
v 80 15.17364883 -69.98720551
v 80 15.34202003 -69.94208527
v 80 13.14906693 -35.53821564
v 80 12.9641819 -35.3533287
v 80 12.75 -35.2033577
v 80 12.51303005 -35.09285736
v 80 12.2604723 -35.02518463
v 80 12 -35.00239182
v 80 5.29177856 102.47514343
v 80 5.25 101.99760437
v 80 5.29177856 101.52007294
v 80 5.89337778 100.22994232
v 80 6.23233414 99.89098358
v 80 10.59046078 -35.98936462
v 80 10.52278805 -36.24192429
v 80 10.5 -36.50239563
v 80 15.64278793 -69.76844025
v 80 15.5 -69.86841583
v 80 10.58415508 101.05705261
v 80 10.70822144 101.52007294
v 80 10.75 101.99760437
v 80 10.70822144 102.47514343
v 80 10.58415508 102.93816376
v 80 6.625 104.37917328
v 80 6.23233414 104.10422516
v 80 0.82635182 109.98241425
v 80 5.89337778 103.76527405
v 80 0.65797985 109.93730164
v 80 11.7395277 -35.02518463
v 80 10.38156986 100.62260437
v 80 12.2604723 -44.97960663
v 80 13.29903793 -44.25239182
v 80 13.40953922 -44.01542664
v 80 13.47721195 -43.76286697
v 80 0.1339746 109.49760437
v 80 0.23395555 109.64039612
v 80 13.5 -43.50239563
v 80 13.5 -36.50239563
v 80 13.47721195 -36.24192429
v 80 0.06030738 109.33963013
v 80 0.35721239 109.76364899
v 80 0.5 109.8636322
v 80 15.17364883 109.98241425
v 80 10.1066227 103.76527405
v 80 9.76766586 104.10422516
v 80 0.01519225 109.17125702
v 80 15.34202003 109.93730164
v 80 15.5 109.8636322
v 80 15.64278793 109.76364899
v 80 15.76604462 109.64039612
v 80 15.86602592 109.49760437
v 80 15.9396925 109.33963013
v 80 10.38156986 103.37260437
v 80 15.98480701 109.17125702
v 79.98842621 2.21718001 86.99760437
v 79.95404816 2.08888054 86.99760437
v 79.89791107 1.96850002 86.99760437
v 79.82172394 1.85969591 86.99760437
v 79.72780609 1.76577413 86.99760437
v 79.6190033 1.68958867 86.99760437
v 79.49861908 1.6334542 86.99760437
v 79.37032318 1.59907639 86.99760437
v 79.23799896 1.58749998 86.99760437
v 58.97393799 1.58749998 62.81668472
v 58.5 1.58749998 62.59568405
v 51.58750153 1.58749998 85.99760437
v 52.41385269 1.58749998 86.98241425
v 52.58750153 1.58749998 86.99760437
v 59.4790535 1.58749998 62.95203018
v 58.97393799 1.58749998 -57.18331528
v 58.5 1.58749998 -57.40431213
v 58.0716362 1.58749998 -57.70425797
v 62.29813385 1.58749998 -58.07403183
v 61.9283638 1.58749998 -57.70425797
v 61.5 1.58749998 -57.40431213
v 61.0260582 1.58749998 -57.18331528
v 58.5 1.58749998 -62.60046768
v 58.97393799 1.58749998 -62.82147598
v 52.58750153 1.58749998 -70.002388
v 59.4790535 1.58749998 -62.95681381
v 60 1.58749998 56.99760818
v 60.52094269 1.58749998 57.04318237
v 58.0716362 1.58749998 62.29573822
v 57.70186615 1.58749998 61.92596817
v 57.40192413 1.58749998 61.49760818
v 59.4790535 1.58749998 -57.047966
v 57 1.58749998 59.99760818
v 60 1.58749998 -57.00239182
v 61.5 1.58749998 -62.60046768
v 61.9283638 1.58749998 -62.30052948
v 51.60269165 1.58749998 86.17125702
v 51.64780807 1.58749998 86.3396225
v 57.18092346 1.58749998 61.02366638
v 57.045578 1.58749998 60.51855087
v 57.045578 1.58749998 -59.48144531
v 57 1.58749998 -60.00239182
v 51.58750153 1.58749998 -69.002388
v 57.045578 1.58749998 -60.5233345
v 57.18092346 1.58749998 -61.02845383
v 60 1.58749998 -63.00239563
v 60.52094269 1.58749998 -62.95681381
v 61.0260582 1.58749998 -62.82147598
v 62.81907654 1.58749998 -61.02845383
v 62.954422 1.58749998 -60.5233345
v 63 1.58749998 -60.00239182
v 62.954422 1.58749998 59.47666168
v 63 1.58749998 59.99760818
v 62.954422 1.58749998 60.51855087
v 62.81907654 1.58749998 61.02366638
v 62.59807587 1.58749998 61.49760818
v 61.5 1.58749998 62.59568405
v 61.0260582 1.58749998 62.81668472
v 60.52094269 1.58749998 62.95203018
v 60 1.58749998 62.99760818
v 51.72147369 1.58749998 86.49760437
v 51.82145691 1.58749998 86.64039612
v 51.94471359 1.58749998 86.76364899
v 58.0716362 1.58749998 -62.30052948
v 52.24547958 1.58749998 -69.94208527
v 52.08750153 1.58749998 -69.86841583
v 62.29813385 1.58749998 -61.93075562
v 62.59807587 1.58749998 -61.50239563
v 58.5 1.58749998 57.39953232
v 58.97393799 1.58749998 57.17852783
v 59.4790535 1.58749998 57.04318237
v 61.0260582 1.58749998 57.17852783
v 61.5 1.58749998 57.39953232
v 61.9283638 1.58749998 57.69947433
v 62.29813385 1.58749998 61.92596817
v 61.9283638 1.58749998 62.29573822
v 52.08750153 1.58749998 86.8636322
v 52.24547958 1.58749998 86.93730164
v 57.70186615 1.58749998 -58.07403183
v 57.40192413 1.58749998 -58.50239563
v 57.18092346 1.58749998 -58.97633362
v 57.40192413 1.58749998 -61.50239563
v 57.70186615 1.58749998 -61.93075562
v 51.60269165 1.58749998 -69.17604828
v 51.64780807 1.58749998 -69.34441376
v 51.72147369 1.58749998 -69.50239563
v 52.41385269 1.58749998 -69.98720551
v 51.94471359 1.58749998 -69.76844025
v 51.82145691 1.58749998 -69.64517975
v 60.52094269 1.58749998 -57.047966
v 57.045578 1.58749998 59.47666168
v 57.18092346 1.58749998 58.97154617
v 57.40192413 1.58749998 58.49760818
v 62.29813385 1.58749998 58.06924438
v 62.59807587 1.58749998 58.49760818
v 62.81907654 1.58749998 58.97154617
v 62.954422 1.58749998 -59.48144531
v 62.81907654 1.58749998 -58.97633362
v 62.59807587 1.58749998 -58.50239563
v 57.70186615 1.58749998 58.06924438
v 58.0716362 1.58749998 57.69947433
v 51.58750153 0 85.99760437
v 51.58750153 0 -69.002388
v 58.0716362 0 -57.70425797
v 58.5 0 -57.40431213
v 60 0 56.99760818
v 52.58750153 0 -70.002388
v 60 0 -63.00239563
v 59.4790535 0 -62.95681381
v 61.5 0 -62.60046768
v 61.0260582 0 -62.82147598
v 57.18092346 0 -58.97633362
v 57.40192413 0 -58.50239563
v 57.70186615 0 -58.07403183
v 60.52094269 0 -62.95681381
v 60 0 -57.00239182
v 62.81907654 0 58.97154617
v 62.59807587 0 58.49760818
v 62.29813385 0 58.06924438
v 61.9283638 0 57.69947433
v 61.5 0 57.39953232
v 58.97393799 0 -57.18331528
v 59.4790535 0 -57.047966
v 60.52094269 0 57.04318237
v 61.0260582 0 57.17852783
v 79.23799896 0 86.99760437
v 61.0260582 0 -57.18331528
v 61.5 0 -57.40431213
v 62.954422 0 -60.5233345
v 62.81907654 0 -61.02845383
v 62.59807587 0 -61.50239563
v 51.64780807 0 -69.34441376
v 51.72147369 0 -69.50239563
v 58.0716362 0 -62.30052948
v 57.70186615 0 -61.93075562
v 57.40192413 0 -61.50239563
v 62.81907654 0 -58.97633362
v 62.954422 0 -59.48144531
v 63 0 -60.00239182
v 62.29813385 0 -61.93075562
v 61.9283638 0 -62.30052948
v 58.97393799 0 57.17852783
v 58.5 0 57.39953232
v 61.9283638 0 -57.70425797
v 62.29813385 0 -58.07403183
v 62.59807587 0 -58.50239563
v 51.82145691 0 -69.64517975
v 51.94471359 0 -69.76844025
v 52.08750153 0 -69.86841583
v 58.97393799 0 -62.82147598
v 58.5 0 -62.60046768
v 52.41385269 0 -69.98720551
v 52.24547958 0 -69.94208527
v 51.60269165 0 -69.17604828
v 57.18092346 0 -61.02845383
v 57.045578 0 -60.5233345
v 57 0 -60.00239182
v 61.5 0 62.59568405
v 61.0260582 0 62.81668472
v 60.52094269 0 62.95203018
v 59.4790535 0 57.04318237
v 57.045578 0 -59.48144531
v 58.0716362 0 57.69947433
v 57.70186615 0 58.06924438
v 57.40192413 0 58.49760818
v 57.18092346 0 58.97154617
v 57.045578 0 59.47666168
v 57 0 59.99760818
v 57.045578 0 60.51855087
v 60 0 62.99760818
v 52.58750153 0 86.99760437
v 59.4790535 0 62.95203018
v 52.41385269 0 86.98241425
v 52.24547958 0 86.93730164
v 61.9283638 0 62.29573822
v 62.29813385 0 61.92596817
v 62.59807587 0 61.49760818
v 57.70186615 0 61.92596817
v 58.0716362 0 62.29573822
v 62.81907654 0 61.02366638
v 62.954422 0 60.51855087
v 63 0 59.99760818
v 57.18092346 0 61.02366638
v 57.40192413 0 61.49760818
v 52.08750153 0 86.8636322
v 51.94471359 0 86.76364899
v 51.82145691 0 86.64039612
v 58.5 0 62.59568405
v 58.97393799 0 62.81668472
v 51.60269165 0 86.17125702
v 60.52094269 0 -57.047966
v 62.954422 0 59.47666168
v 51.72147369 0 86.49760437
v 51.64780807 0 86.3396225
v 79.64598846 0.03569419 86.99760437
v 80.04157257 0.14169219 86.99760437
v 80.41275024 0.31477332 86.99760437
v 80.74822998 0.54967856 86.99760437
v 81.03781891 0.83927053 86.99760437
v 81.27272797 1.17475009 86.99760437
v 81.44580841 1.54592359 86.99760437
v 81.55180359 1.94151366 86.99760437
vn -0 -0 -1
vn -1 -0 0
vn 0 1 0
vn 1 0 0
vn 0.08715 0.9962 0
vn 0.25883 0.96592 0
vn 0.42261 0.90631 0
vn 0.57358 0.81915 0
vn 0.70712 0.70709 0
vn 0.81915 0.57358 0
vn 0.9063 0.42264 0
vn 0.96593 0.25882 0
vn 0.9962 0.08714 0
vn 0 -1 0
vn -0.99619 -0.08716 -0
vn -0.99619 -0.08716 -0
vn -0.96593 -0.25881 -0
vn -0.90631 -0.42262 -0
vn -0.81915 -0.57358 -0
vn -0.81915 -0.57358 0
vn -0.70711 -0.7071 -0
vn -0.57358 -0.81915 -0
vn -0.57358 -0.81915 0
vn -0.42261 -0.90631 -0
vn -0.42261 -0.90631 -0
vn -0.25882 -0.96592 -0
vn -0.08716 -0.99619 -0
vn 0 -0 1
vn -0.08716 0 -0.99619
vn -0.25882 0 -0.96593
vn -0.42262 0 -0.90631
vn -0.57358 0 -0.81915
vn -0.70711 0 -0.70711
vn -0.81915 0 -0.57358
vn -0.90631 0 -0.42262
vn -0.96593 0 -0.25882
vn -0.99619 0 -0.08716
vn -0.99619 0 0.08716
vn -0.96593 0 0.25882
vn -0.90631 0 0.42262
vn -0.81915 0 0.57357
vn -0.70711 0 0.70711
vn -0.57357 0 0.81915
vn -0.42262 0 0.90631
vn -0.25882 0 0.96593
vn -0.08715 0 0.9962
vn 0.08715 -0 0.9962
vn 0.25882 -0 0.96593
vn 0.42262 -0 0.90631
vn 0.57357 -0 0.81915
vn 0.70711 -0 0.70711
vn 0.81915 -0 0.57357
vn 0.90631 -0 0.42262
vn 0.96593 -0 0.25882
vn 0.99619 -0 0.08716
vn 0.99619 0 -0.08716
vn 0.96593 0 -0.25882
vn 0.90631 0 -0.42262
vn 0.81915 0 -0.57358
vn 0.70711 0 -0.70711
vn 0.57358 0 -0.81915
vn 0.42262 0 -0.90631
vn 0.25882 0 -0.96593
vn 0.08716 0 -0.99619
vn -0.08715 0 -0.9962
vn -0.25883 0 -0.96592
vn -0.42261 0 -0.90631
vn -0.70711 0 -0.7071
vn -0.81915 0 -0.57357
vn -0.90631 0 -0.42262
vn -0.96593 0 -0.25882
vn -0.99619 0 -0.08716
vn -0.99619 0 0.08716
vn -0.96593 0 0.25882
vn -0.90631 0 0.42262
vn -0.81915 0 0.57358
vn -0.70711 0 0.7071
vn -0.57357 0 0.81916
vn -0.42263 0 0.9063
vn -0.25881 0 0.96593
vn -0.08717 0 0.99619
vn 0.08717 -0 0.99619
vn 0.25881 -0 0.96593
vn 0.42263 -0 0.9063
vn 0.57357 -0 0.81916
vn 0.70711 -0 0.7071
vn 0.81915 -0 0.57358
vn 0.90631 -0 0.42262
vn 0.96593 -0 0.25882
vn 0.99619 -0 0.08716
vn 0.99619 0 -0.08716
vn 0.96593 0 -0.25882
vn 0.90631 0 -0.42262
vn 0.81915 0 -0.57357
vn 0.70711 0 -0.7071
vn 0.42261 0 -0.90631
vn 0.25883 0 -0.96592
vn 0.08715 0 -0.9962
vn 0 0.08717 0.99619
vn 0 0.25881 0.96593
vn 0 0.42262 0.90631
vn 0 0.57358 0.81915
vn 0 0.70711 0.7071
vn 0 0.81915 0.57358
vn 0 0.90631 0.42262
vn 0 0.96593 0.25882
vn 0 0.99619 0.08716
vn 0 0.99619 -0.08715
vn 0 0.96593 -0.25882
vn 0 0.90631 -0.42262
vn 0 0.81915 -0.57357
vn 0 0.7071 -0.70711
vn 0 0.57358 -0.81915
vn 0 0.42263 -0.9063
vn 0 0.25881 -0.96593
vn 0 0.08716 -0.99619
vn -0 -0.08716 -0.99619
vn -0 -0.25881 -0.96593
vn -0 -0.42263 -0.9063
vn -0 -0.57358 -0.81915
vn -0 -0.7071 -0.70711
vn -0 -0.81916 -0.57357
vn -0 -0.90631 -0.42262
vn -0 -0.96593 -0.25882
vn -0 -0.99619 -0.08715
vn 0 -0.99619 0.08716
vn 0 -0.96593 0.25882
vn 0 -0.90631 0.42262
vn 0 -0.81915 0.57358
vn 0 -0.70711 0.7071
vn 0 -0.57358 0.81915
vn 0 -0.42262 0.90631
vn 0 -0.25881 0.96593
vn 0 -0.08717 0.99619
vn 0.08714 0 0.9962
vn 0.08714 0 0.9962
vn 0.2588 0 0.96593
vn 0.2588 0 0.96593
vn 0.42263 0 0.9063
vn 0.57358 0 0.81915
vn 0.7071 0 0.70712
vn 0.7071 0 0.70712
vn 0.81915 0 0.57357
vn 0.90631 0 0.42261
vn 0.90631 0 0.42261
vn 0.96592 0 0.25884
vn 0.96592 -0 0.25884
vn 0.9962 0 0.08714
vn 0.9962 -0 0.08714
vn 0.9962 0 -0.08714
vn 0.96592 0 -0.25884
vn 0.96592 0 -0.25884
vn 0.90631 0 -0.42261
vn 0.90631 -0 -0.42261
vn 0.81914 0 -0.57359
vn 0.70712 0 -0.7071
vn 0.70712 0 -0.7071
vn 0.57355 0 -0.81917
vn 0.42263 0 -0.9063
vn 0.25884 0 -0.96592
vn 0.0871 0 -0.9962
vn 0 0.0871 -0.9962
vn -0 0.0871 -0.9962
vn 0 0.25885 -0.96592
vn 0 0.42263 -0.9063
vn 0 0.57355 -0.81917
vn 0 0.70712 -0.7071
vn 0 0.81914 -0.57359
vn 0 0.81914 -0.57359
vn 0 0.90631 -0.42261
vn 0 0.90631 -0.42261
vn 0 0.96592 -0.25883
vn 0 0.99619 -0.08715
vn -0 0.99619 -0.08715
vn 0 0.99619 0.08716
vn -0 0.99619 0.08716
vn 0 0.96593 0.25881
vn 0 0.96593 0.25881
vn 0 0.9063 0.42263
vn -0 0.9063 0.42263
vn 0 0.81916 0.57357
vn 0 0.7071 0.70712
vn 0 0.7071 0.70712
vn 0 0.57358 0.81915
vn -0 0.57358 0.81915
vn 0 0.42263 0.9063
vn -0 0.42263 0.9063
vn 0 0.25881 0.96593
vn 0 0.25881 0.96593
vn 0 0.08714 0.9962
vn -0 0.08714 0.9962
vn 0 -0.08714 0.9962
vn 0 -0.25881 0.96593
vn 0 -0.25881 0.96593
vn 0 -0.42263 0.9063
vn -0 -0.42263 0.9063
vn 0 -0.57359 0.81915
vn 0 -0.57359 0.81915
vn 0 -0.7071 0.70712
vn 0 -0.81916 0.57357
vn 0 -0.9063 0.42263
vn 0 -0.96593 0.25882
vn 0 -0.99619 0.08715
vn 0 0.99619 -0.08715
vn 0 0.96593 -0.25882
vn 0 0.90631 -0.42261
vn 0 0.70711 -0.7071
vn 0 0.57358 -0.81915
vn 0 0.42262 -0.90631
vn 0 0.25882 -0.96593
vn 0 0.08717 -0.99619
vn -0 -0.08717 -0.99619
vn -0 -0.25882 -0.96593
vn -0 -0.42262 -0.90631
vn -0 -0.57357 -0.81915
vn -0 -0.70711 -0.7071
vn -0 -0.81915 -0.57358
vn -0 -0.90631 -0.42262
vn -0 -0.96593 -0.25882
vn -0 -0.99619 -0.08715
vn 0 -0.99619 0.08715
vn 0 -0.96593 0.25882
vn 0 -0.9063 0.42263
vn 0 -0.81916 0.57357
vn 0 -0.7071 0.70711
vn 0 -0.57358 0.81915
vn 0 -0.42262 0.90631
vn 0 -0.25882 0.96593
vn 0 -0.08714 0.9962
vn 0 0.08714 0.9962
vn 0 0.25882 0.96593
vn 0 0.42262 0.90631
vn 0 0.57359 0.81915
vn 0 0.7071 0.70711
vn 0 0.81915 0.57357
vn 0 0.90631 0.42262
vn 0 0.96593 0.25882
vn 0 0.99619 0.08715
vn -0.9962 0.08714 0
vn -0.96593 0.25882 0
vn -0.9063 0.42264 0
vn -0.81915 0.57358 0
vn -0.70712 0.70709 0
vn -0.57358 0.81915 0
vn -0.42261 0.90631 0
vn -0.25883 0.96592 0
vn -0.08715 0.9962 0
vn 0.08716 -0.99619 0
vn 0.25882 -0.96592 0
vn 0.42261 -0.90631 0
vn 0.42261 -0.90631 0
vn 0.57358 -0.81915 0
vn 0.57358 -0.81915 -0
vn 0.70711 -0.7071 0
vn 0.81915 -0.57358 0
vn 0.81915 -0.57358 -0
vn 0.90631 -0.42262 0
vn 0.96593 -0.25881 0
vn 0.99619 -0.08716 0
vn 0.99619 -0.08716 0
vn -0.08716 0 -0.99619
vn -0.42262 0 -0.90631
vn -0.42262 0 0.90631
vn -0.08715 0 0.9962
vn 0.08715 -0 0.9962
vn 0.42262 -0 0.90631
vn 0.42262 0 -0.90631
vn 0.08716 0 -0.99619
vn -0.08715 0 -0.9962
vn -0.42261 0 -0.90631
vn -0.42263 0 0.9063
vn -0.08717 0 0.99619
vn 0.08717 -0 0.99619
vn 0.42263 -0 0.9063
vn 0.42261 0 -0.90631
vn 0.08715 0 -0.9962
vn -0.9962 0 0.08714
vn -0.9962 0 0.08714
vn -0.96592 0 0.25884
vn -0.96592 0 0.25884
vn -0.90631 0 0.42261
vn -0.90631 -0 0.42261
vn -0.81915 0 0.57357
vn -0.7071 0 0.70712
vn -0.7071 -0 0.70712
vn -0.57358 0 0.81915
vn -0.42263 0 0.9063
vn -0.2588 0 0.96593
vn -0.2588 -0 0.96593
vn -0.08714 0 0.9962
vn -0.08714 -0 0.9962
vn -0.0871 -0 -0.9962
vn -0.25884 -0 -0.96592
vn -0.42263 -0 -0.9063
vn -0.57355 -0 -0.81917
vn -0.70712 -0 -0.7071
vn -0.70712 -0 -0.7071
vn -0.81914 -0 -0.57359
vn -0.90631 -0 -0.42261
vn -0.90631 0 -0.42261
vn -0.96592 -0 -0.25884
vn -0.96592 -0 -0.25884
vn -0.9962 -0 -0.08714
f 1//1 2//1 3//1
f 3//1 2//1 4//1
f 3//1 4//1 5//1
f 5//1 4//1 6//1
f 5//1 6//1 7//1
f 7//1 6//1 8//1
f 7//1 8//1 9//1
f 9//1 8//1 10//1
f 9//1 10//1 11//1
f 11//1 10//1 12//1
f 11//1 12//1 13//1
f 13//1 12//1 14//1
f 13//1 14//1 15//1
f 15//1 14//1 16//1
f 15//1 16//1 17//1
f 17//1 16//1 18//1
f 17//1 18//1 19//1
f 19//1 18//1 20//1
f 20//1 21//1 19//1
f 19//1 21//1 22//1
f 23//2 24//2 25//2
f 26//2 27//2 28//2
f 29//2 30//2 31//2
f 32//2 33//2 34//2
f 33//2 35//2 34//2
f 34//2 35//2 36//2
f 34//2 36//2 37//2
f 38//2 39//2 20//2
f 20//2 39//2 40//2
f 20//2 40//2 41//2
f 42//2 43//2 44//2
f 44//2 43//2 45//2
f 44//2 45//2 46//2
f 37//2 47//2 34//2
f 34//2 47//2 48//2
f 34//2 48//2 28//2
f 49//2 50//2 28//2
f 28//2 50//2 51//2
f 28//2 51//2 26//2
f 52//2 53//2 44//2
f 44//2 53//2 54//2
f 44//2 54//2 42//2
f 52//2 55//2 53//2
f 53//2 55//2 56//2
f 53//2 56//2 57//2
f 30//2 58//2 31//2
f 31//2 58//2 59//2
f 31//2 59//2 60//2
f 61//2 62//2 63//2
f 63//2 62//2 64//2
f 63//2 64//2 25//2
f 25//2 64//2 65//2
f 25//2 65//2 23//2
f 66//2 67//2 34//2
f 34//2 67//2 68//2
f 34//2 68//2 32//2
f 49//2 28//2 69//2
f 69//2 28//2 48//2
f 69//2 48//2 70//2
f 70//2 48//2 71//2
f 70//2 71//2 72//2
f 73//2 74//2 20//2
f 20//2 74//2 75//2
f 20//2 75//2 38//2
f 57//2 76//2 53//2
f 53//2 76//2 77//2
f 53//2 77//2 78//2
f 41//2 79//2 20//2
f 20//2 79//2 80//2
f 20//2 80//2 21//2
f 21//2 80//2 53//2
f 21//2 53//2 81//2
f 81//2 53//2 78//2
f 46//2 82//2 44//2
f 44//2 82//2 83//2
f 44//2 83//2 84//2
f 60//2 85//2 31//2
f 31//2 85//2 86//2
f 31//2 86//2 70//2
f 87//2 88//2 89//2
f 90//2 91//2 92//2
f 27//2 93//2 28//2
f 28//2 93//2 94//2
f 28//2 94//2 20//2
f 20//2 94//2 95//2
f 20//2 95//2 73//2
f 84//2 96//2 44//2
f 44//2 96//2 97//2
f 44//2 97//2 31//2
f 31//2 97//2 98//2
f 31//2 98//2 29//2
f 72//2 99//2 70//2
f 70//2 99//2 100//2
f 70//2 100//2 31//2
f 31//2 100//2 101//2
f 31//2 101//2 102//2
f 24//2 103//2 25//2
f 25//2 103//2 104//2
f 25//2 104//2 105//2
f 105//2 104//2 89//2
f 105//2 89//2 106//2
f 106//2 89//2 88//2
f 91//2 107//2 92//2
f 92//2 107//2 108//2
f 92//2 108//2 66//2
f 90//2 92//2 89//2
f 89//2 92//2 109//2
f 89//2 109//2 110//2
f 108//2 111//2 66//2
f 66//2 111//2 112//2
f 66//2 112//2 113//2
f 114//2 115//2 63//2
f 63//2 115//2 116//2
f 63//2 116//2 61//2
f 110//2 117//2 89//2
f 89//2 117//2 118//2
f 89//2 118//2 87//2
f 113//2 119//2 66//2
f 66//2 119//2 120//2
f 66//2 120//2 67//2
f 114//2 121//2 115//2
f 115//2 121//2 122//2
f 115//2 122//2 123//2
f 123//2 124//2 115//2
f 115//2 124//2 125//2
f 115//2 125//2 126//2
f 102//2 127//2 31//2
f 31//2 127//2 115//2
f 31//2 115//2 128//2
f 128//2 115//2 126//2
f 129//3 130//3 31//3
f 31//3 130//3 44//3
f 131//4 132//4 130//4
f 130//4 132//4 133//4
f 134//4 135//4 19//4
f 19//4 135//4 136//4
f 19//4 136//4 137//4
f 138//4 139//4 140//4
f 137//4 141//4 19//4
f 19//4 141//4 142//4
f 19//4 142//4 143//4
f 144//4 145//4 130//4
f 145//4 146//4 130//4
f 130//4 146//4 147//4
f 130//4 147//4 131//4
f 138//4 140//4 148//4
f 140//4 149//4 150//4
f 150//4 151//4 140//4
f 140//4 151//4 130//4
f 140//4 130//4 152//4
f 152//4 130//4 133//4
f 153//4 154//4 155//4
f 134//4 19//4 140//4
f 140//4 19//4 22//4
f 140//4 22//4 148//4
f 139//4 156//4 140//4
f 140//4 156//4 157//4
f 140//4 157//4 149//4
f 158//4 159//4 160//4
f 161//4 129//4 162//4
f 162//4 129//4 163//4
f 161//4 164//4 129//4
f 129//4 164//4 165//4
f 129//4 165//4 166//4
f 166//4 167//4 129//4
f 129//4 167//4 168//4
f 129//4 168//4 130//4
f 130//4 168//4 169//4
f 130//4 169//4 144//4
f 143//4 170//4 19//4
f 19//4 170//4 153//4
f 19//4 153//4 171//4
f 171//4 153//4 155//4
f 172//4 173//4 174//4
f 174//4 173//4 175//4
f 174//4 175//4 176//4
f 177//4 178//4 179//4
f 179//4 178//4 180//4
f 179//4 180//4 181//4
f 160//4 159//4 182//4
f 182//4 159//4 183//4
f 182//4 183//4 184//4
f 185//4 186//4 187//4
f 188//4 189//4 160//4
f 160//4 189//4 190//4
f 160//4 190//4 158//4
f 177//4 179//4 174//4
f 174//4 179//4 191//4
f 174//4 191//4 192//4
f 154//4 153//4 193//4
f 193//4 153//4 194//4
f 193//4 194//4 175//4
f 175//4 194//4 195//4
f 175//4 195//4 176//4
f 154//4 196//4 155//4
f 155//4 196//4 197//4
f 155//4 197//4 187//4
f 187//4 197//4 198//4
f 187//4 198//4 199//4
f 200//4 201//4 129//4
f 129//4 201//4 202//4
f 129//4 202//4 179//4
f 192//4 203//4 174//4
f 174//4 203//4 204//4
f 174//4 204//4 172//4
f 205//4 206//4 207//4
f 188//4 160//4 208//4
f 208//4 160//4 209//4
f 208//4 209//4 210//4
f 181//4 211//4 179//4
f 179//4 211//4 212//4
f 179//4 212//4 129//4
f 129//4 212//4 213//4
f 129//4 213//4 163//4
f 187//4 186//4 205//4
f 205//4 186//4 214//4
f 205//4 214//4 206//4
f 207//4 215//4 205//4
f 205//4 215//4 208//4
f 205//4 208//4 216//4
f 210//4 217//4 208//4
f 208//4 217//4 218//4
f 208//4 218//4 219//4
f 220//4 221//4 222//4
f 199//4 223//4 187//4
f 187//4 223//4 224//4
f 187//4 224//4 185//4
f 184//4 225//4 182//4
f 182//4 225//4 226//4
f 182//4 226//4 227//4
f 227//4 226//4 222//4
f 227//4 222//4 228//4
f 228//4 222//4 221//4
f 219//4 229//4 208//4
f 208//4 229//4 230//4
f 208//4 230//4 216//4
f 200//4 129//4 222//4
f 222//4 129//4 231//4
f 222//4 231//4 232//4
f 232//4 233//4 222//4
f 222//4 233//4 234//4
f 222//4 234//4 220//4
f 235//5 1//5 236//5
f 236//5 1//5 3//5
f 236//6 3//6 237//6
f 237//6 3//6 5//6
f 237//7 5//7 238//7
f 238//7 5//7 7//7
f 238//8 7//8 239//8
f 239//8 7//8 9//8
f 239//9 9//9 240//9
f 240//9 9//9 11//9
f 240//10 11//10 241//10
f 241//10 11//10 13//10
f 241//11 13//11 242//11
f 242//11 13//11 15//11
f 242//12 15//12 243//12
f 243//12 15//12 17//12
f 243//13 17//13 171//13
f 171//13 17//13 19//13
f 244//3 245//3 235//3
f 246//3 247//3 248//3
f 249//3 235//3 250//3
f 250//3 235//3 251//3
f 252//3 253//3 254//3
f 247//3 255//3 248//3
f 248//3 255//3 256//3
f 248//3 256//3 257//3
f 258//3 259//3 1//3
f 249//3 260//3 235//3
f 235//3 260//3 261//3
f 235//3 261//3 262//3
f 244//3 235//3 263//3
f 263//3 235//3 264//3
f 263//3 264//3 265//3
f 266//3 267//3 1//3
f 1//3 267//3 268//3
f 1//3 268//3 254//3
f 254//3 268//3 269//3
f 254//3 269//3 252//3
f 270//3 271//3 248//3
f 262//3 272//3 235//3
f 235//3 272//3 273//3
f 235//3 273//3 264//3
f 259//3 274//3 1//3
f 1//3 274//3 275//3
f 1//3 275//3 266//3
f 276//3 277//3 278//3
f 278//3 277//3 279//3
f 278//3 279//3 280//3
f 281//3 282//3 1//3
f 1//3 282//3 283//3
f 1//3 283//3 258//3
f 284//3 285//3 286//3
f 287//3 257//3 288//3
f 288//3 257//3 289//3
f 287//3 290//3 257//3
f 257//3 290//3 291//3
f 257//3 291//3 292//3
f 292//3 293//3 257//3
f 257//3 293//3 294//3
f 257//3 294//3 295//3
f 257//3 296//3 248//3
f 248//3 296//3 297//3
f 248//3 297//3 270//3
f 271//3 298//3 248//3
f 248//3 298//3 299//3
f 248//3 299//3 300//3
f 245//3 301//3 235//3
f 235//3 301//3 302//3
f 235//3 302//3 1//3
f 1//3 302//3 303//3
f 1//3 303//3 281//3
f 304//3 305//3 286//3
f 286//3 305//3 306//3
f 286//3 306//3 284//3
f 265//3 264//3 307//3
f 307//3 264//3 308//3
f 307//3 308//3 257//3
f 257//3 308//3 309//3
f 257//3 309//3 310//3
f 295//3 311//3 257//3
f 257//3 311//3 312//3
f 257//3 312//3 296//3
f 251//3 235//3 313//3
f 313//3 235//3 314//3
f 313//3 314//3 315//3
f 315//3 314//3 316//3
f 315//3 316//3 317//3
f 280//3 318//3 278//3
f 278//3 318//3 319//3
f 278//3 319//3 248//3
f 248//3 319//3 320//3
f 248//3 320//3 246//3
f 310//3 321//3 257//3
f 257//3 321//3 322//3
f 257//3 322//3 289//3
f 253//3 323//3 254//3
f 254//3 323//3 324//3
f 254//3 324//3 325//3
f 325//3 324//3 286//3
f 325//3 286//3 326//3
f 326//3 286//3 285//3
f 317//3 327//3 315//3
f 315//3 327//3 328//3
f 315//3 328//3 329//3
f 300//3 330//3 248//3
f 248//3 330//3 331//3
f 248//3 331//3 332//3
f 332//3 331//3 315//3
f 276//3 278//3 286//3
f 286//3 278//3 333//3
f 286//3 333//3 304//3
f 329//3 334//3 315//3
f 315//3 334//3 335//3
f 315//3 335//3 332//3
f 278//4 248//4 336//4
f 336//4 248//4 337//4
f 338//14 339//14 340//14
f 341//14 342//14 343//14
f 343//14 342//14 344//14
f 345//14 346//14 340//14
f 340//14 346//14 347//14
f 340//14 347//14 338//14
f 348//14 349//14 350//14
f 350//14 351//14 348//14
f 348//14 351//14 352//14
f 348//14 352//14 353//14
f 339//14 354//14 340//14
f 340//14 354//14 355//14
f 340//14 355//14 356//14
f 356//14 355//14 348//14
f 356//14 348//14 357//14
f 357//14 348//14 353//14
f 358//14 359//14 360//14
f 361//14 337//14 362//14
f 362//14 337//14 363//14
f 344//14 364//14 343//14
f 343//14 364//14 365//14
f 343//14 365//14 2//14
f 2//14 365//14 366//14
f 2//14 366//14 367//14
f 368//14 369//14 370//14
f 369//14 371//14 370//14
f 370//14 371//14 372//14
f 370//14 372//14 373//14
f 367//14 374//14 2//14
f 2//14 374//14 375//14
f 2//14 375//14 376//14
f 360//14 359//14 377//14
f 378//14 379//14 380//14
f 380//14 379//14 381//14
f 380//14 381//14 382//14
f 373//14 383//14 370//14
f 370//14 383//14 384//14
f 370//14 384//14 385//14
f 385//14 384//14 386//14
f 387//14 388//14 2//14
f 389//14 390//14 337//14
f 378//14 380//14 370//14
f 370//14 380//14 391//14
f 370//14 391//14 368//14
f 376//14 392//14 2//14
f 2//14 392//14 393//14
f 2//14 393//14 394//14
f 359//14 395//14 377//14
f 377//14 395//14 396//14
f 377//14 396//14 397//14
f 361//14 398//14 337//14
f 337//14 398//14 380//14
f 337//14 380//14 336//14
f 336//14 380//14 382//14
f 387//14 2//14 399//14
f 399//14 2//14 394//14
f 399//14 394//14 340//14
f 340//14 394//14 400//14
f 340//14 400//14 345//14
f 388//14 401//14 2//14
f 2//14 401//14 402//14
f 2//14 402//14 403//14
f 403//14 404//14 2//14
f 2//14 404//14 405//14
f 2//14 405//14 360//14
f 360//14 405//14 406//14
f 360//14 406//14 407//14
f 390//14 408//14 337//14
f 337//14 408//14 409//14
f 337//14 409//14 410//14
f 341//14 343//14 384//14
f 384//14 343//14 411//14
f 384//14 411//14 386//14
f 412//14 413//14 360//14
f 360//14 413//14 414//14
f 360//14 414//14 358//14
f 410//14 415//14 337//14
f 337//14 415//14 416//14
f 337//14 416//14 417//14
f 407//14 418//14 360//14
f 360//14 418//14 419//14
f 360//14 419//14 412//14
f 389//14 337//14 396//14
f 396//14 337//14 420//14
f 396//14 420//14 421//14
f 363//14 337//14 422//14
f 422//14 337//14 417//14
f 422//14 417//14 348//14
f 348//14 417//14 423//14
f 348//14 423//14 349//14
f 421//14 424//14 396//14
f 396//14 424//14 425//14
f 396//14 425//14 426//14
f 426//14 427//14 396//14
f 396//14 427//14 428//14
f 396//14 428//14 397//14
f 28//15 20//15 18//15
f 28//16 18//16 429//16
f 429//17 18//17 16//17
f 429//17 16//17 430//17
f 430//18 16//18 14//18
f 430//18 14//18 431//18
f 431//19 14//19 12//19
f 431//20 12//20 432//20
f 432//21 12//21 10//21
f 432//21 10//21 433//21
f 433//22 10//22 8//22
f 433//23 8//23 434//23
f 434//24 8//24 6//24
f 434//25 6//25 435//25
f 435//26 6//26 4//26
f 435//26 4//26 436//26
f 436//27 4//27 2//27
f 436//27 2//27 360//27
f 160//28 182//28 25//28
f 25//28 182//28 63//28
f 1//1 254//1 2//1
f 2//1 254//1 343//1
f 395//29 313//29 396//29
f 396//29 313//29 315//29
f 396//30 315//30 389//30
f 389//30 315//30 331//30
f 389//31 331//31 390//31
f 390//31 331//31 330//31
f 390//32 330//32 408//32
f 408//32 330//32 300//32
f 408//33 300//33 409//33
f 409//33 300//33 299//33
f 409//34 299//34 410//34
f 410//34 299//34 298//34
f 410//35 298//35 415//35
f 415//35 298//35 271//35
f 415//36 271//36 416//36
f 416//36 271//36 270//36
f 416//37 270//37 417//37
f 417//37 270//37 297//37
f 417//38 297//38 423//38
f 423//38 297//38 296//38
f 423//39 296//39 349//39
f 349//39 296//39 312//39
f 349//40 312//40 350//40
f 350//40 312//40 311//40
f 350//41 311//41 351//41
f 351//41 311//41 295//41
f 351//42 295//42 352//42
f 352//42 295//42 294//42
f 352//43 294//43 353//43
f 353//43 294//43 293//43
f 353//44 293//44 357//44
f 357//44 293//44 292//44
f 357//45 292//45 356//45
f 356//45 292//45 291//45
f 356//46 291//46 340//46
f 340//46 291//46 290//46
f 340//47 290//47 399//47
f 399//47 290//47 287//47
f 399//48 287//48 387//48
f 387//48 287//48 288//48
f 387//49 288//49 388//49
f 388//49 288//49 289//49
f 388//50 289//50 401//50
f 401//50 289//50 322//50
f 401//51 322//51 402//51
f 402//51 322//51 321//51
f 402//52 321//52 403//52
f 403//52 321//52 310//52
f 403//53 310//53 404//53
f 404//53 310//53 309//53
f 404//54 309//54 405//54
f 405//54 309//54 308//54
f 405//55 308//55 406//55
f 406//55 308//55 264//55
f 406//56 264//56 407//56
f 407//56 264//56 273//56
f 407//57 273//57 418//57
f 418//57 273//57 272//57
f 418//58 272//58 419//58
f 419//58 272//58 262//58
f 419//59 262//59 412//59
f 412//59 262//59 261//59
f 412//60 261//60 413//60
f 413//60 261//60 260//60
f 413//61 260//61 414//61
f 414//61 260//61 249//61
f 414//62 249//62 358//62
f 358//62 249//62 250//62
f 358//63 250//63 359//63
f 359//63 250//63 251//63
f 359//64 251//64 395//64
f 395//64 251//64 313//64
f 348//65 265//65 422//65
f 422//65 265//65 307//65
f 422//66 307//66 363//66
f 363//66 307//66 257//66
f 363//67 257//67 362//67
f 362//67 257//67 256//67
f 362//32 256//32 361//32
f 361//32 256//32 255//32
f 361//68 255//68 398//68
f 398//68 255//68 247//68
f 398//69 247//69 380//69
f 380//69 247//69 246//69
f 380//70 246//70 391//70
f 391//70 246//70 320//70
f 391//71 320//71 368//71
f 368//71 320//71 319//71
f 368//72 319//72 369//72
f 369//72 319//72 318//72
f 369//73 318//73 371//73
f 371//73 318//73 280//73
f 371//74 280//74 372//74
f 372//74 280//74 279//74
f 372//75 279//75 373//75
f 373//75 279//75 277//75
f 373//76 277//76 383//76
f 383//76 277//76 276//76
f 383//77 276//77 384//77
f 384//77 276//77 286//77
f 384//78 286//78 341//78
f 341//78 286//78 324//78
f 341//79 324//79 342//79
f 342//79 324//79 323//79
f 342//80 323//80 344//80
f 344//80 323//80 253//80
f 344//81 253//81 364//81
f 364//81 253//81 252//81
f 364//82 252//82 365//82
f 365//82 252//82 269//82
f 365//83 269//83 366//83
f 366//83 269//83 268//83
f 366//84 268//84 367//84
f 367//84 268//84 267//84
f 367//85 267//85 374//85
f 374//85 267//85 266//85
f 374//86 266//86 375//86
f 375//86 266//86 275//86
f 375//87 275//87 376//87
f 376//87 275//87 274//87
f 376//88 274//88 392//88
f 392//88 274//88 259//88
f 392//89 259//89 393//89
f 393//89 259//89 258//89
f 393//90 258//90 394//90
f 394//90 258//90 283//90
f 394//91 283//91 400//91
f 400//91 283//91 282//91
f 400//92 282//92 345//92
f 345//92 282//92 281//92
f 345//93 281//93 346//93
f 346//93 281//93 303//93
f 346//94 303//94 347//94
f 347//94 303//94 302//94
f 347//95 302//95 338//95
f 338//95 302//95 301//95
f 338//61 301//61 339//61
f 339//61 301//61 245//61
f 339//96 245//96 354//96
f 354//96 245//96 244//96
f 354//97 244//97 355//97
f 355//97 244//97 263//97
f 355//98 263//98 348//98
f 348//98 263//98 265//98
f 154//99 33//99 196//99
f 196//99 33//99 32//99
f 196//100 32//100 197//100
f 197//100 32//100 68//100
f 197//101 68//101 198//101
f 198//101 68//101 67//101
f 198//102 67//102 199//102
f 199//102 67//102 120//102
f 199//103 120//103 223//103
f 223//103 120//103 119//103
f 223//104 119//104 224//104
f 224//104 119//104 113//104
f 224//105 113//105 185//105
f 185//105 113//105 112//105
f 185//106 112//106 186//106
f 186//106 112//106 111//106
f 186//107 111//107 214//107
f 214//107 111//107 108//107
f 214//108 108//108 206//108
f 206//108 108//108 107//108
f 206//109 107//109 207//109
f 207//109 107//109 91//109
f 207//110 91//110 215//110
f 215//110 91//110 90//110
f 215//111 90//111 208//111
f 208//111 90//111 89//111
f 208//112 89//112 188//112
f 188//112 89//112 104//112
f 188//113 104//113 189//113
f 189//113 104//113 103//113
f 189//114 103//114 190//114
f 190//114 103//114 24//114
f 190//115 24//115 158//115
f 158//115 24//115 23//115
f 158//116 23//116 159//116
f 159//116 23//116 65//116
f 159//117 65//117 183//117
f 183//117 65//117 64//117
f 183//118 64//118 184//118
f 184//118 64//118 62//118
f 184//119 62//119 225//119
f 225//119 62//119 61//119
f 225//120 61//120 226//120
f 226//120 61//120 116//120
f 226//121 116//121 222//121
f 222//121 116//121 115//121
f 222//122 115//122 200//122
f 200//122 115//122 127//122
f 200//123 127//123 201//123
f 201//123 127//123 102//123
f 201//124 102//124 202//124
f 202//124 102//124 101//124
f 202//125 101//125 179//125
f 179//125 101//125 100//125
f 179//126 100//126 191//126
f 191//126 100//126 99//126
f 191//127 99//127 192//127
f 192//127 99//127 72//127
f 192//128 72//128 203//128
f 203//128 72//128 71//128
f 203//129 71//129 204//129
f 204//129 71//129 48//129
f 204//130 48//130 172//130
f 172//130 48//130 47//130
f 172//131 47//131 173//131
f 173//131 47//131 37//131
f 173//132 37//132 175//132
f 175//132 37//132 36//132
f 175//133 36//133 193//133
f 193//133 36//133 35//133
f 193//134 35//134 154//134
f 154//134 35//134 33//134
f 171//28 28//28 243//28
f 243//28 28//28 429//28
f 243//28 429//28 242//28
f 242//28 429//28 430//28
f 242//28 430//28 241//28
f 241//28 430//28 431//28
f 241//28 431//28 240//28
f 240//28 431//28 432//28
f 240//28 432//28 239//28
f 239//28 432//28 433//28
f 239//28 433//28 238//28
f 238//28 433//28 434//28
f 238//28 434//28 237//28
f 237//28 434//28 435//28
f 237//28 435//28 236//28
f 236//28 435//28 436//28
f 236//28 436//28 235//28
f 235//28 436//28 360//28
f 235//28 360//28 314//28
f 314//28 360//28 377//28
f 171//14 155//14 28//14
f 28//14 155//14 34//14
f 187//14 205//14 66//14
f 66//14 205//14 92//14
f 34//1 155//1 66//1
f 66//1 155//1 187//1
f 314//135 377//135 397//135
f 314//136 397//136 316//136
f 316//137 397//137 428//137
f 316//138 428//138 317//138
f 317//139 428//139 427//139
f 317//139 427//139 327//139
f 327//140 427//140 426//140
f 327//140 426//140 328//140
f 328//141 426//141 425//141
f 328//142 425//142 329//142
f 329//143 425//143 424//143
f 329//143 424//143 334//143
f 334//144 424//144 421//144
f 334//145 421//145 335//145
f 335//146 421//146 420//146
f 335//147 420//147 332//147
f 332//148 420//148 337//148
f 332//149 337//149 248//149
f 278//150 336//150 382//150
f 278//150 382//150 333//150
f 333//151 382//151 381//151
f 333//152 381//152 304//152
f 304//153 381//153 379//153
f 304//154 379//154 305//154
f 305//155 379//155 378//155
f 305//155 378//155 306//155
f 306//156 378//156 370//156
f 306//157 370//157 284//157
f 284//158 370//158 385//158
f 284//158 385//158 285//158
f 285//159 385//159 386//159
f 285//159 386//159 326//159
f 326//160 386//160 411//160
f 326//160 411//160 325//160
f 325//161 411//161 343//161
f 325//161 343//161 254//161
f 22//162 21//162 81//162
f 22//163 81//163 148//163
f 148//164 81//164 78//164
f 148//164 78//164 138//164
f 138//114 78//114 77//114
f 138//165 77//165 139//165
f 139//166 77//166 76//166
f 139//166 76//166 156//166
f 156//167 76//167 57//167
f 156//167 57//167 157//167
f 157//168 57//168 56//168
f 157//169 56//169 149//169
f 149//170 56//170 55//170
f 149//171 55//171 150//171
f 150//172 55//172 52//172
f 150//172 52//172 151//172
f 151//173 52//173 44//173
f 151//174 44//174 130//174
f 129//175 31//175 128//175
f 129//176 128//176 231//176
f 231//177 128//177 126//177
f 231//178 126//178 232//178
f 232//179 126//179 125//179
f 232//180 125//180 233//180
f 233//181 125//181 124//181
f 233//181 124//181 234//181
f 234//182 124//182 123//182
f 234//183 123//183 220//183
f 220//184 123//184 122//184
f 220//185 122//185 221//185
f 221//186 122//186 121//186
f 221//187 121//187 228//187
f 228//188 121//188 114//188
f 228//189 114//189 227//189
f 227//190 114//190 63//190
f 227//191 63//191 182//191
f 160//192 25//192 105//192
f 160//192 105//192 209//192
f 209//193 105//193 106//193
f 209//194 106//194 210//194
f 210//195 106//195 88//195
f 210//196 88//196 217//196
f 217//197 88//197 87//197
f 217//198 87//198 218//198
f 218//199 87//199 118//199
f 218//199 118//199 219//199
f 219//200 118//200 117//200
f 219//200 117//200 229//200
f 229//201 117//201 110//201
f 229//201 110//201 230//201
f 230//202 110//202 109//202
f 230//202 109//202 216//202
f 216//203 109//203 92//203
f 216//203 92//203 205//203
f 194//204 95//204 195//204
f 195//204 95//204 94//204
f 195//205 94//205 176//205
f 176//205 94//205 93//205
f 176//206 93//206 174//206
f 174//206 93//206 27//206
f 174//168 27//168 177//168
f 177//168 27//168 26//168
f 177//207 26//207 178//207
f 178//207 26//207 51//207
f 178//208 51//208 180//208
f 180//208 51//208 50//208
f 180//209 50//209 181//209
f 181//209 50//209 49//209
f 181//210 49//210 211//210
f 211//210 49//210 69//210
f 211//211 69//211 212//211
f 212//211 69//211 70//211
f 212//212 70//212 213//212
f 213//212 70//212 86//212
f 213//213 86//213 163//213
f 163//213 86//213 85//213
f 163//214 85//214 162//214
f 162//214 85//214 60//214
f 162//215 60//215 161//215
f 161//215 60//215 59//215
f 161//216 59//216 164//216
f 164//216 59//216 58//216
f 164//217 58//217 165//217
f 165//217 58//217 30//217
f 165//218 30//218 166//218
f 166//218 30//218 29//218
f 166//219 29//219 167//219
f 167//219 29//219 98//219
f 167//220 98//220 168//220
f 168//220 98//220 97//220
f 168//14 97//14 169//14
f 169//14 97//14 96//14
f 169//221 96//221 144//221
f 144//221 96//221 84//221
f 144//222 84//222 145//222
f 145//222 84//222 83//222
f 145//223 83//223 146//223
f 146//223 83//223 82//223
f 146//224 82//224 147//224
f 147//224 82//224 46//224
f 147//225 46//225 131//225
f 131//225 46//225 45//225
f 131//226 45//226 132//226
f 132//226 45//226 43//226
f 132//227 43//227 133//227
f 133//227 43//227 42//227
f 133//228 42//228 152//228
f 152//228 42//228 54//228
f 152//229 54//229 140//229
f 140//229 54//229 53//229
f 140//230 53//230 134//230
f 134//230 53//230 80//230
f 134//231 80//231 135//231
f 135//231 80//231 79//231
f 135//232 79//232 136//232
f 136//232 79//232 41//232
f 136//233 41//233 137//233
f 137//233 41//233 40//233
f 137//234 40//234 141//234
f 141//234 40//234 39//234
f 141//235 39//235 142//235
f 142//235 39//235 38//235
f 142//236 38//236 143//236
f 143//236 38//236 75//236
f 143//237 75//237 170//237
f 170//237 75//237 74//237
f 170//238 74//238 153//238
f 153//238 74//238 73//238
f 153//3 73//3 194//3
f 194//3 73//3 95//3
f 437//1 438//1 439//1
f 439//1 438//1 440//1
f 439//1 440//1 441//1
f 441//1 440//1 442//1
f 441//1 442//1 443//1
f 443//1 442//1 444//1
f 443//1 444//1 445//1
f 445//1 444//1 446//1
f 445//1 446//1 447//1
f 447//1 446//1 448//1
f 447//1 448//1 449//1
f 449//1 448//1 450//1
f 449//1 450//1 451//1
f 451//1 450//1 452//1
f 451//1 452//1 453//1
f 453//1 452//1 454//1
f 453//1 454//1 455//1
f 455//1 454//1 456//1
f 457//1 438//1 458//1
f 458//1 438//1 437//1
f 459//4 460//4 461//4
f 462//4 463//4 464//4
f 465//4 466//4 467//4
f 468//4 469//4 438//4
f 438//4 469//4 470//4
f 438//4 470//4 471//4
f 461//4 460//4 472//4
f 463//4 462//4 473//4
f 465//4 467//4 474//4
f 471//4 475//4 438//4
f 438//4 475//4 476//4
f 438//4 476//4 477//4
f 468//4 438//4 467//4
f 467//4 438//4 457//4
f 467//4 457//4 474//4
f 467//4 478//4 479//4
f 480//4 481//4 482//4
f 483//4 484//4 485//4
f 485//4 484//4 486//4
f 483//4 487//4 484//4
f 484//4 487//4 488//4
f 484//4 488//4 489//4
f 466//4 490//4 467//4
f 467//4 490//4 491//4
f 467//4 491//4 478//4
f 461//4 492//4 493//4
f 481//4 480//4 494//4
f 494//4 480//4 495//4
f 494//4 495//4 460//4
f 460//4 495//4 496//4
f 460//4 496//4 472//4
f 497//4 498//4 499//4
f 489//4 500//4 484//4
f 484//4 500//4 501//4
f 484//4 501//4 502//4
f 479//4 503//4 467//4
f 467//4 503//4 462//4
f 467//4 462//4 504//4
f 504//4 462//4 464//4
f 477//4 505//4 438//4
f 438//4 505//4 480//4
f 438//4 480//4 506//4
f 506//4 480//4 482//4
f 493//4 507//4 461//4
f 461//4 507//4 508//4
f 461//4 508//4 459//4
f 481//4 509//4 482//4
f 482//4 509//4 510//4
f 482//4 510//4 511//4
f 511//4 510//4 512//4
f 513//4 514//4 462//4
f 514//4 515//4 462//4
f 462//4 515//4 516//4
f 462//4 516//4 473//4
f 512//4 517//4 511//4
f 511//4 517//4 518//4
f 511//4 518//4 519//4
f 520//4 521//4 522//4
f 502//4 523//4 484//4
f 484//4 523//4 524//4
f 484//4 524//4 525//4
f 525//4 526//4 484//4
f 484//4 526//4 527//4
f 484//4 527//4 462//4
f 462//4 527//4 528//4
f 462//4 528//4 513//4
f 521//4 529//4 522//4
f 522//4 529//4 530//4
f 522//4 530//4 499//4
f 499//4 530//4 531//4
f 499//4 531//4 497//4
f 532//4 533//4 484//4
f 533//4 534//4 484//4
f 484//4 534//4 535//4
f 484//4 535//4 536//4
f 486//4 484//4 537//4
f 537//4 484//4 536//4
f 537//4 536//4 461//4
f 461//4 536//4 538//4
f 461//4 538//4 492//4
f 519//4 539//4 511//4
f 511//4 539//4 540//4
f 511//4 540//4 541//4
f 541//4 540//4 542//4
f 541//4 542//4 543//4
f 543//4 544//4 541//4
f 541//4 544//4 545//4
f 541//4 545//4 546//4
f 547//4 548//4 546//4
f 520//4 522//4 546//4
f 546//4 522//4 549//4
f 546//4 549//4 547//4
f 548//4 550//4 546//4
f 546//4 550//4 551//4
f 546//4 551//4 552//4
f 552//4 553//4 546//4
f 546//4 553//4 554//4
f 546//4 554//4 541//4
f 484//4 555//4 532//4
f 532//4 555//4 556//4
f 532//4 556//4 557//4
f 557//4 558//4 532//4
f 532//4 558//4 559//4
f 532//4 559//4 560//4
f 498//4 561//4 499//4
f 499//4 561//4 562//4
f 499//4 562//4 563//4
f 563//4 562//4 532//4
f 563//4 532//4 564//4
f 564//4 532//4 560//4
f 565//3 566//3 462//3
f 462//3 566//3 484//3
f 567//2 568//2 569//2
f 570//2 571//2 572//2
f 573//2 574//2 437//2
f 437//2 574//2 575//2
f 437//2 575//2 576//2
f 577//2 578//2 566//2
f 579//2 580//2 581//2
f 582//2 583//2 572//2
f 572//2 583//2 584//2
f 572//2 584//2 570//2
f 585//2 586//2 587//2
f 571//2 588//2 572//2
f 572//2 588//2 589//2
f 572//2 589//2 590//2
f 591//2 592//2 569//2
f 569//2 592//2 593//2
f 569//2 593//2 567//2
f 594//2 595//2 565//2
f 565//2 595//2 596//2
f 565//2 596//2 597//2
f 580//2 598//2 581//2
f 581//2 598//2 599//2
f 581//2 599//2 600//2
f 600//2 599//2 601//2
f 600//2 601//2 602//2
f 603//2 604//2 582//2
f 590//2 605//2 572//2
f 572//2 605//2 606//2
f 572//2 606//2 569//2
f 607//2 608//2 437//2
f 437//2 608//2 609//2
f 437//2 609//2 573//2
f 610//2 611//2 612//2
f 612//2 611//2 613//2
f 612//2 613//2 614//2
f 576//2 615//2 437//2
f 437//2 615//2 616//2
f 437//2 616//2 458//2
f 458//2 616//2 612//2
f 458//2 612//2 617//2
f 617//2 612//2 618//2
f 578//2 619//2 566//2
f 566//2 619//2 620//2
f 566//2 620//2 621//2
f 621//2 622//2 566//2
f 566//2 622//2 623//2
f 566//2 623//2 624//2
f 586//2 625//2 587//2
f 587//2 625//2 626//2
f 587//2 626//2 582//2
f 582//2 626//2 627//2
f 582//2 627//2 603//2
f 604//2 628//2 582//2
f 582//2 628//2 629//2
f 582//2 629//2 583//2
f 568//2 630//2 569//2
f 569//2 630//2 631//2
f 569//2 631//2 437//2
f 437//2 631//2 632//2
f 437//2 632//2 607//2
f 614//2 633//2 612//2
f 612//2 633//2 634//2
f 612//2 634//2 618//2
f 635//2 636//2 624//2
f 624//2 636//2 637//2
f 624//2 637//2 566//2
f 566//2 637//2 638//2
f 566//2 638//2 639//2
f 602//2 640//2 600//2
f 600//2 640//2 641//2
f 600//2 641//2 642//2
f 642//2 641//2 643//2
f 642//2 643//2 644//2
f 591//2 569//2 645//2
f 645//2 569//2 606//2
f 645//2 606//2 624//2
f 624//2 606//2 646//2
f 624//2 646//2 635//2
f 610//2 612//2 565//2
f 565//2 612//2 647//2
f 565//2 647//2 594//2
f 597//2 648//2 565//2
f 565//2 648//2 649//2
f 565//2 649//2 650//2
f 651//2 652//2 643//2
f 650//2 653//2 565//2
f 565//2 653//2 654//2
f 565//2 654//2 566//2
f 566//2 654//2 655//2
f 566//2 655//2 577//2
f 651//2 643//2 656//2
f 652//2 657//2 643//2
f 643//2 657//2 658//2
f 643//2 658//2 644//2
f 659//2 660//2 581//2
f 581//2 660//2 661//2
f 581//2 661//2 579//2
f 585//2 587//2 643//2
f 643//2 587//2 662//2
f 643//2 662//2 656//2
f 659//2 663//2 660//2
f 660//2 663//2 664//2
f 660//2 664//2 665//2
f 665//2 666//2 660//2
f 660//2 666//2 667//2
f 660//2 667//2 668//2
f 639//2 669//2 566//2
f 566//2 669//2 660//2
f 566//2 660//2 670//2
f 670//2 660//2 668//2
f 569//239 437//239 671//239
f 671//239 437//239 439//239
f 671//240 439//240 672//240
f 672//240 439//240 441//240
f 672//241 441//241 673//241
f 673//241 441//241 443//241
f 673//242 443//242 674//242
f 674//242 443//242 445//242
f 674//243 445//243 675//243
f 675//243 445//243 447//243
f 675//244 447//244 676//244
f 676//244 447//244 449//244
f 676//245 449//245 677//245
f 677//245 449//245 451//245
f 677//246 451//246 678//246
f 678//246 451//246 453//246
f 678//247 453//247 679//247
f 679//247 453//247 455//247
f 680//3 681//3 682//3
f 683//3 684//3 685//3
f 686//3 687//3 682//3
f 682//3 687//3 688//3
f 689//3 690//3 679//3
f 679//3 690//3 691//3
f 679//3 691//3 692//3
f 693//3 694//3 695//3
f 695//3 694//3 696//3
f 697//3 698//3 692//3
f 681//3 699//3 682//3
f 682//3 699//3 700//3
f 682//3 700//3 701//3
f 686//3 682//3 702//3
f 702//3 682//3 703//3
f 702//3 703//3 704//3
f 705//3 706//3 455//3
f 680//3 682//3 685//3
f 685//3 682//3 707//3
f 685//3 707//3 708//3
f 701//3 709//3 682//3
f 682//3 709//3 710//3
f 682//3 710//3 703//3
f 711//3 712//3 713//3
f 713//3 712//3 714//3
f 713//3 714//3 715//3
f 696//3 716//3 695//3
f 695//3 716//3 717//3
f 695//3 717//3 455//3
f 455//3 717//3 718//3
f 455//3 718//3 705//3
f 719//3 720//3 455//3
f 455//3 720//3 721//3
f 722//3 723//3 679//3
f 723//3 724//3 679//3
f 679//3 724//3 725//3
f 679//3 725//3 726//3
f 727//3 728//3 679//3
f 679//3 728//3 729//3
f 679//3 729//3 684//3
f 684//3 729//3 730//3
f 684//3 730//3 685//3
f 708//3 731//3 685//3
f 685//3 731//3 732//3
f 685//3 732//3 733//3
f 734//3 735//3 736//3
f 706//3 737//3 455//3
f 455//3 737//3 738//3
f 455//3 738//3 719//3
f 739//3 740//3 692//3
f 692//3 740//3 741//3
f 692//3 741//3 697//3
f 698//3 742//3 692//3
f 692//3 742//3 743//3
f 692//3 743//3 744//3
f 726//3 745//3 679//3
f 679//3 745//3 746//3
f 679//3 746//3 727//3
f 733//3 747//3 685//3
f 685//3 747//3 748//3
f 685//3 748//3 683//3
f 688//3 749//3 682//3
f 682//3 749//3 750//3
f 682//3 750//3 713//3
f 713//3 750//3 751//3
f 713//3 751//3 711//3
f 715//3 752//3 713//3
f 713//3 752//3 753//3
f 713//3 753//3 754//3
f 754//3 753//3 734//3
f 754//3 734//3 755//3
f 755//3 734//3 756//3
f 693//3 695//3 734//3
f 734//3 695//3 757//3
f 734//3 757//3 735//3
f 736//3 758//3 734//3
f 734//3 758//3 759//3
f 734//3 759//3 756//3
f 704//3 703//3 760//3
f 760//3 703//3 761//3
f 760//3 761//3 692//3
f 692//3 761//3 762//3
f 692//3 762//3 763//3
f 744//3 764//3 692//3
f 692//3 764//3 765//3
f 692//3 765//3 679//3
f 679//3 765//3 766//3
f 679//3 766//3 722//3
f 721//3 767//3 455//3
f 455//3 767//3 768//3
f 455//3 768//3 679//3
f 679//3 768//3 769//3
f 679//3 769//3 689//3
f 763//3 770//3 692//3
f 692//3 770//3 771//3
f 692//3 771//3 739//3
f 682//2 713//2 772//2
f 772//2 713//2 773//2
f 774//14 775//14 776//14
f 777//14 778//14 779//14
f 780//14 781//14 456//14
f 782//14 783//14 776//14
f 776//14 783//14 784//14
f 776//14 784//14 774//14
f 456//14 781//14 777//14
f 777//14 781//14 785//14
f 777//14 785//14 778//14
f 786//14 787//14 788//14
f 788//14 789//14 786//14
f 786//14 789//14 790//14
f 786//14 790//14 791//14
f 775//14 792//14 776//14
f 776//14 792//14 793//14
f 776//14 793//14 794//14
f 794//14 793//14 786//14
f 794//14 786//14 795//14
f 795//14 786//14 791//14
f 796//14 797//14 798//14
f 799//14 800//14 456//14
f 456//14 800//14 801//14
f 802//14 803//14 804//14
f 773//14 805//14 806//14
f 807//14 808//14 456//14
f 456//14 808//14 809//14
f 456//14 809//14 799//14
f 801//14 810//14 456//14
f 456//14 810//14 811//14
f 456//14 811//14 780//14
f 812//14 813//14 773//14
f 798//14 814//14 796//14
f 796//14 814//14 815//14
f 796//14 815//14 456//14
f 456//14 815//14 816//14
f 456//14 816//14 807//14
f 803//14 817//14 804//14
f 804//14 817//14 818//14
f 804//14 818//14 819//14
f 779//14 820//14 777//14
f 777//14 820//14 821//14
f 777//14 821//14 822//14
f 822//14 821//14 804//14
f 822//14 804//14 823//14
f 823//14 804//14 819//14
f 805//14 773//14 804//14
f 804//14 773//14 824//14
f 804//14 824//14 802//14
f 806//14 825//14 773//14
f 773//14 825//14 826//14
f 773//14 826//14 827//14
f 828//14 796//14 829//14
f 829//14 796//14 830//14
f 812//14 773//14 831//14
f 831//14 773//14 827//14
f 831//14 827//14 776//14
f 776//14 827//14 832//14
f 776//14 832//14 782//14
f 813//14 833//14 773//14
f 773//14 833//14 834//14
f 773//14 834//14 835//14
f 835//14 836//14 773//14
f 773//14 836//14 837//14
f 773//14 837//14 772//14
f 772//14 837//14 838//14
f 772//14 838//14 839//14
f 830//14 796//14 840//14
f 840//14 796//14 841//14
f 840//14 841//14 842//14
f 842//14 841//14 843//14
f 842//14 843//14 844//14
f 828//14 845//14 796//14
f 796//14 845//14 846//14
f 796//14 846//14 847//14
f 772//14 848//14 849//14
f 847//14 850//14 796//14
f 796//14 850//14 851//14
f 796//14 851//14 852//14
f 839//14 853//14 772//14
f 772//14 853//14 854//14
f 772//14 854//14 848//14
f 844//14 855//14 842//14
f 842//14 855//14 856//14
f 842//14 856//14 857//14
f 849//14 858//14 772//14
f 772//14 858//14 859//14
f 772//14 859//14 860//14
f 860//14 859//14 842//14
f 797//14 796//14 861//14
f 861//14 796//14 852//14
f 861//14 852//14 786//14
f 786//14 852//14 862//14
f 786//14 862//14 787//14
f 857//14 863//14 842//14
f 842//14 863//14 864//14
f 842//14 864//14 860//14
f 796//248 456//248 454//248
f 796//248 454//248 865//248
f 865//249 454//249 452//249
f 865//249 452//249 866//249
f 866//250 452//250 450//250
f 866//251 450//251 867//251
f 867//252 450//252 448//252
f 867//253 448//253 868//253
f 868//254 448//254 446//254
f 868//254 446//254 869//254
f 869//255 446//255 444//255
f 869//256 444//256 870//256
f 870//257 444//257 442//257
f 870//257 442//257 871//257
f 871//258 442//258 440//258
f 871//258 440//258 872//258
f 872//259 440//259 438//259
f 872//260 438//260 506//260
f 581//28 600//28 499//28
f 499//28 600//28 522//28
f 695//1 455//1 777//1
f 777//1 455//1 456//1
f 840//261 730//261 830//261
f 830//261 730//261 729//261
f 830//30 729//30 829//30
f 829//30 729//30 728//30
f 829//262 728//262 828//262
f 828//262 728//262 727//262
f 828//32 727//32 845//32
f 845//32 727//32 746//32
f 845//33 746//33 846//33
f 846//33 746//33 745//33
f 846//34 745//34 847//34
f 847//34 745//34 726//34
f 847//35 726//35 850//35
f 850//35 726//35 725//35
f 850//36 725//36 851//36
f 851//36 725//36 724//36
f 851//37 724//37 852//37
f 852//37 724//37 723//37
f 852//38 723//38 862//38
f 862//38 723//38 722//38
f 862//39 722//39 787//39
f 787//39 722//39 766//39
f 787//40 766//40 788//40
f 788//40 766//40 765//40
f 788//41 765//41 789//41
f 789//41 765//41 764//41
f 789//42 764//42 790//42
f 790//42 764//42 744//42
f 790//43 744//43 791//43
f 791//43 744//43 743//43
f 791//263 743//263 795//263
f 795//263 743//263 742//263
f 795//45 742//45 794//45
f 794//45 742//45 698//45
f 794//264 698//264 776//264
f 776//264 698//264 697//264
f 776//265 697//265 831//265
f 831//265 697//265 741//265
f 831//48 741//48 812//48
f 812//48 741//48 740//48
f 812//266 740//266 813//266
f 813//266 740//266 739//266
f 813//50 739//50 833//50
f 833//50 739//50 771//50
f 833//51 771//51 834//51
f 834//51 771//51 770//51
f 834//52 770//52 835//52
f 835//52 770//52 763//52
f 835//53 763//53 836//53
f 836//53 763//53 762//53
f 836//54 762//54 837//54
f 837//54 762//54 761//54
f 837//55 761//55 838//55
f 838//55 761//55 703//55
f 838//56 703//56 839//56
f 839//56 703//56 710//56
f 839//57 710//57 853//57
f 853//57 710//57 709//57
f 853//58 709//58 854//58
f 854//58 709//58 701//58
f 854//59 701//59 848//59
f 848//59 701//59 700//59
f 848//60 700//60 849//60
f 849//60 700//60 699//60
f 849//61 699//61 858//61
f 858//61 699//61 681//61
f 858//267 681//267 859//267
f 859//267 681//267 680//267
f 859//63 680//63 842//63
f 842//63 680//63 685//63
f 842//268 685//268 840//268
f 840//268 685//268 730//268
f 786//269 704//269 861//269
f 861//269 704//269 760//269
f 861//66 760//66 797//66
f 797//66 760//66 692//66
f 797//270 692//270 798//270
f 798//270 692//270 691//270
f 798//32 691//32 814//32
f 814//32 691//32 690//32
f 814//68 690//68 815//68
f 815//68 690//68 689//68
f 815//69 689//69 816//69
f 816//69 689//69 769//69
f 816//70 769//70 807//70
f 807//70 769//70 768//70
f 807//71 768//71 808//71
f 808//71 768//71 767//71
f 808//72 767//72 809//72
f 809//72 767//72 721//72
f 809//73 721//73 799//73
f 799//73 721//73 720//73
f 799//74 720//74 800//74
f 800//74 720//74 719//74
f 800//75 719//75 801//75
f 801//75 719//75 738//75
f 801//76 738//76 810//76
f 810//76 738//76 737//76
f 810//77 737//77 811//77
f 811//77 737//77 706//77
f 811//78 706//78 780//78
f 780//78 706//78 705//78
f 780//271 705//271 781//271
f 781//271 705//271 718//271
f 781//80 718//80 785//80
f 785//80 718//80 717//80
f 785//272 717//272 778//272
f 778//272 717//272 716//272
f 778//273 716//273 779//273
f 779//273 716//273 696//273
f 779//83 696//83 820//83
f 820//83 696//83 694//83
f 820//274 694//274 821//274
f 821//274 694//274 693//274
f 821//85 693//85 804//85
f 804//85 693//85 734//85
f 804//86 734//86 805//86
f 805//86 734//86 753//86
f 805//87 753//87 806//87
f 806//87 753//87 752//87
f 806//88 752//88 825//88
f 825//88 752//88 715//88
f 825//89 715//89 826//89
f 826//89 715//89 714//89
f 826//90 714//90 827//90
f 827//90 714//90 712//90
f 827//91 712//91 832//91
f 832//91 712//91 711//91
f 832//92 711//92 782//92
f 782//92 711//92 751//92
f 782//93 751//93 783//93
f 783//93 751//93 750//93
f 783//94 750//94 784//94
f 784//94 750//94 749//94
f 784//95 749//95 774//95
f 774//95 749//95 688//95
f 774//61 688//61 775//61
f 775//61 688//61 687//61
f 775//275 687//275 792//275
f 792//275 687//275 686//275
f 792//97 686//97 793//97
f 793//97 686//97 702//97
f 793//276 702//276 786//276
f 786//276 702//276 704//276
f 571//134 481//134 588//134
f 588//134 481//134 494//134
f 588//133 494//133 589//133
f 589//133 494//133 460//133
f 589//132 460//132 590//132
f 590//132 460//132 459//132
f 590//131 459//131 605//131
f 605//131 459//131 508//131
f 605//130 508//130 606//130
f 606//130 508//130 507//130
f 606//129 507//129 646//129
f 646//129 507//129 493//129
f 646//128 493//128 635//128
f 635//128 493//128 492//128
f 635//127 492//127 636//127
f 636//127 492//127 538//127
f 636//126 538//126 637//126
f 637//126 538//126 536//126
f 637//125 536//125 638//125
f 638//125 536//125 535//125
f 638//124 535//124 639//124
f 639//124 535//124 534//124
f 639//123 534//123 669//123
f 669//123 534//123 533//123
f 669//122 533//122 660//122
f 660//122 533//122 532//122
f 660//121 532//121 661//121
f 661//121 532//121 562//121
f 661//120 562//120 579//120
f 579//120 562//120 561//120
f 579//119 561//119 580//119
f 580//119 561//119 498//119
f 580//118 498//118 598//118
f 598//118 498//118 497//118
f 598//117 497//117 599//117
f 599//117 497//117 531//117
f 599//116 531//116 601//116
f 601//116 531//116 530//116
f 601//115 530//115 602//115
f 602//115 530//115 529//115
f 602//114 529//114 640//114
f 640//114 529//114 521//114
f 640//113 521//113 641//113
f 641//113 521//113 520//113
f 641//112 520//112 643//112
f 643//112 520//112 546//112
f 643//111 546//111 585//111
f 585//111 546//111 545//111
f 585//110 545//110 586//110
f 586//110 545//110 544//110
f 586//109 544//109 625//109
f 625//109 544//109 543//109
f 625//108 543//108 626//108
f 626//108 543//108 542//108
f 626//107 542//107 627//107
f 627//107 542//107 540//107
f 627//106 540//106 603//106
f 603//106 540//106 539//106
f 603//105 539//105 604//105
f 604//105 539//105 519//105
f 604//104 519//104 628//104
f 628//104 519//104 518//104
f 628//103 518//103 629//103
f 629//103 518//103 517//103
f 629//102 517//102 583//102
f 583//102 517//102 512//102
f 583//101 512//101 584//101
f 584//101 512//101 510//101
f 584//100 510//100 570//100
f 570//100 510//100 509//100
f 570//99 509//99 571//99
f 571//99 509//99 481//99
f 684//28 841//28 679//28
f 679//28 841//28 796//28
f 679//28 796//28 678//28
f 678//28 796//28 865//28
f 678//28 865//28 677//28
f 677//28 865//28 866//28
f 677//28 866//28 676//28
f 676//28 866//28 867//28
f 676//28 867//28 675//28
f 675//28 867//28 868//28
f 675//28 868//28 674//28
f 674//28 868//28 869//28
f 674//28 869//28 673//28
f 673//28 869//28 870//28
f 673//28 870//28 672//28
f 672//28 870//28 871//28
f 672//28 871//28 671//28
f 671//28 871//28 872//28
f 671//28 872//28 569//28
f 569//28 872//28 506//28
f 572//14 569//14 482//14
f 482//14 569//14 506//14
f 587//14 582//14 541//14
f 541//14 582//14 511//14
f 572//1 482//1 582//1
f 582//1 482//1 511//1
f 682//277 772//277 860//277
f 682//278 860//278 707//278
f 707//279 860//279 864//279
f 707//280 864//280 708//280
f 708//281 864//281 863//281
f 708//282 863//282 731//282
f 731//283 863//283 857//283
f 731//283 857//283 732//283
f 732//284 857//284 856//284
f 732//285 856//285 733//285
f 733//286 856//286 855//286
f 733//286 855//286 747//286
f 747//287 855//287 844//287
f 747//287 844//287 748//287
f 748//288 844//288 843//288
f 748//289 843//289 683//289
f 683//290 843//290 841//290
f 683//291 841//291 684//291
f 695//292 777//292 822//292
f 695//292 822//292 757//292
f 757//293 822//293 823//293
f 757//293 823//293 735//293
f 735//294 823//294 819//294
f 735//294 819//294 736//294
f 736//295 819//295 818//295
f 736//295 818//295 758//295
f 758//296 818//296 817//296
f 758//297 817//297 759//297
f 759//298 817//298 803//298
f 759//298 803//298 756//298
f 756//299 803//299 802//299
f 756//300 802//300 755//300
f 755//301 802//301 824//301
f 755//302 824//302 754//302
f 754//303 824//303 773//303
f 754//303 773//303 713//303
f 565//173 462//173 503//173
f 565//174 503//174 610//174
f 610//172 503//172 479//172
f 610//172 479//172 611//172
f 611//170 479//170 478//170
f 611//171 478//171 613//171
f 613//168 478//168 491//168
f 613//169 491//169 614//169
f 614//167 491//167 490//167
f 614//167 490//167 633//167
f 633//166 490//166 466//166
f 633//166 466//166 634//166
f 634//114 466//114 465//114
f 634//165 465//165 618//165
f 618//164 465//164 474//164
f 618//164 474//164 617//164
f 617//162 474//162 457//162
f 617//163 457//163 458//163
f 581//190 499//190 563//190
f 581//191 563//191 659//191
f 659//188 563//188 564//188
f 659//189 564//189 663//189
f 663//186 564//186 560//186
f 663//187 560//187 664//187
f 664//184 560//184 559//184
f 664//185 559//185 665//185
f 665//182 559//182 558//182
f 665//183 558//183 666//183
f 666//181 558//181 557//181
f 666//181 557//181 667//181
f 667//179 557//179 556//179
f 667//180 556//180 668//180
f 668//177 556//177 555//177
f 668//178 555//178 670//178
f 670//175 555//175 484//175
f 670//176 484//176 566//176
f 587//203 541//203 554//203
f 587//203 554//203 662//203
f 662//202 554//202 553//202
f 662//202 553//202 656//202
f 656//201 553//201 552//201
f 656//201 552//201 651//201
f 651//200 552//200 551//200
f 651//200 551//200 652//200
f 652//199 551//199 550//199
f 652//199 550//199 657//199
f 657//197 550//197 548//197
f 657//198 548//198 658//198
f 658//195 548//195 547//195
f 658//196 547//196 644//196
f 644//193 547//193 549//193
f 644//194 549//194 642//194
f 642//192 549//192 522//192
f 642//192 522//192 600//192
f 654//220 527//220 655//220
f 655//220 527//220 526//220
f 655//219 526//219 577//219
f 577//219 526//219 525//219
f 577//218 525//218 578//218
f 578//218 525//218 524//218
f 578//217 524//217 619//217
f 619//217 524//217 523//217
f 619//216 523//216 620//216
f 620//216 523//216 502//216
f 620//215 502//215 621//215
f 621//215 502//215 501//215
f 621//214 501//214 622//214
f 622//214 501//214 500//214
f 622//213 500//213 623//213
f 623//213 500//213 489//213
f 623//212 489//212 624//212
f 624//212 489//212 488//212
f 624//211 488//211 645//211
f 645//211 488//211 487//211
f 645//210 487//210 591//210
f 591//210 487//210 483//210
f 591//209 483//209 592//209
f 592//209 483//209 485//209
f 592//208 485//208 593//208
f 593//208 485//208 486//208
f 593//207 486//207 567//207
f 567//207 486//207 537//207
f 567//168 537//168 568//168
f 568//168 537//168 461//168
f 568//206 461//206 630//206
f 630//206 461//206 472//206
f 630//205 472//205 631//205
f 631//205 472//205 496//205
f 631//204 496//204 632//204
f 632//204 496//204 495//204
f 527//14 654//14 528//14
f 528//14 654//14 653//14
f 607//238 480//238 608//238
f 608//238 480//238 505//238
f 608//237 505//237 609//237
f 609//237 505//237 477//237
f 609//236 477//236 573//236
f 573//236 477//236 476//236
f 573//235 476//235 574//235
f 574//235 476//235 475//235
f 574//234 475//234 575//234
f 575//234 475//234 471//234
f 575//233 471//233 576//233
f 576//233 471//233 470//233
f 576//232 470//232 615//232
f 615//232 470//232 469//232
f 615//231 469//231 616//231
f 616//231 469//231 468//231
f 616//230 468//230 612//230
f 612//230 468//230 467//230
f 612//229 467//229 647//229
f 647//229 467//229 504//229
f 647//228 504//228 594//228
f 594//228 504//228 464//228
f 594//227 464//227 595//227
f 595//227 464//227 463//227
f 595//226 463//226 596//226
f 596//226 463//226 473//226
f 596//225 473//225 597//225
f 597//225 473//225 516//225
f 597//224 516//224 648//224
f 648//224 516//224 515//224
f 648//223 515//223 649//223
f 649//223 515//223 514//223
f 649//222 514//222 650//222
f 650//222 514//222 513//222
f 650//221 513//221 653//221
f 653//221 513//221 528//221
f 480//3 607//3 495//3
f 495//3 607//3 632//3
# Vertices: 872, normals: 303, texture coordinates: 0, faces: 1768

