# File generated by ImageToStl.com - Free Image and 3D model conversion tools

o obj1
v 0.21016248 -0.21500003 0.14700001
v 0.21174999 -0.21500003 0.1485875
v 0.05065754 -0.21500002 0.14699998
v 0.04999998 -0.21500002 0.1485875
v 0.00112252 -0.215 0.09746496
v -2E-08 -0.215 0.09858749
v 0.22942765 -0.15500003 0.13090986
v 0.22830512 -0.15500003 0.12978733
v 0.21174999 -0.15500003 0.14858752
v 0.21109241 -0.15500003 0.14700001
v 0.04999999 -0.15500002 0.1485875
v 0.05065755 -0.15500002 0.14700001
v -1E-08 -0.155 0.09858751
v 0.00112252 -0.155 0.09746497
v 0.22830512 -0.19402254 0.1297873
v 0.22942765 -0.19402254 0.13090983
v 0.21109241 -0.21444827 0.14700001
v 0.23154543 -0.19150944 0.12879205
v 0.23266797 -0.19150944 0.12991458
v 0.21287252 -0.21500003 0.14971003
v 0.25529894 0.00999998 0.10728364
v 0.25529894 -0.01000002 0.10728364
v 0.25417641 0.00999998 0.10616111
v 0.25417641 -0.01000002 0.10616111
v 0.21287253 0.21499997 0.14971006
v 0.21175 0.15499997 0.14858752
v 0.21175 0.21499997 0.14858752
v 0.23266798 0.19150938 0.12991461
v 0.22942767 0.19402248 0.13090986
v 0.23154545 0.19150938 0.12879208
v 0.22942767 0.15499997 0.13090986
v 0.21016249 0.21499997 0.14700004
v 0.05 0.21499999 0.14858752
v 0.05065756 0.21499999 0.14700001
v 0 0.215 0.09858752
v 0.00112253 0.215 0.09746499
v 0.22830513 0.15499997 0.12978733
v 0.21109243 0.15499997 0.14700001
v 0.05065756 0.15499999 0.14700001
v 0.05 0.15499999 0.1485875
v 0.00112253 0.155 0.09746497
v -0 0.155 0.09858751
v 0.22830513 0.19402248 0.12978733
v 0.21109243 0.21444821 0.14700004
vn -0 -1 0
vn -0 -1 0
vn -0 -1 0
vn -0 -1 2E-05
vn 0 1 -1E-05
vn 0 1 1E-05
vn 0 1 0
vn 0 1 0
vn 0 1 2E-05
vn 0 1 0
vn 0.70711 0 -0.70711
vn 0.70711 0 -0.70711
vn -0.70711 -0 0.70711
vn -0.70711 0 0.70711
vn 0 0 1
vn -0 -0 1
vn 0.7071 0 -0.70711
vn 0.7071 0 -0.70711
vn -0.70711 0 -0.70711
vn -0.70711 0 -0.70711
vn 0 0 -1
vn -0 0 -1
vn 0 0 -1
vn 0.45452 -0.76604 -0.45452
vn 0.45452 -0.76605 -0.45451
vn 0.45452 -0.76604 -0.45453
vn 0.45452 -0.76605 -0.45452
vn 0.45451 -0.76604 -0.45454
vn 0.45452 -0.76602 -0.45455
vn 0.70711 0 -0.7071
vn 0.7071 0 -0.70711
vn 0.69636 -0.17365 -0.69636
vn 0.69636 -0.17365 -0.69637
vn -0.7071 -0 0.70711
vn -0.7071 0 0.70712
vn -0.70711 0 0.70711
vn -0.7071 0 0.70711
vn 0.70711 0 0.70711
vn 0.70711 -0 0.70711
vn 0.70711 0 0.70711
vn 0.70711 -0 0.70711
vn -0.70711 0 -0.70711
vn -0.70711 0 -0.70711
vn -0.70711 0 -0.70711
vn -0.70711 0 -0.70711
vn -0.70711 0 -0.70711
vn -0.70711 0 -0.70711
vn -0.70711 -0 -0.70711
vn -0.70711 0 -0.70711
vn 0 1 0
vn 0 1 -3E-05
vn 0 1 0
vn 0 1 2E-05
vn 0 -1 0
vn 0 -1 1E-05
vn -0 -1 0
vn -0 -1 0
vn -0 -1 0
vn -0 -1 -1E-05
vn 0.70711 0 -0.70711
vn 0.70711 -0 -0.70711
vn -0.70711 -0 0.70711
vn -0.70711 -0 0.70711
vn -0 -0 1
vn 0.7071 0 -0.70711
vn -0.70711 0 -0.70711
vn 0 0 -1
vn -0 0 -1
vn 0 0 -1
vn 0.45452 0.76605 -0.45452
vn 0.45453 0.76603 -0.45453
vn 0.45451 0.76606 -0.45451
vn 0.45453 0.76603 -0.45454
vn 0.45452 0.76604 -0.45452
vn 0.45451 0.76605 -0.45452
vn 0.69637 0.17365 -0.69636
vn 0.69636 0.17365 -0.69636
vn -0.70711 0 -0.7071
vn -0.70711 0 -0.7071
vn -0.70711 0 -0.7071
vn -0.70711 0 -0.7071
f 1//1 2//1 3//1
f 3//2 2//2 4//2
f 3//3 4//3 5//3
f 5//4 4//4 6//4
f 7//5 8//5 9//5
f 9//6 8//6 10//6
f 9//7 10//7 11//7
f 11//8 10//8 12//8
f 11//9 12//9 13//9
f 14//10 13//10 12//10
f 3//11 5//11 12//11
f 12//12 5//12 14//12
f 6//13 4//13 13//13
f 13//14 4//14 11//14
f 4//15 2//15 11//15
f 11//16 2//16 9//16
f 8//17 7//17 15//17
f 15//18 7//18 16//18
f 8//19 15//19 10//19
f 10//20 15//20 17//20
f 3//21 12//21 1//21
f 1//22 12//22 10//22
f 1//23 10//23 17//23
f 17//24 15//24 16//24
f 18//25 19//25 16//25
f 16//26 19//26 20//26
f 16//27 20//27 17//27
f 17//28 20//28 2//28
f 17//29 2//29 1//29
f 21//30 22//30 23//30
f 23//31 22//31 24//31
f 22//32 19//32 24//32
f 24//33 19//33 18//33
f 2//34 20//34 9//34
f 9//35 20//35 25//35
f 9//36 25//36 26//36
f 26//37 25//37 27//37
f 28//38 25//38 21//38
f 21//39 25//39 20//39
f 21//40 20//40 22//40
f 22//41 20//41 19//41
f 29//42 30//42 31//42
f 31//43 30//43 23//43
f 18//44 16//44 24//44
f 24//45 16//45 7//45
f 24//46 7//46 23//46
f 23//47 7//47 9//47
f 23//48 9//48 31//48
f 31//49 9//49 26//49
f 27//50 32//50 33//50
f 33//51 32//51 34//51
f 33//52 34//52 35//52
f 36//53 35//53 34//53
f 37//54 31//54 38//54
f 38//55 31//55 26//55
f 38//56 26//56 39//56
f 39//57 26//57 40//57
f 39//58 40//58 41//58
f 41//59 40//59 42//59
f 36//60 34//60 41//60
f 41//61 34//61 39//61
f 33//62 35//62 40//62
f 40//63 35//63 42//63
f 27//15 33//15 26//15
f 26//64 33//64 40//64
f 31//65 37//65 29//65
f 29//17 37//17 43//17
f 43//20 37//20 44//20
f 44//66 37//66 38//66
f 44//67 38//67 32//67
f 32//68 38//68 39//68
f 32//69 39//69 34//69
f 28//70 30//70 25//70
f 25//71 30//71 29//71
f 32//72 27//72 44//72
f 44//73 27//73 25//73
f 44//74 25//74 43//74
f 43//75 25//75 29//75
f 28//76 21//76 30//76
f 30//77 21//77 23//77
f 6//78 13//78 14//78
f 14//79 5//79 6//79
f 42//80 35//80 36//80
f 36//81 41//81 42//81
# Vertices: 44, normals: 81, texture coordinates: 0, faces: 84

