# File generated by ImageToStl.com - Free Image and 3D model conversion tools

o obj1
v 0.155 0.12534812 -0.13678554
v 0.155 0.12032762 -0.14721073
v 0.155 0.2155 -0.205
v 0.155 0.11128098 -0.15442519
v 0.155 0.0705 -0.205
v 0.155 0.1 -0.15700001
v 0.155 0.08871903 -0.15442519
v 0.155 0.12534812 0.12521446
v 0.155 0.12032762 0.11478926
v 0.155 0.08871903 -0.10757481
v 0.155 0.11128098 0.10757481
v 0.155 0.07967238 -0.11478926
v 0.155 0.1 0.105
v 0.155 0.07465187 -0.12521446
v 0.155 0.11128098 0.15442519
v 0.155 0.2155 0.205
v 0.155 0.1 0.15700001
v 0.155 0.0705 0.205
v 0.155 0.08871903 0.15442519
v 0.155 0.07967238 0.14721073
v 0.155 0.07967238 -0.14721073
v 0.155 0.07465187 -0.13678554
v 0.155 0.12032762 0.14721073
v 0.155 0.12534812 0.13678554
v 0.155 0.08871903 0.10757481
v 0.155 0.07967238 0.11478926
v 0.155 0.07465187 0.12521446
v 0.155 0.07465187 0.13678554
v 0.155 0.1 -0.105
v 0.155 0.11128098 -0.10757481
v 0.155 0.12032762 -0.11478926
v 0.155 0.12534812 -0.12521446
v -0.161786 0.2155 -0.23020101
v -0.15000001 0.2155 -0.20999999
v -0.1525 0.2155 -0.20933013
v -0.15433013 0.2155 0.2075
v -0.1525 0.2155 0.20933013
v -0.161786 0.2155 0.23020101
v -0.15000001 0.2155 0.20999999
v 0.15433013 0.2155 -0.2075
v 0.1525 0.2155 -0.20933013
v 0.161786 0.2155 -0.23020101
v 0.15000001 0.2155 -0.20999999
v 0.09673486 0.2155 -0.23868629
v -0.09673486 0.2155 -0.23868629
v -0.15433013 0.2155 -0.2075
v -0.155 0.2155 -0.205
v -0.155 0.2155 0.205
v -0.01 0.2155 0.25
v 0.01 0.2155 0.25
v 0.161786 0.2155 0.23020101
v 0.15000001 0.2155 0.20999999
v 0.1525 0.2155 0.20933013
v 0.15433013 0.2155 0.2075
v -0.15000001 0.0705 0.20999999
v 0.15000001 0.0705 0.20999999
v -0.15000001 0.0655 -0.205
v 0.15000001 0.0655 -0.205
v -0.15000001 0.0655 0.205
v 0.15000001 0.0655 0.205
v -0.15678599 0.24950001 0.19821447
v -0.15678599 0.24950001 0.21392894
v -0.109643 0.24950001 0.21392894
v -0.109643 0.24950001 0.19821447
v -0.15678599 0.24950001 0.12
v -0.109643 0.24950001 0.12
v -0.15678599 0.24950001 0
v -0.109643 0.24950001 0
v -0.15678599 0.24950001 -0.12
v -0.109643 0.24950001 -0.12
v -0.15678599 0.24950001 -0.21392894
v -0.109643 0.24950001 -0.21392894
v -0.06125 0.24950001 -0.17783494
v -0.06216506 0.24950001 -0.17874999
v -0.0625 0.24950001 -0.18000001
v -0.06216506 0.24950001 -0.18125001
v -0.06125 0.24950001 -0.18216506
v -0.06 0.24950001 -0.1825
v 0 0.24950001 -0.21392894
v -0.05875 0.24950001 -0.18216506
v -0.05783494 0.24950001 -0.18125001
v -0.0575 0.24950001 -0.18000001
v 0 0.24950001 -0.12
v -0.05783494 0.24950001 -0.17874999
v -0.05875 0.24950001 -0.17783494
v -0.06 0.24950001 -0.17749999
v -0.05783494 0.24950001 -0.06125
v -0.0575 0.24950001 -0.06
v 0 0.24950001 0
v -0.05783494 0.24950001 -0.05875
v -0.05875 0.24950001 -0.05783494
v -0.06 0.24950001 -0.0575
v -0.06125 0.24950001 -0.05783494
v -0.06216506 0.24950001 -0.06125
v -0.0625 0.24950001 -0.06
v -0.06216506 0.24950001 -0.05875
v -0.06125 0.24950001 -0.06216506
v -0.06 0.24950001 -0.0625
v -0.05875 0.24950001 -0.06216506
v -0.05875 0.24950001 0.06216506
v -0.06 0.24950001 0.0625
v -0.06125 0.24950001 0.06216506
v -0.06216506 0.24950001 0.05875
v -0.0625 0.24950001 0.06
v -0.06216506 0.24950001 0.06125
v -0.06125 0.24950001 0.05783494
v -0.06 0.24950001 0.0575
v -0.05875 0.24950001 0.05783494
v -0.05783494 0.24950001 0.06125
v 0 0.24950001 0.12
v -0.0575 0.24950001 0.06
v -0.05783494 0.24950001 0.05875
v -0.06125 0.24950001 0.17783494
v -0.06 0.24950001 0.17749999
v -0.06125 0.24950001 0.18216506
v -0.06216506 0.24950001 0.18125001
v -0.0625 0.24950001 0.18000001
v -0.06216506 0.24950001 0.17874999
v -0.05875 0.24950001 0.17783494
v -0.05783494 0.24950001 0.17874999
v 0 0.24950001 0.19821447
v -0.0575 0.24950001 0.18000001
v -0.05783494 0.24950001 0.18125001
v -0.05875 0.24950001 0.18216506
v -0.06 0.24950001 0.1825
v 0.15678599 0.24950001 -0.21392894
v 0.06216506 0.24950001 -0.18125001
v 0.0625 0.24950001 -0.18000001
v 0.15678599 0.24950001 -0.12
v 0.06 0.24950001 -0.17749999
v 0.06125 0.24950001 -0.17783494
v 0.06216506 0.24950001 -0.17874999
v 0.05875 0.24950001 -0.17783494
v 0.05783494 0.24950001 -0.17874999
v 0.0575 0.24950001 -0.18000001
v 0.05783494 0.24950001 -0.18125001
v 0.05875 0.24950001 -0.18216506
v 0.06 0.24950001 -0.1825
v 0.06125 0.24950001 -0.18216506
v 0.06216506 0.24950001 -0.06125
v 0.0625 0.24950001 -0.06
v 0.15678599 0.24950001 0
v 0.06216506 0.24950001 -0.05875
v 0.06125 0.24950001 -0.05783494
v 0.06 0.24950001 -0.0575
v 0.05875 0.24950001 -0.05783494
v 0.05783494 0.24950001 -0.06125
v 0.0575 0.24950001 -0.06
v 0.05783494 0.24950001 -0.05875
v 0.05875 0.24950001 -0.06216506
v 0.06 0.24950001 -0.0625
v 0.06125 0.24950001 -0.06216506
v 0.06125 0.24950001 0.06216506
v 0.06 0.24950001 0.0625
v 0.05875 0.24950001 0.06216506
v 0.05783494 0.24950001 0.05875
v 0.0575 0.24950001 0.06
v 0.05783494 0.24950001 0.06125
v 0.05875 0.24950001 0.05783494
v 0.06 0.24950001 0.0575
v 0.06125 0.24950001 0.05783494
v 0.06216506 0.24950001 0.06125
v 0.15678599 0.24950001 0.12
v 0.0625 0.24950001 0.06
v 0.06216506 0.24950001 0.05875
v 0.05875 0.24950001 0.17783494
v 0.06 0.24950001 0.17749999
v 0.06125 0.24950001 0.17783494
v 0.06216506 0.24950001 0.17874999
v 0.15678599 0.24950001 0.19821447
v 0.0625 0.24950001 0.18000001
v 0.06216506 0.24950001 0.18125001
v 0.06125 0.24950001 0.18216506
v 0.06 0.24950001 0.1825
v 0.05875 0.24950001 0.18216506
v 0.05783494 0.24950001 0.18125001
v 0.0575 0.24950001 0.18000001
v 0.05783494 0.24950001 0.17874999
v 0 0.24950001 0.21392894
v 0.15678599 0.24950001 0.21392894
v 0.15678599 0.2250734 0.2404266
v 0.15678599 0.24803554 0.21746446
v -0.15678599 0.2250734 0.2404266
v -0.15678599 0.24803554 0.21746446
v 0.161786 0.22186396 0.23656496
v 0.161786 0.2445 0.21392894
v 0.161786 0.2445 -0.21392894
v 0.161786 0.22186396 -0.23656496
v 0.05875 0.2445 0.06216506
v 0.06 0.2445 0.0625
v 0.06125 0.2445 0.06216506
v 0.06216506 0.2445 0.06125
v 0.0625 0.2445 0.06
v 0.06216506 0.2445 0.05875
v 0.06125 0.2445 0.05783494
v 0.06 0.2445 0.0575
v 0.05875 0.2445 0.05783494
v 0.05783494 0.2445 0.05875
v 0.0575 0.2445 0.06
v 0.05783494 0.2445 0.06125
v 0.05875 0.2445 0.18216506
v 0.06 0.2445 0.1825
v 0.06125 0.2445 0.18216506
v 0.06216506 0.2445 0.18125001
v 0.0625 0.2445 0.18000001
v 0.06216506 0.2445 0.17874999
v 0.06125 0.2445 0.17783494
v 0.06 0.2445 0.17749999
v 0.05875 0.2445 0.17783494
v 0.05783494 0.2445 0.17874999
v 0.0575 0.2445 0.18000001
v 0.05783494 0.2445 0.18125001
v 0.15866578 0.22483853 0.23994654
v 0.16128385 0.22316125 0.23792776
v 0.1611207 0.22358273 0.23837052
v 0.16020085 0.22417556 0.23908333
v 0.15929395 0.22476004 0.23978612
v 0.16879375 0.11128098 0.15442519
v 0.16879375 0.1 0.15700001
v 0.16879375 0.08871903 0.15442519
v 0.16879375 0.07967238 0.14721073
v 0.16879375 0.07465187 0.13678554
v 0.16879375 0.07465187 0.12521446
v 0.16879375 0.07967238 0.11478926
v 0.16879375 0.08871903 0.10757481
v 0.16879375 0.1 0.105
v 0.16879375 0.11128098 0.10757481
v 0.16879375 0.12032762 0.11478926
v 0.16879375 0.12534812 0.12521446
v 0.16879375 0.12534812 0.13678554
v 0.16879375 0.12032762 0.14721073
v -0.15000001 0.068 0.20933013
v 0.15000001 0.068 0.20933013
v -0.15000001 0.06616987 0.2075
v 0.15000001 0.06616987 0.2075
v 0.15433013 0.0705 0.2075
v 0.1525 0.0705 0.20933013
v 0.15216507 0.06925 0.20933013
v 0.15125 0.06833494 0.20933013
v 0.15216507 0.06675 0.2075
v 0.15375 0.06833494 0.2075
v 0.1525 0.06616987 0.205
v 0.15433013 0.068 0.205
v 0.15433013 0.068 -0.205
v 0.1525 0.06616987 -0.205
v 0.15928601 0.24883012 0.21392894
v 0.1587103 0.24911487 -0.21392894
v 0.15923834 0.24875934 -0.21392894
v 0.16033815 0.24801883 -0.21392894
v 0.16104238 0.24695134 -0.21392894
v 0.16111612 0.24699999 0.21392894
v 0.16141881 0.24638072 -0.21392894
v 0.1614054 0.24585299 0.21528192
v 0.16061407 0.24669041 0.21611935
v 0.16032153 0.24699999 0.21642894
v 0.16087127 0.24641824 0.21584716
v 0.15869942 0.24776641 0.21719535
v 0.15867646 0.24776964 0.21719857
v 0.15678599 0.24911715 0.2158419
v 0.15678599 0.24911487 0.21585323
v 0.15909344 0.24849661 0.21585323
v 0.16078261 0.24680744 0.21585323
v -0.15678599 0.24911715 0.2158419
v -0.15678599 0.24911487 0.21585323
v -0.15000001 0.0705 -0.20999999
v 0.15000001 0.0705 -0.20999999
v -0.15678599 0.2250734 -0.2404266
v -0.15678599 0.24803554 -0.21746446
v -0.09673486 0.22115685 -0.24434315
v 0.15678599 0.24803554 -0.21746446
v 0.09673486 0.22115685 -0.24434315
v 0.15678599 0.2250734 -0.2404266
v 0.06125 0.2445 -0.06216506
v 0.06 0.2445 -0.0625
v 0.05875 0.2445 -0.06216506
v 0.05783494 0.2445 -0.06125
v 0.0575 0.2445 -0.06
v 0.05783494 0.2445 -0.05875
v 0.05875 0.2445 -0.05783494
v 0.06 0.2445 -0.0575
v 0.06125 0.2445 -0.05783494
v 0.06216506 0.2445 -0.05875
v 0.0625 0.2445 -0.06
v 0.06216506 0.2445 -0.06125
v 0.06125 0.2445 -0.18216506
v 0.06 0.2445 -0.1825
v 0.05875 0.2445 -0.18216506
v 0.05783494 0.2445 -0.18125001
v 0.0575 0.2445 -0.18000001
v 0.05783494 0.2445 -0.17874999
v 0.05875 0.2445 -0.17783494
v 0.06 0.2445 -0.17749999
v 0.06125 0.2445 -0.17783494
v 0.06216506 0.2445 -0.17874999
v 0.0625 0.2445 -0.18000001
v 0.06216506 0.2445 -0.18125001
v 0.16020085 0.22417556 -0.23908333
v 0.1611207 0.22358273 -0.23837052
v 0.16128385 0.22316125 -0.23792776
v 0.15929395 0.22476004 -0.23978612
v 0.15866578 0.22483853 -0.23994654
v 0.16879375 0.08871903 -0.15442519
v 0.16879375 0.1 -0.15700001
v 0.16879375 0.11128098 -0.15442519
v 0.16879375 0.12032762 -0.14721073
v 0.16879375 0.12534812 -0.13678554
v 0.16879375 0.12534812 -0.12521446
v 0.16879375 0.12032762 -0.11478926
v 0.16879375 0.11128098 -0.10757481
v 0.16879375 0.1 -0.105
v 0.16879375 0.08871903 -0.10757481
v 0.16879375 0.07967238 -0.11478926
v 0.16879375 0.07465187 -0.12521446
v 0.16879375 0.07465187 -0.13678554
v 0.16879375 0.07967238 -0.14721073
v -0.15000001 0.06616987 -0.2075
v 0.15000001 0.06616987 -0.2075
v -0.15000001 0.068 -0.20933013
v 0.15000001 0.068 -0.20933013
v 0.1525 0.0705 -0.20933013
v 0.15433013 0.0705 -0.2075
v 0.15125 0.06833494 -0.20933013
v 0.15216507 0.06925 -0.20933013
v 0.15375 0.06833494 -0.2075
v 0.15216507 0.06675 -0.2075
v 0.16032153 0.24699999 -0.21642894
v 0.1596733 0.24730627 -0.2167352
v 0.15869942 0.24776641 -0.21719535
v 0.15820485 0.24783596 -0.21726491
v 0.16087127 0.24641824 -0.21584716
v 0.16106954 0.24620841 -0.21563736
v 0.1614054 0.24585299 -0.21528192
v 0.16006455 0.24774779 -0.21585323
v 0.15856208 0.24875942 -0.21585323
v 0.15678599 0.24911487 -0.21585323
v 0.15678599 0.24911715 -0.2158419
v -0.15678599 0.24911715 -0.2158419
v -0.15678599 0.24911487 -0.21585323
v -0.155 0.1 -0.105
v -0.155 0.07465187 0.12521446
v -0.155 0.07967238 0.11478926
v -0.155 0.07967238 -0.14721073
v -0.155 0.08871903 -0.15442519
v -0.155 0.0705 -0.205
v -0.155 0.1 -0.15700001
v -0.155 0.11128098 -0.15442519
v -0.155 0.12032762 -0.14721073
v -0.155 0.12534812 0.13678554
v -0.155 0.12032762 0.14721073
v -0.155 0.11128098 0.15442519
v -0.155 0.0705 0.205
v -0.155 0.1 0.15700001
v -0.155 0.08871903 0.15442519
v -0.155 0.07967238 0.14721073
v -0.155 0.07465187 0.13678554
v -0.155 0.12534812 -0.13678554
v -0.155 0.12534812 -0.12521446
v -0.155 0.12032762 -0.11478926
v -0.155 0.11128098 -0.10757481
v -0.155 0.08871903 -0.10757481
v -0.155 0.07967238 -0.11478926
v -0.155 0.07465187 -0.12521446
v -0.155 0.07465187 -0.13678554
v -0.155 0.08871903 0.10757481
v -0.155 0.1 0.105
v -0.155 0.11128098 0.10757481
v -0.155 0.12032762 0.11478926
v -0.155 0.12534812 0.12521446
v -0.161786 0.22186396 -0.23656496
v -0.161786 0.2445 -0.21392894
v -0.161786 0.2445 0.21392894
v -0.161786 0.22186396 0.23656496
v -0.06125 0.2445 0.06216506
v -0.06 0.2445 0.0625
v -0.05875 0.2445 0.06216506
v -0.05783494 0.2445 0.06125
v -0.0575 0.2445 0.06
v -0.05783494 0.2445 0.05875
v -0.05875 0.2445 0.05783494
v -0.06 0.2445 0.0575
v -0.06125 0.2445 0.05783494
v -0.06216506 0.2445 0.05875
v -0.0625 0.2445 0.06
v -0.06216506 0.2445 0.06125
v -0.06125 0.2445 0.18216506
v -0.06 0.2445 0.1825
v -0.05875 0.2445 0.18216506
v -0.05783494 0.2445 0.18125001
v -0.0575 0.2445 0.18000001
v -0.05783494 0.2445 0.17874999
v -0.05875 0.2445 0.17783494
v -0.06 0.2445 0.17749999
v -0.06125 0.2445 0.17783494
v -0.06216506 0.2445 0.17874999
v -0.0625 0.2445 0.18000001
v -0.06216506 0.2445 0.18125001
v -0.16020085 0.22417556 0.23908333
v -0.1611207 0.22358273 0.23837052
v -0.16128385 0.22316125 0.23792776
v -0.15929395 0.22476004 0.23978612
v -0.15866578 0.22483853 0.23994654
v -0.16879375 0.08871903 0.15442519
v -0.16879375 0.1 0.15700001
v -0.16879375 0.11128098 0.15442519
v -0.16879375 0.12032762 0.14721073
v -0.16879375 0.12534812 0.13678554
v -0.16879375 0.12534812 0.12521446
v -0.16879375 0.12032762 0.11478926
v -0.16879375 0.11128098 0.10757481
v -0.16879375 0.1 0.105
v -0.16879375 0.08871903 0.10757481
v -0.16879375 0.07967238 0.11478926
v -0.16879375 0.07465187 0.12521446
v -0.16879375 0.07465187 0.13678554
v -0.16879375 0.07967238 0.14721073
v -0.1525 0.0705 0.20933013
v -0.15433013 0.0705 0.2075
v -0.15125 0.06833494 0.20933013
v -0.15216507 0.06925 0.20933013
v -0.15375 0.06833494 0.2075
v -0.15216507 0.06675 0.2075
v -0.15433013 0.068 0.205
v -0.1525 0.06616987 0.205
v -0.1525 0.06616987 -0.205
v -0.15433013 0.068 -0.205
v -0.15928601 0.24883012 -0.21392894
v -0.16141881 0.24638072 0.21392894
v -0.16111612 0.24699999 -0.21392894
v -0.16104238 0.24695134 0.21392894
v -0.16033815 0.24801883 0.21392894
v -0.15923834 0.24875934 0.21392894
v -0.1587103 0.24911487 0.21392894
v -0.16032153 0.24699999 0.21642894
v -0.1596733 0.24730627 0.2167352
v -0.15869942 0.24776641 0.21719535
v -0.15820485 0.24783596 0.21726491
v -0.16087127 0.24641824 0.21584716
v -0.16106954 0.24620841 0.21563736
v -0.1614054 0.24585299 0.21528192
v -0.16006455 0.24774779 0.21585323
v -0.15856208 0.24875942 0.21585323
v -0.05875 0.2445 -0.06216506
v -0.06 0.2445 -0.0625
v -0.06125 0.2445 -0.06216506
v -0.06216506 0.2445 -0.06125
v -0.0625 0.2445 -0.06
v -0.06216506 0.2445 -0.05875
v -0.06125 0.2445 -0.05783494
v -0.06 0.2445 -0.0575
v -0.05875 0.2445 -0.05783494
v -0.05783494 0.2445 -0.05875
v -0.0575 0.2445 -0.06
v -0.05783494 0.2445 -0.06125
v -0.05875 0.2445 -0.18216506
v -0.06 0.2445 -0.1825
v -0.06125 0.2445 -0.18216506
v -0.06216506 0.2445 -0.18125001
v -0.0625 0.2445 -0.18000001
v -0.06216506 0.2445 -0.17874999
v -0.06125 0.2445 -0.17783494
v -0.06 0.2445 -0.17749999
v -0.05875 0.2445 -0.17783494
v -0.05783494 0.2445 -0.17874999
v -0.0575 0.2445 -0.18000001
v -0.05783494 0.2445 -0.18125001
v -0.16128385 0.22316125 -0.23792776
v -0.1611207 0.22358273 -0.23837052
v -0.16020085 0.22417556 -0.23908333
v -0.15866578 0.22483853 -0.23994654
v -0.15929395 0.22476004 -0.23978612
v -0.16879375 0.11128098 -0.15442519
v -0.16879375 0.1 -0.15700001
v -0.16879375 0.08871903 -0.15442519
v -0.16879375 0.07967238 -0.14721073
v -0.16879375 0.07465187 -0.13678554
v -0.16879375 0.07465187 -0.12521446
v -0.16879375 0.07967238 -0.11478926
v -0.16879375 0.08871903 -0.10757481
v -0.16879375 0.1 -0.105
v -0.16879375 0.11128098 -0.10757481
v -0.16879375 0.12032762 -0.11478926
v -0.16879375 0.12534812 -0.12521446
v -0.16879375 0.12534812 -0.13678554
v -0.16879375 0.12032762 -0.14721073
v -0.15433013 0.0705 -0.2075
v -0.1525 0.0705 -0.20933013
v -0.15216507 0.06925 -0.20933013
v -0.15125 0.06833494 -0.20933013
v -0.15216507 0.06675 -0.2075
v -0.15375 0.06833494 -0.2075
v -0.1614054 0.24585299 -0.21528192
v -0.16061407 0.24669041 -0.21611935
v -0.16032153 0.24699999 -0.21642894
v -0.16087127 0.24641824 -0.21584716
v -0.15869942 0.24776641 -0.21719535
v -0.15867646 0.24776964 -0.21719857
v -0.15909344 0.24849661 -0.21585323
v -0.16078261 0.24680744 -0.21585323
vn 1 0 0
vn 1 -0 0
vn 1 -0 0
vn 1 0 0
vn 1 -1E-05 0
vn 1 0 0
vn 1 0 0
vn 1 -0 0
vn 1 -2E-05 0
vn 1 0 0
vn 1 -0 0
vn 1 -0 0
vn 1 1E-05 0
vn 1 -0 0
vn 1 0 0
vn 1 0 0
vn 1 -0 0
vn 0 -1 0
vn 0 -1 0
vn 0 -1 -0
vn 0 -1 0
vn 0 -1 0
vn 0 -1 0
vn 0 -1 0
vn 0 -1 -0
vn 0 -1 -2E-05
vn 0 -1 0
vn 0 -1 0
vn 0 0 1
vn 0 1 0
vn 0 1 0
vn 0 1 1E-05
vn 0 1 -0
vn 0 1 -3E-05
vn 0 1 0
vn 0 1 -2E-05
vn 0 1 2E-05
vn 0 1 -2E-05
vn 0 1 1E-05
vn 0 1 -0
vn 0 1 2E-05
vn 0 1 2E-05
vn 0 1 -2E-05
vn 0 1 1E-05
vn 0 1 -0
vn 0 1 2E-05
vn 0 1 -2E-05
vn 0 1 0
vn 0 1 -1E-05
vn 0 1 2E-05
vn 0 1 -2E-05
vn 0 1 -2E-05
vn 0 1 2E-05
vn 0 1 -2E-05
vn 0 1 -2E-05
vn 0 1 2E-05
vn 0 1 1E-05
vn 0 1 -0
vn 0 1 1E-05
vn 0 1 -1E-05
vn 0 1 2E-05
vn 0 1 -2E-05
vn 0 1 2E-05
vn 0 1 -6E-05
vn 0 1 5E-05
vn 0 1 -2E-05
vn 0 1 3E-05
vn 0 1 -3E-05
vn 0 1 0
vn 0 1 0
vn 0 1 -2E-05
vn 0 1 3E-05
vn 0 1 -0
vn 0 1 -0
vn 0 1 -0
vn 0 1 -0
vn 0 1 2E-05
vn 0 1 0
vn 0 1 0
vn 0 1 -3E-05
vn 0 1 -0
vn 0 1 0
vn 0 1 -2E-05
vn 0 1 2E-05
vn 0 1 -0
vn 0 1 -0
vn 0 1 -0
vn 0 1 3E-05
vn 0 1 -2E-05
vn 0 1 2E-05
vn 0 0.7071 0.70711
vn -0 0.70711 0.70711
vn 0 0.70711 0.70711
vn 0 0.70711 0.70711
vn 1 0 0
vn 1 -0 0
vn 0.25882 0 -0.96593
vn -0.25882 0 -0.96593
vn -0.25882 0 -0.96593
vn -0.70711 0 -0.70711
vn -0.70711 0 -0.7071
vn -0.96593 0 -0.25882
vn -0.96593 0 -0.25882
vn -0.96593 0 0.25882
vn -0.70711 0 0.70711
vn -0.70711 0 0.7071
vn -0.25882 0 0.96593
vn -0.25882 0 0.96593
vn 0.25882 0 0.96593
vn 0.70711 0 0.7071
vn 0.7071 0 0.70711
vn 0.96593 0 0.25882
vn 0.96593 0 -0.25882
vn 0.96593 0 -0.25882
vn 0.70711 0 -0.7071
vn 0.7071 0 -0.70711
vn 0 1 3E-05
vn 0 1 -3E-05
vn 0.25883 0 -0.96592
vn -0.25883 0 -0.96592
vn -0.25883 0 -0.96592
vn -0.7071 0 -0.70711
vn -0.7071 0 -0.70711
vn -0.96593 0 -0.25882
vn -0.96593 0 0.25882
vn -0.70711 0 0.7071
vn -0.7071 0 0.70711
vn -0.25883 0 0.96592
vn -0.25883 0 0.96592
vn 0.25883 0 0.96592
vn 0.7071 0 0.70711
vn 0.70711 0 0.7071
vn 0.96593 0 0.25882
vn 0.96593 0 -0.25882
vn 0.7071 0 -0.70711
vn 0.7071 0 -0.70711
vn 0 1 1E-05
vn 0 1 -3E-05
vn 0 1 7E-05
vn 0 1 -1E-05
vn 0.09184 -0.70409 0.70415
vn 0.09183 -0.70408 0.70415
vn 0.09185 -0.70412 0.70412
vn 0.09185 -0.70412 0.70412
vn 0.09185 -0.70411 0.70412
vn 0.09184 -0.70409 0.70414
vn 0.09187 -0.70408 0.70415
vn 0 0.22252 0.97493
vn 0 -0.22252 0.97493
vn 0 -0.22252 0.97493
vn 0 -0.62349 0.78183
vn 0 -0.62349 0.78183
vn 0 -0.90097 0.43388
vn 0 -0.90097 0.43388
vn 0 -0.90097 -0.43388
vn 0 -0.90097 -0.43388
vn 0 -0.62349 -0.78183
vn 0 -0.62349 -0.78183
vn 0 -0.22252 -0.97493
vn 0 -0.22252 -0.97493
vn 0 0.22252 -0.97493
vn 0 0.22252 -0.97493
vn 0 0.62349 -0.78183
vn 0 0.62349 -0.78183
vn 0 0.90097 -0.43388
vn 0 0.90097 -0.43388
vn 0 0.90097 0.43388
vn 0 0.90097 0.43388
vn 0 0.62349 0.78183
vn 0 0.62349 0.78183
vn 0 0.22252 0.97493
vn 1 -0 0
vn 1 0 0
vn 1 -0 0
vn 1 0 0
vn 1 -0 0
vn 1 -1E-05 0
vn 1 -0 0
vn 1 0 0
vn 1 0 0
vn 0 -0.25882 0.96593
vn 0 -0.70711 0.70711
vn 0 -0.96593 0.25881
vn 0 -0.96592 0.25882
vn 0.96593 0 0.25882
vn 0.7071 0 0.70711
vn 0.70711 0 0.7071
vn 0.25881 0 0.96593
vn 0.25819 -0.06918 0.96361
vn 0.18902 -0.18902 0.96361
vn 0.06917 -0.2582 0.96361
vn 0.18616 -0.69474 0.69475
vn 0.18615 -0.69475 0.69474
vn 0.50858 -0.5086 0.69475
vn 0.50859 -0.50858 0.69475
vn 0.69475 -0.18616 0.69474
vn 0.69475 -0.18617 0.69474
vn 0.25057 -0.93511 0.25056
vn 0.25056 -0.93511 0.25056
vn 0.68455 -0.68455 0.25056
vn 0.68455 -0.68455 0.25056
vn 0.93512 -0.25056 0.25056
vn 0.93512 -0.25056 0.25056
vn 0.96592 -0.25883 0
vn 0.96593 -0.25882 0
vn 0.70711 -0.7071 0
vn 0.25882 -0.96593 0
vn 0.25882 -0.96593 0
vn 0.25882 0.96593 0
vn 0.25882 0.96592 0
vn 0.25882 0.96592 0
vn 0.19625 0.98055 0
vn 0.19625 0.98055 0
vn 0.55851 0.82949 0.00353
vn 0.27393 0.96175 -0.00019
vn 0.55852 0.82949 -0.0002
vn 0.83472 0.55068 0.00101
vn 0.70711 0.7071 -0.0002
vn 0.83474 0.55064 -0.00021
vn 0.96592 0.25883 0.00031
vn 0.98147 0.19162 0
vn 0.98079 0.13795 0.13795
vn 0.96618 0.17956 0.1851
vn 0.83147 0.39472 0.39097
vn 0.70862 0.49517 0.50265
vn 0.96618 0.17954 0.18511
vn 0.83147 0.39471 0.39098
vn 0.83149 0.3947 0.39096
vn 0.70864 0.49515 0.50265
vn 0.55557 0.58982 0.58605
vn 0.26001 0.67995 0.68561
vn 0.26005 0.67994 0.68561
vn 0.19452 0.69358 0.69362
vn 0.19509 0.69352 0.69352
vn 0.2543 0.94744 0.19416
vn 0.79612 0.17238 0.58007
vn 0.96584 0.25881 0.0129
vn 0.79615 0.17238 0.58002
vn 0.67154 0.67153 0.3132
vn 0.55302 0.6529 0.51757
vn 0.18986 0.83786 0.5118
vn 0.22172 0.82749 0.51585
vn 0.19152 0.81544 0.54625
vn 0.79626 0.17226 0.57991
vn 0.87081 0.45084 0.19604
vn 0.69425 0.69425 0.18979
vn 0.69426 0.69425 0.1898
vn 0.25411 0.94837 0.1898
vn 0.25411 0.94837 0.18979
vn 0 0.98055 0.19625
vn 0 0.98056 0.19623
vn 0 0.98056 0.19624
vn 0 0.98055 0.19625
vn 0 0.97951 0.2014
vn 0 0.9811 0.19349
vn 0 0.83081 0.55655
vn 0 0 -1
vn 0 0.70711 -0.70711
vn 0 0.70711 -0.70711
vn 0 0.70711 -0.70711
vn 0.70711 0 0.70711
vn 0.96593 0 0.25882
vn 0.70711 0 -0.70711
vn 0.70711 0 -0.7071
vn -0.70711 0 -0.7071
vn -0.7071 0 -0.70711
vn -0.96593 0 0.25882
vn -0.7071 0 0.70711
vn 0.7071 0 0.70711
vn -0.7071 0 0.70711
vn 0 1 -1E-05
vn 0 1 1E-05
vn 0.09187 -0.70409 -0.70414
vn 0.09188 -0.70408 -0.70415
vn 0.09185 -0.70412 -0.70412
vn 0.09187 -0.70412 -0.70412
vn 0.09184 -0.70409 -0.70414
vn 0.09185 -0.70411 -0.70413
vn 0.09184 -0.70411 -0.70412
vn 0.09185 -0.70412 -0.70412
vn 0 0.62349 -0.78183
vn 0 0.62349 0.78183
vn 0 -0.62349 0.78183
vn 0 -0.62349 -0.78183
vn 1 -0 0
vn 1 -0 0
vn 1 -0 0
vn 1 -0 0
vn 1 -0 0
vn 0 -0.96592 -0.25882
vn 0 -0.96593 -0.25881
vn 0 -0.70711 -0.70711
vn 0 -0.25882 -0.96593
vn 0.25881 0 -0.96593
vn 0.70711 0 -0.7071
vn 0.7071 0 -0.70711
vn 0.96593 0 -0.25882
vn 0.06917 -0.2582 -0.96361
vn 0.18902 -0.18902 -0.96361
vn 0.25819 -0.06918 -0.96361
vn 0.69475 -0.18618 -0.69474
vn 0.69475 -0.18616 -0.69474
vn 0.5086 -0.50858 -0.69475
vn 0.50859 -0.50859 -0.69475
vn 0.18616 -0.69474 -0.69475
vn 0.18615 -0.69475 -0.69474
vn 0.93511 -0.25056 -0.25056
vn 0.93512 -0.25055 -0.25056
vn 0.68455 -0.68455 -0.25056
vn 0.68455 -0.68455 -0.25056
vn 0.25056 -0.93511 -0.25056
vn 0.25056 -0.93511 -0.25056
vn 0.70862 0.49517 -0.50265
vn 0.55557 0.58425 -0.59161
vn 0.70842 0.4987 -0.49943
vn 0.55559 0.58981 -0.58604
vn 0.26001 0.67995 -0.68561
vn 0.1951 0.69068 -0.69635
vn 0.25996 0.6807 -0.68489
vn 0.1951 0.69352 -0.69352
vn 0.83147 0.39471 -0.39097
vn 0.83148 0.39467 -0.39099
vn 0.96614 0.18396 -0.18091
vn 0.83146 0.39021 -0.39548
vn 0.98078 0.13519 -0.14072
vn 0.96616 0.18239 -0.18239
vn 0.82151 0.49721 -0.27911
vn 0.19254 0.79818 -0.57083
vn 0.48801 0.72479 -0.48634
vn 0.55503 0.61874 -0.55597
vn 0.55503 0.61874 -0.55597
vn 0.19256 0.79816 -0.57085
vn 0.16402 0.81956 -0.54901
vn 0.19242 0.96178 -0.19483
vn 0.97798 0.19095 -0.08418
vn 0.80938 0.54438 -0.22035
vn 0.81413 0.53715 -0.22062
vn 0.81002 0.54234 -0.223
vn 0.81391 0.53696 -0.22184
vn 0.83958 0.50856 -0.191
vn 0.54807 0.81396 -0.19258
vn 0.54805 0.81398 -0.19255
vn 0.54806 0.81398 -0.19256
vn 0.19258 0.9622 -0.19256
vn 0.19257 0.9622 -0.19259
vn 0 0.98056 -0.19623
vn 0 0.98055 -0.19625
vn 0 0.98056 -0.19621
vn 0 0.98055 -0.19625
vn 0 0.97951 -0.2014
vn 0 0.9811 -0.19349
vn 0 0.83081 -0.55655
vn 0 -0.70711 -0.70711
vn -1 -0 0
vn -1 0 0
vn -1 0 0
vn -1 -0 0
vn -1 -0 0
vn -1 -0 0
vn -1 -2E-05 0
vn -1 0 0
vn -1 -0 0
vn -1 0 0
vn -1 0 0
vn -1 -0 0
vn -1 -0 0
vn -1 1E-05 0
vn -1 0 0
vn -1 0 0
vn -1 0 0
vn -1 -0 0
vn -1 0 0
vn -1 -0 0
vn 0.25882 0 -0.96593
vn 0.25882 0 0.96593
vn 0 1 -3E-05
vn 0 1 3E-05
vn 0.25883 0 -0.96592
vn 0.25883 0 0.96592
vn 0 1 3E-05
vn 0 1 -7E-05
vn -0.09187 -0.70409 0.70414
vn -0.09188 -0.70408 0.70415
vn -0.09185 -0.70412 0.70412
vn -0.09187 -0.70412 0.70412
vn -0.09184 -0.70409 0.70414
vn -0.09185 -0.70411 0.70413
vn -0.09184 -0.70411 0.70413
vn 0 0.22252 0.97493
vn 0 0.22252 0.97493
vn 0 0.22252 -0.97493
vn 0 0.22252 -0.97493
vn 0 -0.90097 -0.43388
vn 0 -0.90097 -0.43388
vn 0 -0.90097 0.43388
vn 0 -0.90097 0.43388
vn -1 -1E-05 0
vn -1 -0 0
vn -1 0 0
vn -1 -0 0
vn -1 -0 0
vn -1 -0 0
vn -1 -0 0
vn -0.25881 0 0.96593
vn -0.70711 0 0.7071
vn -0.7071 0 0.70711
vn -0.96593 0 0.25882
vn -0.06917 -0.2582 0.96361
vn -0.18902 -0.18902 0.96361
vn -0.25819 -0.06918 0.96361
vn -0.69475 -0.18618 0.69474
vn -0.69475 -0.18616 0.69474
vn -0.5086 -0.50858 0.69475
vn -0.50859 -0.50859 0.69475
vn -0.18616 -0.69474 0.69475
vn -0.18615 -0.69475 0.69474
vn -0.93511 -0.25056 0.25056
vn -0.93512 -0.25055 0.25056
vn -0.68455 -0.68455 0.25056
vn -0.68455 -0.68455 0.25056
vn -0.25056 -0.93511 0.25056
vn -0.25056 -0.93511 0.25056
vn -0.25882 -0.96593 0
vn -0.25882 -0.96593 0
vn -0.70711 -0.7071 0
vn -0.96593 -0.25882 0
vn -0.96592 -0.25883 0
vn -0.25882 0.96592 0
vn -0.98147 0.19162 0
vn -0.96592 0.25883 -0.00031
vn -0.83474 0.55064 0.00021
vn -0.70711 0.7071 0.0002
vn -0.83472 0.55068 -0.00101
vn -0.55852 0.82949 0.0002
vn -0.19625 0.98055 0
vn -0.55787 0.82854 -0.048
vn -0.28912 0.95729 0
vn -0.28244 0.95929 0.00019
vn -0.25882 0.96593 0
vn -0.25882 0.96593 0
vn -0.70862 0.49517 0.50265
vn -0.55557 0.58425 0.59161
vn -0.70842 0.4987 0.49943
vn -0.55559 0.58981 0.58604
vn -0.26001 0.67995 0.68561
vn -0.1951 0.69068 0.69635
vn -0.25996 0.6807 0.68489
vn -0.1951 0.69352 0.69352
vn -0.83147 0.39471 0.39097
vn -0.83148 0.39467 0.39099
vn -0.96614 0.18396 0.18091
vn -0.83146 0.39021 0.39548
vn -0.98078 0.13519 0.14072
vn -0.96616 0.18239 0.18239
vn -0.82151 0.49721 0.27911
vn -0.19254 0.79818 0.57083
vn -0.48801 0.72479 0.48634
vn -0.55503 0.61874 0.55597
vn -0.55503 0.61874 0.55597
vn -0.19256 0.79816 0.57085
vn -0.16402 0.81956 0.54901
vn -0.19242 0.96178 0.19483
vn -0.97798 0.19095 0.08418
vn -0.80938 0.54438 0.22035
vn -0.81413 0.53715 0.22062
vn -0.81002 0.54234 0.223
vn -0.81391 0.53696 0.22184
vn -0.83958 0.50856 0.191
vn -0.54807 0.81396 0.19258
vn -0.54805 0.81398 0.19255
vn -0.54806 0.81398 0.19256
vn -0.19258 0.9622 0.19256
vn -0.19257 0.9622 0.19259
vn 0 1 -1E-05
vn 0 1 1E-05
vn -0.09185 -0.70412 -0.70412
vn -0.09185 -0.70411 -0.70412
vn -0.09183 -0.70408 -0.70415
vn -0.09185 -0.70412 -0.70412
vn -0.09184 -0.70411 -0.70412
vn -0.09185 -0.70411 -0.70413
vn -0.09184 -0.70409 -0.70414
vn -0.09187 -0.70408 -0.70415
vn -1 -0 0
vn -1 -0 0
vn -1 0 0
vn -1 -0 0
vn -1 -0 0
vn -1 0 0
vn -1 0 0
vn -0.96593 0 -0.25882
vn -0.7071 0 -0.70711
vn -0.70711 0 -0.7071
vn -0.25881 0 -0.96593
vn -0.25819 -0.06918 -0.96361
vn -0.18902 -0.18902 -0.96361
vn -0.06917 -0.2582 -0.96361
vn -0.18616 -0.69474 -0.69475
vn -0.18615 -0.69475 -0.69474
vn -0.50858 -0.5086 -0.69475
vn -0.50859 -0.50858 -0.69475
vn -0.69475 -0.18616 -0.69474
vn -0.69475 -0.18617 -0.69474
vn -0.25057 -0.93511 -0.25056
vn -0.25056 -0.93511 -0.25056
vn -0.68455 -0.68455 -0.25056
vn -0.68455 -0.68455 -0.25056
vn -0.93512 -0.25056 -0.25056
vn -0.93512 -0.25056 -0.25056
vn -0.98079 0.13795 -0.13795
vn -0.96618 0.17956 -0.1851
vn -0.83147 0.39472 -0.39097
vn -0.70862 0.49517 -0.50265
vn -0.96618 0.17954 -0.18511
vn -0.83147 0.39471 -0.39098
vn -0.83149 0.3947 -0.39096
vn -0.70864 0.49515 -0.50265
vn -0.55557 0.58982 -0.58605
vn -0.26001 0.67995 -0.68561
vn -0.26005 0.67994 -0.68561
vn -0.19452 0.69358 -0.69362
vn -0.19509 0.69352 -0.69352
vn -0.2543 0.94744 -0.19416
vn -0.79612 0.17238 -0.58007
vn -0.96584 0.25881 -0.0129
vn -0.79615 0.17238 -0.58002
vn -0.67154 0.67153 -0.3132
vn -0.55302 0.6529 -0.51757
vn -0.18986 0.83786 -0.5118
vn -0.22172 0.82749 -0.51585
vn -0.19152 0.81544 -0.54625
vn -0.79626 0.17226 -0.57991
vn -0.87081 0.45084 -0.19604
vn -0.69425 0.69425 -0.18979
vn -0.69426 0.69425 -0.1898
vn -0.25411 0.94837 -0.1898
vn -0.25411 0.94837 -0.18979
f 1//1 2//1 3//1
f 3//2 2//2 4//2
f 3//1 4//1 5//1
f 5//3 4//3 6//3
f 5//4 6//4 7//4
f 8//5 9//5 10//5
f 10//6 9//6 11//6
f 10//1 11//1 12//1
f 12//7 11//7 13//7
f 12//1 13//1 14//1
f 15//8 16//8 17//8
f 17//1 16//1 18//1
f 17//1 18//1 19//1
f 19//1 18//1 20//1
f 7//1 21//1 5//1
f 5//1 21//1 22//1
f 5//9 22//9 14//9
f 15//1 23//1 16//1
f 16//1 23//1 24//1
f 16//10 24//10 8//10
f 13//1 25//1 14//1
f 14//11 25//11 26//11
f 14//1 26//1 5//1
f 5//12 26//12 27//12
f 5//13 27//13 18//13
f 18//9 27//9 28//9
f 18//1 28//1 20//1
f 10//1 29//1 8//1
f 8//14 29//14 30//14
f 8//15 30//15 16//15
f 16//16 30//16 31//16
f 16//17 31//17 3//17
f 3//1 31//1 32//1
f 3//10 32//10 1//10
f 33//18 34//18 35//18
f 36//19 37//19 38//19
f 38//20 37//20 39//20
f 40//19 41//19 42//19
f 42//18 41//18 43//18
f 42//21 43//21 44//21
f 44//21 43//21 34//21
f 44//22 34//22 45//22
f 45//23 34//23 33//23
f 35//19 46//19 33//19
f 33//24 46//24 47//24
f 33//21 47//21 38//21
f 38//19 47//19 48//19
f 38//25 48//25 36//25
f 49//26 38//26 50//26
f 50//27 38//27 39//27
f 50//28 39//28 51//28
f 51//21 39//21 52//21
f 51//20 52//20 53//20
f 53//19 54//19 51//19
f 51//25 54//25 16//25
f 51//21 16//21 42//21
f 42//19 16//19 3//19
f 42//24 3//24 40//24
f 55//29 56//29 39//29
f 39//29 56//29 52//29
f 57//21 58//21 59//21
f 59//21 58//21 60//21
f 61//30 62//30 63//30
f 61//31 64//31 65//31
f 65//31 64//31 66//31
f 65//31 66//31 67//31
f 67//31 66//31 68//31
f 67//31 68//31 69//31
f 69//31 68//31 70//31
f 69//31 70//31 71//31
f 71//31 70//31 72//31
f 73//31 74//31 70//31
f 70//31 74//31 72//31
f 72//32 74//32 75//32
f 72//33 75//33 76//33
f 76//30 77//30 72//30
f 72//34 77//34 78//34
f 72//31 78//31 79//31
f 79//35 78//35 80//35
f 80//36 81//36 79//36
f 79//37 81//37 82//37
f 79//31 82//31 83//31
f 82//38 84//38 83//38
f 83//39 84//39 85//39
f 83//30 85//30 70//30
f 70//40 85//40 86//40
f 70//41 86//41 73//41
f 83//42 87//42 88//42
f 83//31 88//31 89//31
f 88//43 90//43 89//43
f 89//44 90//44 91//44
f 89//30 91//30 68//30
f 68//45 91//45 92//45
f 68//46 92//46 93//46
f 94//31 70//31 95//31
f 95//31 70//31 68//31
f 95//31 68//31 96//31
f 96//31 68//31 93//31
f 94//31 97//31 70//31
f 70//47 97//47 98//47
f 70//31 98//31 83//31
f 83//48 98//48 99//48
f 83//49 99//49 87//49
f 100//31 101//31 66//31
f 66//50 101//50 102//50
f 103//31 68//31 104//31
f 104//31 68//31 66//31
f 104//31 66//31 105//31
f 105//31 66//31 102//31
f 103//31 106//31 68//31
f 68//51 106//51 107//51
f 68//31 107//31 89//31
f 89//48 107//48 108//48
f 109//52 110//52 111//52
f 111//31 110//31 89//31
f 111//53 89//53 112//53
f 112//54 89//54 108//54
f 113//55 114//55 66//55
f 66//31 114//31 110//31
f 66//31 110//31 100//31
f 100//56 110//56 109//56
f 115//30 116//30 64//30
f 64//57 116//57 117//57
f 64//31 117//31 66//31
f 66//58 117//58 118//58
f 66//59 118//59 113//59
f 114//31 119//31 110//31
f 110//60 119//60 120//60
f 110//31 120//31 121//31
f 121//61 120//61 122//61
f 122//62 123//62 121//62
f 121//63 123//63 124//63
f 121//31 124//31 64//31
f 64//64 124//64 125//64
f 64//65 125//65 115//65
f 126//66 127//66 128//66
f 126//31 128//31 129//31
f 130//31 83//31 131//31
f 131//31 83//31 129//31
f 131//31 129//31 132//31
f 132//67 129//67 128//67
f 130//31 133//31 83//31
f 83//39 133//39 134//39
f 83//31 134//31 79//31
f 79//68 134//68 135//68
f 79//37 135//37 136//37
f 136//36 137//36 79//36
f 79//35 137//35 138//35
f 79//31 138//31 126//31
f 126//69 138//69 139//69
f 126//70 139//70 127//70
f 129//71 140//71 141//71
f 129//31 141//31 142//31
f 141//72 143//72 142//72
f 142//73 143//73 144//73
f 142//74 144//74 89//74
f 89//75 144//75 145//75
f 89//76 145//76 146//76
f 147//77 83//77 148//77
f 148//31 83//31 89//31
f 148//43 89//43 149//43
f 149//56 89//56 146//56
f 147//54 150//54 83//54
f 83//48 150//48 151//48
f 83//31 151//31 129//31
f 129//78 151//78 152//78
f 129//79 152//79 140//79
f 153//31 154//31 110//31
f 110//76 154//76 155//76
f 156//53 89//53 157//53
f 157//31 89//31 110//31
f 157//52 110//52 158//52
f 158//56 110//56 155//56
f 156//54 159//54 89//54
f 89//48 159//48 160//48
f 89//31 160//31 142//31
f 142//78 160//78 161//78
f 162//72 163//72 164//72
f 164//31 163//31 142//31
f 164//80 142//80 165//80
f 165//31 142//31 161//31
f 166//31 167//31 110//31
f 110//31 167//31 163//31
f 110//81 163//81 153//81
f 153//31 163//31 162//31
f 167//31 168//31 163//31
f 163//82 168//82 169//82
f 163//31 169//31 170//31
f 170//83 169//83 171//83
f 170//84 171//84 172//84
f 172//30 173//30 170//30
f 170//85 173//85 174//85
f 170//86 174//86 121//86
f 121//87 174//87 175//87
f 175//88 176//88 121//88
f 121//89 176//89 177//89
f 121//31 177//31 110//31
f 110//90 177//90 178//90
f 110//60 178//60 166//60
f 61//30 63//30 64//30
f 64//31 63//31 179//31
f 64//31 179//31 121//31
f 121//31 179//31 180//31
f 121//31 180//31 170//31
f 50//91 181//91 49//91
f 49//92 181//92 182//92
f 49//93 182//93 183//93
f 183//94 182//94 184//94
f 185//1 51//1 186//1
f 186//1 51//1 42//1
f 186//95 42//95 187//95
f 187//96 42//96 188//96
f 189//97 154//97 190//97
f 190//98 154//98 153//98
f 190//99 153//99 191//99
f 191//100 153//100 162//100
f 191//101 162//101 192//101
f 192//102 162//102 164//102
f 192//103 164//103 193//103
f 193//104 164//104 165//104
f 193//104 165//104 194//104
f 194//105 165//105 161//105
f 194//106 161//106 195//106
f 195//107 161//107 160//107
f 195//108 160//108 196//108
f 196//109 160//109 159//109
f 196//109 159//109 197//109
f 197//110 159//110 156//110
f 197//111 156//111 198//111
f 198//112 156//112 157//112
f 198//112 157//112 199//112
f 199//113 157//113 158//113
f 199//114 158//114 200//114
f 200//115 158//115 155//115
f 200//116 155//116 189//116
f 189//97 155//97 154//97
f 199//31 200//31 189//31
f 193//31 194//31 195//31
f 192//31 193//31 191//31
f 191//31 193//31 199//31
f 191//31 199//31 190//31
f 190//31 199//31 189//31
f 198//31 199//31 197//31
f 197//31 199//31 193//31
f 197//117 193//117 196//117
f 196//118 193//118 195//118
f 201//119 174//119 202//119
f 202//120 174//120 173//120
f 202//121 173//121 203//121
f 203//122 173//122 172//122
f 203//123 172//123 204//123
f 204//124 172//124 171//124
f 204//102 171//102 205//102
f 205//125 171//125 169//125
f 205//104 169//104 206//104
f 206//126 169//126 168//126
f 206//127 168//127 207//127
f 207//128 168//128 167//128
f 207//129 167//129 208//129
f 208//130 167//130 166//130
f 208//130 166//130 209//130
f 209//131 166//131 178//131
f 209//132 178//132 210//132
f 210//112 178//112 177//112
f 210//133 177//133 211//133
f 211//114 177//114 176//114
f 211//134 176//134 212//134
f 212//135 176//135 175//135
f 212//136 175//136 201//136
f 201//119 175//119 174//119
f 206//31 207//31 205//31
f 205//137 207//137 201//137
f 205//31 201//31 204//31
f 204//138 201//138 202//138
f 204//139 202//139 203//139
f 212//31 201//31 211//31
f 211//140 201//140 207//140
f 211//31 207//31 210//31
f 210//31 207//31 208//31
f 210//31 208//31 209//31
f 213//141 181//141 50//141
f 214//142 215//142 216//142
f 51//143 185//143 50//143
f 50//144 185//144 214//144
f 50//145 214//145 213//145
f 213//146 214//146 216//146
f 213//147 216//147 217//147
f 218//148 17//148 219//148
f 219//149 17//149 19//149
f 219//150 19//150 220//150
f 220//151 19//151 20//151
f 220//152 20//152 221//152
f 221//153 20//153 28//153
f 221//154 28//154 222//154
f 222//19 28//19 27//19
f 222//21 27//21 223//21
f 223//155 27//155 26//155
f 223//156 26//156 224//156
f 224//157 26//157 25//157
f 224//158 25//158 225//158
f 225//159 25//159 13//159
f 225//160 13//160 226//160
f 226//161 13//161 11//161
f 226//162 11//162 227//162
f 227//163 11//163 9//163
f 227//164 9//164 228//164
f 228//165 9//165 8//165
f 228//166 8//166 229//166
f 229//30 8//30 24//30
f 229//31 24//31 230//31
f 230//167 24//167 23//167
f 230//168 23//168 231//168
f 231//169 23//169 15//169
f 231//170 15//170 218//170
f 218//171 15//171 17//171
f 227//1 220//1 226//1
f 226//172 220//172 221//172
f 226//173 221//173 225//173
f 225//174 221//174 222//174
f 225//175 222//175 224//175
f 224//1 222//1 223//1
f 231//176 218//176 219//176
f 229//177 230//177 228//177
f 228//178 230//178 231//178
f 228//1 231//1 227//1
f 227//179 231//179 219//179
f 227//180 219//180 220//180
f 56//181 55//181 232//181
f 56//181 232//181 233//181
f 233//182 232//182 234//182
f 233//182 234//182 235//182
f 235//183 234//183 59//183
f 235//184 59//184 60//184
f 18//133 16//133 54//133
f 18//185 54//185 236//185
f 236//186 54//186 53//186
f 236//187 53//187 237//187
f 237//188 53//188 52//188
f 237//188 52//188 56//188
f 56//189 238//189 237//189
f 239//190 238//190 56//190
f 233//191 239//191 56//191
f 233//192 235//192 239//192
f 239//193 235//193 240//193
f 239//194 240//194 238//194
f 238//195 240//195 241//195
f 238//196 241//196 237//196
f 237//197 241//197 236//197
f 235//198 60//198 240//198
f 240//199 60//199 242//199
f 240//200 242//200 241//200
f 241//201 242//201 243//201
f 241//202 243//202 236//202
f 236//203 243//203 18//203
f 5//204 18//204 243//204
f 5//205 243//205 244//205
f 244//206 243//206 242//206
f 244//206 242//206 245//206
f 245//207 242//207 60//207
f 245//208 60//208 58//208
f 142//209 163//209 246//209
f 246//210 163//210 170//210
f 246//211 170//211 180//211
f 126//212 129//212 247//212
f 247//213 129//213 142//213
f 247//214 142//214 248//214
f 248//215 142//215 246//215
f 248//216 246//216 249//216
f 249//217 246//217 250//217
f 250//218 246//218 251//218
f 250//219 251//219 252//219
f 252//220 251//220 186//220
f 252//221 186//221 187//221
f 186//222 253//222 185//222
f 185//223 253//223 214//223
f 254//224 255//224 215//224
f 215//225 255//225 216//225
f 214//226 253//226 215//226
f 215//227 253//227 256//227
f 215//228 256//228 254//228
f 216//229 255//229 217//229
f 217//230 255//230 257//230
f 217//231 257//231 213//231
f 213//232 257//232 181//232
f 181//233 257//233 258//233
f 181//234 258//234 182//234
f 259//235 260//235 261//235
f 256//236 262//236 254//236
f 253//237 186//237 251//237
f 254//238 262//238 255//238
f 255//239 262//239 261//239
f 255//240 261//240 257//240
f 257//241 261//241 258//241
f 258//242 261//242 260//242
f 258//243 260//243 182//243
f 256//244 253//244 262//244
f 262//245 253//245 251//245
f 262//246 251//246 261//246
f 261//247 251//247 246//247
f 261//248 246//248 259//248
f 259//249 246//249 180//249
f 63//250 62//250 263//250
f 259//251 180//251 179//251
f 179//252 63//252 259//252
f 259//253 63//253 263//253
f 259//254 263//254 260//254
f 260//255 263//255 264//255
f 260//256 264//256 182//256
f 182//256 264//256 184//256
f 34//257 43//257 265//257
f 265//257 43//257 266//257
f 267//258 268//258 269//258
f 269//259 268//259 270//259
f 269//260 270//260 271//260
f 271//258 270//258 272//258
f 273//108 151//108 274//108
f 274//109 151//109 150//109
f 274//109 150//109 275//109
f 275//261 150//261 147//261
f 275//132 147//132 276//132
f 276//112 147//112 148//112
f 276//262 148//262 277//262
f 277//114 148//114 149//114
f 277//114 149//114 278//114
f 278//263 149//263 146//263
f 278//264 146//264 279//264
f 279//97 146//97 145//97
f 279//97 145//97 280//97
f 280//98 145//98 144//98
f 280//99 144//99 281//99
f 281//265 144//265 143//265
f 281//266 143//266 282//266
f 282//102 143//102 141//102
f 282//102 141//102 283//102
f 283//267 141//267 140//267
f 283//104 140//104 284//104
f 284//126 140//126 152//126
f 284//268 152//268 273//268
f 273//107 152//107 151//107
f 283//31 284//31 273//31
f 277//31 278//31 279//31
f 276//31 277//31 275//31
f 275//31 277//31 283//31
f 275//117 283//117 274//117
f 274//118 283//118 273//118
f 282//31 283//31 281//31
f 281//31 283//31 277//31
f 281//31 277//31 280//31
f 280//31 277//31 279//31
f 285//129 138//129 286//129
f 286//130 138//130 137//130
f 286//130 137//130 287//130
f 287//131 137//131 136//131
f 287//269 136//269 288//269
f 288//133 136//133 135//133
f 288//112 135//112 289//112
f 289//134 135//134 134//134
f 289//114 134//114 290//114
f 290//115 134//115 133//115
f 290//136 133//136 291//136
f 291//119 133//119 130//119
f 291//119 130//119 292//119
f 292//120 130//120 131//120
f 292//121 131//121 293//121
f 293//122 131//122 132//122
f 293//101 132//101 294//101
f 294//102 132//102 128//102
f 294//124 128//124 295//124
f 295//104 128//104 127//104
f 295//125 127//125 296//125
f 296//270 127//270 139//270
f 296//127 139//127 285//127
f 285//128 139//128 138//128
f 290//31 291//31 289//31
f 289//271 291//271 285//271
f 289//31 285//31 288//31
f 288//31 285//31 286//31
f 288//31 286//31 287//31
f 296//31 285//31 295//31
f 295//272 285//272 291//272
f 295//31 291//31 294//31
f 294//138 291//138 292//138
f 294//139 292//139 293//139
f 297//273 298//273 299//273
f 188//274 42//274 299//274
f 299//275 42//275 44//275
f 300//276 297//276 301//276
f 301//277 297//277 299//277
f 301//278 299//278 272//278
f 272//279 299//279 44//279
f 272//280 44//280 271//280
f 302//160 6//160 303//160
f 303//161 6//161 4//161
f 303//162 4//162 304//162
f 304//281 4//281 2//281
f 304//163 2//163 305//163
f 305//165 2//165 1//165
f 305//166 1//166 306//166
f 306//30 1//30 32//30
f 306//31 32//31 307//31
f 307//167 32//167 31//167
f 307//168 31//168 308//168
f 308//170 31//170 30//170
f 308//282 30//282 309//282
f 309//171 30//171 29//171
f 309//148 29//148 310//148
f 310//149 29//149 10//149
f 310//150 10//150 311//150
f 311//152 10//152 12//152
f 311//283 12//283 312//283
f 312//153 12//153 14//153
f 312//154 14//154 313//154
f 313//19 14//19 22//19
f 313//21 22//21 314//21
f 314//155 22//155 21//155
f 314//156 21//156 315//156
f 315//284 21//284 7//284
f 315//157 7//157 302//157
f 302//159 7//159 6//159
f 307//177 308//177 306//177
f 306//285 308//285 309//285
f 306//173 309//173 305//173
f 305//286 309//286 310//286
f 305//1 310//1 304//1
f 310//1 311//1 304//1
f 304//287 311//287 312//287
f 304//288 312//288 313//288
f 302//1 303//1 315//1
f 315//289 303//289 304//289
f 315//1 304//1 314//1
f 314//1 304//1 313//1
f 58//290 57//290 316//290
f 58//291 316//291 317//291
f 317//292 316//292 318//292
f 317//292 318//292 319//292
f 319//293 318//293 265//293
f 319//293 265//293 266//293
f 266//294 43//294 41//294
f 266//294 41//294 320//294
f 320//295 41//295 40//295
f 320//296 40//296 321//296
f 321//134 40//134 3//134
f 321//297 3//297 5//297
f 266//298 322//298 319//298
f 323//299 322//299 266//299
f 320//300 323//300 266//300
f 320//301 321//301 323//301
f 323//302 321//302 324//302
f 323//303 324//303 322//303
f 322//304 324//304 325//304
f 322//305 325//305 319//305
f 319//306 325//306 317//306
f 321//307 5//307 324//307
f 324//308 5//308 244//308
f 324//309 244//309 325//309
f 325//310 244//310 245//310
f 325//311 245//311 317//311
f 317//312 245//312 58//312
f 298//313 297//313 326//313
f 326//314 297//314 327//314
f 327//315 297//315 300//315
f 327//316 300//316 328//316
f 328//317 300//317 301//317
f 328//318 301//318 329//318
f 329//319 301//319 272//319
f 329//320 272//320 270//320
f 326//321 330//321 298//321
f 298//322 330//322 331//322
f 298//323 331//323 299//323
f 331//324 332//324 299//324
f 299//325 332//325 187//325
f 299//326 187//326 188//326
f 333//327 330//327 326//327
f 329//328 334//328 328//328
f 328//329 334//329 333//329
f 328//330 333//330 327//330
f 327//331 333//331 326//331
f 329//332 270//332 334//332
f 334//333 270//333 335//333
f 334//334 335//334 336//334
f 187//335 332//335 252//335
f 252//336 332//336 331//336
f 252//337 331//337 250//337
f 250//338 331//338 330//338
f 250//339 330//339 249//339
f 249//340 330//340 333//340
f 249//341 333//341 248//341
f 248//342 333//342 334//342
f 248//343 334//343 247//343
f 247//344 334//344 336//344
f 247//345 336//345 126//345
f 79//346 126//346 336//346
f 337//347 71//347 72//347
f 72//348 79//348 337//348
f 337//349 79//349 336//349
f 337//350 336//350 338//350
f 338//351 336//351 335//351
f 338//352 335//352 268//352
f 268//352 335//352 270//352
f 269//353 271//353 45//353
f 45//353 271//353 44//353
f 339//354 340//354 341//354
f 342//355 343//355 344//355
f 344//356 343//356 345//356
f 344//355 345//355 47//355
f 47//357 345//357 346//357
f 47//358 346//358 347//358
f 348//355 349//355 48//355
f 48//358 349//358 350//358
f 48//355 350//355 351//355
f 351//359 350//359 352//359
f 351//356 352//356 353//356
f 353//355 354//355 351//355
f 351//355 354//355 355//355
f 351//360 355//360 340//360
f 347//355 356//355 47//355
f 47//361 356//361 357//361
f 47//362 357//362 48//362
f 48//363 357//363 358//363
f 48//364 358//364 359//364
f 339//355 360//355 340//355
f 340//365 360//365 361//365
f 340//355 361//355 351//355
f 351//366 361//366 362//366
f 351//367 362//367 344//367
f 344//360 362//360 363//360
f 344//355 363//355 342//355
f 341//355 364//355 339//355
f 339//368 364//368 365//368
f 339//355 365//355 359//355
f 365//369 366//369 359//369
f 359//370 366//370 367//370
f 359//371 367//371 48//371
f 48//355 367//355 368//355
f 48//361 368//361 348//361
f 369//355 33//355 370//355
f 370//355 33//355 38//355
f 370//372 38//372 371//372
f 371//373 38//373 372//373
f 373//374 101//374 374//374
f 374//98 101//98 100//98
f 374//98 100//98 375//98
f 375//100 100//100 109//100
f 375//101 109//101 376//101
f 376//102 109//102 111//102
f 376//103 111//103 377//103
f 377//104 111//104 112//104
f 377//104 112//104 378//104
f 378//105 112//105 108//105
f 378//106 108//106 379//106
f 379//107 108//107 107//107
f 379//107 107//107 380//107
f 380//109 107//109 106//109
f 380//375 106//375 381//375
f 381//110 106//110 103//110
f 381//111 103//111 382//111
f 382//112 103//112 104//112
f 382//112 104//112 383//112
f 383//113 104//113 105//113
f 383//114 105//114 384//114
f 384//115 105//115 102//115
f 384//116 102//116 373//116
f 373//97 102//97 101//97
f 383//31 384//31 373//31
f 377//31 378//31 379//31
f 376//31 377//31 375//31
f 375//31 377//31 383//31
f 375//376 383//376 374//376
f 374//377 383//377 373//377
f 382//31 383//31 381//31
f 381//31 383//31 377//31
f 381//31 377//31 380//31
f 380//31 377//31 379//31
f 385//378 125//378 386//378
f 386//120 125//120 124//120
f 386//120 124//120 387//120
f 387//122 124//122 123//122
f 387//123 123//123 388//123
f 388//124 123//124 122//124
f 388//102 122//102 389//102
f 389//125 122//125 120//125
f 389//104 120//104 390//104
f 390//126 120//126 119//126
f 390//127 119//127 391//127
f 391//128 119//128 114//128
f 391//128 114//128 392//128
f 392//130 114//130 113//130
f 392//379 113//379 393//379
f 393//131 113//131 118//131
f 393//132 118//132 394//132
f 394//112 118//112 117//112
f 394//133 117//133 395//133
f 395//114 117//114 116//114
f 395//134 116//134 396//134
f 396//135 116//135 115//135
f 396//136 115//136 385//136
f 385//119 115//119 125//119
f 390//31 391//31 389//31
f 389//272 391//272 385//272
f 389//31 385//31 388//31
f 388//31 385//31 386//31
f 388//31 386//31 387//31
f 396//31 385//31 395//31
f 395//271 385//271 391//271
f 395//31 391//31 394//31
f 394//380 391//380 392//380
f 394//381 392//381 393//381
f 397//382 398//382 399//382
f 372//383 38//383 399//383
f 399//384 38//384 49//384
f 400//385 397//385 401//385
f 401//386 397//386 399//386
f 401//387 399//387 183//387
f 183//388 399//388 49//388
f 402//150 352//150 403//150
f 403//389 352//389 350//389
f 403//390 350//390 404//390
f 404//169 350//169 349//169
f 404//170 349//170 405//170
f 405//167 349//167 348//167
f 405//168 348//168 406//168
f 406//30 348//30 368//30
f 406//31 368//31 407//31
f 407//165 368//165 367//165
f 407//166 367//166 408//166
f 408//163 367//163 366//163
f 408//164 366//164 409//164
f 409//391 366//391 365//391
f 409//392 365//392 410//392
f 410//159 365//159 364//159
f 410//160 364//160 411//160
f 411//157 364//157 341//157
f 411//158 341//158 412//158
f 412//393 341//393 340//393
f 412//394 340//394 413//394
f 413//19 340//19 355//19
f 413//21 355//21 414//21
f 414//395 355//395 354//395
f 414//396 354//396 415//396
f 415//151 354//151 353//151
f 415//152 353//152 402//152
f 402//149 353//149 352//149
f 407//397 408//397 406//397
f 406//398 408//398 409//398
f 406//399 409//399 405//399
f 405//400 409//400 410//400
f 405//355 410//355 404//355
f 410//355 411//355 404//355
f 404//401 411//401 412//401
f 404//402 412//402 413//402
f 402//355 403//355 415//355
f 415//403 403//403 404//403
f 415//355 404//355 414//355
f 414//355 404//355 413//355
f 55//404 39//404 37//404
f 55//404 37//404 416//404
f 416//405 37//405 36//405
f 416//406 36//406 417//406
f 417//125 36//125 48//125
f 417//407 48//407 351//407
f 55//408 418//408 232//408
f 419//409 418//409 55//409
f 416//410 419//410 55//410
f 416//411 417//411 419//411
f 419//412 417//412 420//412
f 419//413 420//413 418//413
f 418//414 420//414 421//414
f 418//415 421//415 232//415
f 232//416 421//416 234//416
f 417//417 351//417 420//417
f 420//418 351//418 422//418
f 420//419 422//419 421//419
f 421//420 422//420 423//420
f 421//421 423//421 234//421
f 234//422 423//422 59//422
f 57//423 59//423 423//423
f 57//424 423//424 424//424
f 424//425 423//425 422//425
f 424//425 422//425 425//425
f 425//426 422//426 351//426
f 425//427 351//427 344//427
f 69//428 71//428 426//428
f 370//429 371//429 427//429
f 370//430 427//430 428//430
f 428//431 427//431 429//431
f 428//432 429//432 426//432
f 426//433 429//433 430//433
f 426//434 430//434 431//434
f 432//435 62//435 61//435
f 432//436 61//436 431//436
f 431//437 61//437 65//437
f 431//438 65//438 426//438
f 426//439 65//439 67//439
f 426//440 67//440 69//440
f 398//441 397//441 433//441
f 433//442 397//442 434//442
f 434//443 397//443 400//443
f 434//444 400//444 435//444
f 435//445 400//445 401//445
f 435//446 401//446 436//446
f 436//447 401//447 183//447
f 436//448 183//448 184//448
f 433//449 437//449 398//449
f 398//450 437//450 438//450
f 398//451 438//451 399//451
f 438//452 439//452 399//452
f 399//453 439//453 371//453
f 399//454 371//454 372//454
f 440//455 437//455 433//455
f 436//456 441//456 435//456
f 435//457 441//457 440//457
f 435//458 440//458 434//458
f 434//459 440//459 433//459
f 436//460 184//460 441//460
f 441//461 184//461 264//461
f 441//462 264//462 263//462
f 371//463 439//463 427//463
f 427//464 439//464 438//464
f 427//465 438//465 429//465
f 429//466 438//466 437//466
f 429//467 437//467 430//467
f 430//468 437//468 440//468
f 430//469 440//469 431//469
f 431//470 440//470 441//470
f 431//471 441//471 432//471
f 432//472 441//472 263//472
f 432//473 263//473 62//473
f 442//107 98//107 443//107
f 443//109 98//109 97//109
f 443//375 97//375 444//375
f 444//261 97//261 94//261
f 444//132 94//132 445//132
f 445//112 94//112 95//112
f 445//262 95//262 446//262
f 446//114 95//114 96//114
f 446//114 96//114 447//114
f 447//263 96//263 93//263
f 447//264 93//264 448//264
f 448//97 93//97 92//97
f 448//374 92//374 449//374
f 449//98 92//98 91//98
f 449//98 91//98 450//98
f 450//265 91//265 90//265
f 450//266 90//266 451//266
f 451//102 90//102 88//102
f 451//102 88//102 452//102
f 452//267 88//267 87//267
f 452//104 87//104 453//104
f 453//126 87//126 99//126
f 453//268 99//268 442//268
f 442//107 99//107 98//107
f 452//31 453//31 442//31
f 446//31 447//31 448//31
f 445//31 446//31 444//31
f 444//31 446//31 452//31
f 444//31 452//31 443//31
f 443//31 452//31 442//31
f 451//31 452//31 450//31
f 450//31 452//31 446//31
f 450//376 446//376 449//376
f 449//377 446//377 448//377
f 454//128 78//128 455//128
f 455//130 78//130 77//130
f 455//379 77//379 456//379
f 456//131 77//131 76//131
f 456//269 76//269 457//269
f 457//133 76//133 75//133
f 457//112 75//112 458//112
f 458//134 75//134 74//134
f 458//114 74//114 459//114
f 459//115 74//115 73//115
f 459//136 73//136 460//136
f 460//119 73//119 86//119
f 460//378 86//378 461//378
f 461//120 86//120 85//120
f 461//120 85//120 462//120
f 462//122 85//122 84//122
f 462//101 84//101 463//101
f 463//102 84//102 82//102
f 463//124 82//124 464//124
f 464//104 82//104 81//104
f 464//125 81//125 465//125
f 465//270 81//270 80//270
f 465//127 80//127 454//127
f 454//128 80//128 78//128
f 459//31 460//31 458//31
f 458//474 460//474 454//474
f 458//31 454//31 457//31
f 457//380 454//380 455//380
f 457//381 455//381 456//381
f 465//31 454//31 464//31
f 464//475 454//475 460//475
f 464//31 460//31 463//31
f 463//31 460//31 461//31
f 463//31 461//31 462//31
f 33//476 369//476 45//476
f 45//477 369//477 466//477
f 466//478 467//478 468//478
f 269//479 45//479 267//479
f 267//480 45//480 466//480
f 267//481 466//481 469//481
f 469//482 466//482 468//482
f 469//483 468//483 470//483
f 471//392 345//392 472//392
f 472//159 345//159 343//159
f 472//160 343//160 473//160
f 473//284 343//284 342//284
f 473//157 342//157 474//157
f 474//393 342//393 363//393
f 474//394 363//394 475//394
f 475//19 363//19 362//19
f 475//21 362//21 476//21
f 476//395 362//395 361//395
f 476//396 361//396 477//396
f 477//152 361//152 360//152
f 477//283 360//283 478//283
f 478//149 360//149 339//149
f 478//150 339//150 479//150
f 479//389 339//389 359//389
f 479//390 359//390 480//390
f 480//170 359//170 358//170
f 480//282 358//282 481//282
f 481//167 358//167 357//167
f 481//168 357//168 482//168
f 482//30 357//30 356//30
f 482//31 356//31 483//31
f 483//165 356//165 347//165
f 483//166 347//166 484//166
f 484//281 347//281 346//281
f 484//163 346//163 471//163
f 471//391 346//391 345//391
f 480//355 473//355 479//355
f 479//484 473//484 474//484
f 479//399 474//399 478//399
f 478//485 474//485 475//485
f 478//486 475//486 477//486
f 477//355 475//355 476//355
f 484//487 471//487 472//487
f 482//397 483//397 481//397
f 481//488 483//488 484//488
f 481//355 484//355 480//355
f 480//489 484//489 472//489
f 480//490 472//490 473//490
f 344//124 47//124 46//124
f 344//491 46//491 485//491
f 485//492 46//492 35//492
f 485//493 35//493 486//493
f 486//494 35//494 34//494
f 486//494 34//494 265//494
f 265//495 487//495 486//495
f 488//496 487//496 265//496
f 318//497 488//497 265//497
f 318//498 316//498 488//498
f 488//499 316//499 489//499
f 488//500 489//500 487//500
f 487//501 489//501 490//501
f 487//502 490//502 486//502
f 486//503 490//503 485//503
f 316//504 57//504 489//504
f 489//505 57//505 424//505
f 489//506 424//506 490//506
f 490//507 424//507 425//507
f 490//508 425//508 485//508
f 485//509 425//509 344//509
f 370//510 491//510 369//510
f 369//511 491//511 466//511
f 492//512 493//512 467//512
f 467//513 493//513 468//513
f 466//514 491//514 467//514
f 467//515 491//515 494//515
f 467//516 494//516 492//516
f 468//517 493//517 470//517
f 470//518 493//518 495//518
f 470//519 495//519 469//519
f 469//520 495//520 267//520
f 267//521 495//521 496//521
f 267//522 496//522 268//522
f 337//523 338//523 497//523
f 494//524 498//524 492//524
f 491//525 370//525 428//525
f 492//526 498//526 493//526
f 493//527 498//527 497//527
f 493//528 497//528 495//528
f 495//529 497//529 496//529
f 496//530 497//530 338//530
f 496//531 338//531 268//531
f 494//532 491//532 498//532
f 498//533 491//533 428//533
f 498//534 428//534 497//534
f 497//535 428//535 426//535
f 497//536 426//536 337//536
f 337//537 426//537 71//537
# Vertices: 498, normals: 537, texture coordinates: 0, faces: 992

