# File generated by ImageToStl.com - Free Image and 3D model conversion tools

o obj1
v 0.215 0.16296497 0.00112253
v 0.215 0.21250001 0.05065756
v 0.155 0.16296497 0.00112253
v 0.155 0.21250001 0.05065756
v 0.215 0.2140875 0.05
v 0.215 0.1640875 0
v 0.155 0.2140875 0.05
v 0.155 0.1640875 0
v 0.215 0.2140875 0.208
v 0.155 0.2140875 0.208
v 0.155 0.19640984 0.22567767
v 0.155 0.1952873 0.22455513
v 0.19402251 0.19640984 0.22567767
v 0.19402251 0.1952873 0.22455513
v 0.21444824 0.21250001 0.20734243
v 0.155 0.21250001 0.20734243
v 0.215 0.21250001 0.20641249
v 0.215 0.21250001 -0.20641249
v 0.215 0.2140875 -0.208
v 0.215 0.21250001 -0.05065756
v 0.215 0.2140875 -0.05
v 0.215 0.16296497 -0.00112253
v 0.155 0.19640984 -0.22567767
v 0.155 0.1952873 -0.22455513
v 0.155 0.2140875 -0.208
v 0.155 0.21250001 -0.20734243
v 0.155 0.2140875 -0.05
v 0.155 0.21250001 -0.05065756
v 0.155 0.16296497 -0.00112253
v 0.19150941 0.19541459 0.22891799
v 0.19150941 0.19429205 0.22779545
v 0.215 0.21521004 0.20912254
v 0.01 0.17278363 0.25154895
v -0.01 0.17278363 0.25154895
v 0.01 0.17166109 0.25042641
v -0.01 0.17166109 0.25042641
v -0.215 0.2140875 0.208
v -0.215 0.21521004 0.20912254
v -0.155 0.2140875 0.208
v -0.19150941 0.19541459 0.22891799
v -0.19150941 0.19429205 0.22779545
v -0.19402251 0.19640984 0.22567767
v -0.155 0.19640984 0.22567767
v 0.19402251 0.1952873 -0.22455513
v 0.19402251 0.19640984 -0.22567767
v 0.21444824 0.21250001 -0.20734243
v 0.19150941 0.19429205 -0.22779545
v 0.19150941 0.19541459 -0.22891799
v 0.215 0.21521004 -0.20912254
v -0.01 0.17278363 -0.25154895
v 0.01 0.17278363 -0.25154895
v -0.01 0.17166109 -0.25042641
v 0.01 0.17166109 -0.25042641
v -0.215 0.21521004 -0.20912254
v -0.155 0.2140875 -0.208
v -0.215 0.2140875 -0.208
v -0.19150941 0.19541459 -0.22891799
v -0.19402251 0.19640984 -0.22567767
v -0.19150941 0.19429205 -0.22779545
v -0.155 0.19640984 -0.22567767
v -0.215 0.21250001 0.05065756
v -0.215 0.16296497 0.00112253
v -0.155 0.21250001 0.05065756
v -0.155 0.16296497 0.00112253
v -0.215 0.1640875 0
v -0.215 0.2140875 0.05
v -0.155 0.1640875 0
v -0.155 0.2140875 0.05
v -0.155 0.1952873 0.22455513
v -0.19402251 0.1952873 0.22455513
v -0.155 0.21250001 0.20734243
v -0.21444824 0.21250001 0.20734243
v -0.215 0.21250001 0.20641249
v -0.215 0.21250001 -0.20641249
v -0.215 0.2140875 -0.05
v -0.215 0.21250001 -0.05065756
v -0.215 0.16296497 -0.00112253
v -0.155 0.1952873 -0.22455513
v -0.155 0.21250001 -0.20734243
v -0.155 0.21250001 -0.05065756
v -0.155 0.2140875 -0.05
v -0.155 0.16296497 -0.00112253
v -0.19402251 0.1952873 -0.22455513
v -0.21444824 0.21250001 -0.20734243
vn 0 -0.70711 0.70711
vn 0 -0.70711 0.70711
vn 0 0.70711 -0.70711
vn 0 0.70711 -0.70711
vn 0 1 0
vn 0 -0.70711 0.7071
vn 0 -0.7071 0.70711
vn 0 -0.70711 -0.70711
vn 0 -0.70711 -0.70711
vn 0 -1 0
vn 0 -1 0
vn 1 0 0
vn 1 -3E-05 0
vn 1 -3E-05 0
vn 1 0 0
vn 1 2E-05 0
vn 1 2E-05 0
vn -1 1E-05 0
vn -1 0 0
vn -1 -1E-05 0
vn -1 2E-05 0
vn -1 1E-05 0
vn -1 -3E-05 0
vn -1 1E-05 0
vn -1 0 0
vn -1 -2E-05 0
vn 0.76604 -0.45453 0.45453
vn 0.76611 -0.45448 0.45445
vn 0.76605 -0.45452 0.45451
vn 0.76603 -0.45452 0.45453
vn 0.76604 -0.45452 0.45452
vn 0.76604 -0.45452 0.45451
vn 0 -0.70711 0.7071
vn 0 -0.7071 0.70711
vn 0.17365 -0.69636 0.69637
vn 0.17365 -0.69636 0.69636
vn 0 0.70711 -0.7071
vn 0 0.7071 -0.70711
vn 0 0.70711 -0.7071
vn 0 0.7071 0.70711
vn 0 0.70711 0.70711
vn -0 0.70711 0.70711
vn 0 0.70711 0.70711
vn 0 -0.7071 -0.70711
vn -0 -0.70711 -0.70711
vn 0 -0.70711 -0.7071
vn 0 -0.70711 -0.70711
vn 0 -0.7071 -0.70711
vn 0 -0.70711 -0.70711
vn -0 -0.70711 -0.70711
vn 0 -0.70711 -0.70711
vn 0 -0.70711 -0.70711
vn 0 0.70711 0.70711
vn 0 0.70711 0.70711
vn 0 -0.7071 -0.70711
vn 0 -0.70711 -0.7071
vn 0 -0.70711 0.70711
vn 0 -0.70711 0.70711
vn 0.76605 -0.45452 -0.45451
vn 0.76605 -0.45451 -0.45451
vn 0.76604 -0.45452 -0.45452
vn 0.76604 -0.45453 -0.45452
vn 0.76603 -0.45452 -0.45453
vn 0.76605 -0.45453 -0.45451
vn 0 -0.70711 -0.7071
vn 0 -0.7071 -0.70711
vn 0.17365 -0.69636 -0.69636
vn 0.17365 -0.69636 -0.69636
vn 0 0.70711 0.7071
vn 0 0.7071 0.70711
vn 0 0.70711 0.7071
vn -0 0.70711 -0.70711
vn 0 0.70711 -0.70711
vn 0 0.70711 -0.70711
vn 0 0.70711 -0.70711
vn 0 -0.7071 0.70711
vn 0 -0.70711 0.70711
vn -0 -0.70711 0.7071
vn 0 -0.70711 0.70711
vn 0 -0.7071 0.70711
vn -0 -0.70711 0.70711
vn 0 -0.70711 0.70711
vn 0 -0.70711 0.70711
vn 0 0.70711 -0.70711
vn 0 0.70711 -0.70711
vn 0 -0.7071 0.70711
vn 0 -0.70711 0.7071
vn 0 -0.70711 -0.70711
vn 0 -0.70711 -0.70711
vn -1 -3E-05 0
vn -1 -3E-05 0
vn -1 2E-05 0
vn -1 2E-05 0
vn 1 1E-05 0
vn 1 -1E-05 0
vn 1 2E-05 0
vn 1 1E-05 0
vn 1 -3E-05 0
vn 1 1E-05 0
vn 1 -2E-05 0
vn -0.76605 -0.45452 0.45451
vn -0.76605 -0.45451 0.45451
vn -0.76604 -0.45452 0.45452
vn -0.76604 -0.45453 0.45452
vn -0.76603 -0.45452 0.45453
vn -0.76605 -0.45453 0.45451
vn -0.17365 -0.69636 0.69636
vn -0.17365 -0.69636 0.69636
vn 0 0.70711 0.70711
vn 0 0.70711 0.70711
vn 0 -0.70711 -0.7071
vn 0 -0.7071 -0.70711
vn 0 -0.70711 0.70711
vn -0.76604 -0.45453 -0.45453
vn -0.76611 -0.45448 -0.45445
vn -0.76605 -0.45452 -0.45451
vn -0.76603 -0.45452 -0.45453
vn -0.76604 -0.45452 -0.45452
vn -0.76604 -0.45452 -0.45451
vn -0.17365 -0.69636 -0.69637
vn -0.17365 -0.69636 -0.69636
f 1//1 2//1 3//1
f 3//2 2//2 4//2
f 5//3 6//3 7//3
f 7//4 6//4 8//4
f 9//5 5//5 10//5
f 10//5 5//5 7//5
f 11//6 12//6 13//6
f 13//7 12//7 14//7
f 14//8 12//8 15//8
f 15//9 12//9 16//9
f 15//10 16//10 17//10
f 17//11 16//11 4//11
f 17//10 4//10 2//10
f 9//12 17//12 5//12
f 5//13 17//13 2//13
f 5//12 2//12 6//12
f 18//12 19//12 20//12
f 20//14 19//14 21//14
f 20//15 21//15 22//15
f 22//16 21//16 6//16
f 22//12 6//12 1//12
f 1//17 6//17 2//17
f 23//18 24//18 25//18
f 25//19 24//19 26//19
f 25//19 26//19 27//19
f 27//20 26//20 28//20
f 27//21 28//21 8//21
f 12//22 11//22 16//22
f 16//19 11//19 10//19
f 16//23 10//23 4//23
f 4//24 10//24 7//24
f 4//25 7//25 3//25
f 3//19 7//19 8//19
f 3//19 8//19 29//19
f 29//26 8//26 28//26
f 30//27 31//27 32//27
f 32//28 31//28 13//28
f 17//29 9//29 15//29
f 15//30 9//30 32//30
f 15//31 32//31 14//31
f 14//32 32//32 13//32
f 33//33 34//33 35//33
f 35//34 34//34 36//34
f 30//35 33//35 31//35
f 31//36 33//36 35//36
f 37//37 38//37 39//37
f 39//38 38//38 32//38
f 39//39 32//39 10//39
f 10//37 32//37 9//37
f 33//40 30//40 34//40
f 34//41 30//41 32//41
f 34//42 32//42 40//42
f 40//43 32//43 38//43
f 13//44 31//44 11//44
f 11//45 31//45 35//45
f 41//46 42//46 36//46
f 36//47 42//47 43//47
f 36//48 43//48 35//48
f 35//49 43//49 39//49
f 35//50 39//50 11//50
f 11//51 39//51 10//51
f 29//10 22//10 3//10
f 3//10 22//10 1//10
f 20//8 22//8 28//8
f 28//52 22//52 29//52
f 6//53 21//53 8//53
f 8//54 21//54 27//54
f 21//5 19//5 27//5
f 27//5 19//5 25//5
f 24//55 23//55 44//55
f 44//56 23//56 45//56
f 24//57 44//57 26//57
f 26//58 44//58 46//58
f 20//10 28//10 18//10
f 18//11 28//11 26//11
f 18//10 26//10 46//10
f 46//59 44//59 45//59
f 47//60 48//60 45//60
f 45//61 48//61 49//61
f 45//62 49//62 46//62
f 46//63 49//63 19//63
f 46//64 19//64 18//64
f 50//65 51//65 52//65
f 52//66 51//66 53//66
f 51//67 48//67 53//67
f 53//68 48//68 47//68
f 19//69 49//69 25//69
f 25//70 49//70 54//70
f 25//71 54//71 55//71
f 55//69 54//69 56//69
f 57//72 54//72 50//72
f 50//73 54//73 49//73
f 50//74 49//74 51//74
f 51//75 49//75 48//75
f 58//76 59//76 60//76
f 60//77 59//77 52//77
f 47//78 45//78 53//78
f 53//79 45//79 23//79
f 53//80 23//80 52//80
f 52//81 23//81 25//81
f 52//82 25//82 60//82
f 60//83 25//83 55//83
f 61//1 62//1 63//1
f 63//2 62//2 64//2
f 65//84 66//84 67//84
f 67//85 66//85 68//85
f 66//5 37//5 68//5
f 68//5 37//5 39//5
f 69//86 43//86 70//86
f 70//87 43//87 42//87
f 69//88 70//88 71//88
f 71//89 70//89 72//89
f 61//10 63//10 73//10
f 73//11 63//11 71//11
f 73//10 71//10 72//10
f 56//19 74//19 75//19
f 75//90 74//90 76//90
f 75//19 76//19 65//19
f 73//19 37//19 61//19
f 61//91 37//91 66//91
f 61//25 66//25 62//25
f 62//92 66//92 65//92
f 62//19 65//19 77//19
f 77//93 65//93 76//93
f 43//94 69//94 39//94
f 39//12 69//12 71//12
f 39//12 71//12 68//12
f 68//95 71//95 63//95
f 68//96 63//96 67//96
f 78//97 60//97 79//97
f 79//12 60//12 55//12
f 79//98 55//98 80//98
f 80//99 55//99 81//99
f 80//15 81//15 82//15
f 82//12 81//12 67//12
f 82//12 67//12 64//12
f 64//100 67//100 63//100
f 72//101 70//101 42//101
f 41//102 40//102 42//102
f 42//103 40//103 38//103
f 42//104 38//104 72//104
f 72//105 38//105 37//105
f 72//106 37//106 73//106
f 34//107 40//107 36//107
f 36//108 40//108 41//108
f 77//10 82//10 62//10
f 62//10 82//10 64//10
f 77//8 76//8 82//8
f 82//52 76//52 80//52
f 75//109 65//109 81//109
f 81//110 65//110 67//110
f 56//5 75//5 55//5
f 55//5 75//5 81//5
f 60//111 78//111 58//111
f 58//112 78//112 83//112
f 83//1 78//1 84//1
f 84//113 78//113 79//113
f 84//10 79//10 74//10
f 74//11 79//11 80//11
f 74//10 80//10 76//10
f 57//114 59//114 54//114
f 54//115 59//115 58//115
f 74//116 56//116 84//116
f 84//117 56//117 54//117
f 84//118 54//118 83//118
f 83//119 54//119 58//119
f 57//120 50//120 59//120
f 59//121 50//121 52//121
# Vertices: 84, normals: 121, texture coordinates: 0, faces: 168

