# File generated by ImageToStl.com - Free Image and 3D model conversion tools

o obj1
v 0.04299489 -0.05523983 0
v 0.03331632 -0.06156316 0
v 0.02272896 -0.06620721 0
v -0.06976091 -0.00578055 0
v -0.06976091 0.00578055 0
v 0.06976091 0.00578055 0
v -0.06785802 0.01718398 0
v 0.06976091 -0.00578055 0
v -0.05150067 -0.04740971 0
v -0.04299489 -0.05523983 0
v -0.02272896 -0.06620721 0
v -0.03331632 -0.06156316 0
v -0.06785802 -0.01718398 0
v -0.06410413 -0.02811868 0
v -0.05860166 -0.03828637 0
v -0.04299489 0.05523983 -0
v -0.03331632 0.06156316 -0
v -0.05150067 0.04740971 -0
v -0.05860166 0.03828637 -0
v -0.06410413 0.02811868 0
v -0.02272896 0.06620721 -0
v -0.01152162 0.06904529 -0
v 0 0.07 -0
v 0.03331632 0.06156316 -0
v 0.04299489 0.05523983 -0
v 0.05150067 0.04740971 -0
v 0.05150067 -0.04740971 0
v 0.05860166 -0.03828637 0
v 0.06410413 -0.02811868 0
v 0.06785802 -0.01718398 0
v -0.01152162 -0.06904529 0
v 0 -0.07 0
v 0.01152162 -0.06904529 0
v 0.02272896 0.06620721 -0
v 0.01152162 0.06904529 -0
v 0.05860166 0.03828637 -0
v 0.06410413 0.02811868 0
v 0.06785802 0.01718398 0
v 0.01275608 -0.076443 0.057
v 0.01152162 -0.06904529 0
v 0.02516421 -0.07330084 0.057
v 0.02272896 -0.06620721 0
v 0.03688592 -0.06815922 0.057
v 0.03331632 -0.06156316 0
v 0.04760148 -0.06115839 0.057
v 0.04299489 -0.05523983 0
v 0.0570186 -0.05248932 0.057
v 0.05150067 -0.04740971 0
v 0.0648804 -0.04238848 0.057
v 0.05860166 -0.03828637 0
v 0.07097244 -0.0311314 0.057
v 0.06410413 -0.02811868 0
v 0.07512852 -0.01902512 0.057
v 0.06785802 -0.01718398 0
v 0.0772353 -0.0063999 0.057
v 0.06976091 -0.00578055 0
v 0.0772353 0.0063999 0.057
v 0.06976091 0.00578055 -0
v 0.07512852 0.01902512 0.057
v 0.06785802 0.01718398 -0
v 0.07097244 0.0311314 0.057
v 0.06410413 0.02811868 -0
v 0.0648804 0.04238848 0.057
v 0.05860166 0.03828637 -0
v 0.0570186 0.05248932 0.057
v 0.05150067 0.04740971 -0
v 0.04760148 0.06115839 0.057
v 0.04299489 0.05523983 -0
v 0.03688592 0.06815922 0.057
v 0.03331632 0.06156316 -0
v 0.02516421 0.07330084 0.057
v 0.02272896 0.06620721 -0
v 0.01275608 0.076443 0.057
v 0.01152162 0.06904529 -0
v -0 0.0775 0.057
v -0 0.07 -0
v -0.01275608 0.076443 0.057
v -0.01152162 0.06904529 -0
v -0.02516421 0.07330084 0.057
v -0.02272896 0.06620721 -0
v -0.03688592 0.06815922 0.057
v -0.03331632 0.06156316 -0
v -0.04760148 0.06115839 0.057
v -0.04299489 0.05523983 -0
v -0.0570186 0.05248932 0.057
v -0.05150067 0.04740971 -0
v -0.0648804 0.04238848 0.057
v -0.05860166 0.03828637 -0
v -0.07097244 0.0311314 0.057
v -0.06410413 0.02811868 -0
v -0.07512852 0.01902512 0.057
v -0.06785802 0.01718398 -0
v -0.0772353 0.0063999 0.057
v -0.06976091 0.00578055 -0
v -0.0772353 -0.0063999 0.057
v -0.06976091 -0.00578055 0
v -0.07512852 -0.01902512 0.057
v -0.06785802 -0.01718398 0
v -0.07097244 -0.0311314 0.057
v -0.06410413 -0.02811868 0
v -0.0648804 -0.04238848 0.057
v -0.05860166 -0.03828637 0
v -0.0570186 -0.05248932 0.057
v -0.05150067 -0.04740971 0
v -0.04760148 -0.06115839 0.057
v -0.04299489 -0.05523983 0
v -0.03688592 -0.06815922 0.057
v -0.03331632 -0.06156316 0
v -0.02516421 -0.07330084 0.057
v -0.02272896 -0.06620721 0
v -0.01275608 -0.076443 0.057
v -0.01152162 -0.06904529 0
v 0 -0.0775 0.057
v 0 -0.07 0
v 0 -0.0775 0.08
v -0.01275608 -0.076443 0.08
v -0.02516421 -0.07330084 0.08
v -0.03688592 -0.06815922 0.08
v -0.04760148 -0.06115839 0.08
v -0.0570186 -0.05248932 0.08
v -0.0648804 -0.04238848 0.08
v -0.07097244 -0.0311314 0.08
v -0.07512852 -0.01902512 0.08
v -0.0772353 -0.0063999 0.08
v -0.0772353 0.0063999 0.08
v -0.07512852 0.01902512 0.08
v -0.07097244 0.0311314 0.08
v -0.0648804 0.04238848 0.08
v -0.0570186 0.05248932 0.08
v -0.04760148 0.06115839 0.08
v -0.03688592 0.06815922 0.08
v -0.02516421 0.07330084 0.08
v -0.01275608 0.076443 0.08
v 0 0.0775 0.08
v 0 0.0775 0.057
v 0.01275608 0.076443 0.08
v 0.02516421 0.07330084 0.08
v 0.03688592 0.06815922 0.08
v 0.04760148 0.06115839 0.08
v 0.0570186 0.05248932 0.08
v 0.0648804 0.04238848 0.08
v 0.07097244 0.0311314 0.08
v 0.07512852 0.01902512 0.08
v 0.0772353 0.0063999 0.08
v 0.0772353 -0.0063999 0.08
v 0.07512852 -0.01902512 0.08
v 0.07097244 -0.0311314 0.08
v 0.0648804 -0.04238848 0.08
v 0.0570186 -0.05248932 0.08
v 0.04760148 -0.06115839 0.08
v 0.03688592 -0.06815922 0.08
v 0.02516421 -0.07330084 0.08
v 0.01275608 -0.076443 0.08
v -0 -0.0775 0.08
vn 0 -0 -1
vn 0.21675 -0.96742 -0.13084
vn 0.26982 -0.95398 -0.13084
vn 0.37302 -0.91855 -0.13084
vn 0.42316 -0.89656 -0.13084
vn 0.51912 -0.84462 -0.13084
vn 0.56495 -0.81468 -0.13084
vn 0.65106 -0.74766 -0.13084
vn 0.69134 -0.71058 -0.13084
vn 0.76525 -0.6303 -0.13084
vn 0.79887 -0.5871 -0.13084
vn 0.85855 -0.49575 -0.13084
vn 0.88461 -0.4476 -0.13084
vn 0.92844 -0.34767 -0.13084
vn 0.94622 -0.2959 -0.13084
vn 0.973 -0.19012 -0.13084
vn 0.98201 -0.13612 -0.13084
vn 0.99102 -0.02737 -0.13084
vn 0.99102 0.02737 -0.13084
vn 0.98201 0.13612 -0.13084
vn 0.973 0.19012 -0.13084
vn 0.94622 0.2959 -0.13084
vn 0.92844 0.34767 -0.13084
vn 0.88461 0.4476 -0.13084
vn 0.85855 0.49575 -0.13084
vn 0.79887 0.5871 -0.13084
vn 0.76525 0.6303 -0.13084
vn 0.69134 0.71058 -0.13084
vn 0.65106 0.74766 -0.13084
vn 0.56495 0.81468 -0.13084
vn 0.51912 0.84462 -0.13084
vn 0.42316 0.89656 -0.13084
vn 0.37302 0.91855 -0.13084
vn 0.26982 0.95398 -0.13084
vn 0.21675 0.96742 -0.13084
vn 0.10912 0.98538 -0.13084
vn 0.05456 0.9899 -0.13084
vn -0.05456 0.9899 -0.13084
vn -0.10912 0.98538 -0.13084
vn -0.21675 0.96742 -0.13084
vn -0.26982 0.95398 -0.13084
vn -0.37302 0.91855 -0.13084
vn -0.42316 0.89656 -0.13084
vn -0.51912 0.84462 -0.13084
vn -0.56495 0.81468 -0.13084
vn -0.65106 0.74766 -0.13084
vn -0.69134 0.71058 -0.13084
vn -0.76525 0.6303 -0.13084
vn -0.79887 0.5871 -0.13084
vn -0.85855 0.49575 -0.13084
vn -0.88461 0.4476 -0.13084
vn -0.92844 0.34767 -0.13084
vn -0.94622 0.2959 -0.13084
vn -0.973 0.19012 -0.13084
vn -0.98201 0.13612 -0.13084
vn -0.99102 0.02737 -0.13084
vn -0.99102 -0.02737 -0.13084
vn -0.98201 -0.13612 -0.13084
vn -0.973 -0.19012 -0.13084
vn -0.94622 -0.2959 -0.13084
vn -0.92844 -0.34767 -0.13084
vn -0.88461 -0.4476 -0.13084
vn -0.85855 -0.49575 -0.13084
vn -0.79887 -0.5871 -0.13084
vn -0.76525 -0.6303 -0.13084
vn -0.69134 -0.71058 -0.13084
vn -0.65106 -0.74766 -0.13084
vn -0.56495 -0.81468 -0.13084
vn -0.51912 -0.84462 -0.13084
vn -0.42316 -0.89656 -0.13084
vn -0.37302 -0.91855 -0.13084
vn -0.26982 -0.95398 -0.13084
vn -0.21675 -0.96742 -0.13084
vn -0.10912 -0.98538 -0.13084
vn -0.05456 -0.9899 -0.13084
vn 0.05456 -0.9899 -0.13084
vn 0.10912 -0.98538 -0.13084
vn 0.05503 -0.99848 0
vn -0.05503 -0.99848 0
vn -0.11006 -0.99392 0
vn -0.21863 -0.97581 0
vn -0.27216 -0.96225 0
vn -0.37626 -0.92652 0
vn -0.42683 -0.90433 0
vn -0.52363 -0.85195 0
vn -0.56985 -0.82175 0
vn -0.65671 -0.75414 0
vn -0.69734 -0.71674 0
vn -0.77188 -0.63577 0
vn -0.8058 -0.59219 0
vn -0.866 -0.50005 0
vn -0.89228 -0.45148 0
vn -0.93649 -0.35069 0
vn -0.95442 -0.29846 0
vn -0.98144 -0.19177 0
vn -0.99053 -0.1373 0
vn -0.99962 -0.02761 0
vn -0.99962 0.02761 -0
vn -0.99053 0.1373 -0
vn -0.98144 0.19177 -0
vn -0.95442 0.29846 -0
vn -0.93649 0.35069 -0
vn -0.89228 0.45148 -0
vn -0.866 0.50005 -0
vn -0.8058 0.59219 -0
vn -0.77188 0.63577 -0
vn -0.69734 0.71674 -0
vn -0.65671 0.75414 -0
vn -0.56985 0.82175 -0
vn -0.52363 0.85195 -0
vn -0.42683 0.90433 -0
vn -0.37626 0.92652 -0
vn -0.27216 0.96225 -0
vn -0.21863 0.97581 -0
vn -0.11006 0.99392 -0
vn -0.05503 0.99848 -0
vn 0.05503 0.99848 -0
vn 0.11006 0.99392 -0
vn 0.21863 0.97581 -0
vn 0.27216 0.96225 -0
vn 0.37626 0.92652 -0
vn 0.42683 0.90433 -0
vn 0.52363 0.85195 -0
vn 0.56985 0.82175 -0
vn 0.65671 0.75414 -0
vn 0.69734 0.71674 -0
vn 0.77188 0.63577 -0
vn 0.8058 0.59219 -0
vn 0.866 0.50005 -0
vn 0.89228 0.45148 -0
vn 0.93649 0.35069 -0
vn 0.95442 0.29846 -0
vn 0.98144 0.19177 -0
vn 0.99053 0.1373 -0
vn 0.99962 0.02761 -0
vn 0.99962 -0.02761 0
vn 0.99053 -0.1373 0
vn 0.98144 -0.19177 0
vn 0.95442 -0.29846 0
vn 0.93649 -0.35069 0
vn 0.89228 -0.45148 0
vn 0.866 -0.50005 0
vn 0.8058 -0.59219 0
vn 0.77188 -0.63577 0
vn 0.69734 -0.71674 0
vn 0.65671 -0.75414 0
vn 0.56985 -0.82175 0
vn 0.52363 -0.85195 0
vn 0.42683 -0.90433 0
vn 0.37626 -0.92652 0
vn 0.27216 -0.96225 0
vn 0.21863 -0.97581 0
vn 0.11006 -0.99392 0
vn 0 0 1
f 1//1 2//1 3//1
f 4//1 5//1 6//1
f 6//1 5//1 7//1
f 3//1 6//1 8//1
f 9//1 6//1 10//1
f 10//1 6//1 11//1
f 10//1 11//1 12//1
f 13//1 4//1 14//1
f 14//1 4//1 6//1
f 14//1 6//1 15//1
f 15//1 6//1 9//1
f 16//1 17//1 18//1
f 18//1 17//1 6//1
f 18//1 6//1 19//1
f 19//1 6//1 7//1
f 19//1 7//1 20//1
f 17//1 21//1 6//1
f 6//1 21//1 22//1
f 6//1 22//1 23//1
f 24//1 25//1 26//1
f 27//1 1//1 28//1
f 28//1 1//1 3//1
f 28//1 3//1 29//1
f 29//1 3//1 8//1
f 29//1 8//1 30//1
f 31//1 11//1 32//1
f 32//1 11//1 6//1
f 32//1 6//1 33//1
f 33//1 6//1 3//1
f 24//1 6//1 34//1
f 34//1 6//1 23//1
f 34//1 23//1 35//1
f 26//1 36//1 37//1
f 24//1 26//1 6//1
f 6//1 26//1 37//1
f 6//1 37//1 38//1
f 39//2 40//2 41//2
f 41//3 40//3 42//3
f 41//4 42//4 43//4
f 43//5 42//5 44//5
f 43//6 44//6 45//6
f 45//7 44//7 46//7
f 45//8 46//8 47//8
f 47//9 46//9 48//9
f 47//10 48//10 49//10
f 49//11 48//11 50//11
f 49//12 50//12 51//12
f 51//13 50//13 52//13
f 51//14 52//14 53//14
f 53//15 52//15 54//15
f 53//16 54//16 55//16
f 55//17 54//17 56//17
f 55//18 56//18 57//18
f 57//19 56//19 58//19
f 57//20 58//20 59//20
f 59//21 58//21 60//21
f 59//22 60//22 61//22
f 61//23 60//23 62//23
f 61//24 62//24 63//24
f 63//25 62//25 64//25
f 63//26 64//26 65//26
f 65//27 64//27 66//27
f 65//28 66//28 67//28
f 67//29 66//29 68//29
f 67//30 68//30 69//30
f 69//31 68//31 70//31
f 69//32 70//32 71//32
f 71//33 70//33 72//33
f 71//34 72//34 73//34
f 73//35 72//35 74//35
f 73//36 74//36 75//36
f 75//37 74//37 76//37
f 75//38 76//38 77//38
f 77//39 76//39 78//39
f 77//40 78//40 79//40
f 79//41 78//41 80//41
f 79//42 80//42 81//42
f 81//43 80//43 82//43
f 81//44 82//44 83//44
f 83//45 82//45 84//45
f 83//46 84//46 85//46
f 85//47 84//47 86//47
f 85//48 86//48 87//48
f 87//49 86//49 88//49
f 87//50 88//50 89//50
f 89//51 88//51 90//51
f 89//52 90//52 91//52
f 91//53 90//53 92//53
f 91//54 92//54 93//54
f 93//55 92//55 94//55
f 93//56 94//56 95//56
f 95//57 94//57 96//57
f 95//58 96//58 97//58
f 97//59 96//59 98//59
f 97//60 98//60 99//60
f 99//61 98//61 100//61
f 99//62 100//62 101//62
f 101//63 100//63 102//63
f 101//64 102//64 103//64
f 103//65 102//65 104//65
f 103//66 104//66 105//66
f 105//67 104//67 106//67
f 105//68 106//68 107//68
f 107//69 106//69 108//69
f 107//70 108//70 109//70
f 109//71 108//71 110//71
f 109//72 110//72 111//72
f 111//73 110//73 112//73
f 111//74 112//74 113//74
f 113//75 112//75 114//75
f 113//76 114//76 39//76
f 39//77 114//77 40//77
f 39//78 115//78 113//78
f 113//79 115//79 116//79
f 113//80 116//80 111//80
f 111//81 116//81 117//81
f 111//82 117//82 109//82
f 109//83 117//83 118//83
f 109//84 118//84 107//84
f 107//85 118//85 119//85
f 107//86 119//86 105//86
f 105//87 119//87 120//87
f 105//88 120//88 103//88
f 103//89 120//89 121//89
f 103//90 121//90 101//90
f 101//91 121//91 122//91
f 101//92 122//92 99//92
f 99//93 122//93 123//93
f 99//94 123//94 97//94
f 97//95 123//95 124//95
f 97//96 124//96 95//96
f 95//97 124//97 125//97
f 95//98 125//98 93//98
f 93//99 125//99 126//99
f 93//100 126//100 91//100
f 91//101 126//101 127//101
f 91//102 127//102 89//102
f 89//103 127//103 128//103
f 89//104 128//104 87//104
f 87//105 128//105 129//105
f 87//106 129//106 85//106
f 85//107 129//107 130//107
f 85//108 130//108 83//108
f 83//109 130//109 131//109
f 83//110 131//110 81//110
f 81//111 131//111 132//111
f 81//112 132//112 79//112
f 79//113 132//113 133//113
f 79//114 133//114 77//114
f 77//115 133//115 134//115
f 77//116 134//116 135//116
f 135//117 134//117 136//117
f 135//118 136//118 73//118
f 73//119 136//119 137//119
f 73//120 137//120 71//120
f 71//121 137//121 138//121
f 71//122 138//122 69//122
f 69//123 138//123 139//123
f 69//124 139//124 67//124
f 67//125 139//125 140//125
f 67//126 140//126 65//126
f 65//127 140//127 141//127
f 65//128 141//128 63//128
f 63//129 141//129 142//129
f 63//130 142//130 61//130
f 61//131 142//131 143//131
f 61//132 143//132 59//132
f 59//133 143//133 144//133
f 59//134 144//134 57//134
f 57//135 144//135 145//135
f 57//136 145//136 55//136
f 55//137 145//137 146//137
f 55//138 146//138 53//138
f 53//139 146//139 147//139
f 53//140 147//140 51//140
f 51//141 147//141 148//141
f 51//142 148//142 49//142
f 49//143 148//143 149//143
f 49//144 149//144 47//144
f 47//145 149//145 150//145
f 47//146 150//146 45//146
f 45//147 150//147 151//147
f 45//148 151//148 43//148
f 43//149 151//149 152//149
f 43//150 152//150 41//150
f 41//151 152//151 153//151
f 41//152 153//152 39//152
f 39//153 153//153 115//153
f 137//154 117//154 138//154
f 138//154 117//154 116//154
f 138//154 116//154 139//154
f 139//154 116//154 154//154
f 139//154 154//154 140//154
f 140//154 154//154 153//154
f 140//154 153//154 141//154
f 141//154 153//154 152//154
f 141//154 152//154 142//154
f 142//154 152//154 151//154
f 142//154 151//154 143//154
f 143//154 151//154 150//154
f 143//154 150//154 144//154
f 144//154 150//154 149//154
f 144//154 149//154 145//154
f 145//154 149//154 148//154
f 145//154 148//154 146//154
f 146//154 148//154 147//154
f 133//154 132//154 131//154
f 137//154 136//154 117//154
f 117//154 136//154 134//154
f 117//154 134//154 133//154
f 133//154 131//154 117//154
f 117//154 131//154 130//154
f 117//154 130//154 129//154
f 125//154 124//154 123//154
f 129//154 123//154 122//154
f 129//154 128//154 127//154
f 118//154 117//154 119//154
f 119//154 117//154 129//154
f 119//154 129//154 120//154
f 120//154 129//154 122//154
f 120//154 122//154 121//154
f 123//154 129//154 125//154
f 125//154 129//154 127//154
f 125//154 127//154 126//154
# Vertices: 154, normals: 154, texture coordinates: 0, faces: 224

