# File generated by ImageToStl.com - Free Image and 3D model conversion tools

o obj1
v -0.09666609 0.021 -0.05130353
v -0.0957 0.021 -0.077
v -0.09666759 0.01866025 -0.05093097
v -0.0957 0.01866025 -0.077
v -0.09666828 0.021 -0.05072086
v -0.09588508 0.01866025 -0.02485573
v -0.09593169 0.021 -0.02559939
v -0.09585816 0.021 -0.02443637
v -0.0935 0.01866025 0
v -0.0935 0.021 0
v -0.08845836 0 -0
v -0.08 0 -0
v -0.0935 0.01866025 0
v -0.08 0.035 -0
v 0.07902113 0.04118034 -0
v 0.08205631 0.04831815 -0
v 0.07618034 0.04675571 -0
v 0.08096324 0.04997145 -0
v 0.07990138 0.05133539 -0
v -0.08096331 0.04997136 -0
v -0.07618034 0.04675571 -0
v -0.07922866 0.05210436 -0
v -0.07175571 0.05118034 -0
v -0.07650774 0.05465627 -0
v -0.0759133 0.05511802 -0
v -0.07277352 0.05712118 -0
v -0.06618034 0.05402113 -0
v -0.0693431 0.05862804 -0
v 0.07373425 0.05657905 -0
v 0.07175571 0.05118034 -0
v 0.07677941 0.05443513 -0
v 0.07946783 0.05183847 -0
v 0.08 0.035 -0
v 0.08 0 -0
v 0.08845836 0 -0
v -0.08151012 0.0491814 -0
v -0.08191226 0.04855387 -0
v -0.07902113 0.04118034 -0
v -0.08372545 0.04499056 -0
v -0.0935 0.021 -0
v -0.06 0.055 -0
v -0.06501728 0.05971105 -0
v -0.06865744 0.05885679 -0
v 0.07318848 0.05689407 -0
v 0.06978178 0.05846969 -0
v 0.06618034 0.05402113 -0
v 0.0935 0.01866025 -0
v 0.0935 0.021 -0
v 0.08372545 0.04499056 -0
v 0.06 0.055 -0
v 0.06126837 0.06 -0
v -0.06126837 0.06 -0
v 0.06618789 0.05950018 -0
v 0.06554943 0.05962248 -0
v 0.06182048 0.05999377 -0
v 0.0935 0.021 -0
v 0.0935 0.01866025 -0
v 0.09585816 0.021 -0.02443637
v 0.09588508 0.01866025 -0.02485573
v 0.09593169 0.021 -0.02559939
v 0.09666828 0.021 -0.05072086
v 0.09666759 0.01866025 -0.05093097
v 0.09666609 0.021 -0.05130353
v 0.0957 0.01866025 -0.077
v 0.0957 0.021 -0.077
v 0.09246591 0.01866025 -0.10414503
v 0.0675 0.01866025 -0.182
v 0.0675 0.021 -0.182
v 0.07812788 0.01866025 -0.15734805
v 0.07812788 0.021 -0.15734805
v 0.07830087 0.01866025 -0.15688719
v 0.07830087 0.021 -0.15688719
v 0.0865631 0.01866025 -0.13117275
v 0.0865631 0.021 -0.13117275
v 0.0866484 0.01866025 -0.13085586
v 0.0866484 0.021 -0.13085586
v 0.09243867 0.01866025 -0.10430683
v 0.09243867 0.021 -0.10430683
v 0.09246591 0.021 -0.10414503
v 0.05894765 0.021 -0.19268137
v 0.05894765 0.01866025 -0.19268137
v 0.05840652 0.021 -0.19324592
v 0.05840652 0.01866025 -0.19324592
v 0.04795634 0.021 -0.20234519
v 0.04795634 0.01866025 -0.20234519
v 0.04746392 0.021 -0.20270221
v 0.04746392 0.01866025 -0.20270221
v 0.03541021 0.021 -0.20988131
v 0.03541021 0.01866025 -0.20988131
v 0.03501865 0.021 -0.21006952
v 0.03501865 0.01866025 -0.21006952
v 0.02171602 0.021 -0.21504535
v 0.02171602 0.01866025 -0.21504535
v 0.02146471 0.021 -0.21511459
v 0.02146471 0.01866025 -0.21511459
v 0.00731776 0.021 -0.21766992
v 0.00731776 0.01866025 -0.21766992
v 0.00723122 0.021 -0.2176777
v 0.00723122 0.01866025 -0.2176777
v -0.00723122 0.01866025 -0.2176777
v -0.0675 0.01866025 -0.182
v -0.0675 0.021 -0.182
v -0.05894765 0.01866025 -0.19268137
v -0.05894765 0.021 -0.19268137
v -0.05840652 0.01866025 -0.19324592
v -0.05840652 0.021 -0.19324592
v -0.04795634 0.01866025 -0.20234519
v -0.04795634 0.021 -0.20234519
v -0.04746392 0.01866025 -0.20270221
v -0.04746392 0.021 -0.20270221
v -0.03541021 0.01866025 -0.20988131
v -0.03541021 0.021 -0.20988131
v -0.03501865 0.01866025 -0.21006952
v -0.03501865 0.021 -0.21006952
v -0.02171602 0.01866025 -0.21504535
v -0.02171602 0.021 -0.21504535
v -0.02146471 0.01866025 -0.21511459
v -0.02146471 0.021 -0.21511459
v -0.00731776 0.01866025 -0.21766992
v -0.00731776 0.021 -0.21766992
v -0.00723122 0.021 -0.2176777
v -0.07812788 0.021 -0.15734805
v -0.07812788 0.01866025 -0.15734805
v -0.07830087 0.021 -0.15688719
v -0.07830087 0.01866025 -0.15688719
v -0.0865631 0.021 -0.13117275
v -0.0865631 0.01866025 -0.13117275
v -0.0866484 0.021 -0.13085586
v -0.0866484 0.01866025 -0.13085586
v -0.09243867 0.021 -0.10430683
v -0.09243867 0.01866025 -0.10430683
v -0.09246591 0.021 -0.10414503
v -0.09246591 0.01866025 -0.10414503
v -0.06383447 0.06 -0.07474496
v -0.06466795 0.06 -0.05592158
v 0.06383447 0.06 -0.07474496
v -0.06126837 0.06 0
v 0.06126837 0.06 -0
v -0.06335172 0.06 -0.01827405
v 0.06335172 0.06 -0.01827405
v -0.06450689 0.06 -0.03708043
v 0.06450689 0.06 -0.03708043
v 0.06466795 0.06 -0.05592158
v -0.03983393 0.06 -0.1658272
v -0.04543912 0.06 -0.15318567
v 0.03680831 0.06 -0.16956981
v 0.03983393 0.06 -0.1658272
v 0.05949649 0.06 -0.10679564
v 0.05580237 0.06 -0.12254798
v -0.06217751 0.06 -0.0908396
v 0.0511102 0.06 -0.13803238
v -0.05949649 0.06 -0.10679564
v 0.04543912 0.06 -0.15318567
v -0.05580237 0.06 -0.12254798
v -0.0511102 0.06 -0.13803238
v 0.06217751 0.06 -0.0908396
v -0.02626639 0.06 -0.17848141
v -0.03185057 0.06 -0.17439613
v -0.03680831 0.06 -0.16956981
v 0.0201656 0.06 -0.18174532
v 0.0136682 0.06 -0.18412364
v -0.0201656 0.06 -0.18174532
v 0.02626639 0.06 -0.17848141
v 0.00690197 0.06 -0.1855696
v 0 0.06 -0.18605477
v -0.0136682 0.06 -0.18412364
v -0.00690197 0.06 -0.1855696
v 0.03185057 0.06 -0.17439613
v -0.09166762 0 -0.05091323
v -0.08342894 0 -0.049775
v -0.08365 0 -0.04895
v -0.082825 0 -0.05037894
v -0.09071247 0 -0.07664704
v -0.082 0 -0.0506
v -0.08057106 0 -0.048125
v -0.08035 0 -0.04895
v -0.0724875 0 -0.059975
v -0.08057106 0 -0.049775
v -0.081175 0 -0.05037894
v -0.08342894 0 -0.048125
v -0.082825 0 -0.04752106
v -0.08 0 -0.025
v -0.082 0 -0.0473
v -0.0724875 0 -0.025
v -0.081175 0 -0.04752106
v -0.0449575 0 -0.025
v -0.0449575 0 -0.059975
v -0.0244 0 -0.025
v -0.0244 0 -0.059975
v 0.0025367 0 -0.025
v 0.0025367 0 -0.059975
v 0.0449542 0 -0.025
v 0.08 0 -0.02365
v 0.08 0 -0.025
v 0.09089517 0 -0.02517328
v 0.082 0 -0.0506
v 0.081175 0 -0.05037894
v 0.0724875 0 -0.059975
v 0.08057106 0 -0.049775
v 0.08035 0 -0.04895
v 0.08342894 0 -0.048125
v 0.08365 0 -0.04895
v 0.09166762 0 -0.05091323
v 0.08342894 0 -0.049775
v 0.09071247 0 -0.07664704
v 0.082825 0 -0.05037894
v 0.082825 0 -0.04752106
v 0.08057106 0 -0.048125
v 0.0724875 0 -0.025
v 0.081175 0 -0.04752106
v 0.082 0 -0.0473
v 0.09079488 0 -0.02364543
v 0.08845836 0 0
v 0.08 0 0
v 0.0724875 0 -0.0979367
v 0.08750831 0 -0.10347527
v 0.08173571 0 -0.1298703
v 0.0724875 0 -0.12700699
v 0.0449542 0 -0.12700699
v 0.06154606 0 -0.168275
v 0.061325 0 -0.16745
v 0.0449542 0 -0.1482953
v 0.06315851 0 -0.17949529
v 0.062975 0 -0.1691
v 0.0553215 0 -0.18923885
v 0.06215 0 -0.16887894
v 0.04500632 0 -0.1983082
v 0.03323196 0 -0.20538072
v 0.06154606 0 -0.16662499
v 0.06215 0 -0.16602106
v 0.0724875 0 -0.1482953
v 0.06440394 0 -0.16662499
v 0.07344834 0 -0.15558681
v 0.0638 0 -0.16602106
v 0.062975 0 -0.16580001
v 0.064625 0 -0.16745
v 0.06440394 0 -0.168275
v 0.0638 0 -0.16887894
v 0.02038016 0 -0.2102271
v 0.0025367 0 -0.1482953
v 0.00686761 0 -0.21269022
v -0.00686761 0 -0.21269022
v -0.0244 0 -0.1482953
v -0.02038016 0 -0.2102271
v -0.0449575 0 -0.1482953
v -0.03323196 0 -0.20538072
v -0.06440394 0 -0.16662499
v -0.0638 0 -0.16602106
v -0.0724875 0 -0.1482953
v -0.062975 0 -0.16580001
v -0.064625 0 -0.16745
v -0.07258157 0 -0.15785982
v -0.06440394 0 -0.168275
v -0.06315851 0 -0.17949529
v -0.06215 0 -0.16887894
v -0.062975 0 -0.1691
v -0.0638 0 -0.16887894
v -0.06215 0 -0.16602106
v -0.06154606 0 -0.16662499
v -0.061325 0 -0.16745
v -0.06154606 0 -0.168275
v -0.04500632 0 -0.1983082
v -0.0553215 0 -0.18923885
v -0.07344834 0 -0.15558681
v -0.08173571 0 -0.1298703
v -0.0724875 0 -0.12700699
v -0.0724875 0 -0.0979367
v -0.08750831 0 -0.10347527
v -0.09089517 0 -0.02517328
v -0.08 0 -0.02365
v -0.09079488 0 -0.02364543
v -0.08 0 0
v -0.08845836 0 -0
v 0.0269334 0 -0.12652341
v 0.0025367 0 -0.12700699
v 0.0261084 0 -0.12630235
v 0.02550446 0 -0.1256984
v 0.0449542 0 -0.0979367
v 0.0277584 0 -0.12344446
v 0.02836234 0 -0.1240484
v 0.0252834 0 -0.1248734
v 0.02550446 0 -0.1240484
v 0.0025367 0 -0.0979367
v 0.0261084 0 -0.12344446
v 0.0269334 0 -0.1232234
v 0.0285834 0 -0.1248734
v 0.02836234 0 -0.1256984
v 0.0277584 0 -0.12630235
v 0.0261084 0 -0.07242894
v 0.0269334 0 -0.07265
v 0.0277584 0 -0.07242894
v 0.02836234 0 -0.071825
v 0.0449542 0 -0.059975
v 0.0269334 0 -0.06935
v 0.0261084 0 -0.06957106
v 0.02550446 0 -0.071825
v 0.0252834 0 -0.071
v 0.02550446 0 -0.070175
v 0.0277584 0 -0.06957106
v 0.02836234 0 -0.070175
v 0.0285834 0 -0.071
v -0.022685 0 -0.13056955
v -0.02328894 0 -0.1299656
v -0.02351 0 -0.1291406
v -0.02328894 0 -0.1283156
v -0.0244 0 -0.12700699
v -0.022685 0 -0.12771165
v -0.02186 0 -0.12749059
v -0.021035 0 -0.12771165
v -0.02043106 0 -0.1283156
v -0.02021 0 -0.1291406
v -0.02043106 0 -0.1299656
v -0.021035 0 -0.13056955
v -0.02186 0 -0.13079061
v -0.0449575 0 -0.12700699
v -0.0244 0 -0.0979367
v -0.0449575 0 -0.0979367
v -0.026115 0 -0.06957106
v -0.02551106 0 -0.070175
v -0.02836894 0 -0.071825
v -0.02859 0 -0.071
v -0.02529 0 -0.071
v -0.02551106 0 -0.071825
v -0.026115 0 -0.07242894
v -0.02694 0 -0.07265
v -0.027765 0 -0.07242894
v -0.02836894 0 -0.070175
v -0.027765 0 -0.06957106
v -0.02694 0 -0.06935
v 0.0935 0.01866025 0
v 0.08845836 0 -0
v -0.08845836 -0 -0
v -0.0935 0.01866025 -0
v -0.09089517 -0 -0.02517328
v -0.09166762 -0 -0.05091323
v -0.09071247 -0 -0.07664704
v -0.08372545 0.04499056 -0
v -0.08551852 0.04499056 -0.01632399
v -0.08618558 0.04499056 -0.02506239
v -0.08674571 0.04499056 -0.03630292
v -0.08691682 0.04499056 -0.05631878
v -0.08603136 0.04499056 -0.07631578
v -0.05908679 0.04499056 -0.17713726
v -0.06602015 0.04499056 -0.16164681
v -0.0690563 0.04499056 -0.15393379
v -0.07218938 0.04499056 -0.14516245
v -0.07729372 0.04499056 -0.12831788
v -0.08131234 0.04499056 -0.11118183
v -0.08422886 0.04499056 -0.09382419
v -0.08288085 0.04499056 -0.10269479
v 0.04621638 0.04499056 -0.19139004
v 0.05191813 0.04499056 -0.18600781
v 0.05341025 0.04499056 -0.18438686
v 0.05908679 0.04499056 -0.17713726
v 0 0.04499056 -0.20830719
v 0.00644511 0.04499056 -0.20801647
v 0.01001503 0.04499056 -0.20760319
v 0.01912638 0.04499056 -0.20570488
v 0.01983308 0.04499056 -0.20550503
v 0.02926105 0.04499056 -0.20205399
v 0.03118753 0.04499056 -0.20115665
v 0.03811352 0.04499056 -0.19731796
v 0.04223754 0.04499056 -0.19451922
v -0.01912638 0.04499056 -0.20570488
v -0.01001503 0.04499056 -0.20760319
v -0.00644511 0.04499056 -0.20801647
v -0.05341025 0.04499056 -0.18438686
v -0.05191813 0.04499056 -0.18600781
v -0.04621638 0.04499056 -0.19139004
v -0.04223754 0.04499056 -0.19451922
v -0.03811352 0.04499056 -0.19731796
v -0.03118753 0.04499056 -0.20115665
v -0.02926105 0.04499056 -0.20205399
v -0.01983308 0.04499056 -0.20550503
v 0.08603136 0.04499056 -0.07631578
v 0.08422886 0.04499056 -0.09382419
v 0.08288085 0.04499056 -0.10269479
v 0.08131234 0.04499056 -0.11118183
v 0.07729372 0.04499056 -0.12831788
v 0.07218938 0.04499056 -0.14516245
v 0.0690563 0.04499056 -0.15393379
v 0.06602015 0.04499056 -0.16164681
v 0.08372545 0.04499056 -0
v 0.08551852 0.04499056 -0.01632399
v 0.08618558 0.04499056 -0.02506239
v 0.08674571 0.04499056 -0.03630292
v 0.08691682 0.04499056 -0.05631878
v -0.06897342 0.05932706 -0.0177795
v -0.06865744 0.05885679 -0
v -0.06501728 0.05971105 0
v -0.07427987 0.05734599 -0.01731268
v -0.07897349 0.05416788 -0.01689977
v -0.07650774 0.05465627 0
v -0.0759133 0.05511802 0
v -0.07277352 0.05712118 0
v -0.0693431 0.05862804 -0
v -0.08191226 0.04855387 0
v -0.08279107 0.04997095 -0.01656393
v -0.08151012 0.0491814 0
v -0.07922866 0.05210436 0
v -0.0833002 0.04997095 -0.0761225
v -0.08417926 0.04997095 -0.05626991
v -0.07947744 0.05416788 -0.07585197
v -0.08034755 0.05416788 -0.0562015
v -0.07477745 0.05734599 -0.07551937
v -0.07563655 0.05734599 -0.0561174
v -0.0694638 0.05932706 -0.07514334
v -0.07031046 0.05932706 -0.05602231
v -0.08400939 0.04997095 -0.03639859
v -0.0801794 0.05416788 -0.0365325
v -0.07547054 0.05734599 -0.03669713
v -0.07014685 0.05932706 -0.03688325
v -0.05764845 0.04832463 -0.17630199
v -0.05542302 0.05184441 -0.1750071
v -0.05579157 0.05134708 -0.17522177
v -0.06348781 0.04997095 -0.16060573
v -0.05671258 0.04997113 -0.17575783
v -0.05049406 0.05658717 -0.17212704
v -0.05311084 0.05444285 -0.17365825
v -0.05994333 0.05416788 -0.15914854
v -0.0470903 0.05848144 -0.17012715
v -0.05001315 0.05691006 -0.17184506
v -0.05558549 0.05734599 -0.15735698
v -0.04346369 0.05962871 -0.1679849
v -0.04401127 0.05950708 -0.16830918
v -0.05065866 0.05932706 -0.15533148
v -0.03989574 0.05999989 -0.16586407
v -0.04027533 0.05999454 -0.16609038
v -0.06959575 0.04997095 -0.14428514
v -0.07464936 0.04997095 -0.12760794
v -0.07862806 0.04997095 -0.11064214
v -0.0815156 0.04997095 -0.09345696
v -0.06596547 0.05416788 -0.1430572
v -0.07094812 0.05416788 -0.12661424
v -0.07487092 0.05416788 -0.10988675
v -0.0777179 0.05416788 -0.09294295
v -0.06150215 0.05734599 -0.14154747
v -0.06639752 0.05734599 -0.12539253
v -0.07025162 0.05734599 -0.10895801
v -0.07304873 0.05734599 -0.09231099
v -0.05645607 0.05932706 -0.13984063
v -0.06125277 0.05932706 -0.12401129
v -0.06502919 0.05932706 -0.10790802
v -0.06776992 0.05932706 -0.09159652
v 0.05579157 0.05134708 -0.17522177
v 0.05671256 0.04997114 -0.17575783
v 0.05136751 0.04997095 -0.18256374
v 0.05764845 0.04832463 -0.17630199
v 0.04850831 0.05416788 -0.18001193
v 0.05311084 0.05444285 -0.17365825
v 0.05542302 0.05184441 -0.1750071
v 0.044993 0.05734599 -0.17687455
v 0.05001315 0.05691006 -0.17184506
v 0.05049406 0.05658717 -0.17212704
v 0.04346369 0.05962871 -0.1679849
v 0.04401127 0.05950708 -0.16830918
v 0.04101871 0.05932706 -0.17332754
v 0.0470903 0.05848144 -0.17012715
v 0.04027533 0.05999454 -0.16609038
v 0.03989574 0.05999989 -0.16586407
v -0.04101871 0.05932706 -0.17332754
v -0.044993 0.05734599 -0.17687455
v -0.04850831 0.05416788 -0.18001193
v -0.05136751 0.04997095 -0.18256374
v 0.03665582 0.04997095 -0.19500026
v 0.04444877 0.04997095 -0.18929906
v 0.02814193 0.04997095 -0.19955517
v 0.01907453 0.04997095 -0.20287421
v 0.00963199 0.04997095 -0.20489211
v -0 0.04997095 -0.20556919
v -0 0.04499056 -0.20830719
v -0.00963199 0.04997095 -0.20489211
v -0.01907453 0.04997095 -0.20287421
v -0.02814193 0.04997095 -0.19955517
v -0.03665582 0.04997095 -0.19500026
v -0.04444877 0.04997095 -0.18929906
v -0.04197468 0.05416788 -0.18637237
v -0.0346155 0.05416788 -0.19175622
v -0.0265755 0.05416788 -0.19605759
v -0.01801282 0.05416788 -0.1991919
v -0.00909586 0.05416788 -0.20109747
v -0 0.05416788 -0.20173687
v 0.00909586 0.05416788 -0.20109747
v 0.01801282 0.05416788 -0.1991919
v 0.0265755 0.05416788 -0.19605759
v 0.0346155 0.05416788 -0.19175622
v 0.04197468 0.05416788 -0.18637237
v -0.03893286 0.05734599 -0.18277405
v -0.03210698 0.05734599 -0.18776776
v -0.02464962 0.05734599 -0.19175741
v -0.01670746 0.05734599 -0.19466458
v -0.0084367 0.05734599 -0.19643207
v -0 0.05734599 -0.19702512
v 0.0084367 0.05734599 -0.19643207
v 0.01670746 0.05734599 -0.19466458
v 0.02464962 0.05734599 -0.19175741
v 0.03210698 0.05734599 -0.18776776
v 0.03893286 0.05734599 -0.18277405
v -0.03549387 0.05932706 -0.17870593
v -0.02927093 0.05932706 -0.18325853
v -0.02247229 0.05932706 -0.18689577
v -0.01523167 0.05932706 -0.18954615
v -0.00769147 0.05932706 -0.19115752
v -0 0.05932706 -0.19169818
v 0.00769147 0.05932706 -0.19115752
v 0.01523167 0.05932706 -0.18954615
v 0.02247229 0.05932706 -0.18689577
v 0.02927093 0.05932706 -0.18325853
v 0.03549387 0.05932706 -0.17870593
v -0 0.06 -0.18605477
v 0.06348781 0.04997095 -0.16060573
v 0.05065866 0.05932706 -0.15533148
v 0.05558549 0.05734599 -0.15735698
v 0.05994333 0.05416788 -0.15914854
v 0.07862806 0.04997095 -0.11064214
v 0.0833002 0.04997095 -0.0761225
v 0.0815156 0.04997095 -0.09345696
v 0.07947744 0.05416788 -0.07585197
v 0.0777179 0.05416788 -0.09294295
v 0.07477745 0.05734599 -0.07551937
v 0.07304873 0.05734599 -0.09231099
v 0.0694638 0.05932706 -0.07514334
v 0.06776992 0.05932706 -0.09159652
v 0.06502919 0.05932706 -0.10790802
v 0.07025162 0.05734599 -0.10895801
v 0.07487092 0.05416788 -0.10988675
v 0.07464936 0.04997095 -0.12760794
v 0.07094812 0.05416788 -0.12661424
v 0.06639752 0.05734599 -0.12539253
v 0.06125277 0.05932706 -0.12401129
v 0.06959575 0.04997095 -0.14428514
v 0.06596547 0.05416788 -0.1430572
v 0.06150215 0.05734599 -0.14154747
v 0.05645607 0.05932706 -0.13984063
v 0.08400939 0.04997095 -0.03639859
v 0.08372545 0.04499056 -0
v 0.08205631 0.04831815 0
v 0.08279107 0.04997095 -0.01656393
v 0.07990138 0.05133539 -0
v 0.07897349 0.05416788 -0.01689977
v 0.07946783 0.05183847 0
v 0.07427987 0.05734599 -0.01731268
v 0.07373425 0.05657905 -0
v 0.07677941 0.05443513 -0
v 0.06897342 0.05932706 -0.0177795
v 0.06978178 0.05846969 -0
v 0.07318848 0.05689407 0
v 0.06182048 0.05999377 -0
v 0.06554943 0.05962248 -0
v 0.06618789 0.05950018 -0
v 0.0801794 0.05416788 -0.0365325
v 0.07547054 0.05734599 -0.03669713
v 0.07014685 0.05932706 -0.03688325
v 0.08417926 0.04997095 -0.05626991
v 0.08034755 0.05416788 -0.0562015
v 0.07563655 0.05734599 -0.0561174
v 0.07031046 0.05932706 -0.05602231
v -0.02186 0.01099142 -0.1291406
v -0.021035 0.01 -0.13056955
v -0.02043106 0.01 -0.1299656
v -0.02186 0.01 -0.13079061
v -0.02043106 0.01 -0.1283156
v -0.021035 0.01 -0.12771165
v -0.02021 0.01 -0.1291406
v -0.022685 0.01 -0.12771165
v -0.02328894 0.01 -0.1283156
v -0.02186 0.01 -0.12749059
v -0.02328894 0.01 -0.1299656
v -0.022685 0.01 -0.13056955
v -0.02351 0.01 -0.1291406
v -0.02186 -0 -0.13079061
v -0.021035 -0 -0.13056955
v -0.02043106 -0 -0.1299656
v -0.02021 -0 -0.1291406
v -0.02043106 -0 -0.1283156
v -0.021035 -0 -0.12771165
v -0.02186 -0 -0.12749059
v -0.022685 -0 -0.12771165
v -0.02328894 -0 -0.1283156
v -0.02351 -0 -0.1291406
v -0.02328894 -0 -0.1299656
v -0.022685 -0 -0.13056955
v 0.0269334 0.01099142 -0.1248734
v 0.0277584 0.01 -0.12630235
v 0.02836234 0.01 -0.1256984
v 0.0269334 0.01 -0.12652341
v 0.02836234 0.01 -0.1240484
v 0.0277584 0.01 -0.12344446
v 0.0285834 0.01 -0.1248734
v 0.0261084 0.01 -0.12344446
v 0.02550446 0.01 -0.1240484
v 0.0269334 0.01 -0.1232234
v 0.02550446 0.01 -0.1256984
v 0.0261084 0.01 -0.12630235
v 0.0252834 0.01 -0.1248734
v 0.0269334 -0 -0.12652341
v 0.0277584 -0 -0.12630235
v 0.02836234 -0 -0.1256984
v 0.0285834 -0 -0.1248734
v 0.02836234 -0 -0.1240484
v 0.0277584 -0 -0.12344446
v 0.0269334 -0 -0.1232234
v 0.0261084 -0 -0.12344446
v 0.02550446 -0 -0.1240484
v 0.0252834 -0 -0.1248734
v 0.02550446 -0 -0.1256984
v 0.0261084 -0 -0.12630235
v 0.0269334 0.01099142 -0.071
v 0.0277584 0.01 -0.07242894
v 0.02836234 0.01 -0.071825
v 0.0269334 0.01 -0.07265
v 0.02836234 0.01 -0.070175
v 0.0277584 0.01 -0.06957106
v 0.0285834 0.01 -0.071
v 0.0261084 0.01 -0.06957106
v 0.02550446 0.01 -0.070175
v 0.0269334 0.01 -0.06935
v 0.02550446 0.01 -0.071825
v 0.0261084 0.01 -0.07242894
v 0.0252834 0.01 -0.071
v 0.0269334 -0 -0.07265
v 0.0277584 -0 -0.07242894
v 0.02836234 -0 -0.071825
v 0.0285834 -0 -0.071
v 0.02836234 -0 -0.070175
v 0.0277584 -0 -0.06957106
v 0.0269334 -0 -0.06935
v 0.0261084 -0 -0.06957106
v 0.02550446 -0 -0.070175
v 0.0252834 -0 -0.071
v 0.02550446 -0 -0.071825
v 0.0261084 -0 -0.07242894
v -0.02694 0.01099142 -0.071
v -0.026115 0.01 -0.07242894
v -0.02551106 0.01 -0.071825
v -0.02694 0.01 -0.07265
v -0.02551106 0.01 -0.070175
v -0.026115 0.01 -0.06957106
v -0.02529 0.01 -0.071
v -0.027765 0.01 -0.06957106
v -0.02836894 0.01 -0.070175
v -0.02694 0.01 -0.06935
v -0.02836894 0.01 -0.071825
v -0.027765 0.01 -0.07242894
v -0.02859 0.01 -0.071
v -0.02694 -0 -0.07265
v -0.026115 -0 -0.07242894
v -0.02551106 -0 -0.071825
v -0.02529 -0 -0.071
v -0.02551106 -0 -0.070175
v -0.026115 -0 -0.06957106
v -0.02694 -0 -0.06935
v -0.027765 -0 -0.06957106
v -0.02836894 -0 -0.070175
v -0.02859 -0 -0.071
v -0.02836894 -0 -0.071825
v -0.027765 -0 -0.07242894
v -0.08 0.035 -0.025
v -0.08 0.035 0
v -0.06 0.055 -0.025
v -0.06 0.055 0
v -0.06618034 0.05402113 -0.025
v -0.06618034 0.05402113 0
v -0.07175571 0.05118034 -0.025
v -0.07175571 0.05118034 0
v -0.07618034 0.04675571 -0.025
v -0.07618034 0.04675571 0
v -0.07902113 0.04118034 -0.025
v -0.07902113 0.04118034 0
v 0.06 0.055 -0.025
v 0.06 0.055 0
v 0.08 0.035 -0.025
v 0.08 0.035 0
v 0.07902113 0.04118034 -0.025
v 0.07902113 0.04118034 0
v 0.07618034 0.04675571 -0.025
v 0.07618034 0.04675571 0
v 0.07175571 0.05118034 -0.025
v 0.07175571 0.05118034 0
v 0.06618034 0.05402113 -0.025
v 0.06618034 0.05402113 0
v 0.08 -0 0
v 0.08 -0 -0.02365
v 0.08 -0 -0.025
v 0.08 0 -0.025
v -0.062975 0.01109142 -0.16745
v -0.06215 0.0101 -0.16887894
v -0.06154606 0.0101 -0.168275
v -0.062975 0.0101 -0.1691
v -0.06154606 0.0101 -0.16662499
v -0.06215 0.0101 -0.16602106
v -0.061325 0.0101 -0.16745
v -0.0638 0.0101 -0.16602106
v -0.06440394 0.0101 -0.16662499
v -0.062975 0.0101 -0.16580001
v -0.06440394 0.0101 -0.168275
v -0.0638 0.0101 -0.16887894
v -0.064625 0.0101 -0.16745
v -0.062975 -0 -0.1691
v -0.06215 -0 -0.16887894
v -0.06154606 -0 -0.168275
v -0.061325 -0 -0.16745
v -0.06154606 -0 -0.16662499
v -0.06215 -0 -0.16602106
v -0.062975 -0 -0.16580001
v -0.0638 -0 -0.16602106
v -0.06440394 -0 -0.16662499
v -0.064625 -0 -0.16745
v -0.06440394 -0 -0.168275
v -0.0638 -0 -0.16887894
v 0.062975 0.01109142 -0.16745
v 0.0638 0.0101 -0.16887894
v 0.06440394 0.0101 -0.168275
v 0.062975 0.0101 -0.1691
v 0.06440394 0.0101 -0.16662499
v 0.0638 0.0101 -0.16602106
v 0.064625 0.0101 -0.16745
v 0.06215 0.0101 -0.16602106
v 0.06154606 0.0101 -0.16662499
v 0.062975 0.0101 -0.16580001
v 0.06154606 0.0101 -0.168275
v 0.06215 0.0101 -0.16887894
v 0.061325 0.0101 -0.16745
v 0.062975 -0 -0.1691
v 0.0638 -0 -0.16887894
v 0.06440394 -0 -0.168275
v 0.064625 -0 -0.16745
v 0.06440394 -0 -0.16662499
v 0.0638 -0 -0.16602106
v 0.062975 -0 -0.16580001
v 0.06215 -0 -0.16602106
v 0.06154606 -0 -0.16662499
v 0.061325 -0 -0.16745
v 0.06154606 -0 -0.168275
v 0.06215 -0 -0.16887894
v 0.082 0.01109142 -0.04895
v 0.082825 0.0101 -0.05037894
v 0.08342894 0.0101 -0.049775
v 0.082 0.0101 -0.0506
v 0.08342894 0.0101 -0.048125
v 0.082825 0.0101 -0.04752106
v 0.08365 0.0101 -0.04895
v 0.081175 0.0101 -0.04752106
v 0.08057106 0.0101 -0.048125
v 0.082 0.0101 -0.0473
v 0.08057106 0.0101 -0.049775
v 0.081175 0.0101 -0.05037894
v 0.08035 0.0101 -0.04895
v 0.082 -0 -0.0506
v 0.082825 -0 -0.05037894
v 0.08342894 -0 -0.049775
v 0.08365 -0 -0.04895
v 0.08342894 -0 -0.048125
v 0.082825 -0 -0.04752106
v 0.082 -0 -0.0473
v 0.081175 -0 -0.04752106
v 0.08057106 -0 -0.048125
v 0.08035 -0 -0.04895
v 0.08057106 -0 -0.049775
v 0.081175 -0 -0.05037894
v -0.082 0.01109142 -0.04895
v -0.081175 0.0101 -0.05037894
v -0.08057106 0.0101 -0.049775
v -0.082 0.0101 -0.0506
v -0.08057106 0.0101 -0.048125
v -0.081175 0.0101 -0.04752106
v -0.08035 0.0101 -0.04895
v -0.082825 0.0101 -0.04752106
v -0.08342894 0.0101 -0.048125
v -0.082 0.0101 -0.0473
v -0.08342894 0.0101 -0.049775
v -0.082825 0.0101 -0.05037894
v -0.08365 0.0101 -0.04895
v -0.082 -0 -0.0506
v -0.081175 -0 -0.05037894
v -0.08057106 -0 -0.049775
v -0.08035 -0 -0.04895
v -0.08057106 -0 -0.048125
v -0.081175 -0 -0.04752106
v -0.082 -0 -0.0473
v -0.082825 -0 -0.04752106
v -0.08342894 -0 -0.048125
v -0.08365 -0 -0.04895
v -0.08342894 -0 -0.049775
v -0.082825 -0 -0.05037894
vn -0.99928 -0.00534 -0.03757
vn -0.99931 0 -0.03709
vn -0.99999 4E-05 -0.00376
vn -0.99955 -0.00299 0.03
vn -0.99951 -0.0106 0.02931
vn -0.99801 0.00017 0.06309
vn -0.99541 -0.00567 0.09552
vn -0.99538 0 0.09606
vn 0 0 1
vn 0 0 1
vn 0 -0 1
vn 0 0 1
vn 0 -0 1
vn 0 -0 1
vn 0 0 1
vn 0 0 1
vn 0 -0 1
vn 0 0 1
vn 0 0 1
vn 0 0 1
vn 0 0 1
vn 0 -0 1
vn 0 -0 1
vn 0 0 1
vn 0 0 1
vn 0 -0 1
vn 0 -0 1
vn 0 -0 1
vn 0 0 1
vn 0 0 1
vn 0 -0 1
vn 0 0 1
vn 0 0 1
vn 0 -0 1
vn 0 -0 1
vn 0 0 1
vn 0 0 1
vn 0 0 1
vn 0 0 1
vn 0 0 1
vn 0 -0 1
vn 0 0 1
vn 0 -0 1
vn 0 0 1
vn 0 -0 1
vn 0 -0 1
vn 0 -0 1
vn 0 -0 1
vn 0 -0 1
vn 0 -0 1
vn 0 0 1
vn 0.99538 0 0.09606
vn 0.99541 -0.00567 0.09552
vn 0.99801 0.00017 0.06309
vn 0.99951 -0.0106 0.02931
vn 0.99955 -0.00299 0.03
vn 0.99999 4E-05 -0.00376
vn 0.9993 -0.00527 -0.03709
vn 0.99929 0 -0.03757
vn 0.99298 0 -0.1183
vn 0.9183 0 -0.39589
vn 0.93621 0 -0.35143
vn 0.95206 0 -0.3059
vn 0.96563 0 -0.25993
vn 0.97703 0 -0.21309
vn 0.98612 0 -0.16606
vn 0.78061 0 -0.62502
vn 0.72192 0 -0.69198
vn 0.65668 0 -0.75417
vn 0.58698 0 -0.8096
vn 0.51171 0 -0.85916
vn 0.43323 0 -0.90128
vn 0.35034 0 -0.93662
vn 0.26565 0 -0.96407
vn 0.17775 0 -0.98408
vn 0.08952 0 -0.99598
vn 0 -0 -1
vn -0.78061 0 -0.62502
vn -0.72192 0 -0.69198
vn -0.65668 0 -0.75417
vn -0.58698 0 -0.8096
vn -0.51171 0 -0.85916
vn -0.43323 0 -0.90128
vn -0.35034 0 -0.93662
vn -0.26565 0 -0.96407
vn -0.17775 0 -0.98408
vn -0.08952 0 -0.99598
vn -0.9183 -0 -0.39589
vn -0.93621 -0 -0.35143
vn -0.95206 -0 -0.3059
vn -0.96563 -0 -0.25993
vn -0.97703 -0 -0.21309
vn -0.98612 -0 -0.16606
vn -0.99298 -0 -0.1183
vn 0 1 -0
vn 0 -1 0
vn 0.96127 -0.25972 0.09224
vn 0.96193 -0.25623 0.09505
vn 0.96385 -0.25882 0.06327
vn 0.96553 -0.25868 0.02898
vn 0.96553 -0.25868 0.02898
vn 0.9653 -0.25868 -0.03583
vn 0.9653 -0.25868 -0.03583
vn 0.8875 -0.25776 -0.38197
vn 0.88707 -0.25855 -0.38243
vn 0.90431 -0.25882 -0.33945
vn 0.91915 -0.25966 -0.2962
vn 0.91969 -0.25855 -0.2955
vn 0.93272 -0.25882 -0.25108
vn 0.9435 -0.25929 -0.20634
vn 0.95922 -0.25854 -0.11428
vn 0.95908 -0.25892 -0.11455
vn 0.95252 -0.25882 -0.1604
vn 0.94381 -0.25854 -0.20584
vn -0.75314 -0.25654 -0.60577
vn -0.75419 -0.25796 -0.60386
vn -0.69732 -0.25882 -0.6684
vn -0.6374 -0.26106 -0.72496
vn -0.63446 -0.25794 -0.72865
vn -0.56698 -0.25882 -0.78201
vn -0.49716 -0.26037 -0.82767
vn -0.4944 -0.25792 -0.83009
vn -0.41847 -0.25882 -0.87057
vn -0.34074 -0.25967 -0.90359
vn -0.33849 -0.2579 -0.90494
vn -0.25659 -0.25882 -0.93122
vn -0.17321 -0.25895 -0.95023
vn -0 -0.25821 -0.96609
vn -0.08647 -0.25882 -0.96205
vn -0.17174 -0.25787 -0.95079
vn 0.08647 -0.25882 -0.96205
vn 0.17174 -0.25787 -0.95079
vn 0.17321 -0.25895 -0.95023
vn 0.25659 -0.25882 -0.93122
vn 0.33849 -0.2579 -0.90494
vn 0.34074 -0.25967 -0.90359
vn 0.41847 -0.25882 -0.87057
vn 0.4944 -0.25792 -0.83009
vn 0.49716 -0.26037 -0.82767
vn 0.75447 -0.25662 -0.60409
vn 0.75284 -0.25801 -0.60553
vn 0.69732 -0.25882 -0.6684
vn 0.6374 -0.26106 -0.72496
vn 0.63446 -0.25794 -0.72865
vn 0.56698 -0.25882 -0.78201
vn -0.88726 -0.25777 -0.38251
vn -0.95922 -0.25854 -0.11428
vn -0.95908 -0.25892 -0.11455
vn -0.95252 -0.25882 -0.1604
vn -0.94381 -0.25854 -0.20584
vn -0.9435 -0.25929 -0.20634
vn -0.88698 -0.25304 -0.38631
vn -0.90253 -0.25882 -0.34416
vn -0.90431 -0.25882 -0.33945
vn -0.91915 -0.25966 -0.2962
vn -0.91969 -0.25855 -0.2955
vn -0.93272 -0.25882 -0.25108
vn -0.96102 -0.25965 0.09496
vn -0.96213 -0.25647 0.09232
vn -0.96385 -0.25882 0.06327
vn -0.96553 -0.25868 0.02898
vn -0.96553 -0.25868 0.02898
vn -0.9653 -0.25868 -0.03583
vn -0.9653 -0.25868 -0.03583
vn -0.92241 0.37582 0.08901
vn -0.92562 0.36455 0.10167
vn -0.9245 0.37459 0.07057
vn -0.92534 0.37461 0.0585
vn -0.92584 0.37509 0.04614
vn -0.92941 0.36803 0.02725
vn -0.92572 0.37813 0.00791
vn -0.92667 0.37585 -0.00348
vn -0.92861 0.36877 -0.04112
vn -0.9266 0.37443 -0.03484
vn -0.84661 0.37371 -0.37893
vn -0.85481 0.36538 -0.36852
vn -0.86276 0.37457 -0.33962
vn -0.87317 0.37456 -0.31189
vn -0.86616 0.37955 -0.32513
vn -0.89296 0.35972 -0.27059
vn -0.90962 0.36501 -0.19839
vn -0.90277 0.37442 -0.21171
vn -0.89531 0.37461 -0.24101
vn -0.88267 0.37479 -0.28361
vn -0.92082 0.37424 -0.10971
vn -0.92813 0.35978 -0.09555
vn -0.9124 0.37937 -0.15364
vn -0.91668 0.37456 -0.1393
vn -0.91176 0.37457 -0.1685
vn -0.72467 0.37174 -0.58023
vn 0.61138 0.36497 -0.70215
vn 0.63623 0.37542 -0.674
vn 0.66935 0.3746 -0.64159
vn 0.68218 0.37457 -0.62796
vn 0.72571 0.3684 -0.58106
vn 0.73076 0.37225 -0.5722
vn 0.04179 0.37428 -0.92637
vn 0.10663 0.37451 -0.92107
vn 0.16544 0.36572 -0.9159
vn 0.18912 0.37447 -0.90774
vn 0.2463 0.37461 -0.89387
vn 0.25231 0.3746 -0.89219
vn 0.32529 0.37136 -0.86964
vn 0.31956 0.36838 -0.87303
vn 0.40154 0.37546 -0.83534
vn 0.3915 0.37457 -0.84049
vn 0.4747 0.3734 -0.79702
vn 0.45236 0.35948 -0.81617
vn 0.54301 0.37973 -0.74896
vn 0.5207 0.37441 -0.76726
vn 0.57322 0.37441 -0.72886
vn -0.2463 0.37461 -0.89387
vn -0.18912 0.37447 -0.90774
vn -0.16544 0.36572 -0.9159
vn -0.10663 0.37451 -0.92107
vn -0.083 0.37461 -0.92346
vn -0.04178 0.37441 -0.92632
vn 0 0.36382 -0.93147
vn 0.08265 0.3841 -0.91959
vn -0.73232 0.36728 -0.57342
vn -0.68218 0.37457 -0.62796
vn -0.66935 0.3746 -0.64159
vn -0.63623 0.37542 -0.674
vn -0.61138 0.36497 -0.70215
vn -0.57322 0.37441 -0.72886
vn -0.54424 0.3746 -0.75065
vn -0.52056 0.37504 -0.76705
vn -0.47637 0.36517 -0.79983
vn -0.44956 0.37411 -0.81113
vn -0.40169 0.37461 -0.83565
vn -0.39147 0.37475 -0.84043
vn -0.32562 0.369 -0.87052
vn -0.31911 0.37172 -0.87178
vn -0.25231 0.3746 -0.89219
vn 0.85195 0.37321 -0.36729
vn 0.92237 0.37444 -0.09496
vn 0.92454 0.36482 -0.11015
vn 0.91664 0.37465 -0.1393
vn 0.91431 0.37461 -0.15396
vn 0.91176 0.37457 -0.1685
vn 0.90962 0.36501 -0.19839
vn 0.90277 0.37442 -0.21171
vn 0.89531 0.37461 -0.24101
vn 0.88726 0.37481 -0.26886
vn 0.88638 0.36499 -0.2848
vn 0.87307 0.37482 -0.31186
vn 0.86804 0.37461 -0.32584
vn 0.86276 0.37457 -0.33962
vn 0.85109 0.36128 -0.38094
vn 0.92133 0.37538 0.1012
vn 0.92529 0.3686 0.08929
vn 0.9245 0.37459 0.07057
vn 0.92605 0.37457 0.04615
vn 0.92332 0.37958 0.05837
vn 0.93266 0.36067 0.00797
vn 0.9266 0.37443 -0.03484
vn 0.92861 0.36877 -0.04112
vn 0.92667 0.37585 -0.00348
vn 0.92383 0.38183 0.02709
vn -0.11635 0.9928 0.02833
vn -0.22847 0.97354 -0.00543
vn -0.07685 0.997 0.00876
vn -0.5563 0.82901 0.05721
vn -0.61286 0.78898 0.04371
vn -0.53696 0.84164 0.05765
vn -0.34617 0.93722 0.04229
vn -0.40202 0.91521 0.02762
vn -0.31633 0.94815 0.0307
vn -0.88797 0.45184 0.08577
vn -0.8385 0.53733 0.09046
vn -0.81887 0.56683 0.09034
vn -0.73408 0.67421 0.08099
vn -0.77418 0.6296 0.06519
vn -0.68198 0.72715 0.07849
vn -0.85801 0.51184 0.04276
vn -0.87378 0.48173 0.0667
vn -0.87112 0.48167 0.09569
vn -0.73785 0.67417 -0.03267
vn -0.73785 0.67417 -0.03267
vn -0.55878 0.82895 -0.02474
vn -0.55878 0.82895 -0.02474
vn -0.34834 0.93724 -0.01542
vn -0.34834 0.93724 -0.01542
vn -0.11833 0.99296 -0.00524
vn -0.11833 0.99296 -0.00524
vn -0.73855 0.67417 0.00631
vn -0.73855 0.67417 0.00631
vn -0.55931 0.82895 0.00478
vn -0.55931 0.82895 0.00478
vn -0.34867 0.93724 0.00298
vn -0.34867 0.93724 0.00298
vn -0.11844 0.99296 0.00101
vn -0.11844 0.99296 0.00101
vn -0.11822 0.99296 0.00726
vn -0.11822 0.99296 0.00726
vn -0.34802 0.93724 0.02138
vn -0.34802 0.93724 0.02138
vn -0.55827 0.82895 0.03429
vn -0.55828 0.82895 0.03429
vn -0.73718 0.67417 0.04528
vn -0.73718 0.67417 0.04528
vn -0.87473 0.48162 0.05373
vn -0.87635 0.48162 0.00749
vn -0.87635 0.48162 0.00749
vn -0.87552 0.48162 -0.03877
vn -0.87552 0.48162 -0.03877
vn -0.81765 0.44443 -0.36597
vn -0.69698 0.64856 -0.30594
vn -0.72329 0.61013 -0.32341
vn -0.76408 0.54722 -0.34165
vn -0.53046 0.81468 -0.23435
vn -0.63709 0.71559 -0.28644
vn -0.38438 0.90641 -0.17511
vn -0.46086 0.86388 -0.20325
vn -0.17354 0.98195 -0.07527
vn -0.25179 0.96085 -0.11564
vn -0.00133 1 -0.00059
vn -0.01117 0.99993 -0.00489
vn -0.09204 0.99506 -0.03725
vn -0.80364 0.48168 -0.34949
vn -0.81543 0.48171 -0.32098
vn -0.811 0.50016 -0.30351
vn -0.82527 0.4817 -0.29478
vn -0.83875 0.48157 -0.25416
vn -0.83875 0.48156 -0.25416
vn -0.85326 0.48156 -0.2001
vn -0.85326 0.48156 -0.2001
vn -0.86174 0.48171 -0.15926
vn -0.85393 0.50022 -0.14348
vn -0.86639 0.4817 -0.13166
vn -0.8718 0.48157 -0.08975
vn -0.8718 0.48156 -0.08975
vn -0.67827 0.67425 -0.29212
vn -0.69177 0.67411 -0.25889
vn -0.69177 0.67412 -0.25889
vn -0.70688 0.67412 -0.2142
vn -0.70688 0.67411 -0.2142
vn -0.71912 0.67411 -0.16864
vn -0.71912 0.67412 -0.16864
vn -0.72842 0.67412 -0.12239
vn -0.72842 0.67412 -0.12239
vn -0.73474 0.67412 -0.07564
vn -0.73474 0.67412 -0.07564
vn -0.51421 0.82901 -0.21984
vn -0.5239 0.82891 -0.19607
vn -0.53535 0.82891 -0.16222
vn -0.53535 0.82891 -0.16222
vn -0.54461 0.82891 -0.12772
vn -0.54461 0.8289 -0.12772
vn -0.55166 0.8289 -0.09269
vn -0.55166 0.8289 -0.09269
vn -0.55645 0.8289 -0.05729
vn -0.55645 0.82891 -0.05729
vn -0.32285 0.93728 -0.13143
vn -0.3266 0.93722 -0.12223
vn -0.3266 0.93722 -0.12223
vn -0.33374 0.93722 -0.10113
vn -0.33374 0.93722 -0.10113
vn -0.33952 0.93722 -0.07962
vn -0.33952 0.93722 -0.07962
vn -0.34391 0.93722 -0.05778
vn -0.34391 0.93722 -0.05778
vn -0.34689 0.93722 -0.03571
vn -0.34689 0.93722 -0.03571
vn -0.11165 0.99295 -0.03981
vn -0.11095 0.99296 -0.04152
vn -0.11095 0.99296 -0.04152
vn -0.11337 0.99296 -0.03435
vn -0.11337 0.99296 -0.03435
vn -0.11533 0.99296 -0.02705
vn -0.11533 0.99296 -0.02705
vn -0.11683 0.99296 -0.01963
vn -0.11683 0.99296 -0.01963
vn -0.11784 0.99296 -0.01213
vn -0.11784 0.99296 -0.01213
vn 0.62401 0.60862 -0.49009
vn 0.65904 0.54567 -0.5176
vn 0.55165 0.71437 -0.43053
vn 0.39314 0.86288 -0.31762
vn 0.14575 0.98175 -0.12213
vn 0.22165 0.96078 -0.16664
vn 0.00943 0.99992 -0.00783
vn 0.00114 1 -0.00092
vn -0.22165 0.96078 -0.16664
vn -0.14575 0.98175 -0.12213
vn -0.07228 0.99489 -0.07047
vn -0.00943 0.99992 -0.00783
vn -0.00114 1 -0.00092
vn -0.39314 0.86288 -0.31762
vn -0.33611 0.90609 -0.25695
vn -0.55165 0.71437 -0.43053
vn -0.4537 0.81349 -0.36386
vn -0.65904 0.54567 -0.5176
vn -0.62401 0.60862 -0.49009
vn -0.59367 0.64667 -0.47893
vn 0.52612 0.52503 -0.66898
vn 0.51771 0.48084 -0.70765
vn 0.60174 0.4812 -0.63746
vn 0.60533 0.49692 -0.62181
vn 0.64475 0.48171 -0.59351
vn 0.67889 0.4814 -0.5544
vn 0.70588 0.44299 -0.55271
vn 0.49215 0.48153 -0.7252
vn 0.42495 0.48119 -0.76673
vn 0.40948 0.49651 -0.76538
vn 0.37002 0.48171 -0.79438
vn 0.30139 0.48084 -0.82338
vn 0.30139 0.48084 -0.82338
vn 0.23847 0.48175 -0.84324
vn 0.1825 0.48727 -0.85397
vn 0.17882 0.48097 -0.85831
vn 0.10078 0.48164 -0.87056
vn 0.06063 0.50231 -0.86256
vn 0.0395 0.48138 -0.87562
vn -0.0395 0.48138 -0.87562
vn -0.06063 0.50231 -0.86256
vn -0.10078 0.48164 -0.87056
vn -0.17882 0.48097 -0.85831
vn -0.1825 0.48727 -0.85397
vn -0.23847 0.48175 -0.84324
vn -0.30139 0.48084 -0.82338
vn -0.30139 0.48084 -0.82338
vn -0.37002 0.48171 -0.79438
vn -0.40948 0.49651 -0.76538
vn -0.42495 0.48119 -0.76673
vn -0.49215 0.48153 -0.7252
vn -0.50991 0.50416 -0.697
vn -0.70588 0.44299 -0.55271
vn -0.67889 0.4814 -0.5544
vn -0.64475 0.48171 -0.59351
vn -0.60533 0.49692 -0.62181
vn -0.60174 0.4812 -0.63746
vn -0.5418 0.48152 -0.68891
vn -0.56816 0.67407 -0.47204
vn -0.51568 0.6734 -0.52972
vn -0.51568 0.67339 -0.52973
vn -0.43651 0.67339 -0.59666
vn -0.43651 0.6734 -0.59666
vn -0.34874 0.6734 -0.65186
vn -0.34874 0.6734 -0.65186
vn -0.25412 0.6734 -0.69423
vn -0.25412 0.6734 -0.69423
vn -0.1545 0.6734 -0.72296
vn -0.1545 0.6734 -0.72296
vn -0.05184 0.6734 -0.73746
vn -0.05184 0.6734 -0.73746
vn 0.05184 0.6734 -0.73746
vn 0.05184 0.6734 -0.73746
vn 0.1545 0.6734 -0.72296
vn 0.1545 0.6734 -0.72296
vn 0.25412 0.6734 -0.69423
vn 0.25412 0.6734 -0.69423
vn 0.34874 0.6734 -0.65186
vn 0.34874 0.6734 -0.65186
vn 0.43651 0.6734 -0.59666
vn 0.43651 0.67339 -0.59666
vn 0.51568 0.67339 -0.52973
vn 0.51568 0.6734 -0.52973
vn 0.56816 0.67407 -0.47204
vn 0.59367 0.64667 -0.47893
vn -0.42656 0.82895 -0.36177
vn -0.39072 0.8284 -0.40136
vn -0.39072 0.8284 -0.40136
vn -0.33073 0.8284 -0.45208
vn -0.33073 0.8284 -0.45208
vn -0.26423 0.8284 -0.4939
vn -0.26423 0.8284 -0.4939
vn -0.19254 0.8284 -0.52601
vn -0.19254 0.8284 -0.52601
vn -0.11706 0.8284 -0.54777
vn -0.11706 0.8284 -0.54777
vn -0.03928 0.8284 -0.55876
vn -0.03928 0.8284 -0.55876
vn 0.03928 0.8284 -0.55876
vn 0.03928 0.8284 -0.55876
vn 0.11706 0.8284 -0.54777
vn 0.11706 0.8284 -0.54777
vn 0.19254 0.8284 -0.52601
vn 0.19254 0.8284 -0.52601
vn 0.26423 0.8284 -0.4939
vn 0.26423 0.8284 -0.4939
vn 0.33073 0.8284 -0.45208
vn 0.33073 0.8284 -0.45208
vn 0.39072 0.8284 -0.40136
vn 0.39072 0.8284 -0.40136
vn 0.42656 0.82895 -0.36177
vn 0.4537 0.81349 -0.36386
vn -0.25554 0.93726 -0.23715
vn -0.24367 0.937 -0.25031
vn -0.20626 0.937 -0.28193
vn -0.20626 0.937 -0.28193
vn -0.16479 0.937 -0.30802
vn -0.16479 0.937 -0.30802
vn -0.12008 0.937 -0.32804
vn -0.12008 0.937 -0.32804
vn -0.073 0.937 -0.34161
vn -0.073 0.937 -0.34161
vn -0.02449 0.937 -0.34847
vn -0.0245 0.937 -0.34847
vn 0.02449 0.937 -0.34847
vn 0.0245 0.937 -0.34847
vn 0.073 0.937 -0.34161
vn 0.073 0.937 -0.34161
vn 0.12008 0.937 -0.32804
vn 0.12008 0.937 -0.32804
vn 0.16479 0.937 -0.30802
vn 0.16479 0.937 -0.30802
vn 0.20626 0.937 -0.28193
vn 0.20626 0.937 -0.28193
vn 0.24367 0.937 -0.25031
vn 0.25554 0.93726 -0.23715
vn 0.33611 0.90609 -0.25695
vn -0.07714 0.99283 -0.09136
vn -0.08279 0.99293 -0.08505
vn -0.08279 0.99293 -0.08505
vn -0.07008 0.99293 -0.09579
vn -0.07008 0.99293 -0.09579
vn -0.05599 0.99293 -0.10466
vn -0.05599 0.99293 -0.10466
vn -0.0408 0.99293 -0.11146
vn -0.0408 0.99293 -0.11146
vn -0.0248 0.99293 -0.11607
vn -0.0248 0.99293 -0.11607
vn -0.00832 0.99293 -0.1184
vn -0.00832 0.99293 -0.1184
vn 0.00832 0.99293 -0.1184
vn 0.00832 0.99293 -0.1184
vn 0.0248 0.99293 -0.11607
vn 0.0248 0.99293 -0.11607
vn 0.0408 0.99293 -0.11146
vn 0.0408 0.99293 -0.11146
vn 0.05599 0.99293 -0.10466
vn 0.05599 0.99293 -0.10466
vn 0.07008 0.99293 -0.09579
vn 0.07008 0.99293 -0.09579
vn 0.08279 0.99293 -0.08505
vn 0.08279 0.99293 -0.08505
vn 0.08473 0.99295 -0.08288
vn 0.06347 0.99434 -0.08519
vn 0.76408 0.54722 -0.34165
vn 0.00133 1 -0.00059
vn 0.11165 0.99295 -0.03981
vn 0.09204 0.99506 -0.03725
vn 0.01117 0.99993 -0.00489
vn 0.32285 0.93728 -0.13143
vn 0.25179 0.96085 -0.11564
vn 0.17354 0.98195 -0.07527
vn 0.51421 0.82901 -0.21984
vn 0.46086 0.86388 -0.20325
vn 0.38438 0.90641 -0.17511
vn 0.72329 0.61013 -0.32341
vn 0.69698 0.64856 -0.30594
vn 0.67827 0.67425 -0.29212
vn 0.63709 0.71559 -0.28644
vn 0.53046 0.81468 -0.23435
vn 0.84609 0.51731 -0.12857
vn 0.81765 0.44443 -0.36597
vn 0.80364 0.48168 -0.34949
vn 0.81543 0.48171 -0.32098
vn 0.8067 0.51594 -0.28815
vn 0.73474 0.67412 -0.07564
vn 0.73474 0.67412 -0.07564
vn 0.55645 0.82891 -0.05729
vn 0.55645 0.8289 -0.05729
vn 0.34689 0.93722 -0.03571
vn 0.34689 0.93722 -0.03571
vn 0.11784 0.99296 -0.01213
vn 0.11784 0.99296 -0.01213
vn 0.11683 0.99296 -0.01963
vn 0.11683 0.99296 -0.01963
vn 0.34391 0.93722 -0.05778
vn 0.34391 0.93722 -0.05778
vn 0.55166 0.8289 -0.09269
vn 0.55166 0.8289 -0.09269
vn 0.72842 0.67412 -0.12239
vn 0.72842 0.67412 -0.12239
vn 0.86429 0.48157 -0.14522
vn 0.8718 0.48157 -0.08975
vn 0.8718 0.48156 -0.08975
vn 0.71912 0.67412 -0.16864
vn 0.71912 0.67411 -0.16864
vn 0.54461 0.8289 -0.12772
vn 0.54461 0.82891 -0.12772
vn 0.33952 0.93722 -0.07962
vn 0.33952 0.93722 -0.07962
vn 0.11533 0.99296 -0.02705
vn 0.11533 0.99296 -0.02705
vn 0.70689 0.67411 -0.2142
vn 0.70688 0.67412 -0.2142
vn 0.53535 0.82891 -0.16222
vn 0.53535 0.82891 -0.16222
vn 0.33374 0.93722 -0.10113
vn 0.33374 0.93722 -0.10113
vn 0.11337 0.99296 -0.03435
vn 0.11337 0.99296 -0.03435
vn 0.86174 0.48171 -0.15926
vn 0.85326 0.48156 -0.2001
vn 0.85326 0.48156 -0.2001
vn 0.83875 0.48156 -0.25416
vn 0.83875 0.48157 -0.25416
vn 0.82081 0.48157 -0.30719
vn 0.69177 0.67412 -0.25889
vn 0.69177 0.67411 -0.25889
vn 0.5239 0.82891 -0.19607
vn 0.3266 0.93722 -0.12223
vn 0.3266 0.93722 -0.12223
vn 0.11095 0.99296 -0.04152
vn 0.11095 0.99296 -0.04152
vn 0.87524 0.48171 0.04361
vn 0.88958 0.44622 0.09771
vn 0.87202 0.48173 0.08675
vn 0.83066 0.54919 0.09165
vn 0.78609 0.61199 0.08673
vn 0.73489 0.67428 0.07266
vn 0.75578 0.65132 0.06767
vn 0.55657 0.82903 0.05427
vn 0.57458 0.81612 0.06169
vn 0.69258 0.71705 0.07858
vn 0.34733 0.93728 0.02941
vn 0.41925 0.90649 0.05009
vn 0.49918 0.86481 0.05404
vn 0.01128 0.99994 0.00129
vn 0.09908 0.99504 0.00864
vn 0.11831 0.99296 0.00629
vn 0.18809 0.98195 0.01991
vn 0.27547 0.96071 0.0338
vn 0.87378 0.48173 0.0667
vn 0.86502 0.49891 0.05313
vn 0.73718 0.67417 0.04528
vn 0.73718 0.67417 0.04528
vn 0.55827 0.82895 0.03429
vn 0.55828 0.82895 0.03429
vn 0.34802 0.93724 0.02138
vn 0.34802 0.93724 0.02138
vn 0.11822 0.99296 0.00726
vn 0.11822 0.99296 0.00726
vn 0.87635 0.48162 0.00749
vn 0.87635 0.48162 0.00749
vn 0.73855 0.67417 0.00631
vn 0.73855 0.67417 0.00631
vn 0.55931 0.82895 0.00478
vn 0.55931 0.82895 0.00478
vn 0.34867 0.93724 0.00298
vn 0.34867 0.93724 0.00298
vn 0.11844 0.99296 0.00101
vn 0.11844 0.99296 0.00101
vn 0.87552 0.48162 -0.03877
vn 0.87552 0.48162 -0.03877
vn 0.73785 0.67417 -0.03267
vn 0.73785 0.67417 -0.03267
vn 0.55878 0.82895 -0.02474
vn 0.55878 0.82895 -0.02474
vn 0.34834 0.93724 -0.01542
vn 0.34834 0.93724 -0.01542
vn 0.11833 0.99296 -0.00524
vn 0.11833 0.99296 -0.00524
vn -0.37349 -0.84912 0.37349
vn -0.13671 -0.84912 0.5102
vn -0.37349 -0.84912 -0.37349
vn -0.5102 -0.84912 -0.13671
vn -0.5102 -0.84912 0.13671
vn 0.37349 -0.84912 -0.37349
vn 0.13671 -0.84912 -0.5102
vn -0.13671 -0.84912 -0.5102
vn 0.37349 -0.84912 0.37349
vn 0.5102 -0.84912 0.13671
vn 0.5102 -0.84912 -0.13671
vn 0.13671 -0.84912 0.5102
vn -0.25882 0 0.96593
vn -0.70711 0 0.70711
vn -0.96593 0 0.25882
vn -0.96593 -0 -0.25882
vn -0.70711 -0 -0.70711
vn -0.25882 -0 -0.96593
vn 0.25882 0 -0.96593
vn 0.70711 0 -0.7071
vn 0.96593 0 -0.25882
vn 0.96593 0 0.25882
vn 0.70711 0 0.7071
vn 0.25882 0 0.96593
vn -0.37349 -0.84912 0.37349
vn -0.13671 -0.84912 0.5102
vn -0.37349 -0.84912 -0.3735
vn 0.37349 -0.84912 -0.3735
vn 0.13671 -0.84912 -0.5102
vn -0.13671 -0.84912 -0.5102
vn 0.37349 -0.84912 0.37349
vn 0.13671 -0.84912 0.5102
vn -0.25882 0 0.96593
vn -0.70711 0 0.7071
vn -0.7071 -0 -0.70711
vn -0.25882 -0 -0.96593
vn 0.25882 0 -0.96593
vn 0.7071 0 -0.70711
vn 0.70711 0 0.70711
vn 0.25882 0 0.96593
vn -0.3735 -0.84912 0.37349
vn -0.13671 -0.84912 0.5102
vn -0.37349 -0.84912 -0.37349
vn -0.5102 -0.84912 0.13671
vn 0.37349 -0.84912 -0.37349
vn 0.13671 -0.84912 -0.5102
vn -0.13671 -0.84912 -0.5102
vn 0.3735 -0.84912 0.37349
vn 0.5102 -0.84912 0.13671
vn 0.13671 -0.84912 0.5102
vn -0.96593 0 0.25882
vn -0.70711 -0 -0.7071
vn 0.70711 0 -0.70711
vn 0.96593 0 0.25882
vn -0.3735 -0.84912 0.37349
vn -0.13671 -0.84912 0.5102
vn 0.37349 -0.84912 -0.37349
vn 0.3735 -0.84912 0.37349
vn 0.5102 -0.84912 0.13671
vn 0.5102 -0.84912 -0.13671
vn 0.13671 -0.84912 0.5102
vn 0.96593 0 -0.25882
vn 0.96593 0 0.25882
vn 1 0 0
vn 0.15643 -0.98769 0
vn 0.45399 -0.89101 0
vn 0.70711 -0.70711 0
vn 0.89101 -0.45399 0
vn 0.98769 -0.15643 0
vn -0.98769 -0.15643 0
vn -0.89101 -0.45399 0
vn -0.70711 -0.70711 0
vn -0.45399 -0.89101 0
vn -0.15643 -0.98769 0
vn -1 0 0
vn 0 0 1
vn -0.37349 -0.84912 0.37349
vn -0.13671 -0.84912 0.5102
vn -0.37349 -0.84912 -0.3735
vn -0.5102 -0.84912 -0.13671
vn -0.5102 -0.84912 0.13671
vn 0.37349 -0.84912 -0.3735
vn 0.13671 -0.84912 -0.5102
vn -0.13671 -0.84912 -0.5102
vn 0.37349 -0.84912 0.37349
vn 0.5102 -0.84912 0.13671
vn 0.5102 -0.84912 -0.13671
vn 0.13671 -0.84912 0.5102
vn -0.25882 0 0.96593
vn -0.70711 0 0.70711
vn -0.7071 -0 -0.70712
vn -0.25882 -0 -0.96593
vn 0.25882 0 -0.96593
vn 0.7071 0 -0.70712
vn 0.70711 0 0.70711
vn 0.25882 0 0.96593
vn -0.37349 -0.84912 0.37349
vn -0.13671 -0.84912 0.5102
vn -0.37349 -0.84912 -0.3735
vn -0.5102 -0.84912 -0.13671
vn -0.5102 -0.84912 0.13671
vn 0.37349 -0.84912 -0.3735
vn 0.13671 -0.84912 -0.5102
vn -0.13671 -0.84912 -0.5102
vn 0.37349 -0.84912 0.37349
vn 0.5102 -0.84912 0.13671
vn 0.5102 -0.84912 -0.13671
vn 0.13671 -0.84912 0.5102
vn -0.25882 0 0.96593
vn -0.25882 -0 -0.96593
vn 0.25882 0 -0.96593
vn 0.25882 0 0.96593
vn -0.37349 -0.84912 0.3735
vn -0.13671 -0.84912 0.5102
vn -0.37349 -0.84912 -0.3735
vn -0.5102 -0.84912 0.13671
vn 0.37349 -0.84912 -0.37349
vn 0.13671 -0.84912 -0.5102
vn -0.13671 -0.84912 -0.5102
vn 0.37349 -0.84912 0.3735
vn 0.5102 -0.84912 0.13671
vn 0.13671 -0.84912 0.5102
vn -0.7071 0 0.70711
vn -0.96593 0 0.25882
vn 0.7071 0 -0.70711
vn 0.96593 0 0.25882
vn 0.7071 0 0.70711
vn -0.37349 -0.84912 0.3735
vn -0.13671 -0.84912 0.5102
vn -0.37349 -0.84912 -0.37349
vn -0.5102 -0.84912 0.13671
vn 0.37349 -0.84912 -0.3735
vn 0.13671 -0.84912 -0.5102
vn -0.13671 -0.84912 -0.5102
vn 0.37349 -0.84912 0.3735
vn 0.5102 -0.84912 0.13671
vn 0.13671 -0.84912 0.5102
f 1//1 2//1 3//1
f 3//2 2//2 4//2
f 1//3 3//3 5//3
f 5//4 3//4 6//4
f 5//5 6//5 7//5
f 7//6 6//6 8//6
f 8//7 6//7 9//7
f 8//8 9//8 10//8
f 11//9 12//9 13//9
f 13//10 12//10 14//10
f 15//11 16//11 17//11
f 17//12 16//12 18//12
f 17//13 18//13 19//13
f 20//14 21//14 22//14
f 22//15 21//15 23//15
f 22//16 23//16 24//16
f 24//17 23//17 25//17
f 25//18 23//18 26//18
f 26//19 23//19 27//19
f 26//20 27//20 28//20
f 29//21 30//21 31//21
f 31//22 30//22 17//22
f 31//23 17//23 32//23
f 32//24 17//24 19//24
f 33//25 34//25 35//25
f 20//26 36//26 21//26
f 21//27 36//27 37//27
f 21//28 37//28 38//28
f 38//29 37//29 39//29
f 38//30 39//30 14//30
f 14//31 39//31 40//31
f 14//32 40//32 13//32
f 41//33 42//33 27//33
f 27//34 42//34 43//34
f 27//35 43//35 28//35
f 29//36 44//36 30//36
f 30//37 44//37 45//37
f 30//38 45//38 46//38
f 35//39 47//39 33//39
f 33//40 47//40 48//40
f 33//41 48//41 15//41
f 15//42 48//42 49//42
f 15//43 49//43 16//43
f 50//44 51//44 41//44
f 41//45 51//45 52//45
f 41//46 52//46 42//46
f 45//47 53//47 46//47
f 46//48 53//48 54//48
f 46//49 54//49 50//49
f 50//50 54//50 55//50
f 50//51 55//51 51//51
f 56//52 57//52 58//52
f 58//53 57//53 59//53
f 58//54 59//54 60//54
f 60//55 59//55 61//55
f 61//56 59//56 62//56
f 61//57 62//57 63//57
f 63//58 62//58 64//58
f 63//59 64//59 65//59
f 65//60 64//60 66//60
f 67//61 68//61 69//61
f 69//61 68//61 70//61
f 69//62 70//62 71//62
f 71//62 70//62 72//62
f 71//63 72//63 73//63
f 73//63 72//63 74//63
f 73//64 74//64 75//64
f 75//64 74//64 76//64
f 75//65 76//65 77//65
f 77//65 76//65 78//65
f 77//66 78//66 66//66
f 66//66 78//66 79//66
f 66//60 79//60 65//60
f 68//67 67//67 80//67
f 80//67 67//67 81//67
f 80//68 81//68 82//68
f 82//68 81//68 83//68
f 82//69 83//69 84//69
f 84//69 83//69 85//69
f 84//70 85//70 86//70
f 86//70 85//70 87//70
f 86//71 87//71 88//71
f 88//71 87//71 89//71
f 88//72 89//72 90//72
f 90//72 89//72 91//72
f 90//73 91//73 92//73
f 92//73 91//73 93//73
f 92//74 93//74 94//74
f 94//74 93//74 95//74
f 94//75 95//75 96//75
f 96//75 95//75 97//75
f 96//76 97//76 98//76
f 98//76 97//76 99//76
f 98//77 99//77 100//77
f 101//78 102//78 103//78
f 103//78 102//78 104//78
f 103//79 104//79 105//79
f 105//79 104//79 106//79
f 105//80 106//80 107//80
f 107//80 106//80 108//80
f 107//81 108//81 109//81
f 109//81 108//81 110//81
f 109//82 110//82 111//82
f 111//82 110//82 112//82
f 111//83 112//83 113//83
f 113//83 112//83 114//83
f 113//84 114//84 115//84
f 115//84 114//84 116//84
f 115//85 116//85 117//85
f 117//85 116//85 118//85
f 117//86 118//86 119//86
f 119//86 118//86 120//86
f 119//87 120//87 100//87
f 100//87 120//87 121//87
f 100//77 121//77 98//77
f 102//88 101//88 122//88
f 122//88 101//88 123//88
f 122//89 123//89 124//89
f 124//89 123//89 125//89
f 124//90 125//90 126//90
f 126//90 125//90 127//90
f 126//91 127//91 128//91
f 128//91 127//91 129//91
f 128//92 129//92 130//92
f 130//92 129//92 131//92
f 130//93 131//93 132//93
f 131//93 133//93 132//93
f 132//94 133//94 4//94
f 132//94 4//94 2//94
f 134//95 135//95 136//95
f 137//95 138//95 139//95
f 139//95 138//95 140//95
f 139//95 140//95 141//95
f 141//95 140//95 142//95
f 141//95 142//95 135//95
f 135//95 142//95 143//95
f 135//95 143//95 136//95
f 144//95 145//95 146//95
f 146//95 145//95 147//95
f 148//95 149//95 150//95
f 150//95 149//95 151//95
f 150//95 151//95 152//95
f 152//95 151//95 153//95
f 152//95 153//95 154//95
f 147//95 145//95 153//95
f 153//95 145//95 155//95
f 153//95 155//95 154//95
f 134//95 136//95 150//95
f 150//95 136//95 156//95
f 150//95 156//95 148//95
f 157//95 158//95 146//95
f 146//95 158//95 159//95
f 146//95 159//95 144//95
f 160//95 161//95 162//95
f 160//95 162//95 163//95
f 161//95 164//95 162//95
f 162//95 164//95 165//95
f 162//95 165//95 166//95
f 166//95 165//95 167//95
f 157//95 146//95 162//95
f 162//95 146//95 168//95
f 162//95 168//95 163//95
f 169//96 170//96 171//96
f 170//96 169//96 172//96
f 172//96 169//96 173//96
f 172//96 173//96 174//96
f 175//96 176//96 177//96
f 177//96 176//96 178//96
f 177//96 178//96 179//96
f 180//96 181//96 182//96
f 182//96 181//96 183//96
f 182//96 183//96 184//96
f 184//96 183//96 185//96
f 185//96 175//96 184//96
f 184//96 175//96 177//96
f 184//96 177//96 186//96
f 186//96 187//96 188//96
f 188//96 187//96 189//96
f 188//96 189//96 190//96
f 190//96 189//96 191//96
f 190//96 191//96 192//96
f 193//96 194//96 195//96
f 196//96 197//96 198//96
f 198//96 197//96 199//96
f 198//96 199//96 200//96
f 201//96 202//96 203//96
f 203//96 202//96 204//96
f 203//96 204//96 205//96
f 205//96 204//96 206//96
f 195//96 194//96 203//96
f 203//96 194//96 207//96
f 203//96 207//96 201//96
f 200//96 208//96 209//96
f 209//96 208//96 210//96
f 209//96 210//96 194//96
f 194//96 210//96 211//96
f 194//96 211//96 207//96
f 195//96 212//96 193//96
f 193//96 212//96 213//96
f 193//96 213//96 214//96
f 215//96 216//96 205//96
f 217//96 216//96 218//96
f 218//96 216//96 215//96
f 218//96 215//96 219//96
f 220//96 221//96 222//96
f 223//96 224//96 225//96
f 225//96 224//96 226//96
f 225//96 226//96 227//96
f 227//96 226//96 228//96
f 221//96 229//96 222//96
f 222//96 229//96 230//96
f 222//96 230//96 231//96
f 232//96 233//96 234//96
f 234//96 233//96 231//96
f 234//96 231//96 235//96
f 235//96 231//96 230//96
f 232//96 236//96 233//96
f 233//96 236//96 237//96
f 233//96 237//96 223//96
f 223//96 237//96 238//96
f 223//96 238//96 224//96
f 226//96 220//96 228//96
f 228//96 220//96 222//96
f 228//96 222//96 239//96
f 239//96 222//96 240//96
f 239//96 240//96 241//96
f 241//96 240//96 242//96
f 242//96 240//96 243//96
f 242//96 243//96 244//96
f 244//96 243//96 245//96
f 244//96 245//96 246//96
f 247//96 248//96 249//96
f 249//96 248//96 250//96
f 251//96 252//96 253//96
f 253//96 252//96 254//96
f 255//96 256//96 254//96
f 254//96 256//96 257//96
f 254//96 257//96 253//96
f 258//96 259//96 245//96
f 245//96 259//96 260//96
f 245//96 260//96 246//96
f 246//96 260//96 261//96
f 246//96 261//96 262//96
f 262//96 261//96 255//96
f 262//96 255//96 263//96
f 263//96 255//96 254//96
f 251//96 247//96 252//96
f 252//96 247//96 249//96
f 252//96 249//96 264//96
f 264//96 249//96 265//96
f 249//96 266//96 265//96
f 265//96 266//96 267//96
f 265//96 267//96 268//96
f 268//96 267//96 177//96
f 268//96 177//96 173//96
f 173//96 177//96 179//96
f 173//96 179//96 174//96
f 171//96 180//96 169//96
f 169//96 180//96 182//96
f 169//96 182//96 269//96
f 269//96 182//96 270//96
f 269//96 270//96 271//96
f 271//96 270//96 272//96
f 271//96 272//96 273//96
f 219//96 274//96 275//96
f 275//96 274//96 276//96
f 275//96 276//96 277//96
f 278//96 279//96 280//96
f 281//96 282//96 283//96
f 283//96 282//96 284//96
f 283//96 284//96 278//96
f 278//96 284//96 285//96
f 278//96 285//96 279//96
f 286//96 287//96 219//96
f 219//96 287//96 288//96
f 219//96 288//96 274//96
f 206//96 196//96 205//96
f 205//96 196//96 198//96
f 205//96 198//96 215//96
f 215//96 198//96 278//96
f 215//96 278//96 219//96
f 219//96 278//96 280//96
f 219//96 280//96 286//96
f 289//96 283//96 290//96
f 290//96 283//96 278//96
f 290//96 278//96 291//96
f 291//96 278//96 292//96
f 209//96 192//96 293//96
f 293//96 192//96 191//96
f 293//96 191//96 294//96
f 294//96 191//96 295//96
f 296//96 297//96 191//96
f 191//96 297//96 298//96
f 191//96 298//96 295//96
f 294//96 299//96 293//96
f 293//96 299//96 300//96
f 293//96 300//96 301//96
f 200//96 209//96 198//96
f 198//96 209//96 293//96
f 198//96 293//96 278//96
f 278//96 293//96 301//96
f 278//96 301//96 292//96
f 243//96 302//96 303//96
f 304//96 305//96 306//96
f 305//96 307//96 306//96
f 306//96 307//96 308//96
f 306//96 308//96 275//96
f 275//96 308//96 309//96
f 275//96 309//96 310//96
f 310//96 311//96 275//96
f 275//96 311//96 240//96
f 275//96 240//96 219//96
f 219//96 240//96 222//96
f 219//96 222//96 218//96
f 218//96 222//96 231//96
f 218//96 231//96 217//96
f 217//96 231//96 233//96
f 311//96 312//96 240//96
f 240//96 312//96 313//96
f 240//96 313//96 243//96
f 243//96 313//96 314//96
f 243//96 314//96 302//96
f 303//96 304//96 243//96
f 243//96 304//96 306//96
f 243//96 306//96 245//96
f 245//96 306//96 315//96
f 277//96 281//96 275//96
f 275//96 281//96 283//96
f 275//96 283//96 306//96
f 306//96 283//96 316//96
f 306//96 316//96 315//96
f 315//96 316//96 317//96
f 318//96 319//96 189//96
f 317//96 320//96 187//96
f 187//96 320//96 321//96
f 322//96 323//96 316//96
f 323//96 324//96 316//96
f 316//96 324//96 325//96
f 316//96 325//96 317//96
f 317//96 325//96 326//96
f 317//96 326//96 320//96
f 321//96 327//96 187//96
f 187//96 327//96 328//96
f 187//96 328//96 189//96
f 189//96 328//96 329//96
f 189//96 329//96 318//96
f 319//96 322//96 189//96
f 189//96 322//96 316//96
f 189//96 316//96 191//96
f 191//96 316//96 283//96
f 191//96 283//96 296//96
f 296//96 283//96 289//96
f 186//96 177//96 187//96
f 187//96 177//96 267//96
f 187//96 267//96 317//96
f 317//96 267//96 266//96
f 317//96 266//96 315//96
f 315//96 266//96 249//96
f 315//96 249//96 245//96
f 245//96 249//96 250//96
f 245//96 250//96 258//96
f 330//97 331//97 59//97
f 59//98 331//98 212//98
f 212//99 195//99 59//99
f 59//100 195//100 203//100
f 59//101 203//101 62//101
f 62//102 203//102 205//102
f 62//103 205//103 64//103
f 233//104 223//104 67//104
f 67//105 69//105 233//105
f 233//106 69//106 71//106
f 233//107 71//107 217//107
f 71//108 73//108 217//108
f 217//109 73//109 75//109
f 217//110 75//110 216//110
f 64//111 205//111 66//111
f 66//112 205//112 216//112
f 66//113 216//113 77//113
f 77//114 216//114 75//114
f 263//115 254//115 101//115
f 101//116 103//116 263//116
f 263//117 103//117 105//117
f 263//118 105//118 262//118
f 105//119 107//119 262//119
f 262//120 107//120 109//120
f 262//121 109//121 246//121
f 109//122 111//122 246//122
f 246//123 111//123 113//123
f 246//124 113//124 244//124
f 113//125 115//125 244//125
f 244//126 115//126 117//126
f 244//127 117//127 242//127
f 99//128 241//128 100//128
f 100//128 241//128 242//128
f 100//129 242//129 119//129
f 119//130 242//130 117//130
f 99//131 97//131 241//131
f 241//132 97//132 95//132
f 241//133 95//133 239//133
f 95//134 93//134 239//134
f 239//135 93//135 91//135
f 239//136 91//136 228//136
f 91//137 89//137 228//137
f 228//138 89//138 87//138
f 228//139 87//139 227//139
f 67//140 223//140 81//140
f 81//141 223//141 225//141
f 81//142 225//142 83//142
f 83//143 225//143 227//143
f 83//144 227//144 85//144
f 85//145 227//145 87//145
f 123//146 101//146 254//146
f 4//147 133//147 173//147
f 173//148 133//148 268//148
f 133//149 131//149 268//149
f 268//150 131//150 129//150
f 268//151 129//151 265//151
f 254//152 252//152 123//152
f 123//153 252//153 264//153
f 123//154 264//154 125//154
f 125//155 264//155 265//155
f 125//156 265//156 127//156
f 127//157 265//157 129//157
f 332//158 333//158 271//158
f 271//159 333//159 6//159
f 271//160 6//160 334//160
f 334//161 6//161 3//161
f 334//162 3//162 335//162
f 335//163 3//163 4//163
f 335//164 4//164 336//164
f 8//165 10//165 337//165
f 337//166 338//166 8//166
f 8//167 338//167 339//167
f 8//168 339//168 7//168
f 7//169 339//169 340//169
f 7//170 340//170 5//170
f 5//171 340//171 341//171
f 5//172 341//172 1//172
f 1//173 341//173 342//173
f 1//174 342//174 2//174
f 343//175 102//175 344//175
f 344//176 102//176 122//176
f 344//177 122//177 345//177
f 345//178 122//178 346//178
f 346//179 122//179 124//179
f 346//180 124//180 347//180
f 130//181 348//181 128//181
f 128//182 348//182 347//182
f 128//183 347//183 126//183
f 126//184 347//184 124//184
f 2//185 342//185 132//185
f 132//186 342//186 349//186
f 132//187 349//187 130//187
f 130//188 349//188 350//188
f 130//189 350//189 348//189
f 104//190 102//190 343//190
f 84//191 351//191 82//191
f 82//192 351//192 352//192
f 82//193 352//193 80//193
f 80//194 352//194 353//194
f 80//195 353//195 68//195
f 68//196 353//196 354//196
f 355//197 356//197 96//197
f 96//198 356//198 357//198
f 96//199 357//199 94//199
f 94//200 357//200 358//200
f 94//201 358//201 92//201
f 92//202 358//202 359//202
f 92//203 359//203 90//203
f 90//204 359//204 360//204
f 90//205 360//205 88//205
f 88//206 360//206 361//206
f 88//207 361//207 86//207
f 86//208 361//208 362//208
f 86//209 362//209 84//209
f 84//210 362//210 363//210
f 84//211 363//211 351//211
f 116//212 364//212 118//212
f 118//213 364//213 365//213
f 118//214 365//214 120//214
f 120//215 365//215 366//215
f 120//216 366//216 121//216
f 121//217 366//217 355//217
f 121//218 355//218 98//218
f 98//219 355//219 96//219
f 343//220 367//220 104//220
f 104//221 367//221 368//221
f 104//222 368//222 106//222
f 106//223 368//223 369//223
f 106//224 369//224 108//224
f 108//225 369//225 370//225
f 108//226 370//226 110//226
f 110//227 370//227 371//227
f 110//228 371//228 112//228
f 112//229 371//229 372//229
f 112//230 372//230 114//230
f 114//231 372//231 373//231
f 114//232 373//232 116//232
f 116//233 373//233 374//233
f 116//234 374//234 364//234
f 70//235 68//235 354//235
f 375//236 65//236 376//236
f 376//237 65//237 79//237
f 376//238 79//238 377//238
f 377//239 79//239 78//239
f 377//240 78//240 378//240
f 378//241 78//241 76//241
f 378//242 76//242 379//242
f 379//243 76//243 74//243
f 379//244 74//244 380//244
f 380//245 74//245 72//245
f 380//246 72//246 381//246
f 381//247 72//247 70//247
f 381//248 70//248 382//248
f 382//249 70//249 354//249
f 383//250 56//250 384//250
f 384//251 56//251 58//251
f 384//252 58//252 385//252
f 385//253 58//253 386//253
f 386//254 58//254 60//254
f 386//255 60//255 387//255
f 65//256 375//256 63//256
f 63//257 375//257 387//257
f 63//258 387//258 61//258
f 61//259 387//259 60//259
f 388//260 389//260 139//260
f 139//261 389//261 390//261
f 139//262 390//262 137//262
f 391//263 392//263 393//263
f 393//264 394//264 391//264
f 391//265 394//265 395//265
f 391//266 395//266 388//266
f 388//267 395//267 396//267
f 388//268 396//268 389//268
f 337//269 397//269 398//269
f 397//270 399//270 398//270
f 398//271 399//271 20//271
f 398//272 20//272 392//272
f 392//273 20//273 400//273
f 392//274 400//274 393//274
f 340//275 339//275 398//275
f 398//276 339//276 338//276
f 398//277 338//277 337//277
f 401//278 402//278 403//278
f 403//279 402//279 404//279
f 403//280 404//280 405//280
f 405//281 404//281 406//281
f 405//282 406//282 407//282
f 407//283 406//283 408//283
f 407//284 408//284 134//284
f 134//285 408//285 135//285
f 402//286 409//286 404//286
f 404//287 409//287 410//287
f 404//288 410//288 406//288
f 406//289 410//289 411//289
f 406//290 411//290 408//290
f 408//291 411//291 412//291
f 408//292 412//292 135//292
f 135//293 412//293 141//293
f 139//294 141//294 388//294
f 388//295 141//295 412//295
f 388//296 412//296 391//296
f 391//297 412//297 411//297
f 391//298 411//298 392//298
f 392//299 411//299 410//299
f 392//300 410//300 398//300
f 398//301 410//301 409//301
f 398//302 409//302 340//302
f 340//303 409//303 402//303
f 340//304 402//304 341//304
f 341//305 402//305 401//305
f 341//306 401//306 342//306
f 413//307 343//307 344//307
f 414//308 415//308 416//308
f 416//309 415//309 417//309
f 416//310 417//310 413//310
f 418//311 419//311 420//311
f 420//312 419//312 414//312
f 421//313 422//313 423//313
f 423//314 422//314 418//314
f 424//315 425//315 426//315
f 426//316 425//316 421//316
f 144//317 427//317 145//317
f 145//318 427//318 428//318
f 145//319 428//319 424//319
f 413//320 344//320 416//320
f 416//321 344//321 345//321
f 416//322 345//322 429//322
f 345//323 346//323 429//323
f 429//324 346//324 347//324
f 429//325 347//325 430//325
f 430//326 347//326 348//326
f 430//327 348//327 431//327
f 431//328 348//328 350//328
f 431//329 350//329 432//329
f 350//330 349//330 432//330
f 432//331 349//331 342//331
f 432//332 342//332 401//332
f 414//333 416//333 420//333
f 420//334 416//334 429//334
f 420//335 429//335 433//335
f 433//336 429//336 430//336
f 433//337 430//337 434//337
f 434//338 430//338 431//338
f 434//339 431//339 435//339
f 435//340 431//340 432//340
f 435//341 432//341 436//341
f 436//342 432//342 401//342
f 436//343 401//343 403//343
f 418//344 420//344 423//344
f 423//345 420//345 433//345
f 423//345 433//345 437//345
f 437//346 433//346 434//346
f 437//347 434//347 438//347
f 438//348 434//348 435//348
f 438//349 435//349 439//349
f 439//350 435//350 436//350
f 439//351 436//351 440//351
f 440//352 436//352 403//352
f 440//353 403//353 405//353
f 421//354 423//354 426//354
f 426//355 423//355 437//355
f 426//356 437//356 441//356
f 441//357 437//357 438//357
f 441//358 438//358 442//358
f 442//359 438//359 439//359
f 442//360 439//360 443//360
f 443//361 439//361 440//361
f 443//362 440//362 444//362
f 444//363 440//363 405//363
f 444//364 405//364 407//364
f 424//365 426//365 145//365
f 145//366 426//366 441//366
f 145//367 441//367 155//367
f 155//368 441//368 442//368
f 155//369 442//369 154//369
f 154//370 442//370 443//370
f 154//371 443//371 152//371
f 152//372 443//372 444//372
f 152//373 444//373 150//373
f 150//374 444//374 407//374
f 150//375 407//375 134//375
f 445//376 446//376 447//376
f 447//377 446//377 448//377
f 449//378 450//378 451//378
f 452//379 453//379 454//379
f 455//380 456//380 457//380
f 457//381 456//381 458//381
f 459//382 146//382 460//382
f 460//383 146//383 147//383
f 421//384 425//384 461//384
f 461//385 425//385 424//385
f 424//386 428//386 159//386
f 159//387 428//387 427//387
f 159//388 427//388 144//388
f 418//389 422//389 462//389
f 462//390 422//390 421//390
f 414//391 419//391 463//391
f 463//392 419//392 418//392
f 413//393 417//393 464//393
f 464//394 417//394 415//394
f 464//395 415//395 414//395
f 363//396 465//396 351//396
f 351//397 465//397 466//397
f 351//398 466//398 352//398
f 352//399 466//399 447//399
f 352//400 447//400 353//400
f 353//401 447//401 448//401
f 353//402 448//402 354//402
f 363//403 362//403 465//403
f 465//404 362//404 361//404
f 465//405 361//405 467//405
f 361//406 360//406 467//406
f 467//407 360//407 359//407
f 467//408 359//408 468//408
f 468//409 359//409 358//409
f 468//410 358//410 469//410
f 358//411 357//411 469//411
f 469//412 357//412 356//412
f 469//413 356//413 470//413
f 356//414 471//414 470//414
f 470//415 471//415 366//415
f 470//416 366//416 472//416
f 366//417 365//417 472//417
f 472//418 365//418 364//418
f 472//419 364//419 473//419
f 364//420 374//420 473//420
f 473//421 374//421 373//421
f 473//422 373//422 474//422
f 474//423 373//423 372//423
f 474//424 372//424 475//424
f 372//425 371//425 475//425
f 475//426 371//426 370//426
f 475//427 370//427 476//427
f 343//428 413//428 367//428
f 367//429 413//429 464//429
f 367//430 464//430 368//430
f 368//431 464//431 476//431
f 368//432 476//432 369//432
f 369//433 476//433 370//433
f 414//434 463//434 464//434
f 464//435 463//435 477//435
f 464//436 477//436 476//436
f 476//437 477//437 478//437
f 476//438 478//438 475//438
f 475//439 478//439 479//439
f 475//440 479//440 474//440
f 474//441 479//441 480//441
f 474//442 480//442 473//442
f 473//443 480//443 481//443
f 473//444 481//444 472//444
f 472//445 481//445 482//445
f 472//446 482//446 470//446
f 470//447 482//447 483//447
f 470//448 483//448 469//448
f 469//449 483//449 484//449
f 469//450 484//450 468//450
f 468//451 484//451 485//451
f 468//452 485//452 467//452
f 467//453 485//453 486//453
f 467//454 486//454 465//454
f 465//455 486//455 487//455
f 465//456 487//456 466//456
f 466//457 487//457 449//457
f 466//458 449//458 447//458
f 447//459 449//459 451//459
f 447//460 451//460 445//460
f 418//461 462//461 463//461
f 463//462 462//462 488//462
f 463//463 488//463 477//463
f 477//464 488//464 489//464
f 477//465 489//465 478//465
f 478//466 489//466 490//466
f 478//467 490//467 479//467
f 479//468 490//468 491//468
f 479//469 491//469 480//469
f 480//470 491//470 492//470
f 480//471 492//471 481//471
f 481//472 492//472 493//472
f 481//473 493//473 482//473
f 482//474 493//474 494//474
f 482//475 494//475 483//475
f 483//476 494//476 495//476
f 483//477 495//477 484//477
f 484//478 495//478 496//478
f 484//479 496//479 485//479
f 485//480 496//480 497//480
f 485//481 497//481 486//481
f 486//482 497//482 498//482
f 486//483 498//483 487//483
f 487//484 498//484 452//484
f 487//485 452//485 449//485
f 449//486 452//486 454//486
f 449//487 454//487 450//487
f 421//488 461//488 462//488
f 462//489 461//489 499//489
f 462//489 499//489 488//489
f 488//490 499//490 500//490
f 488//491 500//491 489//491
f 489//492 500//492 501//492
f 489//493 501//493 490//493
f 490//494 501//494 502//494
f 490//495 502//495 491//495
f 491//496 502//496 503//496
f 491//497 503//497 492//497
f 492//498 503//498 504//498
f 492//499 504//499 493//499
f 493//500 504//500 505//500
f 493//501 505//501 494//501
f 494//502 505//502 506//502
f 494//503 506//503 495//503
f 495//504 506//504 507//504
f 495//505 507//505 496//505
f 496//506 507//506 508//506
f 496//507 508//507 497//507
f 497//508 508//508 509//508
f 497//509 509//509 498//509
f 498//510 509//510 457//510
f 498//510 457//510 452//510
f 452//511 457//511 458//511
f 452//512 458//512 453//512
f 424//513 159//513 461//513
f 461//514 159//514 158//514
f 461//515 158//515 499//515
f 499//516 158//516 157//516
f 499//517 157//517 500//517
f 500//518 157//518 162//518
f 500//519 162//519 501//519
f 501//520 162//520 166//520
f 501//521 166//521 502//521
f 502//522 166//522 167//522
f 502//523 167//523 503//523
f 503//524 167//524 510//524
f 503//525 510//525 504//525
f 504//526 510//526 164//526
f 504//527 164//527 505//527
f 505//528 164//528 161//528
f 505//529 161//529 506//529
f 506//530 161//530 160//530
f 506//531 160//531 507//531
f 507//532 160//532 163//532
f 507//533 163//533 508//533
f 508//534 163//534 168//534
f 508//535 168//535 509//535
f 509//536 168//536 146//536
f 509//537 146//537 457//537
f 457//538 146//538 459//538
f 457//539 459//539 455//539
f 448//540 446//540 511//540
f 460//541 147//541 153//541
f 512//542 455//542 153//542
f 153//543 455//543 459//543
f 153//544 459//544 460//544
f 513//545 458//545 512//545
f 512//546 458//546 456//546
f 512//547 456//547 455//547
f 514//548 454//548 513//548
f 513//549 454//549 453//549
f 513//550 453//550 458//550
f 446//551 445//551 511//551
f 511//552 445//552 451//552
f 511//553 451//553 514//553
f 514//554 451//554 450//554
f 514//555 450//555 454//555
f 376//556 377//556 515//556
f 354//557 448//557 382//557
f 382//558 448//558 511//558
f 382//559 511//559 381//559
f 381//560 511//560 380//560
f 516//561 517//561 518//561
f 518//562 517//562 519//562
f 518//563 519//563 520//563
f 520//564 519//564 521//564
f 520//565 521//565 522//565
f 522//566 521//566 523//566
f 522//567 523//567 136//567
f 136//568 523//568 156//568
f 148//569 156//569 524//569
f 524//570 156//570 523//570
f 524//571 523//571 525//571
f 525//572 523//572 521//572
f 525//573 521//573 526//573
f 526//574 521//574 519//574
f 526//575 519//575 515//575
f 515//576 519//576 517//576
f 515//577 517//577 376//577
f 376//578 517//578 516//578
f 376//579 516//579 375//579
f 515//580 527//580 526//580
f 526//581 527//581 528//581
f 526//582 528//582 525//582
f 525//583 528//583 529//583
f 525//584 529//584 524//584
f 524//585 529//585 530//585
f 524//586 530//586 148//586
f 148//587 530//587 149//587
f 527//588 531//588 528//588
f 528//589 531//589 532//589
f 528//590 532//590 529//590
f 529//591 532//591 533//591
f 529//592 533//592 530//592
f 530//593 533//593 534//593
f 530//594 534//594 149//594
f 149//595 534//595 151//595
f 377//596 378//596 515//596
f 515//597 378//597 379//597
f 515//598 379//598 527//598
f 527//599 379//599 380//599
f 527//600 380//600 531//600
f 531//601 380//601 511//601
f 531//602 511//602 532//602
f 532//603 511//603 514//603
f 532//604 514//604 533//604
f 533//604 514//604 513//604
f 533//605 513//605 534//605
f 534//606 513//606 512//606
f 534//607 512//607 151//607
f 151//608 512//608 153//608
f 385//609 386//609 535//609
f 536//610 384//610 537//610
f 537//611 384//611 538//611
f 537//612 538//612 18//612
f 18//613 538//613 539//613
f 539//614 538//614 540//614
f 539//615 540//615 541//615
f 542//616 543//616 540//616
f 540//617 543//617 544//617
f 540//618 544//618 541//618
f 545//619 546//619 542//619
f 542//620 546//620 547//620
f 542//621 547//621 543//621
f 138//622 548//622 140//622
f 140//623 548//623 549//623
f 140//624 549//624 545//624
f 545//625 549//625 550//625
f 545//626 550//626 546//626
f 384//627 385//627 538//627
f 538//628 385//628 535//628
f 538//629 535//629 540//629
f 540//630 535//630 551//630
f 540//631 551//631 542//631
f 542//632 551//632 552//632
f 542//633 552//633 545//633
f 545//634 552//634 553//634
f 545//635 553//635 140//635
f 140//636 553//636 142//636
f 386//637 387//637 535//637
f 535//638 387//638 554//638
f 535//639 554//639 551//639
f 551//640 554//640 555//640
f 551//641 555//641 552//641
f 552//642 555//642 556//642
f 552//643 556//643 553//643
f 553//644 556//644 557//644
f 553//645 557//645 142//645
f 142//646 557//646 143//646
f 387//647 375//647 554//647
f 554//648 375//648 516//648
f 554//649 516//649 555//649
f 555//650 516//650 518//650
f 555//651 518//651 556//651
f 556//652 518//652 520//652
f 556//653 520//653 557//653
f 557//654 520//654 522//654
f 557//655 522//655 143//655
f 143//656 522//656 136//656
f 558//657 559//657 560//657
f 561//658 559//658 558//658
f 558//659 562//659 563//659
f 564//660 562//660 558//660
f 560//661 564//661 558//661
f 558//662 565//662 566//662
f 567//663 565//663 558//663
f 563//664 567//664 558//664
f 558//665 568//665 569//665
f 570//666 568//666 558//666
f 566//667 570//667 558//667
f 569//668 561//668 558//668
f 561//669 571//669 559//669
f 559//669 571//669 572//669
f 559//670 572//670 560//670
f 560//670 572//670 573//670
f 560//671 573//671 564//671
f 564//671 573//671 574//671
f 564//672 574//672 562//672
f 562//672 574//672 575//672
f 562//673 575//673 563//673
f 563//673 575//673 576//673
f 563//674 576//674 567//674
f 567//674 576//674 577//674
f 567//675 577//675 565//675
f 565//675 577//675 578//675
f 565//676 578//676 566//676
f 566//676 578//676 579//676
f 566//677 579//677 570//677
f 570//677 579//677 580//677
f 570//678 580//678 568//678
f 568//678 580//678 581//678
f 568//679 581//679 569//679
f 569//679 581//679 582//679
f 569//680 582//680 561//680
f 561//680 582//680 571//680
f 583//681 584//681 585//681
f 586//682 584//682 583//682
f 583//683 587//683 588//683
f 589//660 587//660 583//660
f 585//661 589//661 583//661
f 583//684 590//684 591//684
f 592//685 590//685 583//685
f 588//686 592//686 583//686
f 583//687 593//687 594//687
f 595//666 593//666 583//666
f 591//667 595//667 583//667
f 594//688 586//688 583//688
f 586//689 596//689 584//689
f 584//689 596//689 597//689
f 584//690 597//690 585//690
f 585//690 597//690 598//690
f 585//671 598//671 589//671
f 589//671 598//671 599//671
f 589//672 599//672 587//672
f 587//672 599//672 600//672
f 587//691 600//691 588//691
f 588//691 600//691 601//691
f 588//692 601//692 592//692
f 592//692 601//692 602//692
f 592//693 602//693 590//693
f 590//693 602//693 603//693
f 590//694 603//694 591//694
f 591//694 603//694 604//694
f 591//677 604//677 595//677
f 595//677 604//677 605//677
f 595//678 605//678 593//678
f 593//678 605//678 606//678
f 593//695 606//695 594//695
f 594//695 606//695 607//695
f 594//696 607//696 586//696
f 586//696 607//696 596//696
f 608//697 609//697 610//697
f 611//698 609//698 608//698
f 608//699 612//699 613//699
f 614//660 612//660 608//660
f 610//700 614//700 608//700
f 608//701 615//701 616//701
f 617//702 615//702 608//702
f 613//703 617//703 608//703
f 608//704 618//704 619//704
f 620//705 618//705 608//705
f 616//667 620//667 608//667
f 619//706 611//706 608//706
f 611//689 621//689 609//689
f 609//689 621//689 622//689
f 609//690 622//690 610//690
f 610//690 622//690 623//690
f 610//707 623//707 614//707
f 614//707 623//707 624//707
f 614//672 624//672 612//672
f 612//672 624//672 625//672
f 612//708 625//708 613//708
f 613//708 625//708 626//708
f 613//692 626//692 617//692
f 617//692 626//692 627//692
f 617//693 627//693 615//693
f 615//693 627//693 628//693
f 615//709 628//709 616//709
f 616//709 628//709 629//709
f 616//677 629//677 620//677
f 620//677 629//677 630//677
f 620//710 630//710 618//710
f 618//710 630//710 631//710
f 618//695 631//695 619//695
f 619//695 631//695 632//695
f 619//696 632//696 611//696
f 611//696 632//696 621//696
f 633//711 634//711 635//711
f 636//712 634//712 633//712
f 633//659 637//659 638//659
f 639//660 637//660 633//660
f 635//700 639//700 633//700
f 633//713 640//713 641//713
f 642//663 640//663 633//663
f 638//664 642//664 633//664
f 633//714 643//714 644//714
f 645//715 643//715 633//715
f 641//716 645//716 633//716
f 644//717 636//717 633//717
f 636//669 646//669 634//669
f 634//669 646//669 647//669
f 634//670 647//670 635//670
f 635//670 647//670 648//670
f 635//707 648//707 639//707
f 639//707 648//707 649//707
f 639//672 649//672 637//672
f 637//672 649//672 650//672
f 637//673 650//673 638//673
f 638//673 650//673 651//673
f 638//674 651//674 642//674
f 642//674 651//674 652//674
f 642//675 652//675 640//675
f 640//675 652//675 653//675
f 640//709 653//709 641//709
f 641//709 653//709 654//709
f 641//718 654//718 645//718
f 645//718 654//718 655//718
f 645//719 655//719 643//719
f 643//719 655//719 656//719
f 643//695 656//695 644//695
f 644//695 656//695 657//695
f 644//680 657//680 636//680
f 636//680 657//680 646//680
f 182//720 658//720 270//720
f 270//720 658//720 659//720
f 270//720 659//720 272//720
f 660//721 661//721 662//721
f 662//721 661//721 663//721
f 662//722 663//722 664//722
f 664//722 663//722 665//722
f 664//723 665//723 666//723
f 666//723 665//723 667//723
f 666//724 667//724 668//724
f 668//724 667//724 669//724
f 668//725 669//725 658//725
f 658//725 669//725 659//725
f 660//96 670//96 661//96
f 661//96 670//96 671//96
f 672//726 673//726 674//726
f 674//726 673//726 675//726
f 674//727 675//727 676//727
f 676//727 675//727 677//727
f 676//728 677//728 678//728
f 678//728 677//728 679//728
f 678//729 679//729 680//729
f 680//729 679//729 681//729
f 680//730 681//730 670//730
f 670//730 681//730 671//730
f 682//731 673//731 683//731
f 683//731 673//731 672//731
f 683//731 672//731 684//731
f 658//732 182//732 184//732
f 666//732 668//732 658//732
f 666//732 658//732 664//732
f 664//732 658//732 184//732
f 664//732 184//732 662//732
f 662//732 184//732 186//732
f 662//732 186//732 660//732
f 660//732 186//732 188//732
f 660//732 188//732 670//732
f 188//732 190//732 670//732
f 670//732 190//732 192//732
f 670//732 192//732 680//732
f 680//732 192//732 209//732
f 680//732 209//732 678//732
f 678//732 209//732 685//732
f 685//732 672//732 678//732
f 678//732 672//732 674//732
f 678//732 674//732 676//732
f 686//733 687//733 688//733
f 689//734 687//734 686//734
f 686//735 690//735 691//735
f 692//736 690//736 686//736
f 688//737 692//737 686//737
f 686//738 693//738 694//738
f 695//739 693//739 686//739
f 691//740 695//740 686//740
f 686//741 696//741 697//741
f 698//742 696//742 686//742
f 694//743 698//743 686//743
f 697//744 689//744 686//744
f 689//745 699//745 687//745
f 687//745 699//745 700//745
f 687//746 700//746 688//746
f 688//746 700//746 701//746
f 688//671 701//671 692//671
f 692//671 701//671 702//671
f 692//672 702//672 690//672
f 690//672 702//672 703//672
f 690//747 703//747 691//747
f 691//747 703//747 704//747
f 691//748 704//748 695//748
f 695//748 704//748 705//748
f 695//749 705//749 693//749
f 693//749 705//749 706//749
f 693//750 706//750 694//750
f 694//750 706//750 707//750
f 694//677 707//677 698//677
f 698//677 707//677 708//677
f 698//678 708//678 696//678
f 696//678 708//678 709//678
f 696//751 709//751 697//751
f 697//751 709//751 710//751
f 697//752 710//752 689//752
f 689//752 710//752 699//752
f 711//753 712//753 713//753
f 714//754 712//754 711//754
f 711//755 715//755 716//755
f 717//756 715//756 711//756
f 713//757 717//757 711//757
f 711//758 718//758 719//758
f 720//759 718//759 711//759
f 716//760 720//760 711//760
f 711//761 721//761 722//761
f 723//762 721//762 711//762
f 719//763 723//763 711//763
f 722//764 714//764 711//764
f 714//765 724//765 712//765
f 712//765 724//765 725//765
f 712//746 725//746 713//746
f 713//746 725//746 726//746
f 713//671 726//671 717//671
f 717//671 726//671 727//671
f 717//672 727//672 715//672
f 715//672 727//672 728//672
f 715//747 728//747 716//747
f 716//747 728//747 729//747
f 716//766 729//766 720//766
f 720//766 729//766 730//766
f 720//767 730//767 718//767
f 718//767 730//767 731//767
f 718//750 731//750 719//750
f 719//750 731//750 732//750
f 719//677 732//677 723//677
f 723//677 732//677 733//677
f 723//678 733//678 721//678
f 721//678 733//678 734//678
f 721//751 734//751 722//751
f 722//751 734//751 735//751
f 722//768 735//768 714//768
f 714//768 735//768 724//768
f 736//769 737//769 738//769
f 739//770 737//770 736//770
f 736//771 740//771 741//771
f 742//736 740//736 736//736
f 738//772 742//772 736//772
f 736//773 743//773 744//773
f 745//774 743//774 736//774
f 741//775 745//775 736//775
f 736//776 746//776 747//776
f 748//777 746//777 736//777
f 744//743 748//743 736//743
f 747//778 739//778 736//778
f 739//745 749//745 737//745
f 737//745 749//745 750//745
f 737//779 750//779 738//779
f 738//779 750//779 751//779
f 738//780 751//780 742//780
f 742//780 751//780 752//780
f 742//672 752//672 740//672
f 740//672 752//672 753//672
f 740//691 753//691 741//691
f 741//691 753//691 754//691
f 741//748 754//748 745//748
f 745//748 754//748 755//748
f 745//749 755//749 743//749
f 743//749 755//749 756//749
f 743//781 756//781 744//781
f 744//781 756//781 757//781
f 744//677 757//677 748//677
f 748//677 757//677 758//677
f 748//782 758//782 746//782
f 746//782 758//782 759//782
f 746//783 759//783 747//783
f 747//783 759//783 760//783
f 747//752 760//752 739//752
f 739//752 760//752 749//752
f 761//784 762//784 763//784
f 764//785 762//785 761//785
f 761//786 765//786 766//786
f 767//756 765//756 761//756
f 763//787 767//787 761//787
f 761//788 768//788 769//788
f 770//789 768//789 761//789
f 766//790 770//790 761//790
f 761//791 771//791 772//791
f 773//792 771//792 761//792
f 769//763 773//763 761//763
f 772//793 764//793 761//793
f 764//765 774//765 762//765
f 762//765 774//765 775//765
f 762//779 775//779 763//779
f 763//779 775//779 776//779
f 763//780 776//780 767//780
f 767//780 776//780 777//780
f 767//672 777//672 765//672
f 765//672 777//672 778//672
f 765//691 778//691 766//691
f 766//691 778//691 779//691
f 766//766 779//766 770//766
f 770//766 779//766 780//766
f 770//767 780//767 768//767
f 768//767 780//767 781//767
f 768//781 781//781 769//781
f 769//781 781//781 782//781
f 769//677 782//677 773//677
f 773//677 782//677 783//677
f 773//782 783//782 771//782
f 771//782 783//782 784//782
f 771//783 784//783 772//783
f 772//783 784//783 785//783
f 772//768 785//768 764//768
f 764//768 785//768 774//768
# Vertices: 785, normals: 793, texture coordinates: 0, faces: 1260

