# File generated by ImageToStl.com - Free Image and 3D model conversion tools

o obj1
v 0.0675 0.0535 0.004786
v 0.0675 0.051 0.004786
v 0.0675 0.05353473 0.00438904
v 0.0675 0.05107271 0.00395492
v 0.0675 0.05363786 0.00400414
v 0.0675 0.05128863 0.00314909
v 0.0675 0.05380627 0.003643
v 0.0675 0.0516412 0.002393
v 0.0675 0.05403482 0.00331659
v 0.0675 0.05211971 0.00170962
v 0.0675 0.05431659 0.00303482
v 0.0675 0.05270962 0.00111971
v 0.0675 0.054643 0.00280627
v 0.0675 0.053393 0.0006412
v 0.0675 0.05500414 0.00263786
v 0.0675 0.05414909 0.00028863
v 0.0675 0.05538904 0.00253473
v 0.0675 0.05495492 7.271E-05
v 0.0675 0.055786 0.0025
v 0.0675 0.055786 0
v 0.0675 0.051 0.014
v 0.0675 0.0535 0.014
v -0.0675 0.055786 0.0025
v -0.0675 0.055786 0
v -0.0675 0.05538904 0.00253473
v -0.0675 0.05495492 7.271E-05
v -0.0675 0.05500414 0.00263786
v -0.0675 0.05414909 0.00028863
v -0.0675 0.054643 0.00280627
v -0.0675 0.053393 0.0006412
v -0.0675 0.05431659 0.00303482
v -0.0675 0.05270962 0.00111971
v -0.0675 0.05403482 0.00331659
v -0.0675 0.05211971 0.00170962
v -0.0675 0.05380627 0.003643
v -0.0675 0.0516412 0.002393
v -0.0675 0.05363786 0.00400414
v -0.0675 0.05128863 0.00314909
v -0.0675 0.05353473 0.00438904
v -0.0675 0.05107271 0.00395492
v -0.0675 0.0535 0.004786
v -0.0675 0.051 0.004786
v -0.0675 0.068 0
v -0.0675 0.068 0.0025
v -0.0525 0.0535 0.025
v -0.0525 0.0535 0.126
v -0.04675 0.0535 0.112
v -0.04670822 0.0535 0.11247753
v 0.0135 0.0535 0.127
v 0.0055533 0.0535 0.12136924
v 0.00509489 0.0535 0.12150939
v 0.00323209 0.0535 0.12124759
v 0.00283007 0.0535 0.12098651
v -0.0515 0.0535 0.127
v 0.00247949 0.0535 0.12065959
v 0.01465192 0.0535 0.02326352
v 0.00323209 0.0535 0.10275241
v 0.00367334 0.0535 0.10256511
v -0.04610662 0.0535 0.11376767
v -0.04638157 0.0535 0.113375
v -0.04658416 0.0535 0.11294056
v -0.04670822 0.0535 0.11152247
v -0.04658416 0.0535 0.11105944
v -0.04638157 0.0535 0.110625
v -0.04161843 0.0535 0.113375
v 0.00177481 0.0535 0.11891545
v -0.04141584 0.0535 0.11294056
v -0.04129178 0.0535 0.11247753
v 0.00414041 0.0535 0.10245728
v 0.00461911 0.0535 0.10243219
v 0.0145 0.0535 0.025
v 0.00509489 0.0535 0.10249061
v 0.0055533 0.0535 0.10263076
v 0.002191 0.0535 0.12027676
v 0.00197338 0.0535 0.11984965
v 0.00183323 0.0535 0.11939124
v -0.04610662 0.0535 0.11023233
v -0.04576766 0.0535 0.10989337
v -0.045375 0.0535 0.10961843
v -0.04305945 0.0535 0.11458416
v -0.04352247 0.0535 0.11470822
v -0.04494055 0.0535 0.11458416
v -0.045375 0.0535 0.11438157
v -0.04576766 0.0535 0.11410663
v 0.00598041 0.0535 0.10284839
v 0.00636324 0.0535 0.10313687
v 0.00669017 0.0535 0.10348745
v 0.00461911 0.0535 0.12156781
v 0.00414041 0.0535 0.12154272
v 0.00367334 0.0535 0.12143489
v -0.042625 0.0535 0.10961843
v -0.04223233 0.0535 0.10989337
v -0.04189338 0.0535 0.11023233
v -0.04161843 0.0535 0.110625
v -0.04141584 0.0535 0.11105944
v -0.04129178 0.0535 0.11152247
v 0.00177481 0.0535 0.10508455
v 0.00183323 0.0535 0.10460876
v 0.00197338 0.0535 0.10415035
v -0.04189338 0.0535 0.11376767
v -0.04223233 0.0535 0.11410663
v -0.042625 0.0535 0.11438157
v -0.04494055 0.0535 0.10941584
v -0.04447753 0.0535 0.10929178
v -0.05265192 0.0535 0.02326352
v -0.044 0.0535 0.10925
v -0.05607212 0.0535 0.01733956
v -0.05483956 0.0535 0.01857212
v -0.05383975 0.0535 0.02
v -0.044 0.0535 0.11475
v -0.04447753 0.0535 0.11470822
v -0.05243969 0.0535 0.12634201
v -0.05236603 0.0535 0.1265
v -0.05248481 0.0535 0.12617365
v -0.0625 0.0535 0.015
v -0.0675 0.0535 0.014
v 0.0017999 0.0535 0.11843675
v 0.00219992 0.0535 0.1141518
v -0.04125 0.0535 0.112
v 0.00219992 0.0535 0.1098482
v 0.0017999 0.0535 0.10556325
v 0.01436603 0.0535 0.1265
v 0.00669017 0.0535 0.12051255
v 0.01426604 0.0535 0.12664279
v 0.00636324 0.0535 0.12086313
v 0.01414279 0.0535 0.12676604
v 0.014 0.0535 0.12686603
v 0.01367365 0.0535 0.1269848
v 0.01384202 0.0535 0.1269397
v 0.00598041 0.0535 0.12115161
v -0.05226604 0.0535 0.12664279
v -0.05214279 0.0535 0.12676604
v -0.052 0.0535 0.12686603
v -0.05167365 0.0535 0.1269848
v -0.05184202 0.0535 0.1269397
v -0.0665 0.0535 0.015
v -0.06748481 0.0535 0.01417365
v -0.06667365 0.0535 0.01498481
v -0.06743969 0.0535 0.01434202
v -0.06684202 0.0535 0.01493969
v -0.06736603 0.0535 0.0145
v -0.067 0.0535 0.01486603
v -0.06726605 0.0535 0.01464279
v -0.06714278 0.0535 0.01476604
v -0.06076352 0.0535 0.01515192
v -0.0590798 0.0535 0.01560307
v -0.0575 0.0535 0.01633975
v 0.01583975 0.0535 0.02
v 0.01683956 0.0535 0.01857212
v 0.01807212 0.0535 0.01733956
v 0.0195 0.0535 0.01633975
v 0.002191 0.0535 0.10372324
v 0.00247949 0.0535 0.10334041
v 0.00283007 0.0535 0.10301349
v -0.05310307 0.0535 0.0215798
v 0.00695124 0.0535 0.10388947
v 0.00713854 0.0535 0.10433072
v 0.0145 0.0535 0.126
v 0.00724637 0.0535 0.1047978
v 0.00724637 0.0535 0.11920221
v 0.00713854 0.0535 0.11966928
v 0.00695124 0.0535 0.12011053
v 0.01448481 0.0535 0.12617365
v 0.01443969 0.0535 0.12634201
v 0.0210798 0.0535 0.01560307
v 0.02276352 0.0535 0.01515192
v 0.0245 0.0535 0.015
v 0.0665 0.0535 0.015
v 0.06748481 0.0535 0.01417365
v 0.06667365 0.0535 0.01498481
v 0.06743969 0.0535 0.01434202
v 0.06684202 0.0535 0.01493969
v 0.06736603 0.0535 0.0145
v 0.067 0.0535 0.01486603
v 0.06726605 0.0535 0.01464279
v 0.06714278 0.0535 0.01476604
v 0.00769396 0.0535 0.10959232
v 0.00769396 0.0535 0.11440769
v 0.01510307 0.0535 0.0215798
v -0.04305945 0.0535 0.10941584
v -0.04352247 0.0535 0.10929178
v -0.0515 0.051 0.127
v 0.0135 0.051 0.127
v 0.00414041 0.051 0.10245728
v -0.04125 0.051 0.112
v -0.04129178 0.051 0.11152247
v 0.0145 0.051 0.126
v 0.00713854 0.051 0.11966928
v 0.00724637 0.051 0.11920221
v 0.0145 0.051 0.025
v 0.00713854 0.051 0.10433072
v 0.00695124 0.051 0.10388947
v 0.00669017 0.051 0.10348745
v 0.00636324 0.051 0.10313687
v 0.00598041 0.051 0.10284839
v 0.00461911 0.051 0.10243219
v 0.01465192 0.051 0.02326352
v 0.00509489 0.051 0.10249061
v 0.0055533 0.051 0.10263076
v -0.04141584 0.051 0.11105944
v -0.04161843 0.051 0.110625
v 0.01583975 0.051 0.02
v -0.04610662 0.051 0.11023233
v -0.04638157 0.051 0.110625
v -0.0525 0.051 0.025
v -0.04658416 0.051 0.11105944
v -0.0525 0.051 0.126
v -0.04670822 0.051 0.11152247
v -0.04675 0.051 0.112
v -0.04670822 0.051 0.11247753
v -0.04658416 0.051 0.11294056
v -0.04638157 0.051 0.113375
v 0.00461911 0.051 0.12156781
v 0.00509489 0.051 0.12150939
v 0.0055533 0.051 0.12136924
v 0.00769396 0.051 0.11440769
v 0.00769396 0.051 0.10959232
v 0.00724637 0.051 0.1047978
v 0.01510307 0.051 0.0215798
v -0.04189338 0.051 0.11023233
v -0.04223233 0.051 0.10989337
v -0.042625 0.051 0.10961843
v -0.04494055 0.051 0.10941584
v -0.045375 0.051 0.10961843
v -0.04576766 0.051 0.10989337
v 0.00247949 0.051 0.10334041
v 0.002191 0.051 0.10372324
v -0.04161843 0.051 0.113375
v -0.04141584 0.051 0.11294056
v -0.04129178 0.051 0.11247753
v 0.00323209 0.051 0.10275241
v 0.00323209 0.051 0.12124759
v 0.00367334 0.051 0.12143489
v 0.00414041 0.051 0.12154272
v -0.05607212 0.051 0.01733956
v -0.0575 0.051 0.01633975
v 0.00367334 0.051 0.10256511
v 0.00283007 0.051 0.10301349
v 0.01443969 0.051 0.12634201
v 0.01436603 0.051 0.1265
v 0.01448481 0.051 0.12617365
v 0.00669017 0.051 0.12051255
v 0.00695124 0.051 0.12011053
v 0.0245 0.051 0.015
v 0.02276352 0.051 0.01515192
v -0.05383975 0.051 0.02
v -0.05483956 0.051 0.01857212
v 0.01683956 0.051 0.01857212
v 0.01807212 0.051 0.01733956
v -0.06714278 0.051 0.01476604
v -0.06726605 0.051 0.01464279
v -0.067 0.051 0.01486603
v -0.06736603 0.051 0.0145
v -0.06684202 0.051 0.01493969
v -0.06743969 0.051 0.01434202
v -0.06667365 0.051 0.01498481
v -0.06748481 0.051 0.01417365
v -0.0665 0.051 0.015
v -0.0675 0.051 0.014
v -0.0625 0.051 0.015
v -0.06076352 0.051 0.01515192
v -0.04223233 0.051 0.11410663
v -0.04189338 0.051 0.11376767
v 0.00197338 0.051 0.11984965
v 0.002191 0.051 0.12027676
v 0.01426604 0.051 0.12664279
v 0.01414279 0.051 0.12676604
v 0.014 0.051 0.12686603
v 0.0210798 0.051 0.01560307
v 0.0195 0.051 0.01633975
v -0.04305945 0.051 0.10941584
v -0.04352247 0.051 0.10929178
v -0.05265192 0.051 0.02326352
v -0.044 0.051 0.10925
v -0.04447753 0.051 0.10929178
v -0.0590798 0.051 0.01560307
v -0.04610662 0.051 0.11376767
v -0.04576766 0.051 0.11410663
v -0.05248481 0.051 0.12617365
v -0.045375 0.051 0.11438157
v -0.05243969 0.051 0.12634201
v -0.05236603 0.051 0.1265
v -0.05167365 0.051 0.1269848
v -0.05184202 0.051 0.1269397
v -0.04494055 0.051 0.11458416
v -0.04447753 0.051 0.11470822
v -0.044 0.051 0.11475
v -0.04352247 0.051 0.11470822
v -0.04305945 0.051 0.11458416
v -0.042625 0.051 0.11438157
v 0.00247949 0.051 0.12065959
v 0.00283007 0.051 0.12098651
v 0.00598041 0.051 0.12115161
v 0.00636324 0.051 0.12086313
v 0.01367365 0.051 0.1269848
v 0.01384202 0.051 0.1269397
v 0.0017999 0.051 0.11843675
v 0.00177481 0.051 0.11891545
v 0.00183323 0.051 0.11939124
v 0.0665 0.051 0.015
v 0.06748481 0.051 0.01417365
v 0.06667365 0.051 0.01498481
v 0.06743969 0.051 0.01434202
v 0.06684202 0.051 0.01493969
v 0.06736603 0.051 0.0145
v 0.067 0.051 0.01486603
v 0.06726605 0.051 0.01464279
v 0.06714278 0.051 0.01476604
v -0.05226604 0.051 0.12664279
v -0.05214279 0.051 0.12676604
v -0.052 0.051 0.12686603
v 0.00197338 0.051 0.10415035
v 0.00183323 0.051 0.10460876
v 0.00177481 0.051 0.10508455
v -0.05310307 0.051 0.0215798
v 0.00219992 0.051 0.1141518
v 0.00219992 0.051 0.1098482
v 0.0017999 0.051 0.10556325
v -0.0665 0.069 0
v -0.06 0.063 0
v -0.06052094 0.06295443 0
v -0.06229813 0.06192836 0
v -0.06259808 0.0615 0
v -0.0675 0.068 0
v -0.06295443 0.05947905 0
v -0.06281908 0.05897394 0
v -0.0675 0.055786 0
v -0.06259808 0.0585 0
v -0.06229813 0.05807164 0
v -0.05704558 0.05947905 0
v 0.0675 0.055786 0
v -0.05718092 0.05897394 0
v -0.05740193 0.0585 0
v 0.0665 0.069 0
v -0.05704558 0.06052094 0
v -0.05718092 0.06102606 0
v -0.06726605 0.06864279 0
v -0.06714278 0.06876604 0
v -0.06192836 0.06229813 0
v -0.067 0.06886602 0
v -0.06736603 0.0685 0
v -0.06743969 0.06834202 0
v -0.06748481 0.06817365 0
v -0.06281908 0.06102606 0
v -0.06295443 0.06052094 0
v -0.063 0.06 0
v -0.06192836 0.05770187 0
v -0.0615 0.05740193 0
v -0.06102606 0.05718092 0
v -0.05740193 0.0615 0
v -0.05770187 0.06192836 0
v -0.05807164 0.06229813 0
v -0.0585 0.06259808 0
v -0.05897394 0.06281908 0
v -0.05947905 0.06295443 0
v -0.06102606 0.06281908 0
v -0.0615 0.06259808 0
v -0.06667365 0.06898481 0
v -0.06684202 0.06893969 0
v -0.06052094 0.05704558 0
v -0.06 0.057 0
v -0.05947905 0.05704558 0
v -0.05897394 0.05718092 0
v -0.0585 0.05740193 0
v 0.06281908 0.05897394 0
v 0.06295443 0.05947905 0
v 0.063 0.06 0
v 0.0675 0.068 0
v 0.06295443 0.06052094 0
v 0.06281908 0.06102606 0
v 0.0615 0.06259808 0
v 0.06102606 0.06281908 0
v 0.06052094 0.06295443 0
v 0.06 0.063 0
v -0.05807164 0.05770187 0
v -0.05770187 0.05807164 0
v 0.05807164 0.05770187 0
v 0.0585 0.05740193 0
v 0.05770187 0.06192836 0
v 0.05740193 0.0615 0
v 0.06052094 0.05704558 0
v 0.06102606 0.05718092 0
v 0.0615 0.05740193 0
v 0.06192836 0.05770187 0
v 0.06229813 0.05807164 0
v 0.06259808 0.0585 0
v 0.06192836 0.06229813 0
v 0.06726605 0.06864279 0
v 0.06736603 0.0685 0
v 0.06714278 0.06876604 0
v 0.067 0.06886602 0
v 0.06684202 0.06893969 0
v 0.06667365 0.06898481 0
v 0.05807164 0.06229813 0
v 0.05947905 0.06295443 0
v 0.05897394 0.06281908 0
v 0.0585 0.06259808 0
v 0.05718092 0.05897394 0
v 0.05740193 0.0585 0
v 0.05770187 0.05807164 0
v 0.05718092 0.06102606 0
v 0.05704558 0.06052094 0
v -0.057 0.06 0
v 0.057 0.06 0
v 0.05704558 0.05947905 0
v 0.05897394 0.05718092 0
v 0.05947905 0.05704558 0
v 0.06 0.057 0
v 0.06259808 0.0615 0
v 0.06229813 0.06192836 0
v 0.06748481 0.06817365 0
v 0.06743969 0.06834202 0
v -0.0665 0.069 0.0025
v 0.0665 0.069 0.0025
v -0.0665 0.069 0
v 0.0665 0.069 0
v -0.06192836 0.05770187 0.0025
v -0.06229813 0.05807164 0.0025
v -0.06259808 0.0585 0.0025
v -0.06281908 0.05897394 0.0025
v -0.06052094 0.05704558 0.0025
v -0.06102606 0.05718092 0.0025
v -0.0615 0.05740193 0.0025
v -0.06295443 0.06052094 0.0025
v -0.06281908 0.06102606 0.0025
v -0.06259808 0.0615 0.0025
v -0.06229813 0.06192836 0.0025
v -0.06192836 0.06229813 0.0025
v -0.067 0.06886602 0.0025
v -0.06714278 0.06876604 0.0025
v -0.06295443 0.05947905 0.0025
v -0.063 0.06 0.0025
v -0.0615 0.06259808 0.0025
v -0.06102606 0.06281908 0.0025
v -0.06052094 0.06295443 0.0025
v -0.05704558 0.06052094 0.0025
v -0.05718092 0.06102606 0.0025
v -0.05740193 0.0615 0.0025
v -0.06684202 0.06893969 0.0025
v -0.06667365 0.06898481 0.0025
v -0.05740193 0.0585 0.0025
v -0.05718092 0.05897394 0.0025
v -0.05704558 0.05947905 0.0025
v -0.06743969 0.06834202 0.0025
v -0.06748481 0.06817365 0.0025
v -0.06736603 0.0685 0.0025
v -0.06726605 0.06864279 0.0025
v -0.0585 0.06259808 0.0025
v -0.05807164 0.06229813 0.0025
v -0.05770187 0.06192836 0.0025
v -0.06 0.063 0.0025
v -0.05947905 0.06295443 0.0025
v -0.05897394 0.06281908 0.0025
v 0.05947905 0.06295443 0.0025
v 0.06 0.063 0.0025
v 0.06052094 0.06295443 0.0025
v 0.0585 0.06259808 0.0025
v 0.05897394 0.06281908 0.0025
v -0.0585 0.05740193 0.0025
v -0.05897394 0.05718092 0.0025
v -0.05947905 0.05704558 0.0025
v -0.06 0.057 0.0025
v 0.06229813 0.06192836 0.0025
v 0.06259808 0.0615 0.0025
v 0.0675 0.068 0.0025
v -0.05770187 0.05807164 0.0025
v -0.05807164 0.05770187 0.0025
v 0.05897394 0.05718092 0.0025
v 0.0585 0.05740193 0.0025
v 0.05807164 0.05770187 0.0025
v 0.05770187 0.05807164 0.0025
v 0.05718092 0.06102606 0.0025
v 0.05740193 0.0615 0.0025
v 0.05704558 0.05947905 0.0025
v -0.057 0.06 0.0025
v 0.057 0.06 0.0025
v 0.05704558 0.06052094 0.0025
v 0.06281908 0.06102606 0.0025
v 0.06295443 0.06052094 0.0025
v 0.063 0.06 0.0025
v 0.06295443 0.05947905 0.0025
v 0.06281908 0.05897394 0.0025
v 0.06259808 0.0585 0.0025
v 0.05740193 0.0585 0.0025
v 0.05718092 0.05897394 0.0025
v 0.05770187 0.06192836 0.0025
v 0.05807164 0.06229813 0.0025
v 0.06736603 0.0685 0.0025
v 0.06192836 0.06229813 0.0025
v 0.06743969 0.06834202 0.0025
v 0.06748481 0.06817365 0.0025
v 0.0615 0.05740193 0.0025
v 0.06102606 0.05718092 0.0025
v 0.06726605 0.06864279 0.0025
v 0.06714278 0.06876604 0.0025
v 0.067 0.06886602 0.0025
v 0.06229813 0.05807164 0.0025
v 0.06192836 0.05770187 0.0025
v 0.06052094 0.05704558 0.0025
v 0.06 0.057 0.0025
v 0.05947905 0.05704558 0.0025
v 0.06102606 0.06281908 0.0025
v 0.0615 0.06259808 0.0025
v 0.06667365 0.06898481 0.0025
v 0.06684202 0.06893969 0.0025
v 0.0675 0.068 0
v -0.06052094 0.05704558 0
v -0.06 0.057 0
v -0.05947905 0.05704558 0
v -0.05897394 0.05718092 0
v -0.0585 0.05740193 0
v -0.05807164 0.05770187 0
v -0.05770187 0.05807164 0
v -0.05740193 0.0585 0
v -0.05718092 0.05897394 0
v -0.05704558 0.05947905 0
v -0.057 0.06 0
v -0.05704558 0.06052094 0
v -0.05718092 0.06102606 0
v -0.05740193 0.0615 0
v -0.05770187 0.06192836 0
v -0.05807164 0.06229813 0
v -0.0585 0.06259808 0
v -0.05897394 0.06281908 0
v -0.05947905 0.06295443 0
v -0.06 0.063 0
v -0.06052094 0.06295443 0
v -0.06102606 0.06281908 0
v -0.0615 0.06259808 0
v -0.06192836 0.06229813 0
v -0.06229813 0.06192836 0
v -0.06259808 0.0615 0
v -0.06281908 0.06102606 0
v -0.06295443 0.06052094 0
v -0.063 0.06 0
v -0.06295443 0.05947905 0
v -0.06281908 0.05897394 0
v -0.06259808 0.0585 0
v -0.06229813 0.05807164 0
v -0.06192836 0.05770187 0
v -0.0615 0.05740193 0
v -0.06102606 0.05718092 0
v 0.05947905 0.05704558 0
v 0.06 0.057 0
v 0.06052094 0.05704558 0
v 0.06102606 0.05718092 0
v 0.0615 0.05740193 0
v 0.06192836 0.05770187 0
v 0.06229813 0.05807164 0
v 0.06259808 0.0585 0
v 0.06281908 0.05897394 0
v 0.06295443 0.05947905 0
v 0.063 0.06 0
v 0.06295443 0.06052094 0
v 0.06281908 0.06102606 0
v 0.06259808 0.0615 0
v 0.06229813 0.06192836 0
v 0.06192836 0.06229813 0
v 0.0615 0.06259808 0
v 0.06102606 0.06281908 0
v 0.06052094 0.06295443 0
v 0.06 0.063 0
v 0.05947905 0.06295443 0
v 0.05897394 0.06281908 0
v 0.0585 0.06259808 0
v 0.05807164 0.06229813 0
v 0.05770187 0.06192836 0
v 0.05740193 0.0615 0
v 0.05718092 0.06102606 0
v 0.05704558 0.06052094 0
v 0.057 0.06 0
v 0.05704558 0.05947905 0
v 0.05718092 0.05897394 0
v 0.05740193 0.0585 0
v 0.05770187 0.05807164 0
v 0.05807164 0.05770187 0
v 0.0585 0.05740193 0
v 0.05897394 0.05718092 0
v -0.06667365 0.06898481 0
v -0.06684202 0.06893969 0
v -0.067 0.06886602 0
v -0.06714278 0.06876604 0
v -0.06726605 0.06864279 0
v -0.06736603 0.0685 0
v -0.06743969 0.06834202 0
v -0.06748481 0.06817365 0
v 0.0675 0.068 0
v 0.06748481 0.06817365 0
v 0.06743969 0.06834202 0
v 0.06736603 0.0685 0
v 0.06726605 0.06864279 0
v 0.06714278 0.06876604 0
v 0.067 0.06886602 0
v 0.06684202 0.06893969 0
v 0.06667365 0.06898481 0
v 0.0675 -0.055786 0.0025
v 0.0675 -0.055786 0
v 0.0675 -0.05538904 0.00253473
v 0.0675 -0.05495492 7.271E-05
v 0.0675 -0.05500414 0.00263786
v 0.0675 -0.05414909 0.00028863
v 0.0675 -0.054643 0.00280627
v 0.0675 -0.053393 0.0006412
v 0.0675 -0.05431659 0.00303482
v 0.0675 -0.05270962 0.00111971
v 0.0675 -0.05403482 0.00331659
v 0.0675 -0.05211971 0.00170962
v 0.0675 -0.05380627 0.003643
v 0.0675 -0.0516412 0.002393
v 0.0675 -0.05363786 0.00400414
v 0.0675 -0.05128863 0.00314909
v 0.0675 -0.05353473 0.00438904
v 0.0675 -0.05107271 0.00395492
v 0.0675 -0.0535 0.004786
v 0.0675 -0.051 0.004786
v 0.0675 -0.051 0.014
v 0.0675 -0.0535 0.014
v -0.0675 -0.0535 0.004786
v -0.0675 -0.051 0.004786
v -0.0675 -0.05353473 0.00438904
v -0.0675 -0.05107271 0.00395492
v -0.0675 -0.05363786 0.00400414
v -0.0675 -0.05128863 0.00314909
v -0.0675 -0.05380627 0.003643
v -0.0675 -0.0516412 0.002393
v -0.0675 -0.05403482 0.00331659
v -0.0675 -0.05211971 0.00170962
v -0.0675 -0.05431659 0.00303482
v -0.0675 -0.05270962 0.00111971
v -0.0675 -0.054643 0.00280627
v -0.0675 -0.053393 0.0006412
v -0.0675 -0.05500414 0.00263786
v -0.0675 -0.05414909 0.00028863
v -0.0675 -0.05538904 0.00253473
v -0.0675 -0.05495492 7.271E-05
v -0.0675 -0.055786 0.0025
v -0.0675 -0.055786 0
v -0.0675 -0.068 0
v -0.0675 -0.068 0.0025
v -0.04675 -0.0535 0.112
v -0.04670822 -0.0535 0.11247753
v -0.0525 -0.0535 0.126
v -0.04658416 -0.0535 0.11294056
v -0.04638157 -0.0535 0.113375
v 0.0145 -0.0535 0.126
v 0.00713854 -0.0535 0.11966928
v 0.00724637 -0.0535 0.11920221
v 0.0145 -0.0535 0.025
v 0.00713854 -0.0535 0.10433072
v 0.00695124 -0.0535 0.10388947
v 0.00669017 -0.0535 0.10348745
v 0.00636324 -0.0535 0.10313687
v 0.00598041 -0.0535 0.10284839
v 0.00323209 -0.0535 0.10275241
v 0.00283007 -0.0535 0.10301349
v -0.04125 -0.0535 0.112
v 0.00197338 -0.0535 0.11984965
v 0.002191 -0.0535 0.12027676
v -0.04161843 -0.0535 0.113375
v 0.00247949 -0.0535 0.12065959
v -0.04610662 -0.0535 0.11023233
v -0.04638157 -0.0535 0.110625
v -0.0525 -0.0535 0.025
v -0.04658416 -0.0535 0.11105944
v -0.04670822 -0.0535 0.11152247
v 0.0135 -0.0535 0.127
v -0.04189338 -0.0535 0.11376767
v -0.04223233 -0.0535 0.11410663
v 0.00769396 -0.0535 0.11440769
v 0.00769396 -0.0535 0.10959232
v 0.00724637 -0.0535 0.1047978
v 0.0055533 -0.0535 0.10263076
v 0.00509489 -0.0535 0.10249061
v 0.01465192 -0.0535 0.02326352
v 0.00461911 -0.0535 0.10243219
v 0.00414041 -0.0535 0.10245728
v 0.01510307 -0.0535 0.0215798
v -0.04129178 -0.0535 0.11152247
v 0.01583975 -0.0535 0.02
v -0.04141584 -0.0535 0.11105944
v -0.04161843 -0.0535 0.110625
v 0.00367334 -0.0535 0.10256511
v -0.04494055 -0.0535 0.11458416
v -0.04447753 -0.0535 0.11470822
v -0.0515 -0.0535 0.127
v -0.044 -0.0535 0.11475
v -0.04352247 -0.0535 0.11470822
v -0.04305945 -0.0535 0.11458416
v -0.042625 -0.0535 0.11438157
v -0.04141584 -0.0535 0.11294056
v -0.04129178 -0.0535 0.11247753
v 0.00177481 -0.0535 0.11891545
v 0.00247949 -0.0535 0.10334041
v 0.002191 -0.0535 0.10372324
v 0.00197338 -0.0535 0.10415035
v 0.00183323 -0.0535 0.11939124
v 0.00414041 -0.0535 0.12154272
v 0.00461911 -0.0535 0.12156781
v 0.00509489 -0.0535 0.12150939
v 0.0055533 -0.0535 0.12136924
v 0.01436603 -0.0535 0.1265
v 0.01426604 -0.0535 0.12664279
v 0.00669017 -0.0535 0.12051255
v 0.01414279 -0.0535 0.12676604
v 0.01443969 -0.0535 0.12634201
v 0.01448481 -0.0535 0.12617365
v 0.00695124 -0.0535 0.12011053
v -0.04494055 -0.0535 0.10941584
v -0.045375 -0.0535 0.10961843
v -0.04576766 -0.0535 0.10989337
v -0.04610662 -0.0535 0.11376767
v -0.04576766 -0.0535 0.11410663
v -0.05248481 -0.0535 0.12617365
v -0.045375 -0.0535 0.11438157
v -0.05243969 -0.0535 0.12634201
v -0.05236603 -0.0535 0.1265
v -0.05167365 -0.0535 0.1269848
v -0.05184202 -0.0535 0.1269397
v 0.00283007 -0.0535 0.12098651
v 0.00323209 -0.0535 0.12124759
v 0.00367334 -0.0535 0.12143489
v 0.014 -0.0535 0.12686603
v 0.01384202 -0.0535 0.1269397
v 0.01367365 -0.0535 0.1269848
v 0.00183323 -0.0535 0.10460876
v 0.00177481 -0.0535 0.10508455
v 0.0017999 -0.0535 0.10556325
v -0.04189338 -0.0535 0.11023233
v -0.04223233 -0.0535 0.10989337
v -0.042625 -0.0535 0.10961843
v -0.06714278 -0.0535 0.01476604
v -0.06726605 -0.0535 0.01464279
v -0.067 -0.0535 0.01486603
v -0.06736603 -0.0535 0.0145
v -0.06684202 -0.0535 0.01493969
v -0.06743969 -0.0535 0.01434202
v -0.06667365 -0.0535 0.01498481
v -0.06748481 -0.0535 0.01417365
v -0.0665 -0.0535 0.015
v -0.0675 -0.0535 0.014
v -0.0625 -0.0535 0.015
v -0.06076352 -0.0535 0.01515192
v -0.05226604 -0.0535 0.12664279
v -0.05214279 -0.0535 0.12676604
v -0.052 -0.0535 0.12686603
v 0.00636324 -0.0535 0.12086313
v 0.00598041 -0.0535 0.12115161
v -0.05383975 -0.0535 0.02
v -0.05483956 -0.0535 0.01857212
v -0.05607212 -0.0535 0.01733956
v -0.0575 -0.0535 0.01633975
v -0.0590798 -0.0535 0.01560307
v 0.0245 -0.0535 0.015
v 0.00219992 -0.0535 0.1098482
v 0.00219992 -0.0535 0.1141518
v 0.0017999 -0.0535 0.11843675
v 0.0665 -0.0535 0.015
v 0.06748481 -0.0535 0.01417365
v 0.06667365 -0.0535 0.01498481
v 0.06743969 -0.0535 0.01434202
v 0.06684202 -0.0535 0.01493969
v 0.06736603 -0.0535 0.0145
v 0.067 -0.0535 0.01486603
v 0.06726605 -0.0535 0.01464279
v 0.06714278 -0.0535 0.01476604
v -0.04305945 -0.0535 0.10941584
v -0.04352247 -0.0535 0.10929178
v -0.05265192 -0.0535 0.02326352
v -0.044 -0.0535 0.10925
v -0.04447753 -0.0535 0.10929178
v 0.0210798 -0.0535 0.01560307
v 0.0195 -0.0535 0.01633975
v 0.01807212 -0.0535 0.01733956
v 0.01683956 -0.0535 0.01857212
v 0.02276352 -0.0535 0.01515192
v -0.05310307 -0.0535 0.0215798
v 0.0135 -0.051 0.127
v -0.0515 -0.051 0.127
v -0.04638157 -0.051 0.113375
v -0.04658416 -0.051 0.11294056
v -0.0525 -0.051 0.126
v 0.00509489 -0.051 0.12150939
v 0.00461911 -0.051 0.12156781
v -0.04670822 -0.051 0.11247753
v -0.04675 -0.051 0.112
v -0.0525 -0.051 0.025
v -0.04670822 -0.051 0.11152247
v -0.04658416 -0.051 0.11105944
v -0.042625 -0.051 0.10961843
v -0.04223233 -0.051 0.10989337
v 0.00177481 -0.051 0.11891545
v -0.04638157 -0.051 0.110625
v -0.04610662 -0.051 0.11023233
v -0.04576766 -0.051 0.10989337
v -0.04189338 -0.051 0.11023233
v -0.04161843 -0.051 0.110625
v -0.04141584 -0.051 0.11105944
v 0.0017999 -0.051 0.11843675
v -0.04352247 -0.051 0.10929178
v -0.04305945 -0.051 0.10941584
v 0.0055533 -0.051 0.10263076
v 0.00598041 -0.051 0.10284839
v 0.0145 -0.051 0.025
v 0.00636324 -0.051 0.10313687
v 0.00669017 -0.051 0.10348745
v 0.00636324 -0.051 0.12086313
v 0.00598041 -0.051 0.12115161
v 0.0055533 -0.051 0.12136924
v -0.04161843 -0.051 0.113375
v -0.04189338 -0.051 0.11376767
v -0.05248481 -0.051 0.12617365
v -0.05243969 -0.051 0.12634201
v -0.05236603 -0.051 0.1265
v -0.05310307 -0.051 0.0215798
v 0.002191 -0.051 0.10372324
v -0.05383975 -0.051 0.02
v 0.00247949 -0.051 0.10334041
v 0.00283007 -0.051 0.10301349
v -0.045375 -0.051 0.10961843
v -0.04494055 -0.051 0.10941584
v -0.04447753 -0.051 0.10929178
v 0.00695124 -0.051 0.10388947
v 0.00713854 -0.051 0.10433072
v 0.0145 -0.051 0.126
v 0.00724637 -0.051 0.1047978
v 0.01436603 -0.051 0.1265
v 0.00669017 -0.051 0.12051255
v 0.01426604 -0.051 0.12664279
v 0.01414279 -0.051 0.12676604
v 0.014 -0.051 0.12686603
v 0.01367365 -0.051 0.1269848
v 0.01384202 -0.051 0.1269397
v 0.00283007 -0.051 0.12098651
v 0.00247949 -0.051 0.12065959
v 0.002191 -0.051 0.12027676
v -0.04141584 -0.051 0.11294056
v -0.04129178 -0.051 0.11247753
v -0.04352247 -0.051 0.11470822
v -0.044 -0.051 0.11475
v -0.044 -0.051 0.10925
v 0.00177481 -0.051 0.10508455
v 0.01583975 -0.051 0.02
v 0.01683956 -0.051 0.01857212
v -0.05483956 -0.051 0.01857212
v 0.01465192 -0.051 0.02326352
v 0.00323209 -0.051 0.10275241
v 0.00367334 -0.051 0.10256511
v 0.00769396 -0.051 0.10959232
v 0.00769396 -0.051 0.11440769
v 0.00724637 -0.051 0.11920221
v 0.00713854 -0.051 0.11966928
v 0.00695124 -0.051 0.12011053
v 0.01448481 -0.051 0.12617365
v 0.01443969 -0.051 0.12634201
v 0.00414041 -0.051 0.12154272
v 0.00367334 -0.051 0.12143489
v 0.00323209 -0.051 0.12124759
v -0.04223233 -0.051 0.11410663
v -0.042625 -0.051 0.11438157
v -0.04305945 -0.051 0.11458416
v -0.052 -0.051 0.12686603
v -0.05184202 -0.051 0.1269397
v -0.05167365 -0.051 0.1269848
v -0.045375 -0.051 0.11438157
v -0.04576766 -0.051 0.11410663
v -0.04610662 -0.051 0.11376767
v -0.0575 -0.051 0.01633975
v -0.0590798 -0.051 0.01560307
v -0.06076352 -0.051 0.01515192
v 0.00414041 -0.051 0.10245728
v 0.00461911 -0.051 0.10243219
v 0.00509489 -0.051 0.10249061
v 0.00197338 -0.051 0.11984965
v 0.00183323 -0.051 0.11939124
v -0.04125 -0.051 0.112
v -0.04129178 -0.051 0.11152247
v 0.00219992 -0.051 0.1141518
v 0.00219992 -0.051 0.1098482
v 0.0017999 -0.051 0.10556325
v -0.0625 -0.051 0.015
v -0.0675 -0.051 0.014
v -0.0665 -0.051 0.015
v -0.06748481 -0.051 0.01417365
v -0.06667365 -0.051 0.01498481
v -0.06743969 -0.051 0.01434202
v -0.06684202 -0.051 0.01493969
v -0.06736603 -0.051 0.0145
v -0.067 -0.051 0.01486603
v -0.06726605 -0.051 0.01464279
v -0.06714278 -0.051 0.01476604
v -0.05607212 -0.051 0.01733956
v -0.05226604 -0.051 0.12664279
v -0.05214279 -0.051 0.12676604
v -0.04494055 -0.051 0.11458416
v -0.04447753 -0.051 0.11470822
v 0.00183323 -0.051 0.10460876
v 0.00197338 -0.051 0.10415035
v -0.05265192 -0.051 0.02326352
v 0.01807212 -0.051 0.01733956
v 0.0195 -0.051 0.01633975
v 0.06714278 -0.051 0.01476604
v 0.06726605 -0.051 0.01464279
v 0.067 -0.051 0.01486603
v 0.06736603 -0.051 0.0145
v 0.06684202 -0.051 0.01493969
v 0.06743969 -0.051 0.01434202
v 0.06667365 -0.051 0.01498481
v 0.06748481 -0.051 0.01417365
v 0.0665 -0.051 0.015
v 0.0245 -0.051 0.015
v 0.02276352 -0.051 0.01515192
v 0.0210798 -0.051 0.01560307
v 0.01510307 -0.051 0.0215798
v -0.06192836 -0.05770187 0
v -0.06229813 -0.05807164 0
v -0.0675 -0.055786 0
v -0.06259808 -0.0585 0
v -0.06281908 -0.05897394 0
v -0.06052094 -0.05704558 0
v -0.06102606 -0.05718092 0
v -0.0615 -0.05740193 0
v -0.05740193 -0.0585 0
v 0.0675 -0.055786 0
v -0.05718092 -0.05897394 0
v -0.05704558 -0.05947905 0
v -0.0665 -0.069 0
v -0.06102606 -0.06281908 0
v -0.06052094 -0.06295443 0
v -0.06295443 -0.05947905 0
v -0.063 -0.06 0
v -0.0675 -0.068 0
v -0.06295443 -0.06052094 0
v -0.06281908 -0.06102606 0
v -0.06 -0.063 0
v -0.05947905 -0.06295443 0
v 0.0665 -0.069 0
v -0.05897394 -0.06281908 0
v -0.0585 -0.06259808 0
v -0.05704558 -0.06052094 0
v -0.05718092 -0.06102606 0
v -0.05740193 -0.0615 0
v 0.05897394 -0.06281908 0
v 0.05947905 -0.06295443 0
v 0.06 -0.063 0
v 0.06052094 -0.06295443 0
v -0.05770187 -0.05807164 0
v -0.05807164 -0.05770187 0
v -0.0585 -0.05740193 0
v -0.05897394 -0.05718092 0
v -0.05947905 -0.05704558 0
v -0.06 -0.057 0
v -0.06736603 -0.0685 0
v -0.06192836 -0.06229813 0
v -0.06726605 -0.06864279 0
v -0.067 -0.06886602 0
v -0.06714278 -0.06876604 0
v -0.05807164 -0.06229813 0
v -0.05770187 -0.06192836 0
v 0.05897394 -0.05718092 0
v 0.0585 -0.05740193 0
v 0.06229813 -0.06192836 0
v 0.06259808 -0.0615 0
v 0.0675 -0.068 0
v 0.06295443 -0.05947905 0
v 0.06281908 -0.05897394 0
v 0.06259808 -0.0585 0
v 0.06229813 -0.05807164 0
v -0.06259808 -0.0615 0
v -0.06229813 -0.06192836 0
v -0.06748481 -0.06817365 0
v -0.06743969 -0.06834202 0
v -0.06684202 -0.06893969 0
v -0.06667365 -0.06898481 0
v -0.0615 -0.06259808 0
v 0.06281908 -0.06102606 0
v 0.06295443 -0.06052094 0
v 0.063 -0.06 0
v 0.06192836 -0.05770187 0
v 0.0615 -0.05740193 0
v 0.06102606 -0.05718092 0
v 0.05718092 -0.06102606 0
v 0.05740193 -0.0615 0
v 0.05740193 -0.0585 0
v 0.05718092 -0.05897394 0
v 0.05704558 -0.05947905 0
v -0.057 -0.06 0
v 0.057 -0.06 0
v 0.05704558 -0.06052094 0
v 0.06052094 -0.05704558 0
v 0.06 -0.057 0
v 0.05947905 -0.05704558 0
v 0.05807164 -0.05770187 0
v 0.05770187 -0.05807164 0
v 0.06736603 -0.0685 0
v 0.06192836 -0.06229813 0
v 0.06743969 -0.06834202 0
v 0.06748481 -0.06817365 0
v 0.06726605 -0.06864279 0
v 0.06714278 -0.06876604 0
v 0.067 -0.06886602 0
v 0.05770187 -0.06192836 0
v 0.05807164 -0.06229813 0
v 0.0585 -0.06259808 0
v 0.06102606 -0.06281908 0
v 0.0615 -0.06259808 0
v 0.06667365 -0.06898481 0
v 0.06684202 -0.06893969 0
v 0.0665 -0.069 0.0025
v -0.0665 -0.069 0.0025
v 0.0665 -0.069 0
v -0.0665 -0.069 0
v -0.05947905 -0.06295443 0.0025
v -0.06 -0.063 0.0025
v -0.06052094 -0.06295443 0.0025
v -0.06229813 -0.06192836 0.0025
v -0.06259808 -0.0615 0.0025
v -0.06736603 -0.0685 0.0025
v -0.06192836 -0.06229813 0.0025
v -0.06743969 -0.06834202 0.0025
v -0.06748481 -0.06817365 0.0025
v -0.0585 -0.06259808 0.0025
v -0.05897394 -0.06281908 0.0025
v -0.06726605 -0.06864279 0.0025
v -0.06714278 -0.06876604 0.0025
v -0.067 -0.06886602 0.0025
v -0.063 -0.06 0.0025
v -0.06295443 -0.06052094 0.0025
v -0.06281908 -0.06102606 0.0025
v -0.05704558 -0.05947905 0.0025
v -0.05718092 -0.05897394 0.0025
v -0.05740193 -0.0585 0.0025
v -0.06102606 -0.06281908 0.0025
v -0.0615 -0.06259808 0.0025
v -0.06667365 -0.06898481 0.0025
v -0.06684202 -0.06893969 0.0025
v -0.05740193 -0.0615 0.0025
v -0.05718092 -0.06102606 0.0025
v -0.05704558 -0.06052094 0.0025
v 0.06281908 -0.05897394 0.0025
v 0.06295443 -0.05947905 0.0025
v 0.063 -0.06 0.0025
v 0.0675 -0.068 0.0025
v 0.06295443 -0.06052094 0.0025
v 0.06281908 -0.06102606 0.0025
v 0.0615 -0.06259808 0.0025
v 0.06102606 -0.06281908 0.0025
v 0.06052094 -0.06295443 0.0025
v 0.06 -0.063 0.0025
v -0.06259808 -0.0585 0.0025
v -0.06229813 -0.05807164 0.0025
v -0.05770187 -0.06192836 0.0025
v -0.05807164 -0.06229813 0.0025
v -0.06295443 -0.05947905 0.0025
v -0.06281908 -0.05897394 0.0025
v -0.06192836 -0.05770187 0.0025
v -0.0615 -0.05740193 0.0025
v -0.06102606 -0.05718092 0.0025
v -0.06052094 -0.05704558 0.0025
v -0.06 -0.057 0.0025
v 0.06192836 -0.05770187 0.0025
v 0.06229813 -0.05807164 0.0025
v 0.06259808 -0.0585 0.0025
v 0.06192836 -0.06229813 0.0025
v 0.06726605 -0.06864279 0.0025
v 0.06736603 -0.0685 0.0025
v -0.05947905 -0.05704558 0.0025
v -0.05897394 -0.05718092 0.0025
v -0.0585 -0.05740193 0.0025
v 0.06052094 -0.05704558 0.0025
v 0.06102606 -0.05718092 0.0025
v 0.0615 -0.05740193 0.0025
v 0.06714278 -0.06876604 0.0025
v 0.067 -0.06886602 0.0025
v 0.06684202 -0.06893969 0.0025
v 0.06667365 -0.06898481 0.0025
v -0.05807164 -0.05770187 0.0025
v -0.05770187 -0.05807164 0.0025
v 0.05740193 -0.0615 0.0025
v 0.05770187 -0.06192836 0.0025
v 0.05807164 -0.06229813 0.0025
v 0.05718092 -0.05897394 0.0025
v 0.05740193 -0.0585 0.0025
v 0.05718092 -0.06102606 0.0025
v 0.05704558 -0.06052094 0.0025
v -0.057 -0.06 0.0025
v 0.057 -0.06 0.0025
v 0.05704558 -0.05947905 0.0025
v 0.06259808 -0.0615 0.0025
v 0.06229813 -0.06192836 0.0025
v 0.06748481 -0.06817365 0.0025
v 0.06743969 -0.06834202 0.0025
v 0.05947905 -0.06295443 0.0025
v 0.05897394 -0.06281908 0.0025
v 0.0585 -0.06259808 0.0025
v 0.05770187 -0.05807164 0.0025
v 0.05807164 -0.05770187 0.0025
v 0.0585 -0.05740193 0.0025
v 0.05897394 -0.05718092 0.0025
v 0.05947905 -0.05704558 0.0025
v 0.06 -0.057 0.0025
v 0.0675 -0.068 0
v -0.05947905 -0.05704558 0
v -0.06 -0.057 0
v -0.06052094 -0.05704558 0
v -0.06102606 -0.05718092 0
v -0.0615 -0.05740193 0
v -0.06192836 -0.05770187 0
v -0.06229813 -0.05807164 0
v -0.06259808 -0.0585 0
v -0.06281908 -0.05897394 0
v -0.06295443 -0.05947905 0
v -0.063 -0.06 0
v -0.06295443 -0.06052094 0
v -0.06281908 -0.06102606 0
v -0.06259808 -0.0615 0
v -0.06229813 -0.06192836 0
v -0.06192836 -0.06229813 0
v -0.0615 -0.06259808 0
v -0.06102606 -0.06281908 0
v -0.06052094 -0.06295443 0
v -0.06 -0.063 0
v -0.05947905 -0.06295443 0
v -0.05897394 -0.06281908 0
v -0.0585 -0.06259808 0
v -0.05807164 -0.06229813 0
v -0.05770187 -0.06192836 0
v -0.05740193 -0.0615 0
v -0.05718092 -0.06102606 0
v -0.05704558 -0.06052094 0
v -0.057 -0.06 0
v -0.05704558 -0.05947905 0
v -0.05718092 -0.05897394 0
v -0.05740193 -0.0585 0
v -0.05770187 -0.05807164 0
v -0.05807164 -0.05770187 0
v -0.0585 -0.05740193 0
v -0.05897394 -0.05718092 0
v 0.06052094 -0.05704558 0
v 0.06 -0.057 0
v 0.05947905 -0.05704558 0
v 0.05897394 -0.05718092 0
v 0.0585 -0.05740193 0
v 0.05807164 -0.05770187 0
v 0.05770187 -0.05807164 0
v 0.05740193 -0.0585 0
v 0.05718092 -0.05897394 0
v 0.05704558 -0.05947905 0
v 0.057 -0.06 0
v 0.05704558 -0.06052094 0
v 0.05718092 -0.06102606 0
v 0.05740193 -0.0615 0
v 0.05770187 -0.06192836 0
v 0.05807164 -0.06229813 0
v 0.0585 -0.06259808 0
v 0.05897394 -0.06281908 0
v 0.05947905 -0.06295443 0
v 0.06 -0.063 0
v 0.06052094 -0.06295443 0
v 0.06102606 -0.06281908 0
v 0.0615 -0.06259808 0
v 0.06192836 -0.06229813 0
v 0.06229813 -0.06192836 0
v 0.06259808 -0.0615 0
v 0.06281908 -0.06102606 0
v 0.06295443 -0.06052094 0
v 0.063 -0.06 0
v 0.06295443 -0.05947905 0
v 0.06281908 -0.05897394 0
v 0.06259808 -0.0585 0
v 0.06229813 -0.05807164 0
v 0.06192836 -0.05770187 0
v 0.0615 -0.05740193 0
v 0.06102606 -0.05718092 0
v -0.06748481 -0.06817365 0
v -0.06743969 -0.06834202 0
v -0.06736603 -0.0685 0
v -0.06726605 -0.06864279 0
v -0.06714278 -0.06876604 0
v -0.067 -0.06886602 0
v -0.06684202 -0.06893969 0
v -0.06667365 -0.06898481 0
v 0.06667365 -0.06898481 0
v 0.06684202 -0.06893969 0
v 0.067 -0.06886602 0
v 0.06714278 -0.06876604 0
v 0.06726605 -0.06864279 0
v 0.06736603 -0.0685 0
v 0.06743969 -0.06834202 0
v 0.06748481 -0.06817365 0
v 0.0675 -0.068 0
vn 1 0 0
vn -1 -0 -0
vn 0 1 0
vn 0 0 1
vn 0 -1 0
vn -0 -0.99619 -0.08716
vn -0 -0.96593 -0.25882
vn -0 -0.90631 -0.42262
vn -0 -0.81915 -0.57357
vn -0 -0.70711 -0.70711
vn -0 -0.57358 -0.81915
vn -0 -0.57358 -0.81915
vn -0 -0.42262 -0.90631
vn -0 -0.42262 -0.90631
vn -0 -0.25882 -0.96593
vn -0 -0.08716 -0.99619
vn -0 -0.08716 -0.99619
vn -0 0 -1
vn 0 0 -1
vn 0 0 -1
vn -0 0 -1
vn 0 0 -1
vn -0 0 -1
vn 0 0 -1
vn 0 0 -1
vn -0 0 -1
vn 0 0 -1
vn -0 0 -1
vn -0 0 -1
vn 0 0 -1
vn 0 0 -1
vn -0 0 -1
vn -0 0 -1
vn -0 0 -1
vn 0 0 -1
vn 0 0 -1
vn -0 0 -1
vn -0 0 -1
vn -0 0 -1
vn 0 0 -1
vn 0 0 -1
vn -0 0 -1
vn -0 0 -1
vn 0 0 -1
vn -0 0 -1
vn 0 0 -1
vn 0 0 -1
vn 0 0 -1
vn -0 0 -1
vn 0 0 -1
vn -0 0 -1
vn -0 0 -1
vn 0 0 -1
vn -0 0 -1
vn 0 0 -1
vn -0 0 -1
vn 0 0 -1
vn 0 0 -1
vn -0 0 -1
vn -0 0 -1
vn -0 0 -1
vn 0 0 -1
vn -0 0 -1
vn 0 0 -1
vn 0 0 -1
vn -0 0 -1
vn 0 0 -1
vn 0 0 -1
vn 0 0 -1
vn 0 0 -1
vn -0 0 -1
vn 0 0 -1
vn -0 0 -1
vn -0 0 -1
vn -0 0 -1
vn 0 0 -1
vn 0 0 -1
vn -0 0 -1
vn 0 0 -1
vn 0 0 -1
vn -0 0 -1
vn -0 0 -1
vn 0 0 -1
vn 0 0 -1
vn -0 0 -1
vn 0 0 -1
vn -0 0 -1
vn -0 0 -1
vn -0 0 -1
vn -0 0 -1
vn -0 0 -1
vn 0 0 -1
vn 0 0 -1
vn -0 0 -1
vn 0 0 -1
vn 0 0 -1
vn 0 0 -1
vn 0 0 -1
vn 0 0 -1
vn -0 0 -1
vn -0 0 -1
vn 0 0 -1
vn -0 0 -1
vn 0 0 -1
vn 0 0 -1
vn -0 0 -1
vn -0 0 -1
vn -0 0 -1
vn 0 0 -1
vn -0 0 -1
vn 0 0.08716 0.99619
vn 0 0.25882 0.96593
vn 0 0.42262 0.90631
vn 0 0.57358 0.81915
vn 0 0.70711 0.70711
vn 0 0.70711 0.70711
vn 0 0.81915 0.57357
vn 0 0.90631 0.42262
vn 0 0.90631 0.42262
vn 0 0.96593 0.25881
vn -0 0.96593 0.25881
vn 0 0.99619 0.08716
vn 0.99619 0 0.08716
vn 0.99619 0 -0.08716
vn 0.99619 -0 -0.08716
vn 0.96593 0 -0.25882
vn 0.96593 0 -0.25882
vn 0.90631 0 -0.42262
vn 0.81915 0 -0.57358
vn 0.70711 0 -0.70711
vn 0.57357 0 -0.81916
vn 0.57357 0 -0.81916
vn 0.42262 0 -0.90631
vn 0.25882 0 -0.96593
vn 0.08715 0 -0.9962
vn -0.08715 0 -0.9962
vn -0.25882 0 -0.96593
vn -0.42262 0 -0.90631
vn -0.57357 0 -0.81916
vn -0.57357 -0 -0.81916
vn -0.70711 0 -0.70711
vn -0.81915 0 -0.57358
vn -0.90631 0 -0.42262
vn -0.96593 0 -0.25882
vn -0.96593 -0 -0.25882
vn -0.9962 0 -0.08715
vn -0.9962 0 0.08715
vn -0.96593 0 0.25882
vn -0.96593 0 0.25882
vn -0.90631 0 0.42262
vn -0.81915 0 0.57358
vn -0.70711 0 0.70711
vn -0.57357 0 0.81916
vn -0.57357 0 0.81916
vn -0.42262 0 0.90631
vn -0.25882 0 0.96593
vn -0.08715 0 0.9962
vn 0.08715 -0 0.9962
vn 0.25882 -0 0.96593
vn 0.42262 -0 0.90631
vn 0.57357 -0 0.81916
vn 0.57357 -0 0.81916
vn 0.70711 -0 0.70711
vn 0.81915 -0 0.57358
vn 0.90631 -0 0.42262
vn 0.96593 -0 0.25882
vn 0.96593 -0 0.25882
vn 0.99863 -0 0.05234
vn 0.99863 0 0.05234
vn 0.99255 0 -0.12187
vn 0.99255 0 -0.12187
vn 0.9563 0 -0.29237
vn 0.891 0 -0.45399
vn 0.79864 0 -0.60181
vn 0.79864 -0 -0.60181
vn 0.682 0 -0.73135
vn 0.682 0 -0.73135
vn 0.54464 0 -0.83867
vn 0.39073 0 -0.9205
vn 0.22495 0 -0.97437
vn 0.05233 0 -0.99863
vn -0.12187 0 -0.99255
vn -0.12187 -0 -0.99255
vn -0.29238 0 -0.9563
vn -0.29238 -0 -0.9563
vn -0.45399 0 -0.89101
vn -0.60181 0 -0.79864
vn -0.60181 0 -0.79864
vn -0.73135 0 -0.682
vn -0.83867 0 -0.54464
vn -0.9205 0 -0.39073
vn -0.97437 0 -0.22495
vn -0.97437 0 -0.22495
vn 0.99567 0 -0.09295
vn 0.99567 -0 0.09295
vn -0.97437 0 0.22495
vn -0.9205 0 0.39073
vn -0.83867 0 0.54464
vn -0.73135 0 0.682
vn -0.60181 0 0.79864
vn -0.60181 -0 0.79864
vn -0.45399 0 0.89101
vn -0.29238 0 0.9563
vn -0.29238 0 0.9563
vn -0.12187 0 0.99255
vn -0.12187 0 0.99255
vn 0.05233 -0 0.99863
vn 0.22495 -0 0.97437
vn 0.39073 -0 0.9205
vn 0.54464 -0 0.83867
vn 0.682 -0 0.73135
vn 0.682 -0 0.73135
vn 0.79864 -0 0.60181
vn 0.79864 0 0.60181
vn 0.891 -0 0.45399
vn 0.9563 -0 0.29237
vn 0.99255 -0 0.12187
vn 0.99255 -0 0.12187
vn 0.99863 0 -0.05234
vn 0.99863 -0 -0.05234
vn -0.99567 0 -0.09295
vn -0.99567 0 0.09295
vn -0.08716 0 0.99619
vn -0.08716 -0 0.99619
vn -0.25882 0 0.96593
vn -0.25882 -0 0.96593
vn -0.42262 0 0.90631
vn -0.57358 0 0.81915
vn -0.81915 0 0.57358
vn -0.90631 0 0.42262
vn -0.90631 0 0.42262
vn -0.96593 0 0.25882
vn -0.96593 0 0.25882
vn -0.99619 0 0.08716
vn -0.99619 0 0.08716
vn 0.99619 0 0.08716
vn 0.96593 0 0.25882
vn 0.96593 -0 0.25882
vn 0.90631 0 0.42262
vn 0.90631 -0 0.42262
vn 0.81915 0 0.57358
vn 0.57358 0 0.81915
vn 0.42262 0 0.90631
vn 0.25882 0 0.96593
vn 0.25882 0 0.96593
vn 0.08716 0 0.99619
vn 0.08716 0 0.99619
vn 0.08715 0.99619 0
vn -0.08715 0.99619 0
vn -0.25882 0.96592 0
vn -0.25882 0.96592 0
vn -0.42262 0.90631 0
vn -0.42262 0.90631 0
vn -0.57357 0.81915 0
vn -0.57357 0.81915 -0
vn -0.70711 0.70711 0
vn -0.81915 0.57357 0
vn -0.81915 0.57357 0
vn -0.90631 0.42262 0
vn -0.90631 0.42262 -0
vn -0.96592 0.25882 0
vn -0.96592 0.25882 -0
vn -0.99619 0.08715 0
vn -0.99619 -0.08715 0
vn -0.96592 -0.25882 0
vn -0.96592 -0.25882 0
vn -0.90631 -0.42262 0
vn -0.81915 -0.57358 0
vn -0.70711 -0.7071 0
vn -0.70711 -0.7071 -0
vn -0.57358 -0.81915 0
vn -0.42261 -0.90631 0
vn -0.42261 -0.90631 0
vn -0.25882 -0.96592 0
vn -0.25882 -0.96592 -0
vn -0.08715 -0.99619 0
vn 0.08715 -0.99619 0
vn 0.25882 -0.96592 0
vn 0.25882 -0.96592 0
vn 0.42261 -0.90631 0
vn 0.42261 -0.90631 -0
vn 0.57358 -0.81915 0
vn 0.70711 -0.70711 0
vn 0.81915 -0.57358 0
vn 0.90631 -0.42261 0
vn 0.90631 -0.42261 0
vn 0.96592 -0.25882 0
vn 0.96592 -0.25882 -0
vn 0.99619 -0.08715 0
vn 0.99619 0.08715 -0
vn 0.96592 0.25882 -0
vn 0.96592 0.25882 0
vn 0.90631 0.42261 -0
vn 0.90631 0.42261 -0
vn 0.81915 0.57358 -0
vn 0.7071 0.70711 -0
vn 0.7071 0.70711 0
vn 0.57358 0.81915 -0
vn 0.42262 0.90631 -0
vn 0.25882 0.96592 -0
vn 0.25882 0.96592 -0
vn -0.42262 0.90631 0
vn -0.57358 0.81915 0
vn -0.7071 0.70711 0
vn -0.7071 0.70711 -0
vn -0.81915 0.57358 0
vn -0.90631 0.42261 0
vn -0.90631 0.42261 0
vn -0.90631 -0.42261 0
vn -0.90631 -0.42261 -0
vn -0.81915 -0.57358 0
vn -0.70711 -0.70711 0
vn -0.57358 -0.81915 0
vn -0.42261 -0.90631 0
vn -0.42261 -0.90631 0
vn 0.42261 -0.90631 0
vn 0.42261 -0.90631 -0
vn 0.57358 -0.81915 0
vn 0.70711 -0.7071 0
vn 0.70711 -0.7071 0
vn 0.81915 -0.57358 0
vn 0.90631 -0.42262 0
vn 0.90631 0.42262 -0
vn 0.90631 0.42262 0
vn 0.81915 0.57357 -0
vn 0.81915 0.57357 -0
vn 0.70711 0.70711 -0
vn 0.57357 0.81915 -0
vn 0.57357 0.81915 0
vn 0.42262 0.90631 -0
vn 0.42262 0.90631 -0
vn -0.99619 0 0.08716
vn -0.96593 0 0.25881
vn -0.90631 0 0.42262
vn -0.81917 0 0.57356
vn -0.70709 0 0.70713
vn -0.5736 0 0.81913
vn -0.42263 0 0.9063
vn -0.25877 0 0.96594
vn -0.0872 0 0.99619
vn 0.0872 0 0.99619
vn 0.0872 -0 0.99619
vn 0.25877 0 0.96594
vn 0.42264 0 0.9063
vn 0.42264 -0 0.9063
vn 0.5736 0 0.81914
vn 0.70708 0 0.70713
vn 0.81917 0 0.57355
vn 0.90631 0 0.42262
vn 0.96592 0 0.25882
vn 0.99619 0 0.08716
vn -0.08715 0 0.9962
vn -0.25882 0 0.96592
vn -0.42262 0 0.90631
vn -0.57359 0 0.81914
vn -0.70709 0 0.70712
vn -0.81916 0 0.57357
vn -0.90631 0 0.4226
vn -0.90631 0 0.4226
vn -0.96592 0 0.25885
vn -0.99619 0 0.08715
vn -0.99619 -0 0.08715
vn -0.08715 0.9962 0
vn -0.08715 0.9962 0
vn -0.25881 0.96593 0
vn -0.42263 0.9063 0
vn -0.57358 0.81915 0
vn -0.57358 0.81915 -0
vn -0.70709 0.70713 0
vn -0.70709 0.70713 -0
vn -0.81916 0.57356 0
vn -0.81916 0.57356 0
vn -0.90631 0.42261 0
vn -0.90631 0.42261 0
vn -0.96592 0.25884 0
vn -0.99619 0.08716 0
vn -0.99619 0.08716 -0
vn 0.08715 0 0.9962
vn 0.25882 0 0.96592
vn 0.42262 0 0.90631
vn 0.57359 0 0.81914
vn 0.70709 0 0.70712
vn 0.81916 0 0.57357
vn 0.90631 0 0.4226
vn 0.90631 -0 0.4226
vn 0.96592 0 0.25885
vn 0.99619 0 0.08715
vn 0.99619 0 0.08715
vn 0.99619 0.08716 0
vn 0.99619 0.08716 0
vn 0.96592 0.25884 0
vn 0.90631 0.42261 0
vn 0.90631 0.42261 -0
vn 0.81916 0.57356 0
vn 0.81916 0.57356 -0
vn 0.70709 0.70713 0
vn 0.70709 0.70713 0
vn 0.57358 0.81915 0
vn 0.57358 0.81915 0
vn 0.42263 0.9063 0
vn 0.25881 0.96593 0
vn 0.08715 0.9962 0
vn 0.08715 0.9962 -0
vn 0 0.08716 -0.99619
vn 0 0.08716 -0.99619
vn 0 0.25882 -0.96593
vn 0 0.42262 -0.90631
vn 0 0.42262 -0.90631
vn 0 0.57358 -0.81915
vn 0 0.57358 -0.81915
vn 0 0.70711 -0.70711
vn 0 0.81915 -0.57357
vn 0 0.90631 -0.42262
vn 0 0.96593 -0.25882
vn 0 0.99619 -0.08716
vn -0 -0 -1
vn -0 -0 -1
vn 0 -0 -1
vn -0 -0 -1
vn -0 -0 -1
vn -0 -0 -1
vn -0 -0 -1
vn -0 -0 -1
vn -0 -0 -1
vn 0 -0 -1
vn 0 -0 -1
vn -0 -0 -1
vn 0 -0 -1
vn -0 -0 -1
vn 0 -0 -1
vn -0 -0 -1
vn 0 -0 -1
vn 0 -0 -1
vn 0 -0 -1
vn 0 -0 -1
vn 0 -0 -1
vn -0 -0 -1
vn 0 -0 -1
vn -0 -0 -1
vn 0 -0 -1
vn 0 -0 -1
vn 0 -0 -1
vn 0 -0 -1
vn 0 -0 -1
vn -0 -0 -1
vn -0 -0 -1
vn 0 -0 -1
vn -0 -0 -1
vn 0 -0 -1
vn -0 -0 -1
vn -0 -0 -1
vn 0 -0 -1
vn -0 -0 -1
vn 0 -0 -1
vn -0 -0 -1
vn -0 -0 -1
vn -0 -0 -1
vn 0 -0 -1
vn -0 -0 -1
vn 0 -0 -1
vn 0 -0 -1
vn -0 -0 -1
vn -0 -0 -1
vn 0 -0 -1
vn 0 -0 -1
vn -0 -0 -1
vn -0 -0 -1
vn 0 -0 -1
vn -0 -0 -1
vn 0 -0 -1
vn 0 -0 -1
vn 0 -0 -1
vn 0 -0 -1
vn -0 -0 -1
vn 0 -0 -1
vn 0 -0 -1
vn 0 -0 -1
vn 0 -0 -1
vn -0 -0 -1
vn 0 -0 -1
vn 0 -0 -1
vn 0 -0 -1
vn 0 -0 -1
vn -0 -0 -1
vn -0 -0 -1
vn -0 -0 -1
vn -0 -0 -1
vn 0 -0 -1
vn -0 -0 -1
vn 0 -0 -1
vn 0 -0 -1
vn -0 -0 -1
vn -0 -0 -1
vn 0 -0 -1
vn 0 -0 -1
vn -0 -0 -1
vn -0 -0 -1
vn -0 -0 -1
vn 0 -0 -1
vn 0 -0 -1
vn 0 -0 -1
vn -0 -0 -1
vn 0 -0 -1
vn 0 -0 -1
vn 0 -0 -1
vn -0 -0 -1
vn -0 -0 -1
vn 0 -0 -1
vn 0 -0.99619 0.08716
vn 0 -0.96593 0.25881
vn 0 -0.96593 0.25881
vn 0 -0.90631 0.42262
vn -0 -0.90631 0.42262
vn 0 -0.81915 0.57357
vn 0 -0.70711 0.70711
vn -0 -0.70711 0.70711
vn 0 -0.57358 0.81915
vn 0 -0.42262 0.90631
vn 0 -0.25882 0.96593
vn 0 -0.08716 0.99619
vn 0.42262 -0.90631 0
vn 0.57358 -0.81915 0
vn 0.7071 -0.70711 0
vn 0.7071 -0.70711 -0
vn 0.81915 -0.57358 0
vn 0.90631 -0.42261 0
vn 0.90631 -0.42261 0
vn 0.90631 0.42261 -0
vn 0.90631 0.42261 -0
vn 0.81915 0.57358 -0
vn 0.57358 0.81915 -0
vn 0.42261 0.90631 -0
vn 0.42261 0.90631 0
vn -0.42261 0.90631 0
vn -0.42261 0.90631 -0
vn -0.57358 0.81915 0
vn -0.70711 0.7071 0
vn -0.70711 0.7071 0
vn -0.81915 0.57358 0
vn -0.90631 0.42262 0
vn -0.90631 -0.42262 0
vn -0.90631 -0.42262 0
vn -0.81915 -0.57357 0
vn -0.81915 -0.57357 -0
vn -0.57357 -0.81915 0
vn -0.57357 -0.81915 0
vn -0.42262 -0.90631 0
vn -0.42262 -0.90631 -0
vn 0.42262 -0.90631 0
vn 0.42262 -0.90631 0
vn 0.57357 -0.81915 0
vn 0.57357 -0.81915 -0
vn 0.81915 -0.57357 0
vn 0.81915 -0.57357 0
vn 0.90631 -0.42262 0
vn 0.90631 -0.42262 -0
vn 0.90631 0.42262 -0
vn 0.81915 0.57358 -0
vn 0.70711 0.7071 -0
vn 0.70711 0.7071 -0
vn 0.57358 0.81915 -0
vn 0.42261 0.90631 -0
vn 0.42261 0.90631 0
vn -0.42261 0.90631 0
vn -0.42261 0.90631 -0
vn -0.57358 0.81915 0
vn -0.81915 0.57358 0
vn -0.90631 0.42261 0
vn -0.90631 0.42261 0
vn -0.90631 -0.42261 0
vn -0.90631 -0.42261 -0
vn -0.81915 -0.57358 0
vn -0.7071 -0.70711 0
vn -0.7071 -0.70711 0
vn -0.57358 -0.81915 0
vn -0.42262 -0.90631 0
vn -0.99619 -0.08716 -0
vn -0.99619 -0.08716 0
vn -0.96592 -0.25884 -0
vn -0.90631 -0.42261 -0
vn -0.90631 -0.42261 -0
vn -0.81916 -0.57356 -0
vn -0.81916 -0.57356 -0
vn -0.70709 -0.70713 -0
vn -0.70709 -0.70713 0
vn -0.57358 -0.81915 -0
vn -0.57358 -0.81915 0
vn -0.42263 -0.9063 -0
vn -0.25881 -0.96593 -0
vn -0.08715 -0.9962 -0
vn -0.08715 -0.9962 -0
vn 0.08715 -0.9962 0
vn 0.08715 -0.9962 0
vn 0.25881 -0.96593 0
vn 0.42263 -0.9063 0
vn 0.57358 -0.81915 0
vn 0.57358 -0.81915 -0
vn 0.70709 -0.70713 0
vn 0.70709 -0.70713 -0
vn 0.81916 -0.57356 0
vn 0.81916 -0.57356 0
vn 0.90631 -0.42261 0
vn 0.90631 -0.42261 0
vn 0.96592 -0.25884 0
vn 0.99619 -0.08716 0
vn 0.99619 -0.08716 -0
f 1//1 2//1 3//1
f 3//1 2//1 4//1
f 3//1 4//1 5//1
f 5//1 4//1 6//1
f 5//1 6//1 7//1
f 7//1 6//1 8//1
f 7//1 8//1 9//1
f 9//1 8//1 10//1
f 9//1 10//1 11//1
f 11//1 10//1 12//1
f 11//1 12//1 13//1
f 13//1 12//1 14//1
f 13//1 14//1 15//1
f 15//1 14//1 16//1
f 15//1 16//1 17//1
f 17//1 16//1 18//1
f 17//1 18//1 19//1
f 19//1 18//1 20//1
f 21//1 2//1 22//1
f 22//1 2//1 1//1
f 23//2 24//2 25//2
f 25//2 24//2 26//2
f 25//2 26//2 27//2
f 27//2 26//2 28//2
f 27//2 28//2 29//2
f 29//2 28//2 30//2
f 29//2 30//2 31//2
f 31//2 30//2 32//2
f 31//2 32//2 33//2
f 33//2 32//2 34//2
f 33//2 34//2 35//2
f 35//2 34//2 36//2
f 35//2 36//2 37//2
f 37//2 36//2 38//2
f 37//2 38//2 39//2
f 39//2 38//2 40//2
f 39//2 40//2 41//2
f 41//2 40//2 42//2
f 43//2 24//2 44//2
f 44//2 24//2 23//2
f 45//3 46//3 47//3
f 47//3 46//3 48//3
f 49//3 50//3 51//3
f 52//3 53//3 54//3
f 54//3 53//3 55//3
f 56//3 57//3 58//3
f 59//3 60//3 46//3
f 46//3 60//3 61//3
f 46//3 61//3 48//3
f 47//3 62//3 45//3
f 45//3 62//3 63//3
f 45//3 63//3 64//3
f 65//3 66//3 67//3
f 67//3 66//3 68//3
f 58//3 69//3 56//3
f 56//3 69//3 70//3
f 56//3 70//3 71//3
f 71//3 70//3 72//3
f 71//3 72//3 73//3
f 55//3 74//3 54//3
f 54//3 74//3 75//3
f 54//3 75//3 76//3
f 64//3 77//3 45//3
f 45//3 77//3 78//3
f 45//3 78//3 79//3
f 80//3 81//3 46//3
f 82//3 83//3 46//3
f 46//3 83//3 84//3
f 46//3 84//3 59//3
f 73//3 85//3 71//3
f 71//3 85//3 86//3
f 71//3 86//3 87//3
f 51//3 88//3 49//3
f 49//3 88//3 89//3
f 49//3 89//3 54//3
f 54//3 89//3 90//3
f 54//3 90//3 52//3
f 91//3 92//3 56//3
f 56//3 92//3 93//3
f 56//3 93//3 94//3
f 95//3 96//3 97//3
f 95//3 97//3 94//3
f 94//3 97//3 98//3
f 94//3 98//3 99//3
f 65//3 100//3 66//3
f 66//3 100//3 101//3
f 66//3 101//3 102//3
f 79//3 103//3 45//3
f 45//3 103//3 104//3
f 45//3 104//3 105//3
f 105//3 104//3 106//3
f 107//3 108//3 1//3
f 1//3 108//3 109//3
f 81//3 110//3 46//3
f 46//3 110//3 111//3
f 46//3 111//3 82//3
f 112//3 113//3 114//3
f 114//3 113//3 66//3
f 114//3 66//3 46//3
f 46//3 66//3 102//3
f 46//3 102//3 80//3
f 115//3 41//3 116//3
f 66//3 117//3 68//3
f 68//3 117//3 118//3
f 68//3 118//3 119//3
f 119//3 118//3 120//3
f 119//3 120//3 96//3
f 96//3 120//3 121//3
f 96//3 121//3 97//3
f 122//3 123//3 124//3
f 124//3 123//3 125//3
f 124//3 125//3 126//3
f 126//3 49//3 127//3
f 127//3 49//3 128//3
f 127//3 128//3 129//3
f 126//3 125//3 49//3
f 49//3 125//3 130//3
f 49//3 130//3 50//3
f 131//3 132//3 113//3
f 113//3 132//3 133//3
f 76//3 66//3 54//3
f 54//3 66//3 113//3
f 54//3 113//3 134//3
f 134//3 113//3 133//3
f 134//3 133//3 135//3
f 115//3 116//3 136//3
f 136//3 116//3 137//3
f 136//3 137//3 138//3
f 138//3 137//3 139//3
f 138//3 139//3 140//3
f 140//3 139//3 141//3
f 140//3 141//3 142//3
f 142//3 141//3 143//3
f 142//3 143//3 144//3
f 115//3 145//3 41//3
f 41//3 145//3 146//3
f 41//3 146//3 1//3
f 1//3 146//3 147//3
f 1//3 147//3 107//3
f 148//3 149//3 105//3
f 150//3 151//3 109//3
f 99//3 152//3 94//3
f 94//3 152//3 153//3
f 94//3 153//3 56//3
f 56//3 153//3 154//3
f 56//3 154//3 57//3
f 150//3 109//3 149//3
f 149//3 109//3 155//3
f 149//3 155//3 105//3
f 87//3 156//3 71//3
f 71//3 156//3 157//3
f 71//3 157//3 158//3
f 158//3 157//3 159//3
f 160//3 161//3 158//3
f 158//3 161//3 162//3
f 158//3 162//3 163//3
f 163//3 162//3 123//3
f 163//3 123//3 164//3
f 164//3 123//3 122//3
f 151//3 165//3 109//3
f 109//3 165//3 166//3
f 109//3 166//3 1//3
f 1//3 166//3 167//3
f 1//3 167//3 22//3
f 22//3 167//3 168//3
f 22//3 168//3 169//3
f 169//3 168//3 170//3
f 169//3 170//3 171//3
f 171//3 170//3 172//3
f 171//3 172//3 173//3
f 173//3 172//3 174//3
f 173//3 174//3 175//3
f 175//3 174//3 176//3
f 159//3 177//3 158//3
f 158//3 177//3 178//3
f 158//3 178//3 160//3
f 56//3 179//3 91//3
f 91//3 179//3 148//3
f 91//3 148//3 180//3
f 180//3 148//3 105//3
f 180//3 105//3 181//3
f 181//3 105//3 106//3
f 182//4 183//4 54//4
f 54//4 183//4 49//4
f 184//5 185//5 186//5
f 187//5 188//5 189//5
f 190//5 191//5 192//5
f 192//5 193//5 190//5
f 190//5 193//5 194//5
f 190//5 194//5 195//5
f 196//5 197//5 198//5
f 198//5 197//5 190//5
f 198//5 190//5 199//5
f 199//5 190//5 195//5
f 200//5 201//5 202//5
f 203//5 204//5 205//5
f 205//5 204//5 206//5
f 205//5 206//5 207//5
f 207//5 206//5 208//5
f 207//5 208//5 209//5
f 209//5 210//5 207//5
f 207//5 210//5 211//5
f 207//5 211//5 212//5
f 213//5 214//5 183//5
f 183//5 214//5 215//5
f 189//5 216//5 187//5
f 187//5 216//5 217//5
f 187//5 217//5 190//5
f 190//5 217//5 218//5
f 190//5 218//5 191//5
f 200//5 202//5 186//5
f 202//5 219//5 186//5
f 186//5 219//5 197//5
f 186//5 197//5 184//5
f 184//5 197//5 196//5
f 201//5 220//5 202//5
f 202//5 220//5 221//5
f 202//5 221//5 222//5
f 223//5 224//5 205//5
f 205//5 224//5 225//5
f 205//5 225//5 203//5
f 226//5 227//5 228//5
f 229//5 230//5 231//5
f 232//5 233//5 183//5
f 183//5 233//5 234//5
f 183//5 234//5 213//5
f 2//5 235//5 236//5
f 185//5 184//5 230//5
f 230//5 184//5 237//5
f 230//5 237//5 231//5
f 229//5 231//5 228//5
f 228//5 231//5 238//5
f 228//5 238//5 226//5
f 239//5 240//5 241//5
f 241//5 240//5 242//5
f 241//5 242//5 187//5
f 187//5 242//5 243//5
f 187//5 243//5 188//5
f 244//5 245//5 235//5
f 246//5 247//5 248//5
f 248//5 247//5 235//5
f 248//5 235//5 249//5
f 250//5 251//5 252//5
f 252//5 251//5 253//5
f 252//5 253//5 254//5
f 254//5 253//5 255//5
f 254//5 255//5 256//5
f 256//5 255//5 257//5
f 256//5 257//5 258//5
f 258//5 257//5 259//5
f 258//5 259//5 260//5
f 260//5 259//5 42//5
f 260//5 42//5 261//5
f 262//5 263//5 183//5
f 183//5 263//5 228//5
f 183//5 228//5 232//5
f 228//5 264//5 265//5
f 240//5 266//5 242//5
f 242//5 266//5 267//5
f 242//5 267//5 268//5
f 245//5 269//5 235//5
f 235//5 269//5 270//5
f 235//5 270//5 249//5
f 271//5 272//5 273//5
f 273//5 272//5 274//5
f 273//5 274//5 205//5
f 205//5 274//5 275//5
f 205//5 275//5 223//5
f 2//5 236//5 42//5
f 42//5 236//5 276//5
f 42//5 276//5 261//5
f 212//5 277//5 207//5
f 207//5 277//5 278//5
f 207//5 278//5 279//5
f 279//5 278//5 280//5
f 279//5 280//5 281//5
f 281//5 280//5 282//5
f 182//5 283//5 280//5
f 280//5 283//5 284//5
f 280//5 285//5 182//5
f 182//5 285//5 286//5
f 182//5 286//5 287//5
f 287//5 288//5 182//5
f 182//5 288//5 289//5
f 182//5 289//5 183//5
f 183//5 289//5 290//5
f 183//5 290//5 262//5
f 265//5 291//5 228//5
f 228//5 291//5 292//5
f 228//5 292//5 232//5
f 215//5 293//5 183//5
f 183//5 293//5 294//5
f 183//5 294//5 295//5
f 295//5 294//5 242//5
f 295//5 242//5 296//5
f 296//5 242//5 268//5
f 297//5 298//5 228//5
f 228//5 298//5 299//5
f 228//5 299//5 264//5
f 235//5 2//5 244//5
f 244//5 2//5 21//5
f 244//5 21//5 300//5
f 300//5 21//5 301//5
f 300//5 301//5 302//5
f 302//5 301//5 303//5
f 302//5 303//5 304//5
f 304//5 303//5 305//5
f 304//5 305//5 306//5
f 306//5 305//5 307//5
f 306//5 307//5 308//5
f 309//5 282//5 310//5
f 310//5 282//5 280//5
f 310//5 280//5 311//5
f 311//5 280//5 284//5
f 227//5 312//5 228//5
f 228//5 312//5 313//5
f 228//5 313//5 314//5
f 222//5 271//5 202//5
f 202//5 271//5 273//5
f 202//5 273//5 248//5
f 248//5 273//5 315//5
f 248//5 315//5 246//5
f 316//5 297//5 317//5
f 317//5 297//5 228//5
f 317//5 228//5 318//5
f 318//5 228//5 314//5
f 2//6 42//6 40//6
f 2//6 40//6 4//6
f 4//7 40//7 38//7
f 4//7 38//7 6//7
f 6//8 38//8 36//8
f 6//8 36//8 8//8
f 8//9 36//9 34//9
f 8//9 34//9 10//9
f 10//10 34//10 32//10
f 10//10 32//10 12//10
f 12//11 32//11 30//11
f 12//12 30//12 14//12
f 14//13 30//13 28//13
f 14//14 28//14 16//14
f 16//15 28//15 26//15
f 16//15 26//15 18//15
f 18//16 26//16 24//16
f 18//17 24//17 20//17
f 319//18 320//18 321//18
f 322//19 323//19 324//19
f 325//20 326//20 327//20
f 327//21 326//21 328//21
f 327//22 328//22 329//22
f 330//23 331//23 332//23
f 332//24 331//24 333//24
f 334//25 335//25 336//25
f 337//26 338//26 339//26
f 339//27 338//27 340//27
f 337//28 339//28 341//28
f 341//29 339//29 322//29
f 341//30 322//30 342//30
f 342//31 322//31 324//31
f 342//32 324//32 343//32
f 323//33 344//33 324//33
f 324//34 344//34 345//34
f 324//35 345//35 327//35
f 327//36 345//36 346//36
f 327//37 346//37 325//37
f 329//38 347//38 327//38
f 327//39 347//39 348//39
f 327//40 348//40 349//40
f 336//41 350//41 334//41
f 334//42 350//42 351//42
f 334//43 351//43 352//43
f 352//44 353//44 334//44
f 334//45 353//45 354//45
f 334//46 354//46 319//46
f 319//47 354//47 355//47
f 319//48 355//48 320//48
f 321//49 356//49 319//49
f 319//50 356//50 357//50
f 319//51 357//51 358//51
f 358//52 357//52 339//52
f 358//53 339//53 359//53
f 359//54 339//54 340//54
f 349//55 360//55 327//55
f 327//56 360//56 361//56
f 327//57 361//57 331//57
f 361//58 362//58 331//58
f 331//59 362//59 363//59
f 331//60 363//60 364//60
f 365//61 366//61 331//61
f 331//62 366//62 367//62
f 331//63 367//63 368//63
f 368//64 367//64 369//64
f 368//65 369//65 370//65
f 371//66 372//66 334//66
f 334//67 372//67 373//67
f 334//68 373//68 374//68
f 364//69 375//69 331//69
f 331//70 375//70 376//70
f 331//71 376//71 333//71
f 377//72 378//72 330//72
f 379//73 380//73 335//73
f 381//74 382//74 331//74
f 331//75 382//75 383//75
f 331//76 383//76 384//76
f 384//77 385//77 331//77
f 331//78 385//78 386//78
f 331//79 386//79 365//79
f 387//80 388//80 389//80
f 390//81 388//81 391//81
f 391//82 388//82 387//82
f 391//83 387//83 392//83
f 392//84 387//84 371//84
f 392//85 371//85 393//85
f 393//86 371//86 334//86
f 379//87 335//87 394//87
f 374//88 395//88 334//88
f 334//89 395//89 396//89
f 334//90 396//90 335//90
f 335//91 396//91 397//91
f 335//92 397//92 394//92
f 398//93 399//93 330//93
f 330//94 399//94 400//94
f 330//95 400//95 377//95
f 380//96 401//96 335//96
f 335//97 401//97 402//97
f 335//98 402//98 403//98
f 403//98 402//98 404//98
f 403//99 404//99 330//99
f 330//99 404//99 405//99
f 330//97 405//97 398//97
f 378//100 406//100 330//100
f 330//101 406//101 407//101
f 330//102 407//102 331//102
f 331//103 407//103 408//103
f 331//104 408//104 381//104
f 370//105 409//105 368//105
f 368//106 409//106 410//106
f 368//107 410//107 411//107
f 411//108 410//108 387//108
f 411//109 387//109 412//109
f 412//110 387//110 389//110
f 413//3 414//3 415//3
f 415//3 414//3 416//3
f 417//4 418//4 23//4
f 23//4 418//4 419//4
f 23//4 419//4 420//4
f 421//4 422//4 23//4
f 23//4 422//4 423//4
f 23//4 423//4 417//4
f 424//4 425//4 413//4
f 425//4 426//4 413//4
f 413//4 426//4 427//4
f 413//4 427//4 428//4
f 44//4 429//4 430//4
f 420//4 431//4 23//4
f 23//4 431//4 432//4
f 23//4 432//4 44//4
f 428//4 433//4 413//4
f 413//4 433//4 434//4
f 413//4 434//4 435//4
f 436//4 414//4 437//4
f 437//4 414//4 438//4
f 439//4 429//4 440//4
f 440//4 429//4 44//4
f 440//4 44//4 413//4
f 413//4 44//4 432//4
f 413//4 432//4 424//4
f 441//4 19//4 442//4
f 442//4 19//4 443//4
f 444//4 445//4 446//4
f 446//4 445//4 44//4
f 446//4 44//4 447//4
f 447//4 44//4 430//4
f 448//4 449//4 414//4
f 414//4 449//4 450//4
f 414//4 450//4 438//4
f 435//4 451//4 413//4
f 413//4 451//4 452//4
f 413//4 452//4 414//4
f 414//4 452//4 453//4
f 414//4 453//4 448//4
f 454//4 455//4 414//4
f 414//4 455//4 456//4
f 436//4 457//4 414//4
f 414//4 457//4 458//4
f 414//4 458//4 454//4
f 459//4 460//4 19//4
f 19//4 460//4 461//4
f 19//4 461//4 23//4
f 23//4 461//4 462//4
f 23//4 462//4 421//4
f 463//4 464//4 465//4
f 441//4 466//4 19//4
f 19//4 466//4 467//4
f 19//4 467//4 459//4
f 468//4 469//4 443//4
f 443//4 469//4 470//4
f 443//4 470//4 471//4
f 472//4 473//4 436//4
f 443//4 474//4 475//4
f 475//4 474//4 476//4
f 475//4 476//4 436//4
f 436//4 476//4 477//4
f 436//4 477//4 472//4
f 464//4 478//4 465//4
f 465//4 478//4 479//4
f 465//4 479//4 19//4
f 19//4 479//4 480//4
f 480//4 481//4 19//4
f 19//4 481//4 482//4
f 19//4 482//4 483//4
f 471//4 484//4 443//4
f 443//4 484//4 485//4
f 443//4 485//4 474//4
f 473//4 486//4 436//4
f 436//4 486//4 487//4
f 436//4 487//4 457//4
f 488//4 489//4 463//4
f 488//4 463//4 490//4
f 490//4 463//4 465//4
f 490//4 465//4 491//4
f 19//4 492//4 493//4
f 488//4 494//4 489//4
f 489//4 494//4 495//4
f 489//4 495//4 496//4
f 483//4 497//4 19//4
f 19//4 497//4 498//4
f 19//4 498//4 492//4
f 493//4 499//4 19//4
f 19//4 499//4 500//4
f 19//4 500//4 443//4
f 443//4 500//4 501//4
f 443//4 501//4 468//4
f 456//4 502//4 414//4
f 414//4 502//4 503//4
f 414//4 503//4 504//4
f 504//4 503//4 489//4
f 504//4 489//4 505//4
f 505//4 489//4 496//4
f 19//111 23//111 25//111
f 19//111 25//111 17//111
f 17//112 25//112 27//112
f 17//112 27//112 15//112
f 15//113 27//113 29//113
f 15//113 29//113 13//113
f 13//114 29//114 31//114
f 13//114 31//114 11//114
f 11//115 31//115 33//115
f 11//116 33//116 9//116
f 9//117 33//117 35//117
f 9//117 35//117 7//117
f 7//118 35//118 37//118
f 7//119 37//119 5//119
f 5//120 37//120 39//120
f 5//121 39//121 3//121
f 3//122 39//122 41//122
f 3//122 41//122 1//122
f 465//1 19//1 506//1
f 506//1 19//1 20//1
f 116//2 41//2 259//2
f 259//2 41//2 42//2
f 208//123 47//123 209//123
f 209//124 47//124 48//124
f 209//125 48//125 210//125
f 210//126 48//126 61//126
f 210//127 61//127 211//127
f 211//128 61//128 60//128
f 211//128 60//128 212//128
f 212//129 60//129 59//129
f 212//129 59//129 277//129
f 277//130 59//130 84//130
f 277//130 84//130 278//130
f 278//131 84//131 83//131
f 278//132 83//132 280//132
f 280//133 83//133 82//133
f 280//133 82//133 285//133
f 285//134 82//134 111//134
f 285//134 111//134 286//134
f 286//135 111//135 110//135
f 286//135 110//135 287//135
f 287//136 110//136 81//136
f 287//136 81//136 288//136
f 288//137 81//137 80//137
f 288//137 80//137 289//137
f 289//138 80//138 102//138
f 289//138 102//138 290//138
f 290//139 102//139 101//139
f 290//140 101//140 262//140
f 262//141 101//141 100//141
f 262//141 100//141 263//141
f 263//142 100//142 65//142
f 263//142 65//142 228//142
f 228//143 65//143 67//143
f 228//143 67//143 229//143
f 229//144 67//144 68//144
f 229//145 68//145 230//145
f 230//146 68//146 119//146
f 230//146 119//146 185//146
f 185//147 119//147 96//147
f 185//147 96//147 186//147
f 186//148 96//148 95//148
f 186//149 95//149 200//149
f 200//150 95//150 94//150
f 200//150 94//150 201//150
f 201//151 94//151 93//151
f 201//151 93//151 220//151
f 220//152 93//152 92//152
f 220//152 92//152 221//152
f 221//153 92//153 91//153
f 221//154 91//154 222//154
f 222//155 91//155 180//155
f 222//155 180//155 271//155
f 271//156 180//156 181//156
f 271//156 181//156 272//156
f 272//157 181//157 106//157
f 272//157 106//157 274//157
f 274//158 106//158 104//158
f 274//158 104//158 275//158
f 275//159 104//159 103//159
f 275//159 103//159 223//159
f 223//160 103//160 79//160
f 223//160 79//160 224//160
f 224//161 79//161 78//161
f 224//162 78//162 225//162
f 225//163 78//163 77//163
f 225//163 77//163 203//163
f 203//164 77//164 64//164
f 203//164 64//164 204//164
f 204//165 64//165 63//165
f 204//165 63//165 206//165
f 206//166 63//166 62//166
f 206//167 62//167 208//167
f 208//123 62//123 47//123
f 297//168 117//168 66//168
f 297//169 66//169 298//169
f 298//170 66//170 76//170
f 298//171 76//171 299//171
f 299//172 76//172 75//172
f 299//172 75//172 264//172
f 264//173 75//173 74//173
f 264//173 74//173 265//173
f 265//174 74//174 55//174
f 265//175 55//175 291//175
f 291//176 55//176 53//176
f 291//177 53//177 292//177
f 292//178 53//178 52//178
f 292//178 52//178 232//178
f 232//179 52//179 90//179
f 232//179 90//179 233//179
f 233//180 90//180 89//180
f 233//180 89//180 234//180
f 234//181 89//181 88//181
f 234//181 88//181 213//181
f 213//182 88//182 51//182
f 213//183 51//183 214//183
f 214//184 51//184 50//184
f 214//185 50//185 215//185
f 215//186 50//186 130//186
f 215//186 130//186 293//186
f 293//187 130//187 125//187
f 293//188 125//188 294//188
f 294//189 125//189 123//189
f 294//189 123//189 242//189
f 242//190 123//190 162//190
f 242//190 162//190 243//190
f 243//191 162//191 161//191
f 243//191 161//191 188//191
f 188//192 161//192 160//192
f 188//193 160//193 189//193
f 318//194 121//194 120//194
f 318//194 120//194 317//194
f 317//1 120//1 118//1
f 317//1 118//1 316//1
f 316//195 118//195 117//195
f 316//195 117//195 297//195
f 218//196 159//196 157//196
f 218//196 157//196 191//196
f 191//197 157//197 156//197
f 191//197 156//197 192//197
f 192//198 156//198 87//198
f 192//198 87//198 193//198
f 193//199 87//199 86//199
f 193//199 86//199 194//199
f 194//200 86//200 85//200
f 194//201 85//201 195//201
f 195//202 85//202 73//202
f 195//202 73//202 199//202
f 199//203 73//203 72//203
f 199//204 72//204 198//204
f 198//205 72//205 70//205
f 198//206 70//206 196//206
f 196//207 70//207 69//207
f 196//207 69//207 184//207
f 184//208 69//208 58//208
f 184//208 58//208 237//208
f 237//209 58//209 57//209
f 237//209 57//209 231//209
f 231//210 57//210 154//210
f 231//210 154//210 238//210
f 238//211 154//211 153//211
f 238//212 153//212 226//212
f 226//213 153//213 152//213
f 226//214 152//214 227//214
f 227//215 152//215 99//215
f 227//215 99//215 312//215
f 312//216 99//216 98//216
f 312//216 98//216 313//216
f 313//217 98//217 97//217
f 313//218 97//218 314//218
f 314//219 97//219 121//219
f 314//220 121//220 318//220
f 189//221 160//221 178//221
f 189//221 178//221 216//221
f 216//2 178//2 177//2
f 216//2 177//2 217//2
f 217//222 177//222 159//222
f 217//222 159//222 218//222
f 187//1 190//1 158//1
f 158//1 190//1 71//1
f 168//4 167//4 300//4
f 300//4 167//4 244//4
f 258//4 260//4 136//4
f 136//4 260//4 115//4
f 46//2 45//2 207//2
f 207//2 45//2 205//2
f 115//223 260//223 261//223
f 115//224 261//224 145//224
f 145//225 261//225 276//225
f 145//226 276//226 146//226
f 146//227 276//227 236//227
f 146//227 236//227 147//227
f 147//228 236//228 235//228
f 147//228 235//228 107//228
f 107//152 235//152 247//152
f 107//152 247//152 108//152
f 108//229 247//229 246//229
f 108//229 246//229 109//229
f 109//230 246//230 315//230
f 109//231 315//231 155//231
f 155//232 315//232 273//232
f 155//233 273//233 105//233
f 105//234 273//234 205//234
f 105//235 205//235 45//235
f 71//236 190//236 197//236
f 71//236 197//236 56//236
f 56//237 197//237 219//237
f 56//238 219//238 179//238
f 179//239 219//239 202//239
f 179//240 202//240 148//240
f 148//241 202//241 248//241
f 148//241 248//241 149//241
f 149//163 248//163 249//163
f 149//163 249//163 150//163
f 150//242 249//242 270//242
f 150//242 270//242 151//242
f 151//243 270//243 269//243
f 151//243 269//243 165//243
f 165//244 269//244 245//244
f 165//245 245//245 166//245
f 166//246 245//246 244//246
f 166//247 244//247 167//247
f 507//248 462//248 508//248
f 508//249 462//249 461//249
f 508//249 461//249 509//249
f 509//250 461//250 460//250
f 509//251 460//251 510//251
f 510//252 460//252 459//252
f 510//253 459//253 511//253
f 511//254 459//254 467//254
f 511//255 467//255 512//255
f 512//256 467//256 466//256
f 512//256 466//256 513//256
f 513//257 466//257 441//257
f 513//258 441//258 514//258
f 514//259 441//259 442//259
f 514//260 442//260 515//260
f 515//261 442//261 443//261
f 515//262 443//262 516//262
f 516//263 443//263 475//263
f 516//263 475//263 517//263
f 517//264 475//264 436//264
f 517//264 436//264 518//264
f 518//265 436//265 437//265
f 518//266 437//266 519//266
f 519//267 437//267 438//267
f 519//267 438//267 520//267
f 520//268 438//268 450//268
f 520//268 450//268 521//268
f 521//269 450//269 449//269
f 521//270 449//270 522//270
f 522//271 449//271 448//271
f 522//271 448//271 523//271
f 523//272 448//272 453//272
f 523//273 453//273 524//273
f 524//274 453//274 452//274
f 524//275 452//275 525//275
f 525//276 452//276 451//276
f 525//276 451//276 526//276
f 526//277 451//277 435//277
f 526//277 435//277 527//277
f 527//278 435//278 434//278
f 527//279 434//279 528//279
f 528//280 434//280 433//280
f 528//281 433//281 529//281
f 529//282 433//282 428//282
f 529//282 428//282 530//282
f 530//283 428//283 427//283
f 530//283 427//283 531//283
f 531//284 427//284 426//284
f 531//284 426//284 532//284
f 532//285 426//285 425//285
f 532//286 425//286 533//286
f 533//287 425//287 424//287
f 533//288 424//288 534//288
f 534//289 424//289 432//289
f 534//289 432//289 535//289
f 535//290 432//290 431//290
f 535//290 431//290 536//290
f 536//291 431//291 420//291
f 536//292 420//292 537//292
f 537//293 420//293 419//293
f 537//294 419//294 538//294
f 538//295 419//295 418//295
f 538//295 418//295 539//295
f 539//296 418//296 417//296
f 539//297 417//297 540//297
f 540//298 417//298 423//298
f 540//298 423//298 541//298
f 541//299 423//299 422//299
f 541//299 422//299 542//299
f 542//300 422//300 421//300
f 542//301 421//301 507//301
f 507//248 421//248 462//248
f 543//248 500//248 544//248
f 544//249 500//249 499//249
f 544//249 499//249 545//249
f 545//250 499//250 493//250
f 545//251 493//251 546//251
f 546//302 493//302 492//302
f 546//302 492//302 547//302
f 547//303 492//303 498//303
f 547//303 498//303 548//303
f 548//304 498//304 497//304
f 548//305 497//305 549//305
f 549//306 497//306 483//306
f 549//306 483//306 550//306
f 550//307 483//307 482//307
f 550//308 482//308 551//308
f 551//261 482//261 481//261
f 551//262 481//262 552//262
f 552//263 481//263 480//263
f 552//263 480//263 553//263
f 553//264 480//264 479//264
f 553//264 479//264 554//264
f 554//265 479//265 478//265
f 554//266 478//266 555//266
f 555//309 478//309 464//309
f 555//310 464//310 556//310
f 556//311 464//311 463//311
f 556//311 463//311 557//311
f 557//312 463//312 489//312
f 557//312 489//312 558//312
f 558//313 489//313 503//313
f 558//313 503//313 559//313
f 559//314 503//314 502//314
f 559//315 502//315 560//315
f 560//274 502//274 456//274
f 560//275 456//275 561//275
f 561//276 456//276 455//276
f 561//276 455//276 562//276
f 562//277 455//277 454//277
f 562//277 454//277 563//277
f 563//278 454//278 458//278
f 563//279 458//279 564//279
f 564//316 458//316 457//316
f 564//317 457//317 565//317
f 565//318 457//318 487//318
f 565//318 487//318 566//318
f 566//319 487//319 486//319
f 566//320 486//320 567//320
f 567//321 486//321 473//321
f 567//321 473//321 568//321
f 568//322 473//322 472//322
f 568//322 472//322 569//322
f 569//287 472//287 477//287
f 569//288 477//288 570//288
f 570//289 477//289 476//289
f 570//289 476//289 571//289
f 571//290 476//290 474//290
f 571//290 474//290 572//290
f 572//291 474//291 485//291
f 572//292 485//292 573//292
f 573//323 485//323 484//323
f 573//324 484//324 574//324
f 574//325 484//325 471//325
f 574//326 471//326 575//326
f 575//327 471//327 470//327
f 575//327 470//327 576//327
f 576//328 470//328 469//328
f 576//329 469//329 577//329
f 577//330 469//330 468//330
f 577//331 468//331 578//331
f 578//300 468//300 501//300
f 578//301 501//301 543//301
f 543//248 501//248 500//248
f 46//332 207//332 279//332
f 46//332 279//332 114//332
f 114//333 279//333 281//333
f 114//333 281//333 112//333
f 112//334 281//334 282//334
f 112//334 282//334 113//334
f 113//335 282//335 309//335
f 113//335 309//335 131//335
f 131//336 309//336 310//336
f 131//336 310//336 132//336
f 132//337 310//337 311//337
f 132//337 311//337 133//337
f 133//338 311//338 284//338
f 133//338 284//338 135//338
f 135//339 284//339 283//339
f 135//339 283//339 134//339
f 134//340 283//340 182//340
f 134//340 182//340 54//340
f 49//341 183//341 295//341
f 49//342 295//342 128//342
f 128//343 295//343 296//343
f 128//343 296//343 129//343
f 129//344 296//344 268//344
f 129//345 268//345 127//345
f 127//346 268//346 267//346
f 127//346 267//346 126//346
f 126//347 267//347 266//347
f 126//347 266//347 124//347
f 124//348 266//348 240//348
f 124//348 240//348 122//348
f 122//349 240//349 239//349
f 122//349 239//349 164//349
f 164//350 239//350 241//350
f 164//350 241//350 163//350
f 163//351 241//351 187//351
f 163//351 187//351 158//351
f 258//352 136//352 138//352
f 258//352 138//352 256//352
f 256//353 138//353 140//353
f 256//353 140//353 254//353
f 254//354 140//354 142//354
f 254//354 142//354 252//354
f 252//355 142//355 144//355
f 252//355 144//355 250//355
f 250//356 144//356 143//356
f 250//356 143//356 251//356
f 251//357 143//357 141//357
f 251//357 141//357 253//357
f 253//358 141//358 139//358
f 253//359 139//359 255//359
f 255//360 139//360 137//360
f 255//360 137//360 257//360
f 257//361 137//361 116//361
f 257//362 116//362 259//362
f 413//363 415//363 579//363
f 413//364 579//364 440//364
f 440//365 579//365 580//365
f 440//365 580//365 439//365
f 439//366 580//366 581//366
f 439//366 581//366 429//366
f 429//367 581//367 582//367
f 429//368 582//368 430//368
f 430//369 582//369 583//369
f 430//370 583//370 447//370
f 447//371 583//371 584//371
f 447//372 584//372 446//372
f 446//373 584//373 585//373
f 446//374 585//374 444//374
f 444//375 585//375 586//375
f 444//375 586//375 445//375
f 445//376 586//376 43//376
f 445//377 43//377 44//377
f 168//378 300//378 302//378
f 168//378 302//378 170//378
f 170//379 302//379 304//379
f 170//379 304//379 172//379
f 172//380 304//380 306//380
f 172//380 306//380 174//380
f 174//381 306//381 308//381
f 174//381 308//381 176//381
f 176//382 308//382 307//382
f 176//382 307//382 175//382
f 175//383 307//383 305//383
f 175//383 305//383 173//383
f 173//384 305//384 303//384
f 173//385 303//385 171//385
f 171//386 303//386 301//386
f 171//386 301//386 169//386
f 169//387 301//387 21//387
f 169//388 21//388 22//388
f 465//389 587//389 588//389
f 465//390 588//390 491//390
f 491//391 588//391 589//391
f 491//391 589//391 490//391
f 490//392 589//392 590//392
f 490//393 590//393 488//393
f 488//394 590//394 591//394
f 488//395 591//395 494//395
f 494//396 591//396 592//396
f 494//397 592//397 495//397
f 495//398 592//398 593//398
f 495//399 593//399 496//399
f 496//400 593//400 594//400
f 496//400 594//400 505//400
f 505//401 594//401 595//401
f 505//401 595//401 504//401
f 504//402 595//402 416//402
f 504//403 416//403 414//403
f 596//1 597//1 598//1
f 598//1 597//1 599//1
f 598//1 599//1 600//1
f 600//1 599//1 601//1
f 600//1 601//1 602//1
f 602//1 601//1 603//1
f 602//1 603//1 604//1
f 604//1 603//1 605//1
f 604//1 605//1 606//1
f 606//1 605//1 607//1
f 606//1 607//1 608//1
f 608//1 607//1 609//1
f 608//1 609//1 610//1
f 610//1 609//1 611//1
f 610//1 611//1 612//1
f 612//1 611//1 613//1
f 612//1 613//1 614//1
f 614//1 613//1 615//1
f 615//1 616//1 614//1
f 614//1 616//1 617//1
f 618//2 619//2 620//2
f 620//2 619//2 621//2
f 620//2 621//2 622//2
f 622//2 621//2 623//2
f 622//2 623//2 624//2
f 624//2 623//2 625//2
f 624//2 625//2 626//2
f 626//2 625//2 627//2
f 626//2 627//2 628//2
f 628//2 627//2 629//2
f 628//2 629//2 630//2
f 630//2 629//2 631//2
f 630//2 631//2 632//2
f 632//2 631//2 633//2
f 632//2 633//2 634//2
f 634//2 633//2 635//2
f 634//2 635//2 636//2
f 636//2 635//2 637//2
f 637//2 638//2 636//2
f 636//2 638//2 639//2
f 640//5 641//5 642//5
f 642//5 641//5 643//5
f 642//5 643//5 644//5
f 645//5 646//5 647//5
f 648//5 649//5 650//5
f 650//5 651//5 648//5
f 648//5 651//5 652//5
f 648//5 652//5 653//5
f 654//5 655//5 656//5
f 657//5 658//5 659//5
f 659//5 658//5 660//5
f 661//5 662//5 663//5
f 663//5 662//5 664//5
f 663//5 664//5 642//5
f 642//5 664//5 665//5
f 642//5 665//5 640//5
f 659//5 666//5 667//5
f 667//5 666//5 668//5
f 647//5 669//5 645//5
f 645//5 669//5 670//5
f 645//5 670//5 648//5
f 648//5 670//5 671//5
f 648//5 671//5 649//5
f 653//5 672//5 648//5
f 648//5 672//5 673//5
f 648//5 673//5 674//5
f 674//5 673//5 675//5
f 674//5 675//5 676//5
f 677//5 678//5 679//5
f 679//5 678//5 680//5
f 679//5 680//5 681//5
f 677//5 674//5 678//5
f 678//5 674//5 676//5
f 678//5 676//5 656//5
f 656//5 676//5 682//5
f 656//5 682//5 654//5
f 683//5 684//5 685//5
f 685//5 684//5 686//5
f 686//5 687//5 685//5
f 685//5 687//5 688//5
f 685//5 688//5 666//5
f 666//5 688//5 689//5
f 666//5 689//5 668//5
f 690//5 691//5 692//5
f 655//5 693//5 656//5
f 656//5 693//5 694//5
f 656//5 694//5 695//5
f 690//5 692//5 659//5
f 659//5 692//5 696//5
f 659//5 696//5 657//5
f 697//5 698//5 666//5
f 666//5 698//5 699//5
f 666//5 699//5 700//5
f 701//5 702//5 703//5
f 703//5 702//5 704//5
f 705//5 701//5 706//5
f 706//5 701//5 703//5
f 706//5 703//5 645//5
f 645//5 703//5 707//5
f 645//5 707//5 646//5
f 708//5 709//5 663//5
f 663//5 709//5 710//5
f 663//5 710//5 661//5
f 644//5 711//5 642//5
f 642//5 711//5 712//5
f 642//5 712//5 713//5
f 713//5 712//5 714//5
f 713//5 714//5 715//5
f 715//5 714//5 716//5
f 683//5 685//5 714//5
f 714//5 685//5 717//5
f 714//5 717//5 718//5
f 660//5 719//5 659//5
f 659//5 719//5 720//5
f 659//5 720//5 666//5
f 666//5 720//5 721//5
f 666//5 721//5 697//5
f 722//5 723//5 724//5
f 695//5 725//5 656//5
f 656//5 725//5 726//5
f 656//5 726//5 727//5
f 681//5 728//5 679//5
f 679//5 728//5 729//5
f 679//5 729//5 730//5
f 731//5 732//5 733//5
f 733//5 732//5 734//5
f 733//5 734//5 735//5
f 735//5 734//5 736//5
f 735//5 736//5 737//5
f 737//5 736//5 738//5
f 737//5 738//5 739//5
f 739//5 738//5 740//5
f 739//5 740//5 741//5
f 741//5 740//5 618//5
f 741//5 618//5 742//5
f 743//5 716//5 744//5
f 744//5 716//5 714//5
f 744//5 714//5 745//5
f 745//5 714//5 718//5
f 704//5 722//5 703//5
f 703//5 722//5 724//5
f 703//5 724//5 746//5
f 746//5 724//5 666//5
f 746//5 666//5 747//5
f 747//5 666//5 700//5
f 614//5 748//5 749//5
f 749//5 750//5 614//5
f 614//5 750//5 751//5
f 614//5 751//5 618//5
f 618//5 751//5 752//5
f 618//5 752//5 742//5
f 753//5 614//5 617//5
f 727//5 754//5 656//5
f 656//5 754//5 755//5
f 656//5 755//5 691//5
f 691//5 755//5 756//5
f 691//5 756//5 692//5
f 753//5 617//5 757//5
f 757//5 617//5 758//5
f 757//5 758//5 759//5
f 759//5 758//5 760//5
f 759//5 760//5 761//5
f 761//5 760//5 762//5
f 761//5 762//5 763//5
f 763//5 762//5 764//5
f 763//5 764//5 765//5
f 766//5 767//5 768//5
f 768//5 767//5 769//5
f 768//5 769//5 663//5
f 663//5 769//5 770//5
f 663//5 770//5 708//5
f 771//5 772//5 748//5
f 748//5 772//5 773//5
f 748//5 773//5 774//5
f 614//5 753//5 748//5
f 748//5 753//5 775//5
f 748//5 775//5 771//5
f 730//5 766//5 679//5
f 679//5 766//5 768//5
f 679//5 768//5 774//5
f 774//5 768//5 776//5
f 774//5 776//5 748//5
f 777//4 778//4 666//4
f 666//4 778//4 685//4
f 779//3 780//3 781//3
f 782//3 783//3 777//3
f 780//3 784//3 781//3
f 781//3 784//3 785//3
f 781//3 785//3 786//3
f 786//3 785//3 787//3
f 786//3 787//3 788//3
f 789//3 790//3 791//3
f 788//3 792//3 786//3
f 786//3 792//3 793//3
f 786//3 793//3 794//3
f 790//3 795//3 791//3
f 791//3 795//3 796//3
f 791//3 796//3 797//3
f 798//3 799//3 791//3
f 791//3 799//3 800//3
f 791//3 800//3 789//3
f 801//3 802//3 803//3
f 803//3 802//3 804//3
f 803//3 804//3 805//3
f 806//3 807//3 777//3
f 777//3 807//3 808//3
f 777//3 808//3 782//3
f 777//3 809//3 810//3
f 811//3 812//3 813//3
f 814//3 815//3 816//3
f 816//3 815//3 817//3
f 816//3 817//3 818//3
f 794//3 819//3 786//3
f 786//3 819//3 820//3
f 786//3 820//3 821//3
f 805//3 822//3 803//3
f 803//3 822//3 823//3
f 803//3 823//3 824//3
f 824//3 823//3 825//3
f 826//3 827//3 828//3
f 828//3 827//3 806//3
f 828//3 806//3 829//3
f 829//3 806//3 777//3
f 829//3 777//3 830//3
f 830//3 777//3 831//3
f 830//3 831//3 832//3
f 833//3 834//3 809//3
f 809//3 834//3 835//3
f 809//3 835//3 836//3
f 836//3 835//3 837//3
f 778//3 838//3 839//3
f 821//3 840//3 841//3
f 842//3 843//3 844//3
f 845//3 846//3 847//3
f 825//3 848//3 824//3
f 824//3 848//3 849//3
f 824//3 849//3 850//3
f 850//3 851//3 824//3
f 824//3 851//3 852//3
f 824//3 852//3 853//3
f 853//3 852//3 827//3
f 853//3 827//3 854//3
f 854//3 827//3 826//3
f 783//3 855//3 777//3
f 777//3 855//3 856//3
f 777//3 856//3 809//3
f 809//3 856//3 857//3
f 809//3 857//3 833//3
f 810//3 858//3 777//3
f 777//3 858//3 859//3
f 777//3 859//3 778//3
f 778//3 859//3 860//3
f 778//3 860//3 838//3
f 861//3 862//3 863//3
f 864//3 865//3 781//3
f 781//3 865//3 866//3
f 781//3 866//3 779//3
f 867//3 615//3 868//3
f 868//3 615//3 619//3
f 868//3 619//3 869//3
f 847//3 870//3 845//3
f 845//3 870//3 871//3
f 845//3 871//3 803//3
f 803//3 871//3 872//3
f 803//3 872//3 801//3
f 835//3 873//3 837//3
f 837//3 873//3 874//3
f 837//3 874//3 875//3
f 875//3 874//3 791//3
f 875//3 791//3 876//3
f 876//3 791//3 797//3
f 798//3 877//3 799//3
f 799//3 877//3 878//3
f 799//3 878//3 840//3
f 840//3 878//3 879//3
f 840//3 879//3 841//3
f 869//3 619//3 880//3
f 880//3 619//3 881//3
f 880//3 881//3 882//3
f 882//3 881//3 883//3
f 882//3 883//3 884//3
f 884//3 883//3 885//3
f 884//3 885//3 886//3
f 886//3 885//3 887//3
f 886//3 887//3 888//3
f 888//3 887//3 889//3
f 888//3 889//3 890//3
f 844//3 843//3 891//3
f 892//3 893//3 813//3
f 813//3 893//3 864//3
f 813//3 864//3 811//3
f 811//3 864//3 781//3
f 893//3 861//3 864//3
f 864//3 861//3 863//3
f 864//3 863//3 894//3
f 894//3 863//3 778//3
f 894//3 778//3 895//3
f 895//3 778//3 839//3
f 841//3 896//3 821//3
f 821//3 896//3 897//3
f 821//3 897//3 786//3
f 786//3 897//3 815//3
f 786//3 815//3 898//3
f 898//3 815//3 814//3
f 891//3 843//3 867//3
f 867//3 843//3 899//3
f 867//3 899//3 900//3
f 901//3 902//3 903//3
f 903//3 902//3 904//3
f 903//3 904//3 905//3
f 905//3 904//3 906//3
f 905//3 906//3 907//3
f 907//3 906//3 908//3
f 907//3 908//3 909//3
f 909//3 908//3 616//3
f 909//3 616//3 910//3
f 910//3 616//3 615//3
f 910//3 615//3 911//3
f 911//3 615//3 867//3
f 911//3 867//3 912//3
f 912//3 867//3 900//3
f 818//3 846//3 816//3
f 816//3 846//3 845//3
f 816//3 845//3 844//3
f 844//3 845//3 913//3
f 844//3 913//3 842//3
f 597//404 637//404 635//404
f 597//405 635//405 599//405
f 599//406 635//406 633//406
f 599//406 633//406 601//406
f 601//407 633//407 631//407
f 601//408 631//408 603//408
f 603//409 631//409 629//409
f 603//410 629//410 605//410
f 605//411 629//411 627//411
f 605//411 627//411 607//411
f 607//412 627//412 625//412
f 607//412 625//412 609//412
f 609//413 625//413 623//413
f 609//413 623//413 611//413
f 611//414 623//414 621//414
f 611//414 621//414 613//414
f 613//415 621//415 619//415
f 613//415 619//415 615//415
f 914//416 915//416 916//416
f 916//417 915//417 917//417
f 916//418 917//418 918//418
f 919//419 920//419 916//419
f 916//420 920//420 921//420
f 916//421 921//421 914//421
f 922//422 923//422 924//422
f 924//423 923//423 925//423
f 926//424 927//424 928//424
f 918//425 929//425 916//425
f 916//426 929//426 930//426
f 916//427 930//427 931//427
f 931//428 930//428 932//428
f 931//429 932//429 933//429
f 928//430 934//430 926//430
f 926//431 934//431 935//431
f 926//432 935//432 936//432
f 936//433 935//433 937//433
f 936//434 937//434 938//434
f 939//435 936//435 940//435
f 940//436 936//436 941//436
f 942//437 943//437 936//437
f 936//438 943//438 944//438
f 936//439 944//439 945//439
f 922//440 946//440 923//440
f 923//441 946//441 947//441
f 923//442 947//442 948//442
f 948//443 949//443 923//443
f 923//444 949//444 950//444
f 923//445 950//445 916//445
f 916//446 950//446 951//446
f 916//447 951//447 919//447
f 952//448 953//448 954//448
f 954//449 953//449 955//449
f 954//450 955//450 956//450
f 938//451 957//451 936//451
f 936//452 957//452 958//452
f 936//453 958//453 941//453
f 959//454 960//454 925//454
f 961//455 962//455 963//455
f 964//456 965//456 923//456
f 923//457 965//457 966//457
f 923//458 966//458 967//458
f 933//459 968//459 931//459
f 931//460 968//460 969//460
f 931//461 969//461 970//461
f 970//462 969//462 953//462
f 970//463 953//463 971//463
f 971//464 953//464 952//464
f 972//465 955//465 973//465
f 973//466 955//466 953//466
f 973//467 953//467 926//467
f 926//468 953//468 974//468
f 926//469 974//469 927//469
f 962//470 975//470 963//470
f 963//471 975//471 976//471
f 963//472 976//472 923//472
f 923//473 976//473 977//473
f 923//474 977//474 964//474
f 967//475 978//475 923//475
f 923//476 978//476 979//476
f 923//477 979//477 980//477
f 981//478 982//478 939//478
f 983//479 984//479 925//479
f 925//480 984//480 985//480
f 925//481 985//481 986//481
f 986//481 985//481 987//481
f 986//482 987//482 939//482
f 939//482 987//482 988//482
f 939//480 988//480 981//480
f 980//483 989//483 923//483
f 923//484 989//484 990//484
f 923//485 990//485 925//485
f 925//486 990//486 991//486
f 925//487 991//487 959//487
f 960//488 992//488 925//488
f 925//489 992//489 993//489
f 925//490 993//490 983//490
f 994//491 995//491 961//491
f 994//492 961//492 996//492
f 996//493 961//493 963//493
f 996//494 963//494 997//494
f 994//495 998//495 995//495
f 995//496 998//496 999//496
f 995//497 999//497 1000//497
f 982//498 1001//498 939//498
f 939//499 1001//499 1002//499
f 939//500 1002//500 936//500
f 936//501 1002//501 1003//501
f 936//502 1003//502 942//502
f 945//503 1004//503 936//503
f 936//504 1004//504 1005//504
f 936//505 1005//505 1006//505
f 1006//506 1005//506 995//506
f 1006//507 995//507 1007//507
f 1007//508 995//508 1000//508
f 1008//5 1009//5 1010//5
f 1010//5 1009//5 1011//5
f 1012//4 1013//4 1009//4
f 1009//4 1013//4 1014//4
f 1015//4 1016//4 639//4
f 1017//4 1018//4 1015//4
f 1017//4 1015//4 1019//4
f 1019//4 1015//4 639//4
f 1019//4 639//4 1020//4
f 1008//4 1021//4 1009//4
f 1009//4 1021//4 1022//4
f 1009//4 1022//4 1012//4
f 1017//4 1023//4 1018//4
f 1018//4 1023//4 1024//4
f 1018//4 1024//4 1025//4
f 1026//4 636//4 1027//4
f 1027//4 636//4 639//4
f 1027//4 639//4 1028//4
f 1028//4 639//4 1016//4
f 1029//4 596//4 1030//4
f 1030//4 596//4 1031//4
f 1014//4 1032//4 1009//4
f 1009//4 1032//4 1033//4
f 1009//4 1033//4 1034//4
f 1034//4 1033//4 1018//4
f 1034//4 1018//4 1035//4
f 1035//4 1018//4 1025//4
f 1036//4 1008//4 1037//4
f 1037//4 1008//4 1038//4
f 1039//4 1040//4 596//4
f 596//4 1040//4 1041//4
f 596//4 1041//4 1042//4
f 1042//4 1041//4 1043//4
f 1042//4 1043//4 1044//4
f 1045//4 1046//4 1008//4
f 1008//4 1046//4 1047//4
f 1008//4 1047//4 1048//4
f 636//4 1049//4 1050//4
f 1036//4 1051//4 1008//4
f 1008//4 1051//4 1052//4
f 1008//4 1052//4 1021//4
f 1026//4 1053//4 636//4
f 636//4 1053//4 1054//4
f 636//4 1054//4 1049//4
f 1050//4 1055//4 636//4
f 636//4 1055//4 1056//4
f 636//4 1056//4 1057//4
f 1057//4 1058//4 636//4
f 636//4 1058//4 1059//4
f 636//4 1059//4 596//4
f 1060//4 1061//4 596//4
f 596//4 1061//4 1062//4
f 596//4 1062//4 1039//4
f 1063//4 1064//4 1065//4
f 1059//4 1066//4 596//4
f 596//4 1066//4 1067//4
f 596//4 1067//4 1068//4
f 1069//4 1070//4 596//4
f 596//4 1070//4 1071//4
f 596//4 1071//4 1060//4
f 1072//4 1064//4 1073//4
f 1073//4 1064//4 1063//4
f 1073//4 1063//4 1074//4
f 1074//4 1063//4 1045//4
f 1074//4 1045//4 1075//4
f 1075//4 1045//4 1008//4
f 1068//4 1076//4 596//4
f 596//4 1076//4 1077//4
f 596//4 1077//4 1031//4
f 1078//4 1038//4 1079//4
f 1079//4 1038//4 1080//4
f 1081//4 1082//4 1029//4
f 1078//4 1083//4 1038//4
f 1038//4 1083//4 1084//4
f 1038//4 1084//4 1085//4
f 1085//4 1084//4 1086//4
f 1085//4 1086//4 1029//4
f 1029//4 1086//4 1087//4
f 1029//4 1087//4 1081//4
f 1044//4 1088//4 1042//4
f 1042//4 1088//4 1089//4
f 1042//4 1089//4 1090//4
f 1090//4 1089//4 1063//4
f 1090//4 1063//4 1091//4
f 1091//4 1063//4 1065//4
f 1048//4 1092//4 1008//4
f 1008//4 1092//4 1093//4
f 1008//4 1093//4 1038//4
f 1038//4 1093//4 1094//4
f 1038//4 1094//4 1080//4
f 1082//4 1095//4 1029//4
f 1029//4 1095//4 1096//4
f 1029//4 1096//4 1097//4
f 1097//4 1098//4 1029//4
f 1029//4 1098//4 1099//4
f 1029//4 1099//4 596//4
f 596//4 1099//4 1100//4
f 596//4 1100//4 1069//4
f 614//509 618//509 620//509
f 614//509 620//509 612//509
f 612//510 620//510 622//510
f 612//511 622//511 610//511
f 610//512 622//512 624//512
f 610//513 624//513 608//513
f 608//514 624//514 626//514
f 608//514 626//514 606//514
f 606//515 626//515 628//515
f 606//516 628//516 604//516
f 604//517 628//517 630//517
f 604//517 630//517 602//517
f 602//518 630//518 632//518
f 602//518 632//518 600//518
f 600//519 632//519 634//519
f 600//519 634//519 598//519
f 598//520 634//520 636//520
f 598//520 636//520 596//520
f 596//1 1042//1 597//1
f 597//1 1042//1 1101//1
f 618//2 740//2 619//2
f 619//2 740//2 881//2
f 784//125 640//125 785//125
f 785//123 640//123 665//123
f 785//123 665//123 787//123
f 787//166 665//166 664//166
f 787//167 664//167 788//167
f 788//165 664//165 662//165
f 788//165 662//165 792//165
f 792//164 662//164 661//164
f 792//164 661//164 793//164
f 793//163 661//163 710//163
f 793//163 710//163 794//163
f 794//161 710//161 709//161
f 794//162 709//162 819//162
f 819//160 709//160 708//160
f 819//160 708//160 820//160
f 820//159 708//159 770//159
f 820//159 770//159 821//159
f 821//158 770//158 769//158
f 821//158 769//158 840//158
f 840//157 769//157 767//157
f 840//157 767//157 799//157
f 799//156 767//156 766//156
f 799//156 766//156 800//156
f 800//155 766//155 730//155
f 800//155 730//155 789//155
f 789//153 730//153 729//153
f 789//154 729//154 790//154
f 790//152 729//152 728//152
f 790//152 728//152 795//152
f 795//151 728//151 681//151
f 795//151 681//151 796//151
f 796//150 681//150 680//150
f 796//150 680//150 797//150
f 797//148 680//148 678//148
f 797//149 678//149 876//149
f 876//147 678//147 656//147
f 876//147 656//147 875//147
f 875//146 656//146 691//146
f 875//146 691//146 837//146
f 837//144 691//144 690//144
f 837//145 690//145 836//145
f 836//143 690//143 659//143
f 836//143 659//143 809//143
f 809//142 659//142 667//142
f 809//142 667//142 810//142
f 810//141 667//141 668//141
f 810//141 668//141 858//141
f 858//139 668//139 689//139
f 858//140 689//140 859//140
f 859//138 689//138 688//138
f 859//138 688//138 860//138
f 860//137 688//137 687//137
f 860//137 687//137 838//137
f 838//136 687//136 686//136
f 838//136 686//136 839//136
f 839//135 686//135 684//135
f 839//135 684//135 895//135
f 895//134 684//134 683//134
f 895//134 683//134 894//134
f 894//133 683//133 714//133
f 894//133 714//133 864//133
f 864//131 714//131 712//131
f 864//132 712//132 865//132
f 865//130 712//130 711//130
f 865//130 711//130 866//130
f 866//129 711//129 644//129
f 866//129 644//129 779//129
f 779//128 644//128 643//128
f 779//128 643//128 780//128
f 780//126 643//126 641//126
f 780//127 641//127 784//127
f 784//124 641//124 640//124
f 850//192 647//192 646//192
f 850//193 646//193 851//193
f 851//191 646//191 707//191
f 851//191 707//191 852//191
f 852//190 707//190 703//190
f 852//190 703//190 827//190
f 827//189 703//189 746//189
f 827//189 746//189 806//189
f 806//187 746//187 747//187
f 806//188 747//188 807//188
f 807//186 747//186 700//186
f 807//186 700//186 808//186
f 808//184 700//184 699//184
f 808//185 699//185 782//185
f 782//182 699//182 698//182
f 782//183 698//183 783//183
f 783//181 698//181 697//181
f 783//181 697//181 855//181
f 855//180 697//180 721//180
f 855//180 721//180 856//180
f 856//179 721//179 720//179
f 856//179 720//179 857//179
f 857//178 720//178 719//178
f 857//178 719//178 833//178
f 833//176 719//176 660//176
f 833//177 660//177 834//177
f 834//174 660//174 658//174
f 834//175 658//175 835//175
f 835//173 658//173 657//173
f 835//173 657//173 873//173
f 873//172 657//172 696//172
f 873//172 696//172 874//172
f 874//170 696//170 692//170
f 874//171 692//171 791//171
f 791//168 692//168 756//168
f 791//169 756//169 798//169
f 798//195 756//195 755//195
f 798//195 755//195 877//195
f 877//1 755//1 754//1
f 877//1 754//1 878//1
f 878//194 754//194 727//194
f 878//194 727//194 879//194
f 879//219 727//219 726//219
f 879//220 726//220 841//220
f 841//217 726//217 725//217
f 841//218 725//218 896//218
f 896//216 725//216 695//216
f 896//216 695//216 897//216
f 897//215 695//215 694//215
f 897//215 694//215 815//215
f 815//213 694//213 693//213
f 815//214 693//214 817//214
f 817//211 693//211 655//211
f 817//212 655//212 818//212
f 818//210 655//210 654//210
f 818//210 654//210 846//210
f 846//209 654//209 682//209
f 846//209 682//209 847//209
f 847//208 682//208 676//208
f 847//208 676//208 870//208
f 870//207 676//207 675//207
f 870//207 675//207 871//207
f 871//205 675//205 673//205
f 871//206 673//206 872//206
f 872//203 673//203 672//203
f 872//204 672//204 801//204
f 801//202 672//202 653//202
f 801//202 653//202 802//202
f 802//200 653//200 652//200
f 802//201 652//201 804//201
f 804//199 652//199 651//199
f 804//199 651//199 805//199
f 805//198 651//198 650//198
f 805//198 650//198 822//198
f 822//197 650//197 649//197
f 822//197 649//197 823//197
f 823//196 649//196 671//196
f 823//196 671//196 825//196
f 825//222 671//222 670//222
f 825//222 670//222 848//222
f 848//2 670//2 669//2
f 848//2 669//2 849//2
f 849//221 669//221 647//221
f 849//221 647//221 850//221
f 803//1 824//1 648//1
f 648//1 824//1 645//1
f 753//4 757//4 910//4
f 910//4 757//4 909//4
f 880//4 882//4 741//4
f 741//4 882//4 739//4
f 663//2 642//2 786//2
f 786//2 642//2 781//2
f 663//234 786//234 898//234
f 663//235 898//235 768//235
f 768//232 898//232 814//232
f 768//233 814//233 776//233
f 776//230 814//230 816//230
f 776//231 816//231 748//231
f 748//229 816//229 844//229
f 748//229 844//229 749//229
f 749//152 844//152 891//152
f 749//152 891//152 750//152
f 750//228 891//228 867//228
f 750//228 867//228 751//228
f 751//227 867//227 868//227
f 751//227 868//227 752//227
f 752//225 868//225 869//225
f 752//226 869//226 742//226
f 742//223 869//223 880//223
f 742//224 880//224 741//224
f 753//246 910//246 911//246
f 753//247 911//247 775//247
f 775//244 911//244 912//244
f 775//245 912//245 771//245
f 771//243 912//243 900//243
f 771//243 900//243 772//243
f 772//242 900//242 899//242
f 772//242 899//242 773//242
f 773//163 899//163 843//163
f 773//163 843//163 774//163
f 774//241 843//241 842//241
f 774//241 842//241 679//241
f 679//239 842//239 913//239
f 679//240 913//240 677//240
f 677//237 913//237 845//237
f 677//238 845//238 674//238
f 674//236 845//236 803//236
f 674//236 803//236 648//236
f 1102//276 1059//276 1103//276
f 1103//277 1059//277 1058//277
f 1103//277 1058//277 1104//277
f 1104//278 1058//278 1057//278
f 1104//279 1057//279 1105//279
f 1105//521 1057//521 1056//521
f 1105//521 1056//521 1106//521
f 1106//522 1056//522 1055//522
f 1106//522 1055//522 1107//522
f 1107//523 1055//523 1050//523
f 1107//524 1050//524 1108//524
f 1108//525 1050//525 1049//525
f 1108//525 1049//525 1109//525
f 1109//526 1049//526 1054//526
f 1109//527 1054//527 1110//527
f 1110//287 1054//287 1053//287
f 1110//288 1053//288 1111//288
f 1111//289 1053//289 1026//289
f 1111//289 1026//289 1112//289
f 1112//290 1026//290 1027//290
f 1112//290 1027//290 1113//290
f 1113//291 1027//291 1028//291
f 1113//292 1028//292 1114//292
f 1114//528 1028//528 1016//528
f 1114//529 1016//529 1115//529
f 1115//530 1016//530 1015//530
f 1115//530 1015//530 1116//530
f 1116//327 1015//327 1018//327
f 1116//327 1018//327 1117//327
f 1117//531 1018//531 1033//531
f 1117//531 1033//531 1118//531
f 1118//532 1033//532 1032//532
f 1118//533 1032//533 1119//533
f 1119//300 1032//300 1014//300
f 1119//301 1014//301 1120//301
f 1120//248 1014//248 1013//248
f 1120//248 1013//248 1121//248
f 1121//249 1013//249 1012//249
f 1121//249 1012//249 1122//249
f 1122//250 1012//250 1022//250
f 1122//251 1022//251 1123//251
f 1123//534 1022//534 1021//534
f 1123//535 1021//535 1124//535
f 1124//536 1021//536 1052//536
f 1124//536 1052//536 1125//536
f 1125//537 1052//537 1051//537
f 1125//538 1051//538 1126//538
f 1126//539 1051//539 1036//539
f 1126//539 1036//539 1127//539
f 1127//540 1036//540 1037//540
f 1127//540 1037//540 1128//540
f 1128//261 1037//261 1038//261
f 1128//262 1038//262 1129//262
f 1129//263 1038//263 1085//263
f 1129//263 1085//263 1130//263
f 1130//264 1085//264 1029//264
f 1130//264 1029//264 1131//264
f 1131//265 1029//265 1030//265
f 1131//266 1030//266 1132//266
f 1132//541 1030//541 1031//541
f 1132//542 1031//542 1133//542
f 1133//543 1031//543 1077//543
f 1133//544 1077//544 1134//544
f 1134//312 1077//312 1076//312
f 1134//312 1076//312 1135//312
f 1135//545 1076//545 1068//545
f 1135//546 1068//546 1136//546
f 1136//547 1068//547 1067//547
f 1136//548 1067//548 1137//548
f 1137//274 1067//274 1066//274
f 1137//275 1066//275 1102//275
f 1102//276 1066//276 1059//276
f 1138//276 1100//276 1139//276
f 1139//277 1100//277 1099//277
f 1139//277 1099//277 1140//277
f 1140//278 1099//278 1098//278
f 1140//279 1098//279 1141//279
f 1141//549 1098//549 1097//549
f 1141//550 1097//550 1142//550
f 1142//551 1097//551 1096//551
f 1142//552 1096//552 1143//552
f 1143//283 1096//283 1095//283
f 1143//283 1095//283 1144//283
f 1144//553 1095//553 1082//553
f 1144//554 1082//554 1145//554
f 1145//555 1082//555 1081//555
f 1145//556 1081//556 1146//556
f 1146//287 1081//287 1087//287
f 1146//288 1087//288 1147//288
f 1147//289 1087//289 1086//289
f 1147//289 1086//289 1148//289
f 1148//290 1086//290 1084//290
f 1148//290 1084//290 1149//290
f 1149//291 1084//291 1083//291
f 1149//292 1083//292 1150//292
f 1150//557 1083//557 1078//557
f 1150//557 1078//557 1151//557
f 1151//558 1078//558 1079//558
f 1151//558 1079//558 1152//558
f 1152//559 1079//559 1080//559
f 1152//560 1080//560 1153//560
f 1153//561 1080//561 1094//561
f 1153//561 1094//561 1154//561
f 1154//562 1094//562 1093//562
f 1154//563 1093//563 1155//563
f 1155//300 1093//300 1092//300
f 1155//301 1092//301 1156//301
f 1156//248 1092//248 1048//248
f 1156//248 1048//248 1157//248
f 1157//249 1048//249 1047//249
f 1157//249 1047//249 1158//249
f 1158//250 1047//250 1046//250
f 1158//251 1046//251 1159//251
f 1159//564 1046//564 1045//564
f 1159//565 1045//565 1160//565
f 1160//566 1045//566 1063//566
f 1160//566 1063//566 1161//566
f 1161//256 1063//256 1089//256
f 1161//256 1089//256 1162//256
f 1162//567 1089//567 1088//567
f 1162//567 1088//567 1163//567
f 1163//568 1088//568 1044//568
f 1163//569 1044//569 1164//569
f 1164//261 1044//261 1043//261
f 1164//262 1043//262 1165//262
f 1165//263 1043//263 1041//263
f 1165//263 1041//263 1166//263
f 1166//264 1041//264 1040//264
f 1166//264 1040//264 1167//264
f 1167//265 1040//265 1039//265
f 1167//266 1039//266 1168//266
f 1168//570 1039//570 1062//570
f 1168//571 1062//571 1169//571
f 1169//572 1062//572 1061//572
f 1169//572 1061//572 1170//572
f 1170//573 1061//573 1060//573
f 1170//574 1060//574 1171//574
f 1171//575 1060//575 1071//575
f 1171//575 1071//575 1172//575
f 1172//576 1071//576 1070//576
f 1172//576 1070//576 1173//576
f 1173//274 1070//274 1069//274
f 1173//275 1069//275 1138//275
f 1138//276 1069//276 1100//276
f 685//340 778//340 863//340
f 685//340 863//340 717//340
f 717//339 863//339 862//339
f 717//339 862//339 718//339
f 718//338 862//338 861//338
f 718//338 861//338 745//338
f 745//337 861//337 893//337
f 745//337 893//337 744//337
f 744//336 893//336 892//336
f 744//336 892//336 743//336
f 743//335 892//335 813//335
f 743//335 813//335 716//335
f 716//334 813//334 812//334
f 716//334 812//334 715//334
f 715//333 812//333 811//333
f 715//333 811//333 713//333
f 713//332 811//332 781//332
f 713//332 781//332 642//332
f 645//351 824//351 853//351
f 645//351 853//351 706//351
f 706//350 853//350 854//350
f 706//350 854//350 705//350
f 705//349 854//349 826//349
f 705//349 826//349 701//349
f 701//348 826//348 828//348
f 701//348 828//348 702//348
f 702//347 828//347 829//347
f 702//347 829//347 704//347
f 704//346 829//346 830//346
f 704//346 830//346 722//346
f 722//344 830//344 832//344
f 722//345 832//345 723//345
f 723//343 832//343 831//343
f 723//343 831//343 724//343
f 724//341 831//341 777//341
f 724//342 777//342 666//342
f 881//361 740//361 738//361
f 881//362 738//362 883//362
f 883//360 738//360 736//360
f 883//360 736//360 885//360
f 885//358 736//358 734//358
f 885//359 734//359 887//359
f 887//357 734//357 732//357
f 887//357 732//357 889//357
f 889//356 732//356 731//356
f 889//356 731//356 890//356
f 890//355 731//355 733//355
f 890//355 733//355 888//355
f 888//354 733//354 735//354
f 888//354 735//354 886//354
f 886//353 735//353 737//353
f 886//353 737//353 884//353
f 884//352 737//352 739//352
f 884//352 739//352 882//352
f 639//577 638//577 1174//577
f 639//578 1174//578 1020//578
f 1020//579 1174//579 1175//579
f 1020//579 1175//579 1019//579
f 1019//580 1175//580 1176//580
f 1019//581 1176//581 1017//581
f 1017//582 1176//582 1177//582
f 1017//583 1177//583 1023//583
f 1023//584 1177//584 1178//584
f 1023//585 1178//585 1024//585
f 1024//586 1178//586 1179//586
f 1024//587 1179//587 1025//587
f 1025//588 1179//588 1180//588
f 1025//588 1180//588 1035//588
f 1035//589 1180//589 1181//589
f 1035//589 1181//589 1034//589
f 1034//590 1181//590 1011//590
f 1034//591 1011//591 1009//591
f 617//387 616//387 908//387
f 617//388 908//388 758//388
f 758//386 908//386 906//386
f 758//386 906//386 760//386
f 760//384 906//384 904//384
f 760//385 904//385 762//385
f 762//383 904//383 902//383
f 762//383 902//383 764//383
f 764//382 902//382 901//382
f 764//382 901//382 765//382
f 765//381 901//381 903//381
f 765//381 903//381 763//381
f 763//380 903//380 905//380
f 763//380 905//380 761//380
f 761//379 905//379 907//379
f 761//379 907//379 759//379
f 759//378 907//378 909//378
f 759//378 909//378 757//378
f 1008//592 1010//592 1182//592
f 1008//593 1182//593 1075//593
f 1075//594 1182//594 1183//594
f 1075//594 1183//594 1074//594
f 1074//595 1183//595 1184//595
f 1074//595 1184//595 1073//595
f 1073//596 1184//596 1185//596
f 1073//597 1185//597 1072//597
f 1072//598 1185//598 1186//598
f 1072//599 1186//599 1064//599
f 1064//600 1186//600 1187//600
f 1064//601 1187//601 1065//601
f 1065//602 1187//602 1188//602
f 1065//603 1188//603 1091//603
f 1091//604 1188//604 1189//604
f 1091//604 1189//604 1090//604
f 1090//605 1189//605 1190//605
f 1090//606 1190//606 1042//606
# Vertices: 1190, normals: 606, texture coordinates: 0, faces: 2024

