# File generated by ImageToStl.com - Free Image and 3D model conversion tools

o obj1
v 0.01 0.06 0
v 0.01 0.05 0
v 0.01 0.06 -0.0165
v 0.01 0.05 -0.0225
v 0.01 0.07 -0.0165
v 0.01 0.07 -0.0225
v -0.01 0.07 -0.0165
v -0.01 0.07 -0.0225
v -0.01 0.06 -0.0165
v -0.01 0.05 -0.0225
v -0.01 0.06 0
v -0.01 0.05 0
v 0.00044504 0.05 -0.00194986
v -0.00044504 0.05 -0.00194986
v -0.00124698 0.05 -0.00156366
v -0.00180194 0.05 -0.00086777
v -0.002 0.05 0
v -0.00980785 0.05 0.0019509
v -0.00180194 0.05 0.00086777
v -0.0092388 0.05 0.00382684
v 0.0092388 0.05 0.00382684
v 0.00180194 0.05 0.00086777
v 0.00980785 0.05 0.0019509
v 0.002 0.05 0
v 0.00180194 0.05 -0.00086777
v 0.00124698 0.05 -0.00156366
v 0 0.05 0.01
v -0.00044504 0.05 0.00194986
v 0.00044504 0.05 0.00194986
v -0.0019509 0.05 0.00980785
v -0.00382683 0.05 0.0092388
v -0.00124698 0.05 0.00156366
v 0.00124698 0.05 0.00156366
v 0.00382683 0.05 0.0092388
v 0.0019509 0.05 0.00980785
v -0.0055557 0.05 0.0083147
v -0.00707107 0.05 0.00707107
v -0.0083147 0.05 0.0055557
v 0.0083147 0.05 0.0055557
v 0.00707107 0.05 0.00707107
v 0.0055557 0.05 0.0083147
v 0.002 0.06 0
v 0.00980785 0.06 0.0019509
v 0.00180194 0.06 0.00086777
v 0.0092388 0.06 0.00382684
v -0.00044504 0.06 -0.00194986
v 0.00044504 0.06 -0.00194986
v 0.00124698 0.06 -0.00156366
v 0.00180194 0.06 -0.00086777
v -0.0092388 0.06 0.00382684
v -0.00180194 0.06 0.00086777
v -0.00980785 0.06 0.0019509
v -0.002 0.06 0
v -0.00180194 0.06 -0.00086777
v -0.00124698 0.06 -0.00156366
v 0 0.06 0.01
v 0.00044504 0.06 0.00194986
v -0.00044504 0.06 0.00194986
v 0.0019509 0.06 0.00980785
v 0.00382683 0.06 0.0092388
v 0.00124698 0.06 0.00156366
v -0.00124698 0.06 0.00156366
v -0.00382683 0.06 0.0092388
v -0.0019509 0.06 0.00980785
v 0.0055557 0.06 0.0083147
v 0.00707107 0.06 0.00707107
v 0.0083147 0.06 0.0055557
v -0.0083147 0.06 0.0055557
v -0.00707107 0.06 0.00707107
v -0.0055557 0.06 0.0083147
v 0 0.05 0.01
v 0 0.06 0.01
v 0.01 -0.06 0
v 0.01 -0.07 0
v 0.01 -0.06 -0.0165
v 0.01 -0.07 -0.0225
v 0.01 -0.05 -0.0165
v 0.01 -0.05 -0.0225
v -0.01 -0.05 -0.0165
v -0.01 -0.05 -0.0225
v -0.01 -0.06 -0.0165
v -0.01 -0.07 -0.0225
v -0.01 -0.06 0
v -0.01 -0.07 0
v 0.00044504 -0.07 -0.00194986
v -0.00044504 -0.07 -0.00194986
v -0.00124698 -0.07 -0.00156366
v -0.00180194 -0.07 -0.00086777
v -0.002 -0.07 0
v -0.00980785 -0.07 0.0019509
v -0.00180194 -0.07 0.00086777
v -0.0092388 -0.07 0.00382684
v 0.0092388 -0.07 0.00382684
v 0.00180194 -0.07 0.00086777
v 0.00980785 -0.07 0.0019509
v 0.002 -0.07 0
v 0.00180194 -0.07 -0.00086777
v 0.00124698 -0.07 -0.00156366
v 0 -0.07 0.01
v -0.00044504 -0.07 0.00194986
v 0.00044504 -0.07 0.00194986
v -0.0019509 -0.07 0.00980785
v -0.00382683 -0.07 0.0092388
v -0.00124698 -0.07 0.00156366
v 0.00124698 -0.07 0.00156366
v 0.00382683 -0.07 0.0092388
v 0.0019509 -0.07 0.00980785
v -0.0055557 -0.07 0.0083147
v -0.00707107 -0.07 0.00707107
v -0.0083147 -0.07 0.0055557
v 0.0083147 -0.07 0.0055557
v 0.00707107 -0.07 0.00707107
v 0.0055557 -0.07 0.0083147
v 0.002 -0.06 0
v 0.00980785 -0.06 0.0019509
v 0.00180194 -0.06 0.00086777
v 0.0092388 -0.06 0.00382684
v -0.00044504 -0.06 -0.00194986
v 0.00044504 -0.06 -0.00194986
v 0.00124698 -0.06 -0.00156366
v 0.00180194 -0.06 -0.00086777
v -0.0092388 -0.06 0.00382684
v -0.00180194 -0.06 0.00086777
v -0.00980785 -0.06 0.0019509
v -0.002 -0.06 0
v -0.00180194 -0.06 -0.00086777
v -0.00124698 -0.06 -0.00156366
v 0 -0.06 0.01
v 0.00044504 -0.06 0.00194986
v -0.00044504 -0.06 0.00194986
v 0.0019509 -0.06 0.00980785
v 0.00382683 -0.06 0.0092388
v 0.00124698 -0.06 0.00156366
v -0.00124698 -0.06 0.00156366
v -0.00382683 -0.06 0.0092388
v -0.0019509 -0.06 0.00980785
v 0.0055557 -0.06 0.0083147
v 0.00707107 -0.06 0.00707107
v 0.0083147 -0.06 0.0055557
v -0.0083147 -0.06 0.0055557
v -0.00707107 -0.06 0.00707107
v -0.0055557 -0.06 0.0083147
v 0 -0.07 0.01
v 0 -0.06 0.01
vn 1 -0 0
vn 0 1 0
vn -1 0 0
vn 0 -1 0
vn 0 0 -1
vn 0 -0 1
vn -0.99787 -0 0.06531
vn -0.99143 -0 0.13062
vn -0.96595 -0 0.25873
vn -0.9469 -0 0.32153
vn -0.89691 -0 0.4422
vn -0.86598 -0 0.50008
vn -0.79341 -0 0.60869
vn -0.75178 -0 0.65942
vn -0.65942 -0 0.75178
vn -0.60869 -0 0.79341
vn -0.50008 -0 0.86598
vn -0.4422 -0 0.89691
vn -0.32153 -0 0.9469
vn -0.25873 -0 0.96595
vn -0.13062 -0 0.99143
vn -0.06531 -0 0.99787
vn 0.06531 0 0.99787
vn 0.13062 0 0.99143
vn 0.25873 0 0.96595
vn 0.32153 0 0.9469
vn 0.4422 0 0.89691
vn 0.50008 0 0.86598
vn 0.60869 0 0.79341
vn 0.65942 0 0.75178
vn 0.75178 0 0.65942
vn 0.79341 0 0.60869
vn 0.86598 0 0.50008
vn 0.89691 0 0.4422
vn 0.9469 0 0.32153
vn 0.96595 0 0.25873
vn 0.99143 0 0.13062
vn 0.99787 0 0.06531
vn -0.989 0 -0.14792
vn -0.95524 0 -0.29584
vn -0.82688 0 -0.56238
vn -0.73228 0 -0.681
vn -0.50098 0 -0.86546
vn -0.36428 0 -0.93129
vn -0.07586 0 -0.99712
vn 0.07586 0 -0.99712
vn 0.36428 0 -0.93129
vn 0.50098 0 -0.86546
vn 0.73228 0 -0.681
vn 0.82688 0 -0.56238
vn 0.95524 0 -0.29584
vn 0.989 0 -0.14792
vn 0.989 0 0.14792
vn 0.95524 0 0.29584
vn 0.82688 0 0.56238
vn 0.73228 0 0.681
vn 0.50098 0 0.86546
vn 0.36428 0 0.93129
vn 0.07586 0 0.99712
vn -0.07586 -0 0.99712
vn -0.36428 -0 0.93129
vn -0.50098 -0 0.86546
vn -0.73228 -0 0.681
vn -0.82688 -0 0.56238
vn -0.95524 -0 0.29584
vn -0.989 -0 0.14792
vn 1 0 0
vn -1 -0 0
vn 0 -1 0
f 1//1 2//1 3//1
f 3//1 2//1 4//1
f 3//1 4//1 5//1
f 5//1 4//1 6//1
f 5//2 6//2 7//2
f 7//2 6//2 8//2
f 7//3 8//3 9//3
f 9//3 8//3 10//3
f 9//3 10//3 11//3
f 11//3 10//3 12//3
f 10//4 4//4 13//4
f 13//4 14//4 10//4
f 10//4 14//4 15//4
f 10//4 15//4 12//4
f 15//4 16//4 12//4
f 12//4 16//4 17//4
f 12//4 17//4 18//4
f 18//4 17//4 19//4
f 18//4 19//4 20//4
f 21//4 22//4 23//4
f 23//4 22//4 24//4
f 23//4 24//4 2//4
f 2//4 24//4 25//4
f 2//4 25//4 4//4
f 4//4 25//4 26//4
f 4//4 26//4 13//4
f 27//4 28//4 29//4
f 27//4 30//4 28//4
f 28//4 30//4 31//4
f 28//4 31//4 32//4
f 33//4 34//4 29//4
f 29//4 34//4 35//4
f 29//4 35//4 27//4
f 31//4 36//4 32//4
f 32//4 36//4 37//4
f 32//4 37//4 19//4
f 19//4 37//4 38//4
f 19//4 38//4 20//4
f 21//4 39//4 22//4
f 22//4 39//4 40//4
f 22//4 40//4 33//4
f 33//4 40//4 41//4
f 33//4 41//4 34//4
f 4//5 10//5 6//5
f 6//5 10//5 8//5
f 1//2 42//2 43//2
f 43//2 42//2 44//2
f 43//2 44//2 45//2
f 3//2 9//2 46//2
f 46//2 47//2 3//2
f 3//2 47//2 48//2
f 3//2 48//2 1//2
f 1//2 48//2 49//2
f 1//2 49//2 42//2
f 50//2 51//2 52//2
f 52//2 51//2 53//2
f 52//2 53//2 11//2
f 11//2 53//2 54//2
f 11//2 54//2 9//2
f 9//2 54//2 55//2
f 9//2 55//2 46//2
f 56//2 57//2 58//2
f 56//2 59//2 57//2
f 57//2 59//2 60//2
f 57//2 60//2 61//2
f 62//2 63//2 58//2
f 58//2 63//2 64//2
f 58//2 64//2 56//2
f 60//2 65//2 61//2
f 61//2 65//2 66//2
f 61//2 66//2 44//2
f 44//2 66//2 67//2
f 44//2 67//2 45//2
f 50//2 68//2 51//2
f 51//2 68//2 69//2
f 51//2 69//2 62//2
f 62//2 69//2 70//2
f 62//2 70//2 63//2
f 3//6 5//6 9//6
f 9//6 5//6 7//6
f 11//7 12//7 18//7
f 11//8 18//8 52//8
f 52//9 18//9 20//9
f 52//10 20//10 50//10
f 50//11 20//11 38//11
f 50//12 38//12 68//12
f 68//13 38//13 37//13
f 68//14 37//14 69//14
f 69//15 37//15 36//15
f 69//16 36//16 70//16
f 70//17 36//17 31//17
f 70//18 31//18 63//18
f 63//19 31//19 30//19
f 63//20 30//20 64//20
f 64//21 30//21 71//21
f 64//22 71//22 72//22
f 72//23 71//23 35//23
f 72//24 35//24 59//24
f 59//25 35//25 34//25
f 59//26 34//26 60//26
f 60//27 34//27 41//27
f 60//28 41//28 65//28
f 65//29 41//29 40//29
f 65//30 40//30 66//30
f 66//31 40//31 39//31
f 66//32 39//32 67//32
f 67//33 39//33 21//33
f 67//34 21//34 45//34
f 45//35 21//35 23//35
f 45//36 23//36 43//36
f 43//37 23//37 2//37
f 43//38 2//38 1//38
f 42//39 24//39 44//39
f 44//40 24//40 22//40
f 44//41 22//41 61//41
f 61//42 22//42 33//42
f 61//43 33//43 57//43
f 57//44 33//44 29//44
f 57//45 29//45 58//45
f 58//46 29//46 28//46
f 58//47 28//47 62//47
f 62//48 28//48 32//48
f 62//49 32//49 51//49
f 51//50 32//50 19//50
f 51//51 19//51 53//51
f 53//52 19//52 17//52
f 53//53 17//53 54//53
f 54//54 17//54 16//54
f 54//55 16//55 55//55
f 55//56 16//56 15//56
f 55//57 15//57 46//57
f 46//58 15//58 14//58
f 46//59 14//59 47//59
f 47//60 14//60 13//60
f 47//61 13//61 48//61
f 48//62 13//62 26//62
f 48//63 26//63 49//63
f 49//64 26//64 25//64
f 49//65 25//65 42//65
f 42//66 25//66 24//66
f 73//67 74//67 75//67
f 75//67 74//67 76//67
f 75//67 76//67 77//67
f 77//67 76//67 78//67
f 77//2 78//2 79//2
f 79//2 78//2 80//2
f 79//68 80//68 81//68
f 81//68 80//68 82//68
f 81//68 82//68 83//68
f 83//68 82//68 84//68
f 82//69 76//69 85//69
f 85//69 86//69 82//69
f 82//69 86//69 87//69
f 82//69 87//69 84//69
f 87//69 88//69 84//69
f 84//69 88//69 89//69
f 84//69 89//69 90//69
f 90//69 89//69 91//69
f 90//69 91//69 92//69
f 93//69 94//69 95//69
f 95//69 94//69 96//69
f 95//69 96//69 74//69
f 74//69 96//69 97//69
f 74//69 97//69 76//69
f 76//69 97//69 98//69
f 76//69 98//69 85//69
f 99//69 100//69 101//69
f 99//69 102//69 100//69
f 100//69 102//69 103//69
f 100//69 103//69 104//69
f 105//69 106//69 101//69
f 101//69 106//69 107//69
f 101//69 107//69 99//69
f 103//69 108//69 104//69
f 104//69 108//69 109//69
f 104//69 109//69 91//69
f 91//69 109//69 110//69
f 91//69 110//69 92//69
f 93//69 111//69 94//69
f 94//69 111//69 112//69
f 94//69 112//69 105//69
f 105//69 112//69 113//69
f 105//69 113//69 106//69
f 76//5 82//5 78//5
f 78//5 82//5 80//5
f 73//2 114//2 115//2
f 115//2 114//2 116//2
f 115//2 116//2 117//2
f 75//2 81//2 118//2
f 118//2 119//2 75//2
f 75//2 119//2 120//2
f 75//2 120//2 73//2
f 73//2 120//2 121//2
f 73//2 121//2 114//2
f 122//2 123//2 124//2
f 124//2 123//2 125//2
f 124//2 125//2 83//2
f 83//2 125//2 126//2
f 83//2 126//2 81//2
f 81//2 126//2 127//2
f 81//2 127//2 118//2
f 128//2 129//2 130//2
f 128//2 131//2 129//2
f 129//2 131//2 132//2
f 129//2 132//2 133//2
f 134//2 135//2 130//2
f 130//2 135//2 136//2
f 130//2 136//2 128//2
f 132//2 137//2 133//2
f 133//2 137//2 138//2
f 133//2 138//2 116//2
f 116//2 138//2 139//2
f 116//2 139//2 117//2
f 122//2 140//2 123//2
f 123//2 140//2 141//2
f 123//2 141//2 134//2
f 134//2 141//2 142//2
f 134//2 142//2 135//2
f 75//6 77//6 81//6
f 81//6 77//6 79//6
f 83//7 84//7 90//7
f 83//8 90//8 124//8
f 124//9 90//9 92//9
f 124//10 92//10 122//10
f 122//11 92//11 110//11
f 122//12 110//12 140//12
f 140//13 110//13 109//13
f 140//14 109//14 141//14
f 141//15 109//15 108//15
f 141//16 108//16 142//16
f 142//17 108//17 103//17
f 142//18 103//18 135//18
f 135//19 103//19 102//19
f 135//20 102//20 136//20
f 136//21 102//21 143//21
f 136//22 143//22 144//22
f 144//23 143//23 107//23
f 144//24 107//24 131//24
f 131//25 107//25 106//25
f 131//26 106//26 132//26
f 132//27 106//27 113//27
f 132//28 113//28 137//28
f 137//29 113//29 112//29
f 137//30 112//30 138//30
f 138//31 112//31 111//31
f 138//32 111//32 139//32
f 139//33 111//33 93//33
f 139//34 93//34 117//34
f 117//35 93//35 95//35
f 117//36 95//36 115//36
f 115//37 95//37 74//37
f 115//38 74//38 73//38
f 114//39 96//39 116//39
f 116//40 96//40 94//40
f 116//41 94//41 133//41
f 133//42 94//42 105//42
f 133//43 105//43 129//43
f 129//44 105//44 101//44
f 129//45 101//45 130//45
f 130//46 101//46 100//46
f 130//47 100//47 134//47
f 134//48 100//48 104//48
f 134//49 104//49 123//49
f 123//50 104//50 91//50
f 123//51 91//51 125//51
f 125//52 91//52 89//52
f 125//53 89//53 126//53
f 126//54 89//54 88//54
f 126//55 88//55 127//55
f 127//56 88//56 87//56
f 127//57 87//57 118//57
f 118//58 87//58 86//58
f 118//59 86//59 119//59
f 119//60 86//60 85//60
f 119//61 85//61 120//61
f 120//62 85//62 98//62
f 120//63 98//63 121//63
f 121//64 98//64 97//64
f 121//65 97//65 114//65
f 114//66 97//66 96//66
# Vertices: 144, normals: 69, texture coordinates: 0, faces: 280

