# File generated by ImageToStl.com - Free Image and 3D model conversion tools

o obj1
v 0.01 0.19499999 0.0225
v 0.01 0.19499999 0.0425
v 0.01 0.07 0.0225
v 0.01 -0.19499999 0.0425
v 0.01 -0.19499999 0.0225
v 0.01 -0.07 0.0225
v 0.01 -0.06 0
v 0.01 -0.05 0
v 0.01 -0.06 0.01425
v 0.01 -0.05 0.0225
v 0.01 -0.07 0.01425
v 0.01 0.06 0
v 0.01 0.07 0
v 0.01 0.06 0.01425
v 0.01 0.05 0.0225
v 0.01 0.05 0.01425
v -0.01 -0.05 0.0225
v -0.01 0.05 0.0225
v -0.01 0.19499999 0.0225
v -0.01 0.07 0.0225
v -0.01 -0.19499999 0.0225
v -0.01 -0.07 0.0225
v -0.01 -0.19499999 0.0425
v -0.01 0.07 0
v -0.01 0.06 0
v -0.01 0.06 0.01425
v -0.01 0.05 0.01425
v -0.01 -0.05 0
v -0.01 -0.06 0
v -0.01 -0.06 0.01425
v -0.01 -0.07 0.01425
v -0.01 0.19499999 0.0425
v -0.001 -0.05 0.00173205
v -0.00173205 -0.05 0.001
v -0.002 -0.05 0
v -0.00866025 -0.05 -0.005
v -0.00173205 -0.05 -0.001
v -0.005 -0.05 -0.00866026
v -0.001 -0.05 -0.00173205
v 0 -0.05 -0.01
v 0 -0.05 -0.002
v 0.005 -0.05 -0.00866026
v 0.001 -0.05 -0.00173205
v 0.00866025 -0.05 -0.005
v 0.00173205 -0.05 -0.001
v 0.002 -0.05 0
v 0.00173205 -0.05 0.001
v 0.001 -0.05 0.00173205
v 0 -0.05 0.002
v -0.001 0.07 0.00173205
v -0.00173205 0.07 0.001
v -0.002 0.07 0
v -0.00866025 0.07 -0.005
v -0.00173205 0.07 -0.001
v -0.005 0.07 -0.00866026
v -0.001 0.07 -0.00173205
v 0 0.07 -0.01
v 0 0.07 -0.002
v 0.005 0.07 -0.00866026
v 0.001 0.07 -0.00173205
v 0.00866025 0.07 -0.005
v 0.00173205 0.07 -0.001
v 0.002 0.07 0
v 0.00173205 0.07 0.001
v 0.001 0.07 0.00173205
v 0 0.07 0.002
v -0.001 -0.06 0.00173205
v 0 -0.06 0.002
v 0.001 -0.06 0.00173205
v 0.00173205 -0.06 0.001
v 0.002 -0.06 0
v 0.00866025 -0.06 -0.005
v 0.00173205 -0.06 -0.001
v 0.005 -0.06 -0.00866026
v 0.001 -0.06 -0.00173205
v 0 -0.06 -0.01
v 0 -0.06 -0.002
v -0.005 -0.06 -0.00866026
v -0.001 -0.06 -0.00173205
v -0.00866025 -0.06 -0.005
v -0.00173205 -0.06 -0.001
v -0.002 -0.06 0
v -0.00173205 -0.06 0.001
v -0.001 0.06 0.00173205
v 0 0.06 0.002
v 0.001 0.06 0.00173205
v 0.00173205 0.06 0.001
v 0.002 0.06 0
v 0.00866025 0.06 -0.005
v 0.00173205 0.06 -0.001
v 0.005 0.06 -0.00866026
v 0.001 0.06 -0.00173205
v 0 0.06 -0.01
v 0 0.06 -0.002
v -0.005 0.06 -0.00866026
v -0.001 0.06 -0.00173205
v -0.00866025 0.06 -0.005
v -0.00173205 0.06 -0.001
v -0.002 0.06 0
v -0.00173205 0.06 0.001
v -0 0.06 0.002
v -0 0.07 0.002
v 0 0.06 -0.002
v 0 0.07 -0.002
v -0 -0.06 0.002
v -0 -0.05 0.002
v 0 -0.06 -0.002
v 0 -0.05 -0.002
v 0 0.07 -0.01
v 0 0.06 -0.01
v 0 -0.05 -0.01
v 0 -0.06 -0.01
vn 1 0 -0
vn 0 0 -1
vn -1 0 0
vn 0 0 1
vn 0 1 0
vn 0 -1 0
vn 0 1 0
vn 0.98512 0 -0.17186
vn 0.93907 0 -0.34372
vn 0.76721 0 -0.6414
vn 0.6414 0 -0.76721
vn 0.34372 0 -0.93907
vn 0.17186 0 -0.98512
vn -0.17186 0 -0.98512
vn -0.34372 0 -0.93907
vn -0.6414 0 -0.76721
vn -0.76721 0 -0.6414
vn -0.93907 0 -0.34372
vn -0.98512 0 -0.17186
vn -0.98512 0 0.17186
vn -0.93907 0 0.34372
vn -0.76721 0 0.6414
vn -0.6414 0 0.76721
vn -0.34372 0 0.93907
vn -0.17186 0 0.98512
vn 0.17186 0 0.98512
vn 0.34372 0 0.93907
vn 0.6414 0 0.76721
vn 0.76721 0 0.6414
vn 0.93907 0 0.34372
vn 0.98512 0 0.17186
f 1//1 2//1 3//1
f 3//1 2//1 4//1
f 4//1 5//1 6//1
f 7//1 8//1 9//1
f 9//1 8//1 10//1
f 9//1 10//1 11//1
f 11//1 10//1 6//1
f 12//1 13//1 14//1
f 14//1 13//1 3//1
f 6//1 10//1 4//1
f 4//1 10//1 15//1
f 4//1 15//1 3//1
f 3//1 15//1 16//1
f 3//1 16//1 14//1
f 10//2 17//2 15//2
f 15//2 17//2 18//2
f 19//2 1//2 20//2
f 20//2 1//2 3//2
f 5//2 21//2 6//2
f 6//2 21//2 22//2
f 22//3 21//3 23//3
f 20//3 24//3 25//3
f 25//3 26//3 20//3
f 20//3 26//3 27//3
f 20//3 27//3 18//3
f 28//3 29//3 17//3
f 17//3 29//3 30//3
f 17//3 30//3 31//3
f 31//3 22//3 17//3
f 17//3 22//3 23//3
f 17//3 23//3 18//3
f 18//3 23//3 32//3
f 18//3 32//3 20//3
f 20//3 32//3 19//3
f 2//4 32//4 4//4
f 4//4 32//4 23//4
f 2//5 1//5 32//5
f 32//5 1//5 19//5
f 5//6 4//6 21//6
f 21//6 4//6 23//6
f 11//6 6//6 31//6
f 31//6 6//6 22//6
f 28//7 17//7 33//7
f 33//7 34//7 28//7
f 28//7 34//7 35//7
f 28//7 35//7 36//7
f 36//7 35//7 37//7
f 36//7 37//7 38//7
f 38//7 37//7 39//7
f 38//7 39//7 40//7
f 40//7 39//7 41//7
f 40//7 41//7 42//7
f 42//7 41//7 43//7
f 42//7 43//7 44//7
f 44//7 43//7 45//7
f 44//7 45//7 8//7
f 45//7 46//7 8//7
f 8//7 46//7 47//7
f 8//7 47//7 10//7
f 10//7 47//7 48//7
f 10//7 48//7 17//7
f 17//7 48//7 49//7
f 17//7 49//7 33//7
f 16//6 15//6 27//6
f 27//6 15//6 18//6
f 24//5 20//5 50//5
f 50//5 51//5 24//5
f 24//5 51//5 52//5
f 24//5 52//5 53//5
f 53//5 52//5 54//5
f 53//5 54//5 55//5
f 55//5 54//5 56//5
f 55//5 56//5 57//5
f 57//5 56//5 58//5
f 57//5 58//5 59//5
f 59//5 58//5 60//5
f 59//5 60//5 61//5
f 61//5 60//5 62//5
f 61//5 62//5 13//5
f 62//5 63//5 13//5
f 13//5 63//5 64//5
f 13//5 64//5 3//5
f 3//5 64//5 65//5
f 3//5 65//5 20//5
f 20//5 65//5 66//5
f 20//5 66//5 50//5
f 11//2 31//2 9//2
f 9//2 31//2 30//2
f 30//6 67//6 9//6
f 9//6 67//6 68//6
f 68//6 69//6 9//6
f 9//6 69//6 70//6
f 9//6 70//6 7//6
f 7//6 70//6 71//6
f 7//6 71//6 72//6
f 72//6 71//6 73//6
f 72//6 73//6 74//6
f 74//6 73//6 75//6
f 74//6 75//6 76//6
f 76//6 75//6 77//6
f 76//6 77//6 78//6
f 78//6 77//6 79//6
f 78//6 79//6 80//6
f 80//6 79//6 81//6
f 80//6 81//6 29//6
f 29//6 81//6 82//6
f 29//6 82//6 30//6
f 30//6 82//6 83//6
f 30//6 83//6 67//6
f 16//2 27//2 14//2
f 14//2 27//2 26//2
f 26//6 84//6 14//6
f 14//6 84//6 85//6
f 85//6 86//6 14//6
f 14//6 86//6 87//6
f 14//6 87//6 12//6
f 12//6 87//6 88//6
f 12//6 88//6 89//6
f 89//6 88//6 90//6
f 89//6 90//6 91//6
f 91//6 90//6 92//6
f 91//6 92//6 93//6
f 93//6 92//6 94//6
f 93//6 94//6 95//6
f 95//6 94//6 96//6
f 95//6 96//6 97//6
f 97//6 96//6 98//6
f 97//6 98//6 25//6
f 25//6 98//6 99//6
f 25//6 99//6 26//6
f 26//6 99//6 100//6
f 26//6 100//6 84//6
f 99//8 52//8 100//8
f 100//9 52//9 51//9
f 100//10 51//10 84//10
f 84//11 51//11 50//11
f 84//12 50//12 101//12
f 101//13 50//13 102//13
f 101//14 102//14 86//14
f 86//15 102//15 65//15
f 86//16 65//16 87//16
f 87//17 65//17 64//17
f 87//18 64//18 88//18
f 88//19 64//19 63//19
f 88//20 63//20 90//20
f 90//21 63//21 62//21
f 90//22 62//22 92//22
f 92//23 62//23 60//23
f 92//24 60//24 103//24
f 103//25 60//25 104//25
f 103//26 104//26 96//26
f 96//27 104//27 56//27
f 96//28 56//28 98//28
f 98//29 56//29 54//29
f 98//30 54//30 99//30
f 99//31 54//31 52//31
f 82//8 35//8 83//8
f 83//9 35//9 34//9
f 83//10 34//10 67//10
f 67//11 34//11 33//11
f 67//12 33//12 105//12
f 105//13 33//13 106//13
f 105//14 106//14 69//14
f 69//15 106//15 48//15
f 69//16 48//16 70//16
f 70//17 48//17 47//17
f 70//18 47//18 71//18
f 71//19 47//19 46//19
f 71//20 46//20 73//20
f 73//21 46//21 45//21
f 73//22 45//22 75//22
f 75//23 45//23 43//23
f 75//24 43//24 107//24
f 107//25 43//25 108//25
f 107//26 108//26 79//26
f 79//27 108//27 39//27
f 79//28 39//28 81//28
f 81//29 39//29 37//29
f 81//30 37//30 82//30
f 82//31 37//31 35//31
f 25//19 24//19 53//19
f 25//18 53//18 97//18
f 97//17 53//17 55//17
f 97//16 55//16 95//16
f 95//15 55//15 109//15
f 95//14 109//14 110//14
f 110//13 109//13 59//13
f 110//12 59//12 91//12
f 91//11 59//11 61//11
f 91//10 61//10 89//10
f 89//9 61//9 13//9
f 89//8 13//8 12//8
f 29//19 28//19 36//19
f 29//18 36//18 80//18
f 80//17 36//17 38//17
f 80//16 38//16 78//16
f 78//15 38//15 111//15
f 78//14 111//14 112//14
f 112//13 111//13 42//13
f 112//12 42//12 74//12
f 74//11 42//11 44//11
f 74//10 44//10 72//10
f 72//9 44//9 8//9
f 72//8 8//8 7//8
# Vertices: 112, normals: 31, texture coordinates: 0, faces: 204

