# Converti depuis Right_Elbow_Z_Link.STL
# 1508 sommets, 3012 faces
o Right_Elbow_Z_Link
v 0.002046 -0.002386 0.034845
v -0.000197 0.000031 0.035007
v 0.001689 -0.002671 0.034845
v -0.025900 -0.015690 -0.017701
v -0.024369 -0.014753 -0.020478
v -0.022093 -0.017980 -0.020478
v -0.011021 -0.011648 -0.031119
v -0.008971 -0.009435 -0.032482
v -0.007613 -0.010525 -0.032482
v -0.004672 -0.008652 -0.033563
v -0.003202 -0.005799 -0.034350
v -0.002365 -0.006159 -0.034350
v -0.001285 -0.003077 -0.034830
v -0.000197 0.000031 -0.034993
v -0.000841 -0.003200 -0.034830
v -0.001928 0.030133 -0.017701
v -0.001825 0.028341 -0.020478
v -0.005619 0.027849 -0.020478
v -0.008700 0.024899 -0.023069
v -0.007961 0.022736 -0.025447
v -0.011038 0.021439 -0.025447
v -0.012491 0.017667 -0.027589
v -0.010943 0.015446 -0.029484
v -0.012977 0.013820 -0.029484
v -0.012489 0.010149 -0.031119
v -0.010161 0.008233 -0.032482
v -0.011168 0.006812 -0.032482
v -0.009132 0.003976 -0.033563
v -0.006196 0.002680 -0.034350
v -0.006508 0.001819 -0.034350
v -0.003366 0.000929 -0.034830
v -0.003462 0.000479 -0.034830
v 0.002349 -0.002062 0.034845
v 0.004874 -0.004138 0.034364
v 0.005386 -0.003415 0.034364
v 0.008741 -0.003909 0.033578
v 0.011600 -0.005170 0.032497
v 0.012212 -0.003478 0.032497
v 0.015575 -0.002124 0.031133
v 0.018424 -0.002514 0.029498
v 0.018604 0.000031 0.029498
v 0.021108 0.002933 0.027604
v 0.023596 0.003272 0.025461
v 0.022927 0.006455 0.025461
v 0.023911 0.010494 0.023083
v 0.025788 0.011308 0.020492
v 0.023969 0.014827 0.020492
v 0.023078 0.019194 0.017715
v 0.024260 0.020167 0.014781
v 0.021331 0.023279 0.014781
v 0.018719 0.026979 0.011718
v 0.019275 0.027771 0.008553
v 0.015309 0.030148 0.008553
v 0.011205 0.032636 0.005316
v 0.011324 0.032975 0.002032
v 0.006616 0.034276 0.002032
v 0.000890 0.003140 0.034845
v 0.000446 0.003263 0.034845
v 0.001084 0.006467 0.034364
v 0.000180 0.006586 0.034364
v 0.000365 0.009793 0.033578
v -0.000758 0.009793 0.033578
v -0.000938 0.012917 0.032497
v -0.002665 0.012693 0.032497
v -0.003241 0.015652 0.031133
v -0.005344 0.015083 0.031133
v -0.006273 0.017801 0.029498
v -0.008682 0.016786 0.029498
v -0.009904 0.019200 0.027604
v -0.012491 0.017667 0.027604
v -0.013926 0.019726 0.025461
v -0.016525 0.017649 0.025461
v -0.018081 0.019327 0.023083
v -0.020507 0.016748 0.023083
v -0.022088 0.018050 0.020492
v -0.024301 0.014928 0.020492
v -0.025827 0.015871 0.017715
v -0.027750 0.012196 0.017715
v -0.029150 0.012814 0.014781
v -0.030653 0.008660 0.014781
v -0.031860 0.009002 0.011718
v -0.032820 0.004506 0.011718
v -0.033780 0.004638 0.008553
v -0.034024 0.002340 0.008553
v -0.034692 0.002385 0.005316
v -0.034776 0.000031 0.005316
v -0.035135 0.000031 0.002032
v -0.034805 -0.004666 0.002032
v 0.015615 0.030743 0.005316
v 0.022184 0.024200 0.011718
v 0.025499 0.015764 0.017715
v 0.025130 0.007067 0.023083
v 0.021313 0.000031 0.027604
v 0.015112 -0.004298 0.031133
v 0.008117 -0.005102 0.033578
v 0.003559 -0.005350 0.034364
v 0.001293 -0.002906 0.034845
v 0.000870 -0.003084 0.034845
v 0.002769 -0.005819 0.034364
v 0.005396 -0.007984 0.033578
v 0.000435 -0.003202 0.034845
v 0.001928 -0.006174 0.034364
v 0.004221 -0.008681 0.033578
v 0.007186 -0.010548 0.032497
v -0.000006 -0.003260 0.034845
v 0.001062 -0.006409 0.034364
v 0.002968 -0.009210 0.033578
v 0.005634 -0.011469 0.032497
v 0.008911 -0.013021 0.031133
v -0.000388 -0.003260 0.034845
v 0.000183 -0.006523 0.034364
v 0.001677 -0.009560 0.033578
v 0.003981 -0.012167 0.032497
v 0.006997 -0.014157 0.031133
v 0.010556 -0.015378 0.029498
v -0.000841 -0.003200 0.034845
v -0.000577 -0.006523 0.034364
v 0.000369 -0.009730 0.033578
v 0.002277 -0.012629 0.032497
v 0.004957 -0.015018 0.031133
v 0.008296 -0.016719 0.029498
v 0.012105 -0.017598 0.027604
v -0.001285 -0.003077 0.034845
v -0.001480 -0.006404 0.034364
v -0.000763 -0.009730 0.033578
v 0.000550 -0.012854 0.032497
v 0.002855 -0.015588 0.031133
v 0.005888 -0.017736 0.029498
v 0.009520 -0.019133 0.027604
v 0.013542 -0.019657 0.025461
v -0.001706 -0.002896 0.034845
v -0.002365 -0.006159 0.034364
v -0.002108 -0.009553 0.033578
v -0.000944 -0.012854 0.032497
v 0.000725 -0.015865 0.031133
v 0.003406 -0.018409 0.029498
v 0.006765 -0.020295 0.027604
v 0.010655 -0.021371 0.025461
v 0.014851 -0.021533 0.023083
v -0.002091 -0.002665 0.034845
v -0.003202 -0.005799 0.034364
v -0.003426 -0.009188 0.033578
v -0.002720 -0.012619 0.032497
v -0.001118 -0.015865 0.031133
v 0.000891 -0.018737 0.029498
v 0.003926 -0.021066 0.027604
v 0.007578 -0.022670 0.025461
v 0.011689 -0.023410 0.023083
v 0.016023 -0.023212 0.020492
v -0.002438 -0.002387 0.034845
v -0.003969 -0.005338 0.034364
v -0.004672 -0.008652 0.033578
v -0.004459 -0.012137 0.032497
v -0.003309 -0.015575 0.031133
v -0.001285 -0.018737 0.029498
v 0.001048 -0.021440 0.027604
v 0.004407 -0.023530 0.025461
v 0.008319 -0.024833 0.023083
v 0.012614 -0.025235 0.020492
v 0.017050 -0.024684 0.017715
v -0.002742 -0.002063 0.034845
v -0.004660 -0.004784 0.034364
v -0.005816 -0.007966 0.033578
v -0.006104 -0.011430 0.032497
v -0.005455 -0.014981 0.031133
v -0.003872 -0.018395 0.029498
v -0.001441 -0.021440 0.027604
v 0.001193 -0.023948 0.025461
v 0.004846 -0.025775 0.023083
v 0.008982 -0.026768 0.020492
v 0.013425 -0.026835 0.017715
v 0.017926 -0.025939 0.014781
v -0.003007 -0.001688 0.034845
v -0.005267 -0.004139 0.034364
v -0.006844 -0.007140 0.033578
v -0.007613 -0.010525 0.032497
v -0.007485 -0.014109 0.031133
v -0.006404 -0.017693 0.029498
v -0.004401 -0.021049 0.027604
v -0.001587 -0.023948 0.025461
v 0.001326 -0.026233 0.023083
v 0.005238 -0.027783 0.020492
v 0.009563 -0.028465 0.017715
v 0.014117 -0.028199 0.014781
v 0.018644 -0.026968 0.011718
v -0.003218 -0.001278 0.034845
v -0.005794 -0.003392 0.034364
v -0.007747 -0.006179 0.033578
v -0.008971 -0.009435 0.032497
v -0.009347 -0.012992 0.031133
v -0.008802 -0.016663 0.029498
v -0.007299 -0.020247 0.027604
v -0.004892 -0.023511 0.025461
v -0.001719 -0.026233 0.023083
v 0.001444 -0.028277 0.020492
v 0.005582 -0.029545 0.017715
v 0.010058 -0.029912 0.014781
v 0.014684 -0.029318 0.011718
v 0.019198 -0.027762 0.008553
v -0.003371 -0.000849 0.034845
v -0.006214 -0.002577 0.034364
v -0.008532 -0.005067 0.033578
v -0.010163 -0.008167 0.032497
v -0.011021 -0.011648 0.031133
v -0.010999 -0.015344 0.029498
v -0.010041 -0.019068 0.027604
v -0.008128 -0.022615 0.025461
v -0.005339 -0.025754 0.023083
v -0.001838 -0.028277 0.020492
v 0.001548 -0.030070 0.017715
v 0.005876 -0.031047 0.014781
v 0.010465 -0.031099 0.011718
v 0.015122 -0.030181 0.008553
v 0.019581 -0.028311 0.005316
v -0.003463 -0.000412 0.034845
v -0.006518 -0.001722 0.034364
v -0.009159 -0.003853 0.033578
v -0.011199 -0.006698 0.032497
v -0.012493 -0.010083 0.031133
v -0.012977 -0.013757 0.029498
v -0.012556 -0.017559 0.027604
v -0.011191 -0.021298 0.025461
v -0.008884 -0.024773 0.023083
v -0.005740 -0.027762 0.020492
v -0.001942 -0.030070 0.017715
v 0.001637 -0.031599 0.014781
v 0.006116 -0.032278 0.011718
v 0.010778 -0.032014 0.008553
v 0.015424 -0.030777 0.005316
v 0.019786 -0.028605 0.002032
v -0.003494 0.000031 0.034845
v -0.006701 -0.000852 0.034364
v -0.009611 -0.002579 0.033578
v -0.012026 -0.005096 0.032497
v -0.013771 -0.008271 0.031133
v -0.014714 -0.011910 0.029498
v -0.014818 -0.015744 0.027604
v -0.013999 -0.019613 0.025461
v -0.012239 -0.023331 0.023083
v -0.009560 -0.026704 0.020492
v -0.006091 -0.029521 0.017715
v -0.002030 -0.031599 0.014781
v 0.001709 -0.032852 0.011718
v 0.006302 -0.033228 0.008553
v 0.010995 -0.032647 0.005316
v 0.015587 -0.031097 0.002032
v 0.019786 -0.028605 -0.002018
v -0.003209 0.001361 -0.034830
v -0.002999 0.001763 -0.034830
v -0.005778 0.003480 -0.034350
v -0.008509 0.005168 -0.033563
v -0.007745 0.006245 -0.033563
v -0.005265 0.004203 -0.034350
v -0.002742 0.002126 -0.034830
v -0.011021 0.011710 -0.031119
v -0.008971 0.009498 -0.032482
v -0.006844 0.007203 -0.033563
v -0.004660 0.004847 -0.034350
v -0.002438 0.002449 -0.034830
v -0.009298 0.013088 -0.031119
v -0.007574 0.010614 -0.032482
v -0.005786 0.008049 -0.033563
v -0.003950 0.005415 -0.034350
v -0.002081 0.002735 -0.034830
v -0.001685 0.002969 -0.034830
v -0.003160 0.005883 -0.034350
v -0.004610 0.008746 -0.033563
v -0.006022 0.011534 -0.032482
v -0.007384 0.014223 -0.031119
v -0.008682 0.016786 -0.029484
v -0.009904 0.019200 -0.027589
v -0.007149 0.020361 -0.027589
v -0.006273 0.017801 -0.029484
v -0.005344 0.015083 -0.031119
v -0.004369 0.012231 -0.032482
v -0.003357 0.009274 -0.033563
v -0.002319 0.006237 -0.034350
v -0.001262 0.003148 -0.034830
v -0.005227 0.025840 -0.023069
v -0.003494 0.000031 -0.034830
v -0.003486 0.000256 -0.034830
v -0.006747 0.000478 -0.034350
v -0.006699 0.000923 -0.034350
v -0.009881 0.001360 -0.033563
v -0.009596 0.002694 -0.033563
v -0.012604 0.003547 -0.032482
v -0.011991 0.005239 -0.032482
v -0.014748 0.006456 -0.031119
v -0.013732 0.008396 -0.031119
v -0.016177 0.009908 -0.029484
v -0.014710 0.011977 -0.029484
v -0.016800 0.013698 -0.027589
v -0.014818 0.015806 -0.027589
v -0.016525 0.017649 -0.025447
v -0.013926 0.019726 -0.025447
v -0.015235 0.021603 -0.023069
v -0.012071 0.023478 -0.023069
v -0.012995 0.025304 -0.020478
v -0.009362 0.026835 -0.020478
v -0.009943 0.028532 -0.017701
v -0.005962 0.029610 -0.017701
v -0.006255 0.031112 -0.014767
v -0.002016 0.031662 -0.014767
v -0.002088 0.032916 -0.011703
v -0.004790 0.023594 -0.025447
v -0.004309 0.021130 -0.027589
v -0.003791 0.018473 -0.029484
v -0.003241 0.015652 -0.031119
v -0.002665 0.012693 -0.032482
v -0.002066 0.009624 -0.033563
v -0.001452 0.006472 -0.034350
v -0.000827 0.003265 -0.034830
v -0.001707 0.026296 -0.023069
v -0.001576 0.024011 -0.025447
v -0.001431 0.021503 -0.027589
v -0.001276 0.018800 -0.029484
v -0.001111 0.015928 -0.031119
v -0.000938 0.012917 -0.032482
v -0.000758 0.009793 -0.033563
v -0.000574 0.006586 -0.034350
v -0.000386 0.003323 -0.034830
v -0.000008 0.003323 -0.034830
v -0.001706 -0.002896 -0.034830
v -0.002091 -0.002665 -0.034830
v -0.003969 -0.005338 -0.034350
v -0.005816 -0.007966 -0.033563
v -0.006844 -0.007140 -0.033563
v -0.004660 -0.004784 -0.034350
v -0.002438 -0.002387 -0.034830
v 0.000435 -0.003202 -0.034830
v -0.000006 -0.003260 -0.034830
v 0.000183 -0.006523 -0.034350
v -0.000577 -0.006523 -0.034350
v -0.000763 -0.009730 -0.033563
v -0.002108 -0.009553 -0.033563
v -0.002720 -0.012619 -0.032482
v -0.004459 -0.012137 -0.032482
v -0.005455 -0.014981 -0.031119
v -0.007485 -0.014109 -0.031119
v -0.008802 -0.016663 -0.029484
v -0.010999 -0.015344 -0.029484
v -0.012556 -0.017559 -0.027589
v -0.014818 -0.015744 -0.027589
v -0.016525 -0.017586 -0.025447
v -0.018745 -0.015225 -0.025447
v -0.020512 -0.016679 -0.023069
v -0.014714 -0.011910 -0.029484
v -0.012493 -0.010083 -0.031119
v -0.010163 -0.008167 -0.032482
v -0.007747 -0.006179 -0.033563
v -0.005267 -0.004139 -0.034350
v -0.002742 -0.002063 -0.034830
v 0.000870 -0.003084 -0.034830
v 0.001062 -0.006409 -0.034350
v 0.000369 -0.009730 -0.033563
v -0.000944 -0.012854 -0.032482
v -0.003309 -0.015575 -0.031119
v -0.006404 -0.017693 -0.029484
v -0.010041 -0.019068 -0.027589
v -0.013999 -0.019613 -0.025447
v -0.018081 -0.019265 -0.023069
v -0.016805 -0.013630 -0.027589
v -0.012977 -0.013757 -0.029484
v -0.009347 -0.012992 -0.031119
v -0.006104 -0.011430 -0.032482
v -0.003426 -0.009188 -0.033563
v -0.001480 -0.006404 -0.034350
v -0.000388 -0.003260 -0.034830
v -0.003371 -0.000849 -0.034830
v -0.003463 -0.000412 -0.034830
v -0.006701 -0.000852 -0.034350
v -0.006763 0.000031 -0.034350
v -0.009976 0.000031 -0.033563
v -0.009952 0.000697 -0.033563
v -0.013073 0.000910 -0.032482
v -0.012980 0.001785 -0.032482
v -0.015968 0.002194 -0.031119
v -0.015503 0.004368 -0.031119
v -0.018268 0.005151 -0.029484
v -0.017376 0.007616 -0.029484
v -0.019851 0.008709 -0.027589
v -0.018479 0.011330 -0.027589
v -0.020615 0.012650 -0.025447
v -0.018740 0.015294 -0.025447
v -0.020507 0.016748 -0.023069
v -0.018081 0.019327 -0.023069
v -0.019473 0.020829 -0.020478
v -0.016405 0.023282 -0.020478
v -0.017431 0.024754 -0.017701
v -0.013806 0.026904 -0.017701
v -0.014497 0.028269 -0.014767
v -0.010438 0.029980 -0.014767
v -0.010843 0.031167 -0.011703
v -0.006495 0.032344 -0.011703
v -0.006680 0.033294 -0.008539
v -0.002143 0.033882 -0.008539
v -0.002182 0.034551 -0.005301
v -0.022624 -0.013686 -0.023069
v -0.026186 -0.011234 -0.020478
v -0.027832 -0.011947 -0.017701
v -0.029227 -0.008019 -0.017701
v -0.030701 -0.008428 -0.014767
v -0.031583 -0.004229 -0.014767
v -0.032827 -0.004398 -0.011703
v -0.033138 0.000031 -0.011703
v -0.034107 0.000031 -0.008539
v -0.034024 0.002340 -0.008539
v -0.034692 0.002385 -0.005301
v -0.034443 0.004729 -0.005301
v -0.034798 0.004777 -0.002018
v -0.033780 0.009546 -0.002018
v -0.033780 0.009546 0.002032
v -0.032122 0.014127 0.002032
v -0.031794 0.013982 0.005316
v -0.029589 0.018196 0.005316
v -0.029019 0.017844 0.008553
v -0.026373 0.021577 0.008553
v -0.025625 0.020961 0.011718
v -0.022589 0.024190 0.011718
v -0.021735 0.023269 0.014781
v -0.018307 0.026010 0.014781
v -0.017431 0.024754 0.017715
v -0.013806 0.026904 0.017715
v -0.012995 0.025304 0.020492
v -0.009362 0.026835 0.020492
v -0.008700 0.024899 0.023083
v -0.005227 0.025840 0.023083
v -0.004790 0.023594 0.025461
v -0.001576 0.024011 0.025461
v -0.001431 0.021503 0.027604
v 0.001038 0.021503 0.027604
v 0.000882 0.018800 0.029498
v 0.003469 0.018459 0.029498
v 0.002908 0.015640 0.031133
v 0.005054 0.015046 0.031133
v 0.004059 0.012202 0.032497
v 0.005706 0.011495 0.032497
v 0.004275 0.008716 0.033578
v 0.005418 0.008031 0.033578
v 0.003573 0.005403 0.034364
v 0.004264 0.004849 0.034364
v 0.002043 0.002450 0.034845
v 0.002348 0.002126 0.034845
v 0.006616 0.034276 -0.002018
v 0.001809 0.034909 -0.002018
v 0.019581 -0.028311 -0.005301
v 0.015587 -0.031097 -0.002018
v 0.011111 -0.032986 0.002032
v 0.006430 -0.033885 0.005316
v 0.001765 -0.033819 0.008553
v -0.002103 -0.032852 0.011718
v -0.006390 -0.031022 0.014781
v -0.010153 -0.028396 0.017715
v -0.013176 -0.025149 0.020492
v -0.015314 -0.021485 0.023083
v -0.016525 -0.017586 0.025461
v -0.016805 -0.013630 0.027604
v -0.016223 -0.009771 0.029498
v -0.014791 -0.006295 0.031133
v -0.012623 -0.003415 0.032497
v -0.009883 -0.001283 0.033578
v -0.006763 0.000031 0.034364
v -0.003486 0.000256 0.034845
v -0.029235 -0.012556 -0.014767
v -0.031910 -0.008764 -0.011703
v -0.033786 -0.004528 -0.008539
v -0.034776 0.000031 -0.005301
v -0.035050 0.002410 -0.002018
v -0.020673 -0.012492 -0.025447
v -0.024309 -0.010420 -0.023069
v -0.027498 -0.007540 -0.020478
v -0.030066 -0.004023 -0.017701
v -0.031882 0.000031 -0.014767
v -0.033058 0.002274 -0.011703
v -0.033780 0.004638 -0.008539
v -0.033435 0.009449 -0.005301
v -0.032122 0.014127 -0.002018
v -0.029894 0.018385 0.002032
v -0.026890 0.022002 0.005316
v -0.023247 0.024901 0.008553
v -0.019025 0.027040 0.011718
v -0.014497 0.028269 0.014781
v -0.009943 0.028532 0.017715
v -0.005619 0.027849 0.020492
v -0.001707 0.026296 0.023083
v 0.001182 0.024011 0.025461
v 0.003998 0.021114 0.027604
v 0.006003 0.017759 0.029498
v 0.007085 0.014174 0.031133
v 0.007215 0.010590 0.032497
v 0.006447 0.007206 0.033578
v 0.004871 0.004204 0.034364
v 0.002613 0.001752 0.034845
v -0.018531 -0.011183 -0.027589
v -0.022212 -0.009511 -0.025447
v -0.025527 -0.006993 -0.023069
v -0.028287 -0.003782 -0.020478
v -0.030351 0.000031 -0.017701
v -0.031805 0.002188 -0.014767
v -0.032820 0.004506 -0.011703
v -0.032791 0.009266 -0.008539
v -0.031794 0.013982 -0.005301
v -0.029894 0.018385 -0.002018
v -0.027167 0.022230 0.002032
v -0.023702 0.025392 0.005316
v -0.019578 0.027834 0.008553
v -0.015064 0.029388 0.011718
v -0.010438 0.029980 0.014781
v -0.005962 0.029610 0.017715
v -0.001825 0.028341 0.020492
v 0.001314 0.026296 0.023083
v 0.004487 0.023576 0.025461
v 0.006896 0.020313 0.027604
v 0.008400 0.016729 0.029498
v 0.008947 0.013058 0.031133
v 0.008573 0.009502 0.032497
v 0.007351 0.006246 0.033578
v 0.005398 0.003457 0.034364
v 0.002824 0.001342 0.034845
v -0.016223 -0.009771 -0.029484
v -0.019909 -0.008513 -0.027589
v -0.023323 -0.006382 -0.025447
v -0.026259 -0.003506 -0.023069
v -0.028555 0.000031 -0.020478
v -0.030278 0.002084 -0.017701
v -0.031577 0.004336 -0.014767
v -0.031860 0.009002 -0.011703
v -0.031182 0.013712 -0.008539
v -0.029589 0.018196 -0.005301
v -0.027167 0.022230 -0.002018
v -0.023946 0.025655 0.002032
v -0.019961 0.028383 0.005316
v -0.015501 0.030251 0.008553
v -0.010843 0.031167 0.011718
v -0.006255 0.031112 0.014781
v -0.001928 0.030133 0.017715
v 0.001431 0.028341 0.020492
v 0.004934 0.025819 0.023083
v 0.007724 0.022681 0.025461
v 0.009639 0.019135 0.027604
v 0.010599 0.015411 0.029498
v 0.010622 0.011715 0.031133
v 0.009766 0.008234 0.032497
v 0.008136 0.005133 0.033578
v 0.005819 0.002642 0.034364
v 0.002977 0.000913 0.034845
v -0.013771 -0.008271 -0.031119
v -0.017427 -0.007437 -0.029484
v -0.020904 -0.005711 -0.027589
v -0.023991 -0.003198 -0.025447
v -0.026507 0.000031 -0.023069
v -0.028486 0.001962 -0.020478
v -0.030060 0.004127 -0.017701
v -0.030653 0.008660 -0.014767
v -0.030297 0.013321 -0.011703
v -0.029019 0.017844 -0.008539
v -0.026890 0.022002 -0.005301
v -0.023946 0.025655 -0.002018
v -0.020166 0.028677 0.002032
v -0.015803 0.030848 0.005316
v -0.011156 0.032082 0.008553
v -0.006495 0.032344 0.011718
v -0.002016 0.031662 0.014781
v 0.001534 0.030133 0.017715
v 0.005333 0.027827 0.020492
v 0.008479 0.024839 0.023083
v 0.010788 0.021366 0.025461
v 0.012154 0.017627 0.027604
v 0.012577 0.013826 0.029498
v 0.012094 0.010151 0.031133
v 0.010803 0.006766 0.032497
v 0.008763 0.003920 0.033578
v 0.006124 0.001787 0.034364
v 0.003069 0.000476 0.034845
v -0.011199 -0.006698 -0.032482
v -0.014791 -0.006295 -0.031119
v -0.018297 -0.004988 -0.029484
v -0.021503 -0.002861 -0.027589
v -0.024218 0.000031 -0.025447
v -0.026443 0.001822 -0.023069
v -0.028282 0.003884 -0.020478
v -0.029181 0.008243 -0.017701
v -0.029150 0.012814 -0.014767
v -0.028196 0.017336 -0.011703
v -0.026373 0.021577 -0.008539
v -0.023702 0.025392 -0.005301
v -0.020166 0.028677 -0.002018
v -0.015965 0.031167 0.002032
v -0.011373 0.032715 0.005316
v -0.006680 0.033294 0.008553
v -0.002088 0.032916 0.011718
v 0.001622 0.031662 0.014781
v 0.005683 0.029587 0.017715
v 0.009154 0.026771 0.020492
v 0.011834 0.023399 0.023083
v 0.013597 0.019682 0.025461
v 0.014417 0.015813 0.027604
v 0.014315 0.011979 0.029498
v 0.013373 0.008340 0.031133
v 0.011630 0.005164 0.032497
v 0.009216 0.002646 0.033578
v 0.006307 0.000917 0.034364
v 0.003100 0.000031 0.034845
v -0.008532 -0.005067 -0.033563
v -0.012026 -0.005096 -0.032482
v -0.015528 -0.004220 -0.031119
v -0.018820 -0.002497 -0.029484
v -0.021706 0.000031 -0.027589
v -0.024160 0.001667 -0.025447
v -0.026253 0.003605 -0.023069
v -0.027455 0.007754 -0.020478
v -0.027750 0.012196 -0.017701
v -0.027129 0.016676 -0.014767
v -0.025625 0.020961 -0.011703
v -0.023247 0.024901 -0.008539
v -0.019961 0.028383 -0.005301
v -0.015965 0.031167 -0.002018
v -0.011489 0.033054 0.002032
v -0.006808 0.033951 0.005316
v -0.002143 0.033882 0.008553
v 0.001694 0.032916 0.011718
v 0.005982 0.031088 0.014781
v 0.009746 0.028464 0.017715
v 0.012771 0.025218 0.020492
v 0.014911 0.021554 0.023083
v 0.016124 0.017656 0.025461
v 0.016405 0.013700 0.027604
v 0.015825 0.009840 0.029498
v 0.014394 0.006364 0.031133
v 0.012228 0.003483 0.032497
v 0.009489 0.001350 0.033578
v 0.006369 0.000031 0.034364
v 0.003069 -0.000415 0.034845
v -0.005794 -0.003392 -0.034350
v -0.009159 -0.003853 -0.033563
v -0.012623 -0.003415 -0.032482
v -0.015971 -0.002110 -0.031119
v -0.018998 0.000031 -0.029484
v -0.021654 0.001495 -0.027589
v -0.023987 0.003294 -0.025447
v -0.025487 0.007197 -0.023069
v -0.026110 0.011472 -0.020478
v -0.025827 0.015871 -0.017701
v -0.024656 0.020164 -0.014767
v -0.022589 0.024190 -0.011703
v -0.019578 0.027834 -0.008539
v -0.015803 0.030848 -0.005301
v -0.011489 0.033054 -0.002018
v -0.006877 0.034303 0.002032
v -0.002182 0.034551 0.005316
v 0.001750 0.033882 0.008553
v 0.006227 0.032319 0.011718
v 0.010251 0.029908 0.014781
v 0.013592 0.026813 0.017715
v 0.016087 0.023230 0.020492
v 0.017679 0.019335 0.023083
v 0.018344 0.015296 0.025461
v 0.018133 0.011254 0.027604
v 0.017030 0.007508 0.029498
v 0.015132 0.004290 0.031133
v 0.012588 0.001772 0.032497
v 0.009582 0.000031 0.033578
v 0.006306 -0.000857 0.034364
v 0.002973 -0.000865 0.034845
v -0.003007 -0.001688 -0.034830
v -0.006214 -0.002577 -0.034350
v -0.009611 -0.002579 -0.033563
v -0.012982 -0.001704 -0.032482
v -0.016121 0.000031 -0.031119
v -0.018952 0.001311 -0.029484
v -0.021499 0.002953 -0.027589
v -0.023287 0.006573 -0.025447
v -0.024238 0.010646 -0.023069
v -0.024301 0.014928 -0.020478
v -0.023474 0.019191 -0.017701
v -0.021735 0.023269 -0.014767
v -0.019025 0.027040 -0.011703
v -0.015501 0.030251 -0.008539
v -0.011373 0.032715 -0.005301
v -0.006877 0.034303 -0.002018
v -0.002202 0.034909 0.002032
v 0.001788 0.034551 0.005316
v 0.006416 0.033268 0.008553
v 0.010665 0.031092 0.011718
v 0.014292 0.028173 0.014781
v 0.017118 0.024699 0.017715
v 0.019070 0.020838 0.020492
v 0.020111 0.016751 0.023083
v 0.020273 0.012564 0.025461
v 0.019512 0.008585 0.027604
v 0.017901 0.005059 0.029498
v 0.015576 0.002179 0.031133
v 0.012711 0.000031 0.032497
v 0.009488 -0.001292 0.033578
v 0.006115 -0.001754 0.034364
v 0.002817 -0.001297 0.034845
v -0.003218 -0.001278 -0.034830
v -0.006518 -0.001722 -0.034350
v -0.009883 -0.001283 -0.033563
v -0.013104 0.000031 -0.032482
v -0.016082 0.001115 -0.031119
v -0.018816 0.002585 -0.029484
v -0.020872 0.005889 -0.027589
v -0.022147 0.009722 -0.025447
v -0.022560 0.013852 -0.023069
v -0.022088 0.018050 -0.020478
v -0.020694 0.022146 -0.017701
v -0.018307 0.026010 -0.014767
v -0.015064 0.029388 -0.011703
v -0.011156 0.032082 -0.008539
v -0.006808 0.033951 -0.005301
v -0.002202 0.034909 -0.002018
v 0.001809 0.034909 0.002032
v 0.006546 0.033924 0.005316
v 0.010985 0.032005 0.008553
v 0.014866 0.029288 0.011718
v 0.017997 0.025952 0.014781
v 0.020290 0.022155 0.017715
v 0.021692 0.018053 0.020492
v 0.022224 0.013759 0.023083
v 0.021814 0.009584 0.025461
v 0.020508 0.005783 0.027604
v 0.018425 0.002567 0.029498
v 0.015728 0.000031 0.031133
v 0.012587 -0.001716 0.032497
v 0.009204 -0.002627 0.033578
v 0.005804 -0.002615 0.034364
v 0.002606 -0.001699 0.034845
v 0.000180 0.006586 -0.034350
v 0.000365 0.009793 -0.033563
v 0.000544 0.012917 -0.032482
v 0.000717 0.015928 -0.031119
v 0.000882 0.018800 -0.029484
v 0.001038 0.021503 -0.027589
v 0.001182 0.024011 -0.025447
v 0.001314 0.026296 -0.023069
v 0.001431 0.028341 -0.020478
v 0.001534 0.030133 -0.017701
v 0.001622 0.031662 -0.014767
v 0.001694 0.032916 -0.011703
v 0.001750 0.033882 -0.008539
v 0.001788 0.034551 -0.005301
v 0.006546 0.033924 -0.005301
v 0.006416 0.033268 -0.008539
v 0.006227 0.032319 -0.011703
v 0.005982 0.031088 -0.014767
v 0.005683 0.029587 -0.017701
v 0.005333 0.027827 -0.020478
v 0.004934 0.025819 -0.023069
v 0.004487 0.023576 -0.025447
v 0.003998 0.021114 -0.027589
v 0.003469 0.018459 -0.029484
v 0.002908 0.015640 -0.031119
v 0.002320 0.012683 -0.032482
v 0.001710 0.009616 -0.033563
v 0.001084 0.006467 -0.034350
v 0.000446 0.003263 -0.034830
v 0.011324 0.032975 -0.002018
v 0.011205 0.032636 -0.005301
v 0.010985 0.032005 -0.008539
v 0.010665 0.031092 -0.011703
v 0.010251 0.029908 -0.014767
v 0.009746 0.028464 -0.017701
v 0.009154 0.026771 -0.020478
v 0.008479 0.024839 -0.023069
v 0.007724 0.022681 -0.025447
v 0.006896 0.020313 -0.027589
v 0.006003 0.017759 -0.029484
v 0.005054 0.015046 -0.031119
v 0.004059 0.012202 -0.032482
v 0.003028 0.009252 -0.033563
v 0.001968 0.006222 -0.034350
v 0.000890 0.003140 -0.034830
v 0.015780 0.031062 0.002032
v 0.015780 0.031062 -0.002018
v 0.015615 0.030743 -0.005301
v 0.015309 0.030148 -0.008539
v 0.014866 0.029288 -0.011703
v 0.014292 0.028173 -0.014767
v 0.013592 0.026813 -0.017701
v 0.012771 0.025218 -0.020478
v 0.011834 0.023399 -0.023069
v 0.010788 0.021366 -0.025447
v 0.009639 0.019135 -0.027589
v 0.008400 0.016729 -0.029484
v 0.007085 0.014174 -0.031119
v 0.005706 0.011495 -0.032482
v 0.004275 0.008716 -0.033563
v 0.002806 0.005863 -0.034350
v 0.001311 0.002959 -0.034830
v 0.019659 0.028319 0.005316
v 0.019865 0.028613 0.002032
v 0.019865 0.028613 -0.002018
v 0.019659 0.028319 -0.005301
v 0.019275 0.027771 -0.008539
v 0.018719 0.026979 -0.011703
v 0.017997 0.025952 -0.014767
v 0.017118 0.024699 -0.017701
v 0.016087 0.023230 -0.020478
v 0.014911 0.021554 -0.023069
v 0.013597 0.019682 -0.025447
v 0.012154 0.017627 -0.027589
v 0.010599 0.015411 -0.029484
v 0.008947 0.013058 -0.031119
v 0.007215 0.010590 -0.032482
v 0.005418 0.008031 -0.033563
v 0.003573 0.005403 -0.034350
v 0.001696 0.002728 -0.034830
v 0.022842 0.024911 0.008553
v 0.023297 0.025402 0.005316
v 0.023541 0.025666 0.002032
v 0.023541 0.025666 -0.002018
v 0.023297 0.025402 -0.005301
v 0.022842 0.024911 -0.008539
v 0.022184 0.024200 -0.011703
v 0.021331 0.023279 -0.014767
v 0.020290 0.022155 -0.017701
v 0.019070 0.020838 -0.020478
v 0.017679 0.019335 -0.023069
v 0.016124 0.017656 -0.025447
v 0.014417 0.015813 -0.027589
v 0.012577 0.013826 -0.029484
v 0.010622 0.011715 -0.031119
v 0.008573 0.009502 -0.032482
v 0.006447 0.007206 -0.033563
v 0.004264 0.004849 -0.034350
v 0.002043 0.002450 -0.034830
v 0.025229 0.020965 0.011718
v 0.025976 0.021580 0.008553
v 0.026493 0.022006 0.005316
v 0.026770 0.022234 0.002032
v 0.026770 0.022234 -0.002018
v 0.026493 0.022006 -0.005301
v 0.025976 0.021580 -0.008539
v 0.025229 0.020965 -0.011703
v 0.024260 0.020167 -0.014767
v 0.023078 0.019194 -0.017701
v 0.021692 0.018053 -0.020478
v 0.020111 0.016751 -0.023069
v 0.018344 0.015296 -0.025447
v 0.016405 0.013700 -0.027589
v 0.014315 0.011979 -0.029484
v 0.012094 0.010151 -0.031119
v 0.009766 0.008234 -0.032482
v 0.007351 0.006246 -0.033563
v 0.004871 0.004204 -0.034350
v 0.002348 0.002126 -0.034830
v 0.026804 0.016563 0.014781
v 0.027874 0.017218 0.011718
v 0.028700 0.017723 0.008553
v 0.029270 0.018073 0.005316
v 0.029576 0.018260 0.002032
v 0.029576 0.018260 -0.002018
v 0.029270 0.018073 -0.005301
v 0.028700 0.017723 -0.008539
v 0.027874 0.017218 -0.011703
v 0.026804 0.016563 -0.014767
v 0.025499 0.015764 -0.017701
v 0.023969 0.014827 -0.020478
v 0.022224 0.013759 -0.023069
v 0.020273 0.012564 -0.025447
v 0.018133 0.011254 -0.027589
v 0.015825 0.009840 -0.029484
v 0.013373 0.008340 -0.031119
v 0.010803 0.006766 -0.032482
v 0.008136 0.005133 -0.033563
v 0.005398 0.003457 -0.034350
v 0.002613 0.001752 -0.034830
v 0.027433 0.012022 0.017715
v 0.028836 0.012631 0.014781
v 0.029987 0.013131 0.011718
v 0.030874 0.013516 0.008553
v 0.031488 0.013782 0.005316
v 0.031817 0.013925 0.002032
v 0.031817 0.013925 -0.002018
v 0.031488 0.013782 -0.005301
v 0.030874 0.013516 -0.008539
v 0.029987 0.013131 -0.011703
v 0.028836 0.012631 -0.014767
v 0.027433 0.012022 -0.017701
v 0.025788 0.011308 -0.020478
v 0.023911 0.010494 -0.023069
v 0.021814 0.009584 -0.025447
v 0.019512 0.008585 -0.027589
v 0.017030 0.007508 -0.029484
v 0.014394 0.006364 -0.031119
v 0.011630 0.005164 -0.032482
v 0.008763 0.003920 -0.033563
v 0.005819 0.002642 -0.034350
v 0.002824 0.001342 -0.034830
v 0.027101 0.007615 0.020492
v 0.028830 0.008095 0.017715
v 0.030304 0.008505 0.014781
v 0.031513 0.008840 0.011718
v 0.032445 0.009099 0.008553
v 0.033090 0.009278 0.005316
v 0.033435 0.009374 0.002032
v 0.033435 0.009374 -0.002018
v 0.033090 0.009278 -0.005301
v 0.032445 0.009099 -0.008539
v 0.031513 0.008840 -0.011703
v 0.030304 0.008505 -0.014767
v 0.028830 0.008095 -0.017701
v 0.027101 0.007615 -0.020478
v 0.025130 0.007067 -0.023069
v 0.022927 0.006455 -0.025447
v 0.020508 0.005783 -0.027589
v 0.017901 0.005059 -0.029484
v 0.015132 0.004290 -0.031119
v 0.012228 0.003483 -0.032482
v 0.009216 0.002646 -0.033563
v 0.006124 0.001787 -0.034350
v 0.002977 0.000913 -0.034830
v 0.025863 0.003580 0.023083
v 0.027892 0.003857 0.020492
v 0.029670 0.004099 0.017715
v 0.031187 0.004305 0.014781
v 0.032431 0.004475 0.011718
v 0.033391 0.004605 0.008553
v 0.034054 0.004696 0.005316
v 0.034409 0.004744 0.002032
v 0.034409 0.004744 -0.002018
v 0.034054 0.004696 -0.005301
v 0.033391 0.004605 -0.008539
v 0.032431 0.004475 -0.011703
v 0.031187 0.004305 -0.014767
v 0.029670 0.004099 -0.017701
v 0.027892 0.003857 -0.020478
v 0.025863 0.003580 -0.023069
v 0.023596 0.003272 -0.025447
v 0.021108 0.002933 -0.027589
v 0.018425 0.002567 -0.029484
v 0.015576 0.002179 -0.031119
v 0.012588 0.001772 -0.032482
v 0.009489 0.001350 -0.033563
v 0.006307 0.000917 -0.034350
v 0.003069 0.000476 -0.034830
v 0.023825 0.000031 0.025461
v 0.026114 0.000031 0.023083
v 0.028162 0.000031 0.020492
v 0.029957 0.000031 0.017715
v 0.031489 0.000031 0.014781
v 0.032745 0.000031 0.011718
v 0.033713 0.000031 0.008553
v 0.034383 0.000031 0.005316
v 0.034742 0.000031 0.002032
v 0.034742 0.000031 -0.002018
v 0.034383 0.000031 -0.005301
v 0.033713 0.000031 -0.008539
v 0.032745 0.000031 -0.011703
v 0.031489 0.000031 -0.014767
v 0.029957 0.000031 -0.017701
v 0.028162 0.000031 -0.020478
v 0.026114 0.000031 -0.023069
v 0.023825 0.000031 -0.025447
v 0.021313 0.000031 -0.027589
v 0.018604 0.000031 -0.029484
v 0.015728 0.000031 -0.031119
v 0.012711 0.000031 -0.032482
v 0.009582 0.000031 -0.033563
v 0.006369 0.000031 -0.034350
v 0.003100 0.000031 -0.034830
v 0.021107 -0.002880 0.027604
v 0.023595 -0.003220 0.025461
v 0.025862 -0.003530 0.023083
v 0.027890 -0.003808 0.020492
v 0.029668 -0.004051 0.017715
v 0.031185 -0.004258 0.014781
v 0.032429 -0.004428 0.011718
v 0.033388 -0.004559 0.008553
v 0.034051 -0.004650 0.005316
v 0.034407 -0.004698 0.002032
v 0.034407 -0.004698 -0.002018
v 0.034051 -0.004650 -0.005301
v 0.033388 -0.004559 -0.008539
v 0.032429 -0.004428 -0.011703
v 0.031185 -0.004258 -0.014767
v 0.029668 -0.004051 -0.017701
v 0.027890 -0.003808 -0.020478
v 0.025862 -0.003530 -0.023069
v 0.023595 -0.003220 -0.025447
v 0.021107 -0.002880 -0.027589
v 0.018424 -0.002514 -0.029484
v 0.015575 -0.002124 -0.031119
v 0.012587 -0.001716 -0.032482
v 0.009488 -0.001292 -0.033563
v 0.006306 -0.000857 -0.034350
v 0.003069 -0.000415 -0.034830
v 0.017877 -0.005080 0.029498
v 0.020481 -0.005816 0.027604
v 0.022896 -0.006499 0.025461
v 0.025097 -0.007122 0.023083
v 0.027065 -0.007679 0.020492
v 0.028792 -0.008167 0.017715
v 0.030264 -0.008583 0.014781
v 0.031471 -0.008925 0.011718
v 0.032402 -0.009188 0.008553
v 0.033046 -0.009370 0.005316
v 0.033391 -0.009468 0.002032
v 0.033391 -0.009468 -0.002018
v 0.033046 -0.009370 -0.005301
v 0.032402 -0.009188 -0.008539
v 0.031471 -0.008925 -0.011703
v 0.030264 -0.008583 -0.014767
v 0.028792 -0.008167 -0.017701
v 0.027065 -0.007679 -0.020478
v 0.025097 -0.007122 -0.023069
v 0.022896 -0.006499 -0.025447
v 0.020481 -0.005816 -0.027589
v 0.017877 -0.005080 -0.029484
v 0.015112 -0.004298 -0.031119
v 0.012212 -0.003478 -0.032482
v 0.009204 -0.002627 -0.033563
v 0.006115 -0.001754 -0.034350
v 0.002973 -0.000865 -0.034830
v 0.014357 -0.006386 0.031133
v 0.016986 -0.007545 0.029498
v 0.019462 -0.008637 0.027604
v 0.021758 -0.009649 0.025461
v 0.023850 -0.010572 0.023083
v 0.025722 -0.011397 0.020492
v 0.027363 -0.012121 0.017715
v 0.028762 -0.012738 0.014781
v 0.029910 -0.013244 0.011718
v 0.030795 -0.013634 0.008553
v 0.031407 -0.013904 0.005316
v 0.031735 -0.014049 0.002032
v 0.031735 -0.014049 -0.002018
v 0.031407 -0.013904 -0.005301
v 0.030795 -0.013634 -0.008539
v 0.029910 -0.013244 -0.011703
v 0.028762 -0.012738 -0.014767
v 0.027363 -0.012121 -0.017701
v 0.025722 -0.011397 -0.020478
v 0.023850 -0.010572 -0.023069
v 0.021758 -0.009649 -0.025447
v 0.019462 -0.008637 -0.027589
v 0.016986 -0.007545 -0.029484
v 0.014357 -0.006386 -0.031119
v 0.011600 -0.005170 -0.032482
v 0.008741 -0.003909 -0.033563
v 0.005804 -0.002615 -0.034350
v 0.002817 -0.001297 -0.034830
v 0.010778 -0.006744 0.032497
v 0.013343 -0.008328 0.031133
v 0.015788 -0.009837 0.029498
v 0.018091 -0.011259 0.027604
v 0.020227 -0.012578 0.025461
v 0.022173 -0.013779 0.023083
v 0.023914 -0.014854 0.020492
v 0.025441 -0.015797 0.017715
v 0.026743 -0.016601 0.014781
v 0.027811 -0.017260 0.011718
v 0.028634 -0.017768 0.008553
v 0.029204 -0.018120 0.005316
v 0.029509 -0.018308 0.002032
v 0.029509 -0.018308 -0.002018
v 0.029204 -0.018120 -0.005301
v 0.028634 -0.017768 -0.008539
v 0.027811 -0.017260 -0.011703
v 0.026743 -0.016601 -0.014767
v 0.025441 -0.015797 -0.017701
v 0.023914 -0.014854 -0.020478
v 0.022173 -0.013779 -0.023069
v 0.020227 -0.012578 -0.025447
v 0.018091 -0.011259 -0.027589
v 0.015788 -0.009837 -0.029484
v 0.013343 -0.008328 -0.031119
v 0.010778 -0.006744 -0.032482
v 0.008117 -0.005102 -0.033563
v 0.005386 -0.003415 -0.034350
v 0.002606 -0.001699 -0.034830
v 0.007355 -0.006178 0.033578
v 0.009771 -0.008165 0.032497
v 0.012100 -0.010081 0.031133
v 0.014322 -0.011907 0.029498
v 0.016413 -0.013627 0.027604
v 0.018353 -0.015223 0.025461
v 0.020121 -0.016676 0.023083
v 0.021702 -0.017977 0.020492
v 0.023089 -0.019117 0.017715
v 0.024272 -0.020089 0.014781
v 0.025241 -0.020887 0.011718
v 0.025989 -0.021502 0.008553
v 0.026506 -0.021927 0.005316
v 0.026784 -0.022155 0.002032
v 0.026784 -0.022155 -0.002018
v 0.026506 -0.021927 -0.005301
v 0.025989 -0.021502 -0.008539
v 0.025241 -0.020887 -0.011703
v 0.024272 -0.020089 -0.014767
v 0.023089 -0.019117 -0.017701
v 0.021702 -0.017977 -0.020478
v 0.020121 -0.016676 -0.023069
v 0.018353 -0.015223 -0.025447
v 0.016413 -0.013627 -0.027589
v 0.014322 -0.011907 -0.029484
v 0.012100 -0.010081 -0.031119
v 0.009771 -0.008165 -0.032482
v 0.007355 -0.006178 -0.033563
v 0.004874 -0.004138 -0.034350
v 0.002349 -0.002062 -0.034830
v 0.004269 -0.004782 0.034364
v 0.006454 -0.007137 0.033578
v 0.008582 -0.009431 0.032497
v 0.010633 -0.011642 0.031133
v 0.012590 -0.013751 0.029498
v 0.014432 -0.015737 0.027604
v 0.016140 -0.017578 0.025461
v 0.017697 -0.019256 0.023083
v 0.019090 -0.020757 0.020492
v 0.020311 -0.022074 0.017715
v 0.021353 -0.023196 0.014781
v 0.022207 -0.024117 0.011718
v 0.022865 -0.024827 0.008553
v 0.023321 -0.025318 0.005316
v 0.023565 -0.025581 0.002032
v 0.023565 -0.025581 -0.002018
v 0.023321 -0.025318 -0.005301
v 0.022865 -0.024827 -0.008539
v 0.022207 -0.024117 -0.011703
v 0.021353 -0.023196 -0.014767
v 0.020311 -0.022074 -0.017701
v 0.019090 -0.020757 -0.020478
v 0.017697 -0.019256 -0.023069
v 0.016140 -0.017578 -0.025447
v 0.014432 -0.015737 -0.027589
v 0.012590 -0.013751 -0.029484
v 0.010633 -0.011642 -0.031119
v 0.008582 -0.009431 -0.032482
v 0.006454 -0.007137 -0.033563
v 0.004269 -0.004782 -0.034350
v 0.002046 -0.002386 -0.034830
v 0.019198 -0.027762 -0.008539
v 0.015424 -0.030777 -0.005301
v 0.011111 -0.032986 -0.002018
v 0.006499 -0.034237 0.002032
v 0.001804 -0.034487 0.005316
v -0.002159 -0.033819 0.008553
v -0.006635 -0.032253 0.011718
v -0.010659 -0.029840 0.014781
v -0.013998 -0.026744 0.017715
v -0.016491 -0.023160 0.020492
v -0.018081 -0.019265 0.023083
v -0.018745 -0.015225 0.025461
v -0.018531 -0.011183 0.027604
v -0.017427 -0.007437 0.029498
v -0.015528 -0.004220 0.031133
v -0.012982 -0.001704 0.032497
v -0.009976 0.000031 0.033578
v -0.006747 0.000478 0.034364
v -0.003462 0.000479 0.034845
v 0.018644 -0.026968 -0.011703
v 0.015122 -0.030181 -0.008539
v 0.010995 -0.032647 -0.005301
v 0.006499 -0.034237 -0.002018
v 0.001825 -0.034846 0.002032
v -0.002198 -0.034487 0.005316
v -0.006825 -0.033202 0.008553
v -0.011073 -0.031024 0.011718
v -0.014699 -0.028103 0.014781
v -0.017523 -0.024628 0.017715
v -0.019473 -0.020767 0.020492
v -0.020512 -0.016679 0.023083
v -0.020673 -0.012492 0.025461
v -0.019909 -0.008513 0.027604
v -0.018297 -0.004988 0.029498
v -0.015971 -0.002110 0.031133
v -0.013104 0.000031 0.032497
v -0.009952 0.000697 0.033578
v -0.006699 0.000923 0.034364
v -0.003366 0.000929 0.034845
v 0.017926 -0.025939 -0.014767
v 0.014684 -0.029318 -0.011703
v 0.010778 -0.032014 -0.008539
v 0.006430 -0.033885 -0.005301
v 0.001825 -0.034846 -0.002018
v -0.002218 -0.034846 0.002032
v -0.006956 -0.033858 0.005316
v -0.011393 -0.031937 0.008553
v -0.015273 -0.029219 0.011718
v -0.018403 -0.025881 0.014781
v -0.020694 -0.022084 0.017715
v -0.022093 -0.017980 0.020492
v -0.022624 -0.013686 0.023083
v -0.022212 -0.009511 0.025461
v -0.020904 -0.005711 0.027604
v -0.018820 -0.002497 0.029498
v -0.016121 0.000031 0.031133
v -0.013073 0.000910 0.032497
v -0.009881 0.001360 0.033578
v -0.006508 0.001819 0.034364
v -0.003209 0.001361 0.034845
v 0.017050 -0.024684 -0.017701
v 0.014117 -0.028199 -0.014767
v 0.010465 -0.031099 -0.011703
v 0.006302 -0.033228 -0.008539
v 0.001804 -0.034487 -0.005301
v -0.002218 -0.034846 -0.002018
v -0.007026 -0.034210 0.002032
v -0.011614 -0.032568 0.005316
v -0.015717 -0.030078 0.008553
v -0.019124 -0.026908 0.011718
v -0.021735 -0.023207 0.014781
v -0.023480 -0.019120 0.017715
v -0.024369 -0.014753 0.020492
v -0.024309 -0.010420 0.023083
v -0.023323 -0.006382 0.025461
v -0.021503 -0.002861 0.027604
v -0.018998 0.000031 0.029498
v -0.016082 0.001115 0.031133
v -0.012980 0.001785 0.032497
v -0.009596 0.002694 0.033578
v -0.006196 0.002680 0.034364
v -0.002999 0.001763 0.034845
v 0.016023 -0.023212 -0.020478
v 0.013425 -0.026835 -0.017701
v 0.010058 -0.029912 -0.014767
v 0.006116 -0.032278 -0.011703
v 0.001765 -0.033819 -0.008539
v -0.002198 -0.034487 -0.005301
v -0.007026 -0.034210 -0.002018
v -0.011733 -0.032907 0.002032
v -0.016023 -0.030673 0.005316
v -0.019681 -0.027700 0.008553
v -0.022589 -0.024128 0.011718
v -0.024662 -0.020093 0.014781
v -0.025900 -0.015690 0.017715
v -0.026186 -0.011234 0.020492
v -0.025527 -0.006993 0.023083
v -0.023991 -0.003198 0.025461
v -0.021706 0.000031 0.027604
v -0.018952 0.001311 0.029498
v -0.015968 0.002194 0.031133
v -0.012604 0.003547 0.032497
v -0.009132 0.003976 0.033578
v -0.005778 0.003480 0.034364
v -0.002742 0.002126 0.034845
v 0.014851 -0.021533 -0.023069
v 0.012614 -0.025235 -0.020478
v 0.009563 -0.028465 -0.017701
v 0.005876 -0.031047 -0.014767
v 0.001709 -0.032852 -0.011703
v -0.002159 -0.033819 -0.008539
v -0.006956 -0.033858 -0.005301
v -0.011733 -0.032907 -0.002018
v -0.016187 -0.030992 0.002032
v -0.020065 -0.028247 0.005316
v -0.023247 -0.024838 0.008553
v -0.025632 -0.020891 0.011718
v -0.027205 -0.016488 0.014781
v -0.027832 -0.011947 0.017715
v -0.027498 -0.007540 0.020492
v -0.026259 -0.003506 0.023083
v -0.024218 0.000031 0.025461
v -0.021654 0.001495 0.027604
v -0.018816 0.002585 0.029498
v -0.015503 0.004368 0.031133
v -0.011991 0.005239 0.032497
v -0.008509 0.005168 0.033578
v -0.005265 0.004203 0.034364
v -0.002438 0.002449 0.034845
v 0.013542 -0.019657 -0.025447
v 0.011689 -0.023410 -0.023069
v 0.008982 -0.026768 -0.020478
v 0.005582 -0.029545 -0.017701
v 0.001637 -0.031599 -0.014767
v -0.002103 -0.032852 -0.011703
v -0.006825 -0.033202 -0.008539
v -0.011614 -0.032568 -0.005301
v -0.016187 -0.030992 -0.002018
v -0.020272 -0.028541 0.002032
v -0.023702 -0.025329 0.005316
v -0.026380 -0.021506 0.008553
v -0.028276 -0.017143 0.011718
v -0.029235 -0.012556 0.014781
v -0.029227 -0.008019 0.017715
v -0.028287 -0.003782 0.020492
v -0.026507 0.000031 0.023083
v -0.024160 0.001667 0.025461
v -0.021499 0.002953 0.027604
v -0.018268 0.005151 0.029498
v -0.014748 0.006456 0.031133
v -0.011168 0.006812 0.032497
v -0.007745 0.006245 0.033578
v -0.004660 0.004847 0.034364
v -0.002081 0.002735 0.034845
v 0.012105 -0.017598 -0.027589
v 0.010655 -0.021371 -0.025447
v 0.008319 -0.024833 -0.023069
v 0.005238 -0.027783 -0.020478
v 0.001548 -0.030070 -0.017701
v -0.002030 -0.031599 -0.014767
v -0.006635 -0.032253 -0.011703
v -0.011393 -0.031937 -0.008539
v -0.016023 -0.030673 -0.005301
v -0.020272 -0.028541 -0.002018
v -0.023946 -0.025592 0.002032
v -0.026897 -0.021931 0.005316
v -0.029101 -0.017648 0.008553
v -0.030386 -0.013054 0.011718
v -0.030701 -0.008428 0.014781
v -0.030066 -0.004023 0.017715
v -0.028555 0.000031 0.020492
v -0.026443 0.001822 0.023083
v -0.023987 0.003294 0.025461
v -0.020872 0.005889 0.027604
v -0.017376 0.007616 0.029498
v -0.013732 0.008396 0.031133
v -0.010161 0.008233 0.032497
v -0.006844 0.007203 0.033578
v -0.003950 0.005415 0.034364
v -0.001685 0.002969 0.034845
v 0.010556 -0.015378 -0.029484
v 0.009520 -0.019133 -0.027589
v 0.007578 -0.022670 -0.025447
v 0.004846 -0.025775 -0.023069
v 0.001444 -0.028277 -0.020478
v -0.001942 -0.030070 -0.017701
v -0.006390 -0.031022 -0.014767
v -0.011073 -0.031024 -0.011703
v -0.015717 -0.030078 -0.008539
v -0.020065 -0.028247 -0.005301
v -0.023946 -0.025592 -0.002018
v -0.027174 -0.022159 0.002032
v -0.029672 -0.017997 0.005316
v -0.031274 -0.013439 0.008553
v -0.031910 -0.008764 0.011718
v -0.031583 -0.004229 0.014781
v -0.030351 0.000031 0.017715
v -0.028486 0.001962 0.020492
v -0.026253 0.003605 0.023083
v -0.023287 0.006573 0.025461
v -0.019851 0.008709 0.027604
v -0.016177 0.009908 0.029498
v -0.012489 0.010149 0.031133
v -0.008971 0.009498 0.032497
v -0.005786 0.008049 0.033578
v -0.003160 0.005883 0.034364
v -0.001262 0.003148 0.034845
v 0.008911 -0.013021 -0.031119
v 0.008296 -0.016719 -0.029484
v 0.006765 -0.020295 -0.027589
v 0.004407 -0.023530 -0.025447
v 0.001326 -0.026233 -0.023069
v -0.001838 -0.028277 -0.020478
v -0.006091 -0.029521 -0.017701
v -0.010659 -0.029840 -0.014767
v -0.015273 -0.029219 -0.011703
v -0.019681 -0.027700 -0.008539
v -0.023702 -0.025329 -0.005301
v -0.027174 -0.022159 -0.002018
v -0.029978 -0.018184 0.002032
v -0.031888 -0.013705 0.005316
v -0.032843 -0.009022 0.008553
v -0.032827 -0.004398 0.011718
v -0.031882 0.000031 0.014781
v -0.030278 0.002084 0.017715
v -0.028282 0.003884 0.020492
v -0.025487 0.007197 0.023083
v -0.022147 0.009722 0.025461
v -0.018479 0.011330 0.027604
v -0.014710 0.011977 0.029498
v -0.011021 0.011710 0.031133
v -0.007574 0.010614 0.032497
v -0.004610 0.008746 0.033578
v -0.002319 0.006237 0.034364
v -0.000827 0.003265 0.034845
v 0.007186 -0.010548 -0.032482
v 0.006997 -0.014157 -0.031119
v 0.005888 -0.017736 -0.029484
v 0.003926 -0.021066 -0.027589
v 0.001193 -0.023948 -0.025447
v -0.001719 -0.026233 -0.023069
v -0.005740 -0.027762 -0.020478
v -0.010153 -0.028396 -0.017701
v -0.014699 -0.028103 -0.014767
v -0.019124 -0.026908 -0.011703
v -0.023247 -0.024838 -0.008539
v -0.026897 -0.021931 -0.005301
v -0.029978 -0.018184 -0.002018
v -0.032217 -0.013848 0.002032
v -0.033487 -0.009201 0.005316
v -0.033786 -0.004528 0.008553
v -0.033138 0.000031 0.011718
v -0.031805 0.002188 0.014781
v -0.030060 0.004127 0.017715
v -0.027455 0.007754 0.020492
v -0.024238 0.010646 0.023083
v -0.020615 0.012650 0.025461
v -0.016800 0.013698 0.027604
v -0.012977 0.013820 0.029498
v -0.009298 0.013088 0.031133
v -0.006022 0.011534 0.032497
v -0.003357 0.009274 0.033578
v -0.001452 0.006472 0.034364
v -0.000386 0.003323 0.034845
v 0.005396 -0.007984 -0.033563
v 0.005634 -0.011469 -0.032482
v 0.004957 -0.015018 -0.031119
v 0.003406 -0.018409 -0.029484
v 0.001048 -0.021440 -0.027589
v -0.001587 -0.023948 -0.025447
v -0.005339 -0.025754 -0.023069
v -0.009560 -0.026704 -0.020478
v -0.013998 -0.026744 -0.017701
v -0.018403 -0.025881 -0.014767
v -0.022589 -0.024128 -0.011703
v -0.026380 -0.021506 -0.008539
v -0.029672 -0.017997 -0.005301
v -0.032217 -0.013848 -0.002018
v -0.033833 -0.009297 0.002032
v -0.034449 -0.004618 0.005316
v -0.034107 0.000031 0.008553
v -0.033058 0.002274 0.011718
v -0.031577 0.004336 0.014781
v -0.029181 0.008243 0.017715
v -0.026110 0.011472 0.020492
v -0.022560 0.013852 0.023083
v -0.018740 0.015294 0.025461
v -0.014818 0.015806 0.027604
v -0.010943 0.015446 0.029498
v -0.007384 0.014223 0.031133
v -0.004369 0.012231 0.032497
v -0.002066 0.009624 0.033578
v -0.000574 0.006586 0.034364
v -0.000008 0.003323 0.034845
v 0.003559 -0.005350 -0.034350
v 0.004221 -0.008681 -0.033563
v 0.003981 -0.012167 -0.032482
v 0.002855 -0.015588 -0.031119
v 0.000891 -0.018737 -0.029484
v -0.001441 -0.021440 -0.027589
v -0.004892 -0.023511 -0.025447
v -0.008884 -0.024773 -0.023069
v -0.013176 -0.025149 -0.020478
v -0.017523 -0.024628 -0.017701
v -0.021735 -0.023207 -0.014767
v -0.025632 -0.020891 -0.011703
v -0.029101 -0.017648 -0.008539
v -0.031888 -0.013705 -0.005301
v -0.033833 -0.009297 -0.002018
v 0.001689 -0.002671 -0.034830
v 0.002769 -0.005819 -0.034350
v 0.002968 -0.009210 -0.033563
v 0.002277 -0.012629 -0.032482
v 0.000725 -0.015865 -0.031119
v -0.001285 -0.018737 -0.029484
v -0.004401 -0.021049 -0.027589
v -0.008128 -0.022615 -0.025447
v -0.012239 -0.023331 -0.023069
v -0.016491 -0.023160 -0.020478
v -0.020694 -0.022084 -0.017701
v -0.024662 -0.020093 -0.014767
v -0.028276 -0.017143 -0.011703
v -0.031274 -0.013439 -0.008539
v -0.033487 -0.009201 -0.005301
v -0.034805 -0.004666 -0.002018
v -0.035197 0.000031 0.000007
v -0.035050 0.002410 0.002032
v -0.034443 0.004729 0.005316
v -0.032791 0.009266 0.008553
v -0.030297 0.013321 0.011718
v -0.027129 0.016676 0.014781
v -0.023474 0.019191 0.017715
v -0.019473 0.020829 0.020492
v -0.015235 0.021603 0.023083
v -0.011038 0.021439 0.025461
v -0.007149 0.020361 0.027604
v -0.003791 0.018473 0.029498
v -0.001111 0.015928 0.031133
v 0.000544 0.012917 0.032497
v 0.001710 0.009616 0.033578
v 0.001968 0.006222 0.034364
v 0.001311 0.002959 0.034845
v 0.001293 -0.002906 -0.034830
v 0.001928 -0.006174 -0.034350
v 0.001677 -0.009560 -0.033563
v 0.000550 -0.012854 -0.032482
v -0.001118 -0.015865 -0.031119
v -0.003872 -0.018395 -0.029484
v -0.007299 -0.020247 -0.027589
v -0.011191 -0.021298 -0.025447
v -0.015314 -0.021485 -0.023069
v -0.019473 -0.020767 -0.020478
v -0.023480 -0.019120 -0.017701
v -0.027205 -0.016488 -0.014767
v -0.030386 -0.013054 -0.011703
v -0.032843 -0.009022 -0.008539
v -0.034449 -0.004618 -0.005301
v -0.035135 0.000031 -0.002018
v -0.035112 0.002414 0.000007
v -0.034798 0.004777 0.002032
v -0.033435 0.009449 0.005316
v -0.031182 0.013712 0.008553
v -0.028196 0.017336 0.011718
v -0.024656 0.020164 0.014781
v -0.020694 0.022146 0.017715
v -0.016405 0.023282 0.020492
v -0.012071 0.023478 0.023083
v -0.007961 0.022736 0.025461
v -0.004309 0.021130 0.027604
v -0.001276 0.018800 0.029498
v 0.000717 0.015928 0.031133
v 0.002320 0.012683 0.032497
v 0.003028 0.009252 0.033578
v 0.002806 0.005863 0.034364
v 0.001696 0.002728 0.034845
f 1 2 3
f 4 5 6
f 7 8 9
f 10 11 12
f 13 14 15
f 16 17 18
f 19 20 21
f 22 23 24
f 25 26 27
f 28 29 30
f 31 14 32
f 33 34 35
f 36 37 38
f 39 40 41
f 42 43 44
f 45 46 47
f 48 49 50
f 51 52 53
f 54 55 56
f 2 57 58
f 58 57 59
f 58 59 60
f 60 59 61
f 60 61 62
f 62 61 63
f 62 63 64
f 64 63 65
f 64 65 66
f 66 65 67
f 66 67 68
f 68 67 69
f 68 69 70
f 70 69 71
f 70 71 72
f 72 71 73
f 72 73 74
f 74 73 75
f 74 75 76
f 76 75 77
f 76 77 78
f 78 77 79
f 78 79 80
f 80 79 81
f 80 81 82
f 82 81 83
f 82 83 84
f 84 83 85
f 84 85 86
f 86 85 87
f 86 87 88
f 53 89 54
f 50 90 51
f 47 91 48
f 44 92 45
f 41 93 42
f 38 94 39
f 35 95 36
f 96 3 97
f 2 98 97
f 97 98 99
f 97 99 96
f 96 99 100
f 2 101 98
f 98 101 102
f 98 102 99
f 99 102 103
f 99 103 100
f 100 103 104
f 2 105 101
f 101 105 106
f 101 106 102
f 102 106 107
f 102 107 103
f 103 107 108
f 103 108 104
f 104 108 109
f 2 110 105
f 105 110 111
f 105 111 106
f 106 111 112
f 106 112 107
f 107 112 113
f 107 113 108
f 108 113 114
f 108 114 109
f 109 114 115
f 2 116 110
f 110 116 117
f 110 117 111
f 111 117 118
f 111 118 112
f 112 118 119
f 112 119 113
f 113 119 120
f 113 120 114
f 114 120 121
f 114 121 115
f 115 121 122
f 2 123 116
f 116 123 124
f 116 124 117
f 117 124 125
f 117 125 118
f 118 125 126
f 118 126 119
f 119 126 127
f 119 127 120
f 120 127 128
f 120 128 121
f 121 128 129
f 121 129 122
f 122 129 130
f 2 131 123
f 123 131 132
f 123 132 124
f 124 132 133
f 124 133 125
f 125 133 134
f 125 134 126
f 126 134 135
f 126 135 127
f 127 135 136
f 127 136 128
f 128 136 137
f 128 137 129
f 129 137 138
f 129 138 130
f 130 138 139
f 2 140 131
f 131 140 141
f 131 141 132
f 132 141 142
f 132 142 133
f 133 142 143
f 133 143 134
f 134 143 144
f 134 144 135
f 135 144 145
f 135 145 136
f 136 145 146
f 136 146 137
f 137 146 147
f 137 147 138
f 138 147 148
f 138 148 139
f 139 148 149
f 2 150 140
f 140 150 151
f 140 151 141
f 141 151 152
f 141 152 142
f 142 152 153
f 142 153 143
f 143 153 154
f 143 154 144
f 144 154 155
f 144 155 145
f 145 155 156
f 145 156 146
f 146 156 157
f 146 157 147
f 147 157 158
f 147 158 148
f 148 158 159
f 148 159 149
f 149 159 160
f 2 161 150
f 150 161 162
f 150 162 151
f 151 162 163
f 151 163 152
f 152 163 164
f 152 164 153
f 153 164 165
f 153 165 154
f 154 165 166
f 154 166 155
f 155 166 167
f 155 167 156
f 156 167 168
f 156 168 157
f 157 168 169
f 157 169 158
f 158 169 170
f 158 170 159
f 159 170 171
f 159 171 160
f 160 171 172
f 2 173 161
f 161 173 174
f 161 174 162
f 162 174 175
f 162 175 163
f 163 175 176
f 163 176 164
f 164 176 177
f 164 177 165
f 165 177 178
f 165 178 166
f 166 178 179
f 166 179 167
f 167 179 180
f 167 180 168
f 168 180 181
f 168 181 169
f 169 181 182
f 169 182 170
f 170 182 183
f 170 183 171
f 171 183 184
f 171 184 172
f 172 184 185
f 2 186 173
f 173 186 187
f 173 187 174
f 174 187 188
f 174 188 175
f 175 188 189
f 175 189 176
f 176 189 190
f 176 190 177
f 177 190 191
f 177 191 178
f 178 191 192
f 178 192 179
f 179 192 193
f 179 193 180
f 180 193 194
f 180 194 181
f 181 194 195
f 181 195 182
f 182 195 196
f 182 196 183
f 183 196 197
f 183 197 184
f 184 197 198
f 184 198 185
f 185 198 199
f 2 200 186
f 186 200 201
f 186 201 187
f 187 201 202
f 187 202 188
f 188 202 203
f 188 203 189
f 189 203 204
f 189 204 190
f 190 204 205
f 190 205 191
f 191 205 206
f 191 206 192
f 192 206 207
f 192 207 193
f 193 207 208
f 193 208 194
f 194 208 209
f 194 209 195
f 195 209 210
f 195 210 196
f 196 210 211
f 196 211 197
f 197 211 212
f 197 212 198
f 198 212 213
f 198 213 199
f 199 213 214
f 2 215 200
f 200 215 216
f 200 216 201
f 201 216 217
f 201 217 202
f 202 217 218
f 202 218 203
f 203 218 219
f 203 219 204
f 204 219 220
f 204 220 205
f 205 220 221
f 205 221 206
f 206 221 222
f 206 222 207
f 207 222 223
f 207 223 208
f 208 223 224
f 208 224 209
f 209 224 225
f 209 225 210
f 210 225 226
f 210 226 211
f 211 226 227
f 211 227 212
f 212 227 228
f 212 228 213
f 213 228 229
f 213 229 214
f 214 229 230
f 2 231 215
f 215 231 232
f 215 232 216
f 216 232 233
f 216 233 217
f 217 233 234
f 217 234 218
f 218 234 235
f 218 235 219
f 219 235 236
f 219 236 220
f 220 236 237
f 220 237 221
f 221 237 238
f 221 238 222
f 222 238 239
f 222 239 223
f 223 239 240
f 223 240 224
f 224 240 241
f 224 241 225
f 225 241 242
f 225 242 226
f 226 242 243
f 226 243 227
f 227 243 244
f 227 244 228
f 228 244 245
f 228 245 229
f 229 245 246
f 229 246 230
f 230 246 247
f 31 32 30
f 30 29 31
f 31 29 248
f 31 248 14
f 249 14 248
f 249 248 250
f 250 248 29
f 250 29 251
f 251 29 28
f 251 28 27
f 27 26 251
f 251 26 252
f 251 252 250
f 250 252 253
f 250 253 249
f 249 253 254
f 249 254 14
f 24 255 25
f 25 255 26
f 26 255 256
f 26 256 252
f 252 256 257
f 252 257 253
f 253 257 258
f 253 258 254
f 254 258 259
f 254 259 14
f 24 23 255
f 255 23 260
f 255 260 256
f 256 260 261
f 256 261 257
f 257 261 262
f 257 262 258
f 258 262 263
f 258 263 259
f 259 263 264
f 259 264 14
f 265 14 264
f 265 264 266
f 266 264 263
f 266 263 267
f 267 263 262
f 267 262 268
f 268 262 261
f 268 261 269
f 269 261 260
f 269 260 270
f 270 260 23
f 270 23 271
f 271 23 22
f 271 22 21
f 21 20 271
f 271 20 272
f 271 272 270
f 270 272 273
f 270 273 269
f 269 273 274
f 269 274 268
f 268 274 275
f 268 275 267
f 267 275 276
f 267 276 266
f 266 276 277
f 266 277 265
f 265 277 278
f 265 278 14
f 18 279 19
f 14 280 281
f 281 280 282
f 281 282 283
f 283 282 284
f 283 284 285
f 285 284 286
f 285 286 287
f 287 286 288
f 287 288 289
f 289 288 290
f 289 290 291
f 291 290 292
f 291 292 293
f 293 292 294
f 293 294 295
f 295 294 296
f 295 296 297
f 297 296 298
f 297 298 299
f 299 298 300
f 299 300 301
f 301 300 302
f 301 302 303
f 303 302 304
f 19 279 20
f 20 279 305
f 20 305 272
f 272 305 306
f 272 306 273
f 273 306 307
f 273 307 274
f 274 307 308
f 274 308 275
f 275 308 309
f 275 309 276
f 276 309 310
f 276 310 277
f 277 310 311
f 277 311 278
f 278 311 312
f 278 312 14
f 18 17 279
f 279 17 313
f 279 313 305
f 305 313 314
f 305 314 306
f 306 314 315
f 306 315 307
f 307 315 316
f 307 316 308
f 308 316 317
f 308 317 309
f 309 317 318
f 309 318 310
f 310 318 319
f 310 319 311
f 311 319 320
f 311 320 312
f 312 320 321
f 312 321 14
f 322 14 321
f 13 15 12
f 12 11 13
f 13 11 323
f 13 323 14
f 324 14 323
f 324 323 325
f 325 323 11
f 325 11 326
f 326 11 10
f 326 10 9
f 9 8 326
f 326 8 327
f 326 327 325
f 325 327 328
f 325 328 324
f 324 328 329
f 324 329 14
f 14 330 331
f 331 330 332
f 331 332 333
f 333 332 334
f 333 334 335
f 335 334 336
f 335 336 337
f 337 336 338
f 337 338 339
f 339 338 340
f 339 340 341
f 341 340 342
f 341 342 343
f 343 342 344
f 343 344 345
f 345 344 346
f 347 348 7
f 7 348 8
f 8 348 349
f 8 349 327
f 327 349 350
f 327 350 328
f 328 350 351
f 328 351 329
f 329 351 352
f 329 352 14
f 14 353 330
f 330 353 354
f 330 354 332
f 332 354 355
f 332 355 334
f 334 355 356
f 334 356 336
f 336 356 357
f 336 357 338
f 338 357 358
f 338 358 340
f 340 358 359
f 340 359 342
f 342 359 360
f 342 360 344
f 344 360 361
f 344 361 346
f 346 361 6
f 345 362 343
f 343 362 363
f 343 363 341
f 341 363 364
f 341 364 339
f 339 364 365
f 339 365 337
f 337 365 366
f 337 366 335
f 335 366 367
f 335 367 333
f 333 367 368
f 333 368 331
f 331 368 14
f 14 369 370
f 370 369 371
f 370 371 372
f 372 371 373
f 372 373 374
f 374 373 375
f 374 375 376
f 376 375 377
f 376 377 378
f 378 377 379
f 378 379 380
f 380 379 381
f 380 381 382
f 382 381 383
f 382 383 384
f 384 383 385
f 384 385 386
f 386 385 387
f 386 387 388
f 388 387 389
f 388 389 390
f 390 389 391
f 390 391 392
f 392 391 393
f 392 393 394
f 394 393 395
f 394 395 396
f 396 395 397
f 396 304 394
f 394 304 302
f 394 302 392
f 392 302 300
f 392 300 390
f 390 300 298
f 390 298 388
f 388 298 296
f 388 296 386
f 386 296 294
f 386 294 384
f 384 294 292
f 384 292 382
f 382 292 290
f 382 290 380
f 380 290 288
f 380 288 378
f 378 288 286
f 378 286 376
f 376 286 284
f 376 284 374
f 374 284 282
f 374 282 372
f 372 282 280
f 372 280 370
f 370 280 14
f 303 16 301
f 301 16 18
f 301 18 299
f 299 18 19
f 299 19 297
f 297 19 21
f 297 21 295
f 295 21 22
f 295 22 293
f 293 22 24
f 293 24 291
f 291 24 25
f 291 25 289
f 289 25 27
f 289 27 287
f 287 27 28
f 287 28 285
f 285 28 30
f 285 30 283
f 283 30 32
f 283 32 281
f 281 32 14
f 398 5 399
f 399 5 400
f 399 400 401
f 401 400 402
f 401 402 403
f 403 402 404
f 403 404 405
f 405 404 406
f 405 406 407
f 407 406 408
f 407 408 409
f 409 408 410
f 409 410 411
f 411 410 412
f 411 412 413
f 413 412 414
f 413 414 415
f 415 414 416
f 415 416 417
f 417 416 418
f 417 418 419
f 419 418 420
f 419 420 421
f 421 420 422
f 421 422 423
f 423 422 424
f 423 424 425
f 425 424 426
f 425 426 427
f 427 426 428
f 427 428 429
f 429 428 430
f 429 430 431
f 431 430 432
f 431 432 433
f 433 432 434
f 433 434 435
f 435 434 436
f 435 436 437
f 437 436 438
f 437 438 439
f 439 438 440
f 439 440 441
f 441 440 442
f 441 442 443
f 443 442 2
f 56 444 445
f 446 247 447
f 447 247 246
f 447 246 448
f 448 246 245
f 448 245 449
f 449 245 244
f 449 244 450
f 450 244 243
f 450 243 451
f 451 243 242
f 451 242 452
f 452 242 241
f 452 241 453
f 453 241 240
f 453 240 454
f 454 240 239
f 454 239 455
f 455 239 238
f 455 238 456
f 456 238 237
f 456 237 457
f 457 237 236
f 457 236 458
f 458 236 235
f 458 235 459
f 459 235 234
f 459 234 460
f 460 234 233
f 460 233 461
f 461 233 232
f 461 232 462
f 462 232 231
f 462 231 463
f 463 231 2
f 5 4 400
f 400 4 464
f 400 464 402
f 402 464 465
f 402 465 404
f 404 465 466
f 404 466 406
f 406 466 467
f 406 467 408
f 408 467 468
f 408 468 410
f 469 398 470
f 470 398 399
f 470 399 471
f 471 399 401
f 471 401 472
f 472 401 403
f 472 403 473
f 473 403 405
f 473 405 474
f 474 405 407
f 474 407 475
f 475 407 409
f 475 409 476
f 476 409 411
f 476 411 477
f 477 411 413
f 477 413 478
f 478 413 415
f 478 415 479
f 479 415 417
f 479 417 480
f 480 417 419
f 480 419 481
f 481 419 421
f 481 421 482
f 482 421 423
f 482 423 483
f 483 423 425
f 483 425 484
f 484 425 427
f 484 427 485
f 485 427 429
f 485 429 486
f 486 429 431
f 486 431 487
f 487 431 433
f 487 433 488
f 488 433 435
f 488 435 489
f 489 435 437
f 489 437 490
f 490 437 439
f 490 439 491
f 491 439 441
f 491 441 492
f 492 441 443
f 492 443 493
f 493 443 2
f 494 469 495
f 495 469 470
f 495 470 496
f 496 470 471
f 496 471 497
f 497 471 472
f 497 472 498
f 498 472 473
f 498 473 499
f 499 473 474
f 499 474 500
f 500 474 475
f 500 475 501
f 501 475 476
f 501 476 502
f 502 476 477
f 502 477 503
f 503 477 478
f 503 478 504
f 504 478 479
f 504 479 505
f 505 479 480
f 505 480 506
f 506 480 481
f 506 481 507
f 507 481 482
f 507 482 508
f 508 482 483
f 508 483 509
f 509 483 484
f 509 484 510
f 510 484 485
f 510 485 511
f 511 485 486
f 511 486 512
f 512 486 487
f 512 487 513
f 513 487 488
f 513 488 514
f 514 488 489
f 514 489 515
f 515 489 490
f 515 490 516
f 516 490 491
f 516 491 517
f 517 491 492
f 517 492 518
f 518 492 493
f 518 493 519
f 519 493 2
f 520 494 521
f 521 494 495
f 521 495 522
f 522 495 496
f 522 496 523
f 523 496 497
f 523 497 524
f 524 497 498
f 524 498 525
f 525 498 499
f 525 499 526
f 526 499 500
f 526 500 527
f 527 500 501
f 527 501 528
f 528 501 502
f 528 502 529
f 529 502 503
f 529 503 530
f 530 503 504
f 530 504 531
f 531 504 505
f 531 505 532
f 532 505 506
f 532 506 533
f 533 506 507
f 533 507 534
f 534 507 508
f 534 508 535
f 535 508 509
f 535 509 536
f 536 509 510
f 536 510 537
f 537 510 511
f 537 511 538
f 538 511 512
f 538 512 539
f 539 512 513
f 539 513 540
f 540 513 514
f 540 514 541
f 541 514 515
f 541 515 542
f 542 515 516
f 542 516 543
f 543 516 517
f 543 517 544
f 544 517 518
f 544 518 545
f 545 518 519
f 545 519 546
f 546 519 2
f 547 520 548
f 548 520 521
f 548 521 549
f 549 521 522
f 549 522 550
f 550 522 523
f 550 523 551
f 551 523 524
f 551 524 552
f 552 524 525
f 552 525 553
f 553 525 526
f 553 526 554
f 554 526 527
f 554 527 555
f 555 527 528
f 555 528 556
f 556 528 529
f 556 529 557
f 557 529 530
f 557 530 558
f 558 530 531
f 558 531 559
f 559 531 532
f 559 532 560
f 560 532 533
f 560 533 561
f 561 533 534
f 561 534 562
f 562 534 535
f 562 535 563
f 563 535 536
f 563 536 564
f 564 536 537
f 564 537 565
f 565 537 538
f 565 538 566
f 566 538 539
f 566 539 567
f 567 539 540
f 567 540 568
f 568 540 541
f 568 541 569
f 569 541 542
f 569 542 570
f 570 542 543
f 570 543 571
f 571 543 544
f 571 544 572
f 572 544 545
f 572 545 573
f 573 545 546
f 573 546 574
f 574 546 2
f 575 547 576
f 576 547 548
f 576 548 577
f 577 548 549
f 577 549 578
f 578 549 550
f 578 550 579
f 579 550 551
f 579 551 580
f 580 551 552
f 580 552 581
f 581 552 553
f 581 553 582
f 582 553 554
f 582 554 583
f 583 554 555
f 583 555 584
f 584 555 556
f 584 556 585
f 585 556 557
f 585 557 586
f 586 557 558
f 586 558 587
f 587 558 559
f 587 559 588
f 588 559 560
f 588 560 589
f 589 560 561
f 589 561 590
f 590 561 562
f 590 562 591
f 591 562 563
f 591 563 592
f 592 563 564
f 592 564 593
f 593 564 565
f 593 565 594
f 594 565 566
f 594 566 595
f 595 566 567
f 595 567 596
f 596 567 568
f 596 568 597
f 597 568 569
f 597 569 598
f 598 569 570
f 598 570 599
f 599 570 571
f 599 571 600
f 600 571 572
f 600 572 601
f 601 572 573
f 601 573 602
f 602 573 574
f 602 574 603
f 603 574 2
f 604 575 605
f 605 575 576
f 605 576 606
f 606 576 577
f 606 577 607
f 607 577 578
f 607 578 608
f 608 578 579
f 608 579 609
f 609 579 580
f 609 580 610
f 610 580 581
f 610 581 611
f 611 581 582
f 611 582 612
f 612 582 583
f 612 583 613
f 613 583 584
f 613 584 614
f 614 584 585
f 614 585 615
f 615 585 586
f 615 586 616
f 616 586 587
f 616 587 617
f 617 587 588
f 617 588 618
f 618 588 589
f 618 589 619
f 619 589 590
f 619 590 620
f 620 590 591
f 620 591 621
f 621 591 592
f 621 592 622
f 622 592 593
f 622 593 623
f 623 593 594
f 623 594 624
f 624 594 595
f 624 595 625
f 625 595 596
f 625 596 626
f 626 596 597
f 626 597 627
f 627 597 598
f 627 598 628
f 628 598 599
f 628 599 629
f 629 599 600
f 629 600 630
f 630 600 601
f 630 601 631
f 631 601 602
f 631 602 632
f 632 602 603
f 632 603 633
f 633 603 2
f 634 604 635
f 635 604 605
f 635 605 636
f 636 605 606
f 636 606 637
f 637 606 607
f 637 607 638
f 638 607 608
f 638 608 639
f 639 608 609
f 639 609 640
f 640 609 610
f 640 610 641
f 641 610 611
f 641 611 642
f 642 611 612
f 642 612 643
f 643 612 613
f 643 613 644
f 644 613 614
f 644 614 645
f 645 614 615
f 645 615 646
f 646 615 616
f 646 616 647
f 647 616 617
f 647 617 648
f 648 617 618
f 648 618 649
f 649 618 619
f 649 619 650
f 650 619 620
f 650 620 651
f 651 620 621
f 651 621 652
f 652 621 622
f 652 622 653
f 653 622 623
f 653 623 654
f 654 623 624
f 654 624 655
f 655 624 625
f 655 625 656
f 656 625 626
f 656 626 657
f 657 626 627
f 657 627 658
f 658 627 628
f 658 628 659
f 659 628 629
f 659 629 660
f 660 629 630
f 660 630 661
f 661 630 631
f 661 631 662
f 662 631 632
f 662 632 663
f 663 632 633
f 663 633 664
f 664 633 2
f 665 634 666
f 666 634 635
f 666 635 667
f 667 635 636
f 667 636 668
f 668 636 637
f 668 637 669
f 669 637 638
f 669 638 670
f 670 638 639
f 670 639 671
f 671 639 640
f 671 640 672
f 672 640 641
f 672 641 673
f 673 641 642
f 673 642 674
f 674 642 643
f 674 643 675
f 675 643 644
f 675 644 676
f 676 644 645
f 676 645 677
f 677 645 646
f 677 646 678
f 678 646 647
f 678 647 679
f 679 647 648
f 679 648 680
f 680 648 649
f 680 649 681
f 681 649 650
f 681 650 682
f 682 650 651
f 682 651 683
f 683 651 652
f 683 652 684
f 684 652 653
f 684 653 685
f 685 653 654
f 685 654 686
f 686 654 655
f 686 655 687
f 687 655 656
f 687 656 688
f 688 656 657
f 688 657 689
f 689 657 658
f 689 658 690
f 690 658 659
f 690 659 691
f 691 659 660
f 691 660 692
f 692 660 661
f 692 661 693
f 693 661 662
f 693 662 694
f 694 662 663
f 694 663 695
f 695 663 664
f 695 664 696
f 696 664 2
f 14 665 697
f 697 665 666
f 697 666 698
f 698 666 667
f 698 667 699
f 699 667 668
f 699 668 700
f 700 668 669
f 700 669 701
f 701 669 670
f 701 670 702
f 702 670 671
f 702 671 703
f 703 671 672
f 703 672 704
f 704 672 673
f 704 673 705
f 705 673 674
f 705 674 706
f 706 674 675
f 706 675 707
f 707 675 676
f 707 676 708
f 708 676 677
f 708 677 709
f 709 677 678
f 709 678 710
f 710 678 679
f 710 679 711
f 711 679 680
f 711 680 712
f 712 680 681
f 712 681 713
f 713 681 682
f 713 682 714
f 714 682 683
f 714 683 715
f 715 683 684
f 715 684 716
f 716 684 685
f 716 685 717
f 717 685 686
f 717 686 718
f 718 686 687
f 718 687 719
f 719 687 688
f 719 688 720
f 720 688 689
f 720 689 721
f 721 689 690
f 721 690 722
f 722 690 691
f 722 691 723
f 723 691 692
f 723 692 724
f 724 692 693
f 724 693 725
f 725 693 694
f 725 694 726
f 726 694 695
f 726 695 727
f 727 695 696
f 727 696 728
f 728 696 2
f 322 321 729
f 729 321 320
f 729 320 730
f 730 320 319
f 730 319 731
f 731 319 318
f 731 318 732
f 732 318 317
f 732 317 733
f 733 317 316
f 733 316 734
f 734 316 315
f 734 315 735
f 735 315 314
f 735 314 736
f 736 314 313
f 736 313 737
f 737 313 17
f 737 17 738
f 738 17 16
f 738 16 739
f 739 16 303
f 739 303 740
f 740 303 304
f 740 304 741
f 741 304 396
f 741 396 742
f 742 396 397
f 742 397 445
f 445 444 742
f 742 444 743
f 742 743 741
f 741 743 744
f 741 744 740
f 740 744 745
f 740 745 739
f 739 745 746
f 739 746 738
f 738 746 747
f 738 747 737
f 737 747 748
f 737 748 736
f 736 748 749
f 736 749 735
f 735 749 750
f 735 750 734
f 734 750 751
f 734 751 733
f 733 751 752
f 733 752 732
f 732 752 753
f 732 753 731
f 731 753 754
f 731 754 730
f 730 754 755
f 730 755 729
f 729 755 756
f 729 756 322
f 322 756 757
f 322 757 14
f 56 55 444
f 444 55 758
f 444 758 743
f 743 758 759
f 743 759 744
f 744 759 760
f 744 760 745
f 745 760 761
f 745 761 746
f 746 761 762
f 746 762 747
f 747 762 763
f 747 763 748
f 748 763 764
f 748 764 749
f 749 764 765
f 749 765 750
f 750 765 766
f 750 766 751
f 751 766 767
f 751 767 752
f 752 767 768
f 752 768 753
f 753 768 769
f 753 769 754
f 754 769 770
f 754 770 755
f 755 770 771
f 755 771 756
f 756 771 772
f 756 772 757
f 757 772 773
f 757 773 14
f 54 89 55
f 55 89 774
f 55 774 758
f 758 774 775
f 758 775 759
f 759 775 776
f 759 776 760
f 760 776 777
f 760 777 761
f 761 777 778
f 761 778 762
f 762 778 779
f 762 779 763
f 763 779 780
f 763 780 764
f 764 780 781
f 764 781 765
f 765 781 782
f 765 782 766
f 766 782 783
f 766 783 767
f 767 783 784
f 767 784 768
f 768 784 785
f 768 785 769
f 769 785 786
f 769 786 770
f 770 786 787
f 770 787 771
f 771 787 788
f 771 788 772
f 772 788 789
f 772 789 773
f 773 789 790
f 773 790 14
f 53 52 89
f 89 52 791
f 89 791 774
f 774 791 792
f 774 792 775
f 775 792 793
f 775 793 776
f 776 793 794
f 776 794 777
f 777 794 795
f 777 795 778
f 778 795 796
f 778 796 779
f 779 796 797
f 779 797 780
f 780 797 798
f 780 798 781
f 781 798 799
f 781 799 782
f 782 799 800
f 782 800 783
f 783 800 801
f 783 801 784
f 784 801 802
f 784 802 785
f 785 802 803
f 785 803 786
f 786 803 804
f 786 804 787
f 787 804 805
f 787 805 788
f 788 805 806
f 788 806 789
f 789 806 807
f 789 807 790
f 790 807 808
f 790 808 14
f 51 90 52
f 52 90 809
f 52 809 791
f 791 809 810
f 791 810 792
f 792 810 811
f 792 811 793
f 793 811 812
f 793 812 794
f 794 812 813
f 794 813 795
f 795 813 814
f 795 814 796
f 796 814 815
f 796 815 797
f 797 815 816
f 797 816 798
f 798 816 817
f 798 817 799
f 799 817 818
f 799 818 800
f 800 818 819
f 800 819 801
f 801 819 820
f 801 820 802
f 802 820 821
f 802 821 803
f 803 821 822
f 803 822 804
f 804 822 823
f 804 823 805
f 805 823 824
f 805 824 806
f 806 824 825
f 806 825 807
f 807 825 826
f 807 826 808
f 808 826 827
f 808 827 14
f 50 49 90
f 90 49 828
f 90 828 809
f 809 828 829
f 809 829 810
f 810 829 830
f 810 830 811
f 811 830 831
f 811 831 812
f 812 831 832
f 812 832 813
f 813 832 833
f 813 833 814
f 814 833 834
f 814 834 815
f 815 834 835
f 815 835 816
f 816 835 836
f 816 836 817
f 817 836 837
f 817 837 818
f 818 837 838
f 818 838 819
f 819 838 839
f 819 839 820
f 820 839 840
f 820 840 821
f 821 840 841
f 821 841 822
f 822 841 842
f 822 842 823
f 823 842 843
f 823 843 824
f 824 843 844
f 824 844 825
f 825 844 845
f 825 845 826
f 826 845 846
f 826 846 827
f 827 846 847
f 827 847 14
f 48 91 49
f 49 91 848
f 49 848 828
f 828 848 849
f 828 849 829
f 829 849 850
f 829 850 830
f 830 850 851
f 830 851 831
f 831 851 852
f 831 852 832
f 832 852 853
f 832 853 833
f 833 853 854
f 833 854 834
f 834 854 855
f 834 855 835
f 835 855 856
f 835 856 836
f 836 856 857
f 836 857 837
f 837 857 858
f 837 858 838
f 838 858 859
f 838 859 839
f 839 859 860
f 839 860 840
f 840 860 861
f 840 861 841
f 841 861 862
f 841 862 842
f 842 862 863
f 842 863 843
f 843 863 864
f 843 864 844
f 844 864 865
f 844 865 845
f 845 865 866
f 845 866 846
f 846 866 867
f 846 867 847
f 847 867 868
f 847 868 14
f 47 46 91
f 91 46 869
f 91 869 848
f 848 869 870
f 848 870 849
f 849 870 871
f 849 871 850
f 850 871 872
f 850 872 851
f 851 872 873
f 851 873 852
f 852 873 874
f 852 874 853
f 853 874 875
f 853 875 854
f 854 875 876
f 854 876 855
f 855 876 877
f 855 877 856
f 856 877 878
f 856 878 857
f 857 878 879
f 857 879 858
f 858 879 880
f 858 880 859
f 859 880 881
f 859 881 860
f 860 881 882
f 860 882 861
f 861 882 883
f 861 883 862
f 862 883 884
f 862 884 863
f 863 884 885
f 863 885 864
f 864 885 886
f 864 886 865
f 865 886 887
f 865 887 866
f 866 887 888
f 866 888 867
f 867 888 889
f 867 889 868
f 868 889 890
f 868 890 14
f 45 92 46
f 46 92 891
f 46 891 869
f 869 891 892
f 869 892 870
f 870 892 893
f 870 893 871
f 871 893 894
f 871 894 872
f 872 894 895
f 872 895 873
f 873 895 896
f 873 896 874
f 874 896 897
f 874 897 875
f 875 897 898
f 875 898 876
f 876 898 899
f 876 899 877
f 877 899 900
f 877 900 878
f 878 900 901
f 878 901 879
f 879 901 902
f 879 902 880
f 880 902 903
f 880 903 881
f 881 903 904
f 881 904 882
f 882 904 905
f 882 905 883
f 883 905 906
f 883 906 884
f 884 906 907
f 884 907 885
f 885 907 908
f 885 908 886
f 886 908 909
f 886 909 887
f 887 909 910
f 887 910 888
f 888 910 911
f 888 911 889
f 889 911 912
f 889 912 890
f 890 912 913
f 890 913 14
f 44 43 92
f 92 43 914
f 92 914 891
f 891 914 915
f 891 915 892
f 892 915 916
f 892 916 893
f 893 916 917
f 893 917 894
f 894 917 918
f 894 918 895
f 895 918 919
f 895 919 896
f 896 919 920
f 896 920 897
f 897 920 921
f 897 921 898
f 898 921 922
f 898 922 899
f 899 922 923
f 899 923 900
f 900 923 924
f 900 924 901
f 901 924 925
f 901 925 902
f 902 925 926
f 902 926 903
f 903 926 927
f 903 927 904
f 904 927 928
f 904 928 905
f 905 928 929
f 905 929 906
f 906 929 930
f 906 930 907
f 907 930 931
f 907 931 908
f 908 931 932
f 908 932 909
f 909 932 933
f 909 933 910
f 910 933 934
f 910 934 911
f 911 934 935
f 911 935 912
f 912 935 936
f 912 936 913
f 913 936 937
f 913 937 14
f 42 93 43
f 43 93 938
f 43 938 914
f 914 938 939
f 914 939 915
f 915 939 940
f 915 940 916
f 916 940 941
f 916 941 917
f 917 941 942
f 917 942 918
f 918 942 943
f 918 943 919
f 919 943 944
f 919 944 920
f 920 944 945
f 920 945 921
f 921 945 946
f 921 946 922
f 922 946 947
f 922 947 923
f 923 947 948
f 923 948 924
f 924 948 949
f 924 949 925
f 925 949 950
f 925 950 926
f 926 950 951
f 926 951 927
f 927 951 952
f 927 952 928
f 928 952 953
f 928 953 929
f 929 953 954
f 929 954 930
f 930 954 955
f 930 955 931
f 931 955 956
f 931 956 932
f 932 956 957
f 932 957 933
f 933 957 958
f 933 958 934
f 934 958 959
f 934 959 935
f 935 959 960
f 935 960 936
f 936 960 961
f 936 961 937
f 937 961 962
f 937 962 14
f 41 40 93
f 93 40 963
f 93 963 938
f 938 963 964
f 938 964 939
f 939 964 965
f 939 965 940
f 940 965 966
f 940 966 941
f 941 966 967
f 941 967 942
f 942 967 968
f 942 968 943
f 943 968 969
f 943 969 944
f 944 969 970
f 944 970 945
f 945 970 971
f 945 971 946
f 946 971 972
f 946 972 947
f 947 972 973
f 947 973 948
f 948 973 974
f 948 974 949
f 949 974 975
f 949 975 950
f 950 975 976
f 950 976 951
f 951 976 977
f 951 977 952
f 952 977 978
f 952 978 953
f 953 978 979
f 953 979 954
f 954 979 980
f 954 980 955
f 955 980 981
f 955 981 956
f 956 981 982
f 956 982 957
f 957 982 983
f 957 983 958
f 958 983 984
f 958 984 959
f 959 984 985
f 959 985 960
f 960 985 986
f 960 986 961
f 961 986 987
f 961 987 962
f 962 987 988
f 962 988 14
f 39 94 40
f 40 94 989
f 40 989 963
f 963 989 990
f 963 990 964
f 964 990 991
f 964 991 965
f 965 991 992
f 965 992 966
f 966 992 993
f 966 993 967
f 967 993 994
f 967 994 968
f 968 994 995
f 968 995 969
f 969 995 996
f 969 996 970
f 970 996 997
f 970 997 971
f 971 997 998
f 971 998 972
f 972 998 999
f 972 999 973
f 973 999 1000
f 973 1000 974
f 974 1000 1001
f 974 1001 975
f 975 1001 1002
f 975 1002 976
f 976 1002 1003
f 976 1003 977
f 977 1003 1004
f 977 1004 978
f 978 1004 1005
f 978 1005 979
f 979 1005 1006
f 979 1006 980
f 980 1006 1007
f 980 1007 981
f 981 1007 1008
f 981 1008 982
f 982 1008 1009
f 982 1009 983
f 983 1009 1010
f 983 1010 984
f 984 1010 1011
f 984 1011 985
f 985 1011 1012
f 985 1012 986
f 986 1012 1013
f 986 1013 987
f 987 1013 1014
f 987 1014 988
f 988 1014 1015
f 988 1015 14
f 38 37 94
f 94 37 1016
f 94 1016 989
f 989 1016 1017
f 989 1017 990
f 990 1017 1018
f 990 1018 991
f 991 1018 1019
f 991 1019 992
f 992 1019 1020
f 992 1020 993
f 993 1020 1021
f 993 1021 994
f 994 1021 1022
f 994 1022 995
f 995 1022 1023
f 995 1023 996
f 996 1023 1024
f 996 1024 997
f 997 1024 1025
f 997 1025 998
f 998 1025 1026
f 998 1026 999
f 999 1026 1027
f 999 1027 1000
f 1000 1027 1028
f 1000 1028 1001
f 1001 1028 1029
f 1001 1029 1002
f 1002 1029 1030
f 1002 1030 1003
f 1003 1030 1031
f 1003 1031 1004
f 1004 1031 1032
f 1004 1032 1005
f 1005 1032 1033
f 1005 1033 1006
f 1006 1033 1034
f 1006 1034 1007
f 1007 1034 1035
f 1007 1035 1008
f 1008 1035 1036
f 1008 1036 1009
f 1009 1036 1037
f 1009 1037 1010
f 1010 1037 1038
f 1010 1038 1011
f 1011 1038 1039
f 1011 1039 1012
f 1012 1039 1040
f 1012 1040 1013
f 1013 1040 1041
f 1013 1041 1014
f 1014 1041 1042
f 1014 1042 1015
f 1015 1042 1043
f 1015 1043 14
f 36 95 37
f 37 95 1044
f 37 1044 1016
f 1016 1044 1045
f 1016 1045 1017
f 1017 1045 1046
f 1017 1046 1018
f 1018 1046 1047
f 1018 1047 1019
f 1019 1047 1048
f 1019 1048 1020
f 1020 1048 1049
f 1020 1049 1021
f 1021 1049 1050
f 1021 1050 1022
f 1022 1050 1051
f 1022 1051 1023
f 1023 1051 1052
f 1023 1052 1024
f 1024 1052 1053
f 1024 1053 1025
f 1025 1053 1054
f 1025 1054 1026
f 1026 1054 1055
f 1026 1055 1027
f 1027 1055 1056
f 1027 1056 1028
f 1028 1056 1057
f 1028 1057 1029
f 1029 1057 1058
f 1029 1058 1030
f 1030 1058 1059
f 1030 1059 1031
f 1031 1059 1060
f 1031 1060 1032
f 1032 1060 1061
f 1032 1061 1033
f 1033 1061 1062
f 1033 1062 1034
f 1034 1062 1063
f 1034 1063 1035
f 1035 1063 1064
f 1035 1064 1036
f 1036 1064 1065
f 1036 1065 1037
f 1037 1065 1066
f 1037 1066 1038
f 1038 1066 1067
f 1038 1067 1039
f 1039 1067 1068
f 1039 1068 1040
f 1040 1068 1069
f 1040 1069 1041
f 1041 1069 1070
f 1041 1070 1042
f 1042 1070 1071
f 1042 1071 1043
f 1043 1071 1072
f 1043 1072 14
f 35 34 95
f 95 34 1073
f 95 1073 1044
f 1044 1073 1074
f 1044 1074 1045
f 1045 1074 1075
f 1045 1075 1046
f 1046 1075 1076
f 1046 1076 1047
f 1047 1076 1077
f 1047 1077 1048
f 1048 1077 1078
f 1048 1078 1049
f 1049 1078 1079
f 1049 1079 1050
f 1050 1079 1080
f 1050 1080 1051
f 1051 1080 1081
f 1051 1081 1052
f 1052 1081 1082
f 1052 1082 1053
f 1053 1082 1083
f 1053 1083 1054
f 1054 1083 1084
f 1054 1084 1055
f 1055 1084 1085
f 1055 1085 1056
f 1056 1085 1086
f 1056 1086 1057
f 1057 1086 1087
f 1057 1087 1058
f 1058 1087 1088
f 1058 1088 1059
f 1059 1088 1089
f 1059 1089 1060
f 1060 1089 1090
f 1060 1090 1061
f 1061 1090 1091
f 1061 1091 1062
f 1062 1091 1092
f 1062 1092 1063
f 1063 1092 1093
f 1063 1093 1064
f 1064 1093 1094
f 1064 1094 1065
f 1065 1094 1095
f 1065 1095 1066
f 1066 1095 1096
f 1066 1096 1067
f 1067 1096 1097
f 1067 1097 1068
f 1068 1097 1098
f 1068 1098 1069
f 1069 1098 1099
f 1069 1099 1070
f 1070 1099 1100
f 1070 1100 1071
f 1071 1100 1101
f 1071 1101 1072
f 1072 1101 1102
f 1072 1102 14
f 33 1 34
f 34 1 1103
f 34 1103 1073
f 1073 1103 1104
f 1073 1104 1074
f 1074 1104 1105
f 1074 1105 1075
f 1075 1105 1106
f 1075 1106 1076
f 1076 1106 1107
f 1076 1107 1077
f 1077 1107 1108
f 1077 1108 1078
f 1078 1108 1109
f 1078 1109 1079
f 1079 1109 1110
f 1079 1110 1080
f 1080 1110 1111
f 1080 1111 1081
f 1081 1111 1112
f 1081 1112 1082
f 1082 1112 1113
f 1082 1113 1083
f 1083 1113 1114
f 1083 1114 1084
f 1084 1114 1115
f 1084 1115 1085
f 1085 1115 1116
f 1085 1116 1086
f 1086 1116 1117
f 1086 1117 1087
f 1087 1117 1118
f 1087 1118 1088
f 1088 1118 1119
f 1088 1119 1089
f 1089 1119 1120
f 1089 1120 1090
f 1090 1120 1121
f 1090 1121 1091
f 1091 1121 1122
f 1091 1122 1092
f 1092 1122 1123
f 1092 1123 1093
f 1093 1123 1124
f 1093 1124 1094
f 1094 1124 1125
f 1094 1125 1095
f 1095 1125 1126
f 1095 1126 1096
f 1096 1126 1127
f 1096 1127 1097
f 1097 1127 1128
f 1097 1128 1098
f 1098 1128 1129
f 1098 1129 1099
f 1099 1129 1130
f 1099 1130 1100
f 1100 1130 1131
f 1100 1131 1101
f 1101 1131 1132
f 1101 1132 1102
f 1102 1132 1133
f 1102 1133 14
f 1134 446 1135
f 1135 446 447
f 1135 447 1136
f 1136 447 448
f 1136 448 1137
f 1137 448 449
f 1137 449 1138
f 1138 449 450
f 1138 450 1139
f 1139 450 451
f 1139 451 1140
f 1140 451 452
f 1140 452 1141
f 1141 452 453
f 1141 453 1142
f 1142 453 454
f 1142 454 1143
f 1143 454 455
f 1143 455 1144
f 1144 455 456
f 1144 456 1145
f 1145 456 457
f 1145 457 1146
f 1146 457 458
f 1146 458 1147
f 1147 458 459
f 1147 459 1148
f 1148 459 460
f 1148 460 1149
f 1149 460 461
f 1149 461 1150
f 1150 461 462
f 1150 462 1151
f 1151 462 463
f 1151 463 1152
f 1152 463 2
f 1153 1134 1154
f 1154 1134 1135
f 1154 1135 1155
f 1155 1135 1136
f 1155 1136 1156
f 1156 1136 1137
f 1156 1137 1157
f 1157 1137 1138
f 1157 1138 1158
f 1158 1138 1139
f 1158 1139 1159
f 1159 1139 1140
f 1159 1140 1160
f 1160 1140 1141
f 1160 1141 1161
f 1161 1141 1142
f 1161 1142 1162
f 1162 1142 1143
f 1162 1143 1163
f 1163 1143 1144
f 1163 1144 1164
f 1164 1144 1145
f 1164 1145 1165
f 1165 1145 1146
f 1165 1146 1166
f 1166 1146 1147
f 1166 1147 1167
f 1167 1147 1148
f 1167 1148 1168
f 1168 1148 1149
f 1168 1149 1169
f 1169 1149 1150
f 1169 1150 1170
f 1170 1150 1151
f 1170 1151 1171
f 1171 1151 1152
f 1171 1152 1172
f 1172 1152 2
f 3 2 97
f 1173 1153 1174
f 1174 1153 1154
f 1174 1154 1175
f 1175 1154 1155
f 1175 1155 1176
f 1176 1155 1156
f 1176 1156 1177
f 1177 1156 1157
f 1177 1157 1178
f 1178 1157 1158
f 1178 1158 1179
f 1179 1158 1159
f 1179 1159 1180
f 1180 1159 1160
f 1180 1160 1181
f 1181 1160 1161
f 1181 1161 1182
f 1182 1161 1162
f 1182 1162 1183
f 1183 1162 1163
f 1183 1163 1184
f 1184 1163 1164
f 1184 1164 1185
f 1185 1164 1165
f 1185 1165 1186
f 1186 1165 1166
f 1186 1166 1187
f 1187 1166 1167
f 1187 1167 1188
f 1188 1167 1168
f 1188 1168 1189
f 1189 1168 1169
f 1189 1169 1190
f 1190 1169 1170
f 1190 1170 1191
f 1191 1170 1171
f 1191 1171 1192
f 1192 1171 1172
f 1192 1172 1193
f 1193 1172 2
f 1194 1173 1195
f 1195 1173 1174
f 1195 1174 1196
f 1196 1174 1175
f 1196 1175 1197
f 1197 1175 1176
f 1197 1176 1198
f 1198 1176 1177
f 1198 1177 1199
f 1199 1177 1178
f 1199 1178 1200
f 1200 1178 1179
f 1200 1179 1201
f 1201 1179 1180
f 1201 1180 1202
f 1202 1180 1181
f 1202 1181 1203
f 1203 1181 1182
f 1203 1182 1204
f 1204 1182 1183
f 1204 1183 1205
f 1205 1183 1184
f 1205 1184 1206
f 1206 1184 1185
f 1206 1185 1207
f 1207 1185 1186
f 1207 1186 1208
f 1208 1186 1187
f 1208 1187 1209
f 1209 1187 1188
f 1209 1188 1210
f 1210 1188 1189
f 1210 1189 1211
f 1211 1189 1190
f 1211 1190 1212
f 1212 1190 1191
f 1212 1191 1213
f 1213 1191 1192
f 1213 1192 1214
f 1214 1192 1193
f 1214 1193 1215
f 1215 1193 2
f 1216 1194 1217
f 1217 1194 1195
f 1217 1195 1218
f 1218 1195 1196
f 1218 1196 1219
f 1219 1196 1197
f 1219 1197 1220
f 1220 1197 1198
f 1220 1198 1221
f 1221 1198 1199
f 1221 1199 1222
f 1222 1199 1200
f 1222 1200 1223
f 1223 1200 1201
f 1223 1201 1224
f 1224 1201 1202
f 1224 1202 1225
f 1225 1202 1203
f 1225 1203 1226
f 1226 1203 1204
f 1226 1204 1227
f 1227 1204 1205
f 1227 1205 1228
f 1228 1205 1206
f 1228 1206 1229
f 1229 1206 1207
f 1229 1207 1230
f 1230 1207 1208
f 1230 1208 1231
f 1231 1208 1209
f 1231 1209 1232
f 1232 1209 1210
f 1232 1210 1233
f 1233 1210 1211
f 1233 1211 1234
f 1234 1211 1212
f 1234 1212 1235
f 1235 1212 1213
f 1235 1213 1236
f 1236 1213 1214
f 1236 1214 1237
f 1237 1214 1215
f 1237 1215 1238
f 1238 1215 2
f 1239 1216 1240
f 1240 1216 1217
f 1240 1217 1241
f 1241 1217 1218
f 1241 1218 1242
f 1242 1218 1219
f 1242 1219 1243
f 1243 1219 1220
f 1243 1220 1244
f 1244 1220 1221
f 1244 1221 1245
f 1245 1221 1222
f 1245 1222 1246
f 1246 1222 1223
f 1246 1223 1247
f 1247 1223 1224
f 1247 1224 1248
f 1248 1224 1225
f 1248 1225 1249
f 1249 1225 1226
f 1249 1226 1250
f 1250 1226 1227
f 1250 1227 1251
f 1251 1227 1228
f 1251 1228 1252
f 1252 1228 1229
f 1252 1229 1253
f 1253 1229 1230
f 1253 1230 1254
f 1254 1230 1231
f 1254 1231 1255
f 1255 1231 1232
f 1255 1232 1256
f 1256 1232 1233
f 1256 1233 1257
f 1257 1233 1234
f 1257 1234 1258
f 1258 1234 1235
f 1258 1235 1259
f 1259 1235 1236
f 1259 1236 1260
f 1260 1236 1237
f 1260 1237 1261
f 1261 1237 1238
f 1261 1238 1262
f 1262 1238 2
f 1263 1239 1264
f 1264 1239 1240
f 1264 1240 1265
f 1265 1240 1241
f 1265 1241 1266
f 1266 1241 1242
f 1266 1242 1267
f 1267 1242 1243
f 1267 1243 1268
f 1268 1243 1244
f 1268 1244 1269
f 1269 1244 1245
f 1269 1245 1270
f 1270 1245 1246
f 1270 1246 1271
f 1271 1246 1247
f 1271 1247 1272
f 1272 1247 1248
f 1272 1248 1273
f 1273 1248 1249
f 1273 1249 1274
f 1274 1249 1250
f 1274 1250 1275
f 1275 1250 1251
f 1275 1251 1276
f 1276 1251 1252
f 1276 1252 1277
f 1277 1252 1253
f 1277 1253 1278
f 1278 1253 1254
f 1278 1254 1279
f 1279 1254 1255
f 1279 1255 1280
f 1280 1255 1256
f 1280 1256 1281
f 1281 1256 1257
f 1281 1257 1282
f 1282 1257 1258
f 1282 1258 1283
f 1283 1258 1259
f 1283 1259 1284
f 1284 1259 1260
f 1284 1260 1285
f 1285 1260 1261
f 1285 1261 1286
f 1286 1261 1262
f 1286 1262 1287
f 1287 1262 2
f 1288 1263 1289
f 1289 1263 1264
f 1289 1264 1290
f 1290 1264 1265
f 1290 1265 1291
f 1291 1265 1266
f 1291 1266 1292
f 1292 1266 1267
f 1292 1267 1293
f 1293 1267 1268
f 1293 1268 1294
f 1294 1268 1269
f 1294 1269 1295
f 1295 1269 1270
f 1295 1270 1296
f 1296 1270 1271
f 1296 1271 1297
f 1297 1271 1272
f 1297 1272 1298
f 1298 1272 1273
f 1298 1273 1299
f 1299 1273 1274
f 1299 1274 1300
f 1300 1274 1275
f 1300 1275 1301
f 1301 1275 1276
f 1301 1276 1302
f 1302 1276 1277
f 1302 1277 1303
f 1303 1277 1278
f 1303 1278 1304
f 1304 1278 1279
f 1304 1279 1305
f 1305 1279 1280
f 1305 1280 1306
f 1306 1280 1281
f 1306 1281 1307
f 1307 1281 1282
f 1307 1282 1308
f 1308 1282 1283
f 1308 1283 1309
f 1309 1283 1284
f 1309 1284 1310
f 1310 1284 1285
f 1310 1285 1311
f 1311 1285 1286
f 1311 1286 1312
f 1312 1286 1287
f 1312 1287 1313
f 1313 1287 2
f 1314 1288 1315
f 1315 1288 1289
f 1315 1289 1316
f 1316 1289 1290
f 1316 1290 1317
f 1317 1290 1291
f 1317 1291 1318
f 1318 1291 1292
f 1318 1292 1319
f 1319 1292 1293
f 1319 1293 1320
f 1320 1293 1294
f 1320 1294 1321
f 1321 1294 1295
f 1321 1295 1322
f 1322 1295 1296
f 1322 1296 1323
f 1323 1296 1297
f 1323 1297 1324
f 1324 1297 1298
f 1324 1298 1325
f 1325 1298 1299
f 1325 1299 1326
f 1326 1299 1300
f 1326 1300 1327
f 1327 1300 1301
f 1327 1301 1328
f 1328 1301 1302
f 1328 1302 1329
f 1329 1302 1303
f 1329 1303 1330
f 1330 1303 1304
f 1330 1304 1331
f 1331 1304 1305
f 1331 1305 1332
f 1332 1305 1306
f 1332 1306 1333
f 1333 1306 1307
f 1333 1307 1334
f 1334 1307 1308
f 1334 1308 1335
f 1335 1308 1309
f 1335 1309 1336
f 1336 1309 1310
f 1336 1310 1337
f 1337 1310 1311
f 1337 1311 1338
f 1338 1311 1312
f 1338 1312 1339
f 1339 1312 1313
f 1339 1313 1340
f 1340 1313 2
f 1341 1314 1342
f 1342 1314 1315
f 1342 1315 1343
f 1343 1315 1316
f 1343 1316 1344
f 1344 1316 1317
f 1344 1317 1345
f 1345 1317 1318
f 1345 1318 1346
f 1346 1318 1319
f 1346 1319 1347
f 1347 1319 1320
f 1347 1320 1348
f 1348 1320 1321
f 1348 1321 1349
f 1349 1321 1322
f 1349 1322 1350
f 1350 1322 1323
f 1350 1323 1351
f 1351 1323 1324
f 1351 1324 1352
f 1352 1324 1325
f 1352 1325 1353
f 1353 1325 1326
f 1353 1326 1354
f 1354 1326 1327
f 1354 1327 1355
f 1355 1327 1328
f 1355 1328 1356
f 1356 1328 1329
f 1356 1329 1357
f 1357 1329 1330
f 1357 1330 1358
f 1358 1330 1331
f 1358 1331 1359
f 1359 1331 1332
f 1359 1332 1360
f 1360 1332 1333
f 1360 1333 1361
f 1361 1333 1334
f 1361 1334 1362
f 1362 1334 1335
f 1362 1335 1363
f 1363 1335 1336
f 1363 1336 1364
f 1364 1336 1337
f 1364 1337 1365
f 1365 1337 1338
f 1365 1338 1366
f 1366 1338 1339
f 1366 1339 1367
f 1367 1339 1340
f 1367 1340 1368
f 1368 1340 2
f 1369 1341 1370
f 1370 1341 1342
f 1370 1342 1371
f 1371 1342 1343
f 1371 1343 1372
f 1372 1343 1344
f 1372 1344 1373
f 1373 1344 1345
f 1373 1345 1374
f 1374 1345 1346
f 1374 1346 1375
f 1375 1346 1347
f 1375 1347 1376
f 1376 1347 1348
f 1376 1348 1377
f 1377 1348 1349
f 1377 1349 1378
f 1378 1349 1350
f 1378 1350 1379
f 1379 1350 1351
f 1379 1351 1380
f 1380 1351 1352
f 1380 1352 1381
f 1381 1352 1353
f 1381 1353 1382
f 1382 1353 1354
f 1382 1354 1383
f 1383 1354 1355
f 1383 1355 1384
f 1384 1355 1356
f 1384 1356 1385
f 1385 1356 1357
f 1385 1357 1386
f 1386 1357 1358
f 1386 1358 1387
f 1387 1358 1359
f 1387 1359 1388
f 1388 1359 1360
f 1388 1360 1389
f 1389 1360 1361
f 1389 1361 1390
f 1390 1361 1362
f 1390 1362 1391
f 1391 1362 1363
f 1391 1363 1392
f 1392 1363 1364
f 1392 1364 1393
f 1393 1364 1365
f 1393 1365 1394
f 1394 1365 1366
f 1394 1366 1395
f 1395 1366 1367
f 1395 1367 1396
f 1396 1367 1368
f 1396 1368 1397
f 1397 1368 2
f 1398 1369 1399
f 1399 1369 1370
f 1399 1370 1400
f 1400 1370 1371
f 1400 1371 1401
f 1401 1371 1372
f 1401 1372 1402
f 1402 1372 1373
f 1402 1373 1403
f 1403 1373 1374
f 1403 1374 1404
f 1404 1374 1375
f 1404 1375 1405
f 1405 1375 1376
f 1405 1376 1406
f 1406 1376 1377
f 1406 1377 1407
f 1407 1377 1378
f 1407 1378 1408
f 1408 1378 1379
f 1408 1379 1409
f 1409 1379 1380
f 1409 1380 1410
f 1410 1380 1381
f 1410 1381 1411
f 1411 1381 1382
f 1411 1382 1412
f 1412 1382 1383
f 1412 1383 1413
f 1413 1383 1384
f 1413 1384 1414
f 1414 1384 1385
f 1414 1385 1415
f 1415 1385 1386
f 1415 1386 1416
f 1416 1386 1387
f 1416 1387 1417
f 1417 1387 1388
f 1417 1388 1418
f 1418 1388 1389
f 1418 1389 1419
f 1419 1389 1390
f 1419 1390 1420
f 1420 1390 1391
f 1420 1391 1421
f 1421 1391 1392
f 1421 1392 1422
f 1422 1392 1393
f 1422 1393 1423
f 1423 1393 1394
f 1423 1394 1424
f 1424 1394 1395
f 1424 1395 1425
f 1425 1395 1396
f 1425 1396 1426
f 1426 1396 1397
f 1426 1397 1427
f 1427 1397 2
f 1428 1398 1429
f 1429 1398 1399
f 1429 1399 1430
f 1430 1399 1400
f 1430 1400 1431
f 1431 1400 1401
f 1431 1401 1432
f 1432 1401 1402
f 1432 1402 1433
f 1433 1402 1403
f 1433 1403 1434
f 1434 1403 1404
f 1434 1404 1435
f 1435 1404 1405
f 1435 1405 1436
f 1436 1405 1406
f 1436 1406 1437
f 1437 1406 1407
f 1437 1407 1438
f 1438 1407 1408
f 1438 1408 1439
f 1439 1408 1409
f 1439 1409 1440
f 1440 1409 1410
f 1440 1410 1441
f 1441 1410 1411
f 1441 1411 1442
f 1442 1411 1412
f 1442 1412 88
f 88 1412 1413
f 88 1413 86
f 86 1413 1414
f 86 1414 84
f 84 1414 1415
f 84 1415 82
f 82 1415 1416
f 82 1416 80
f 80 1416 1417
f 80 1417 78
f 78 1417 1418
f 78 1418 76
f 76 1418 1419
f 76 1419 74
f 74 1419 1420
f 74 1420 72
f 72 1420 1421
f 72 1421 70
f 70 1421 1422
f 70 1422 68
f 68 1422 1423
f 68 1423 66
f 66 1423 1424
f 66 1424 64
f 64 1424 1425
f 64 1425 62
f 62 1425 1426
f 62 1426 60
f 60 1426 1427
f 60 1427 58
f 58 1427 2
f 1443 1428 1444
f 1444 1428 1429
f 1444 1429 1445
f 1445 1429 1430
f 1445 1430 1446
f 1446 1430 1431
f 1446 1431 1447
f 1447 1431 1432
f 1447 1432 1448
f 1448 1432 1433
f 1448 1433 1449
f 1449 1433 1434
f 1449 1434 1450
f 1450 1434 1435
f 1450 1435 1451
f 1451 1435 1436
f 1451 1436 1452
f 1452 1436 1437
f 1452 1437 1453
f 1453 1437 1438
f 1453 1438 1454
f 1454 1438 1439
f 1454 1439 1455
f 1455 1439 1440
f 1455 1440 1456
f 1456 1440 1441
f 1456 1441 1457
f 1457 1441 1442
f 1457 1442 1458
f 1458 1442 88
f 1458 88 1459
f 1459 88 87
f 1459 87 1460
f 1460 87 85
f 1460 85 1461
f 1461 85 83
f 1461 83 1462
f 1462 83 81
f 1462 81 1463
f 1463 81 79
f 1463 79 1464
f 1464 79 77
f 1464 77 1465
f 1465 77 75
f 1465 75 1466
f 1466 75 73
f 1466 73 1467
f 1467 73 71
f 1467 71 1468
f 1468 71 69
f 1468 69 1469
f 1469 69 67
f 1469 67 1470
f 1470 67 65
f 1470 65 1471
f 1471 65 63
f 1471 63 1472
f 1472 63 61
f 1472 61 1473
f 1473 61 59
f 1473 59 1474
f 1474 59 57
f 1474 57 1475
f 1475 57 2
f 14 1443 1476
f 1476 1443 1444
f 1476 1444 1477
f 1477 1444 1445
f 1477 1445 1478
f 1478 1445 1446
f 1478 1446 1479
f 1479 1446 1447
f 1479 1447 1480
f 1480 1447 1448
f 1480 1448 1481
f 1481 1448 1449
f 1481 1449 1482
f 1482 1449 1450
f 1482 1450 1483
f 1483 1450 1451
f 1483 1451 1484
f 1484 1451 1452
f 1484 1452 1485
f 1485 1452 1453
f 1485 1453 1486
f 1486 1453 1454
f 1486 1454 1487
f 1487 1454 1455
f 1487 1455 1488
f 1488 1455 1456
f 1488 1456 1489
f 1489 1456 1457
f 1489 1457 1490
f 1490 1457 1458
f 1490 1458 1491
f 1491 1458 1459
f 1491 1459 1492
f 1492 1459 1460
f 1492 1460 1493
f 1493 1460 1461
f 1493 1461 1494
f 1494 1461 1462
f 1494 1462 1495
f 1495 1462 1463
f 1495 1463 1496
f 1496 1463 1464
f 1496 1464 1497
f 1497 1464 1465
f 1497 1465 1498
f 1498 1465 1466
f 1498 1466 1499
f 1499 1466 1467
f 1499 1467 1500
f 1500 1467 1468
f 1500 1468 1501
f 1501 1468 1469
f 1501 1469 1502
f 1502 1469 1470
f 1502 1470 1503
f 1503 1470 1471
f 1503 1471 1504
f 1504 1471 1472
f 1504 1472 1505
f 1505 1472 1473
f 1505 1473 1506
f 1506 1473 1474
f 1506 1474 1507
f 1507 1474 1475
f 1507 1475 1508
f 1508 1475 2
f 14 1476 353
f 353 1476 1477
f 353 1477 354
f 354 1477 1478
f 354 1478 355
f 355 1478 1479
f 355 1479 356
f 356 1479 1480
f 356 1480 357
f 357 1480 1481
f 357 1481 358
f 358 1481 1482
f 358 1482 359
f 359 1482 1483
f 359 1483 360
f 360 1483 1484
f 360 1484 361
f 361 1484 1485
f 361 1485 6
f 6 1485 1486
f 6 1486 4
f 4 1486 1487
f 4 1487 464
f 464 1487 1488
f 464 1488 465
f 465 1488 1489
f 465 1489 466
f 466 1489 1490
f 466 1490 467
f 467 1490 1491
f 467 1491 468
f 468 1491 1492
f 468 1492 410
f 410 1492 1493
f 410 1493 412
f 412 1493 1494
f 412 1494 414
f 414 1494 1495
f 414 1495 416
f 416 1495 1496
f 416 1496 418
f 418 1496 1497
f 418 1497 420
f 420 1497 1498
f 420 1498 422
f 422 1498 1499
f 422 1499 424
f 424 1499 1500
f 424 1500 426
f 426 1500 1501
f 426 1501 428
f 428 1501 1502
f 428 1502 430
f 430 1502 1503
f 430 1503 432
f 432 1503 1504
f 432 1504 434
f 434 1504 1505
f 434 1505 436
f 436 1505 1506
f 436 1506 438
f 438 1506 1507
f 438 1507 440
f 440 1507 1508
f 440 1508 442
f 442 1508 2
f 1 3 1103
f 1103 3 96
f 1103 96 1104
f 1104 96 100
f 1104 100 1105
f 1105 100 104
f 1105 104 1106
f 1106 104 109
f 1106 109 1107
f 1107 109 115
f 1107 115 1108
f 1108 115 122
f 1108 122 1109
f 1109 122 130
f 1109 130 1110
f 1110 130 139
f 1110 139 1111
f 1111 139 149
f 1111 149 1112
f 1112 149 160
f 1112 160 1113
f 1113 160 172
f 1113 172 1114
f 1114 172 185
f 1114 185 1115
f 1115 185 199
f 1115 199 1116
f 1116 199 214
f 1116 214 1117
f 1117 214 230
f 1117 230 1118
f 1118 230 247
f 1118 247 1119
f 1119 247 446
f 1119 446 1120
f 1120 446 1134
f 1120 1134 1121
f 1121 1134 1153
f 1121 1153 1122
f 1122 1153 1173
f 1122 1173 1123
f 1123 1173 1194
f 1123 1194 1124
f 1124 1194 1216
f 1124 1216 1125
f 1125 1216 1239
f 1125 1239 1126
f 1126 1239 1263
f 1126 1263 1127
f 1127 1263 1288
f 1127 1288 1128
f 1128 1288 1314
f 1128 1314 1129
f 1129 1314 1341
f 1129 1341 1130
f 1130 1341 1369
f 1130 1369 1131
f 1131 1369 1398
f 1131 1398 1132
f 1132 1398 1428
f 1132 1428 1133
f 1133 1428 1443
f 1133 1443 14
f 33 2 1
f 14 697 369
f 369 697 698
f 369 698 371
f 371 698 699
f 371 699 373
f 373 699 700
f 373 700 375
f 375 700 701
f 375 701 377
f 377 701 702
f 377 702 379
f 379 702 703
f 379 703 381
f 381 703 704
f 381 704 383
f 383 704 705
f 383 705 385
f 385 705 706
f 385 706 387
f 387 706 707
f 387 707 389
f 389 707 708
f 389 708 391
f 391 708 709
f 391 709 393
f 393 709 710
f 393 710 395
f 395 710 711
f 395 711 397
f 397 711 712
f 397 712 445
f 445 712 713
f 445 713 56
f 56 713 714
f 56 714 54
f 54 714 715
f 54 715 53
f 53 715 716
f 53 716 51
f 51 716 717
f 51 717 50
f 50 717 718
f 50 718 48
f 48 718 719
f 48 719 47
f 47 719 720
f 47 720 45
f 45 720 721
f 45 721 44
f 44 721 722
f 44 722 42
f 42 722 723
f 42 723 41
f 41 723 724
f 41 724 39
f 39 724 725
f 39 725 38
f 38 725 726
f 38 726 36
f 36 726 727
f 36 727 35
f 35 727 728
f 35 728 33
f 33 728 2
f 362 347 363
f 363 347 7
f 363 7 364
f 364 7 9
f 364 9 365
f 365 9 10
f 365 10 366
f 366 10 12
f 366 12 367
f 367 12 15
f 367 15 368
f 368 15 14
f 6 5 346
f 346 5 398
f 346 398 345
f 345 398 469
f 345 469 362
f 362 469 494
f 362 494 347
f 347 494 520
f 347 520 348
f 348 520 547
f 348 547 349
f 349 547 575
f 349 575 350
f 350 575 604
f 350 604 351
f 351 604 634
f 351 634 352
f 352 634 665
f 352 665 14
